G04*
G04 #@! TF.GenerationSoftware,Altium Limited,Altium Designer,19.0.7 (175)*
G04*
G04 Layer_Color=16711935*
%FSLAX25Y25*%
%MOIN*%
G70*
G01*
G75*
%ADD12C,0.02362*%
%ADD13R,0.00787X0.00787*%
%ADD14R,0.00787X0.00787*%
G04:AMPARAMS|DCode=16|XSize=69.94mil|YSize=353.94mil|CornerRadius=0mil|HoleSize=0mil|Usage=FLASHONLY|Rotation=0.000|XOffset=0mil|YOffset=0mil|HoleType=Round|Shape=Octagon|*
%AMOCTAGOND16*
4,1,8,-0.01748,0.17697,0.01748,0.17697,0.03497,0.15948,0.03497,-0.15948,0.01748,-0.17697,-0.01748,-0.17697,-0.03497,-0.15948,-0.03497,0.15948,-0.01748,0.17697,0.0*
%
%ADD16OCTAGOND16*%

%ADD17C,0.08268*%
%ADD18R,0.05906X0.10236*%
%ADD19O,0.05906X0.10236*%
%ADD20C,0.02756*%
G04:AMPARAMS|DCode=37|XSize=62.99mil|YSize=49.21mil|CornerRadius=14.27mil|HoleSize=0mil|Usage=FLASHONLY|Rotation=90.000|XOffset=0mil|YOffset=0mil|HoleType=Round|Shape=RoundedRectangle|*
%AMROUNDEDRECTD37*
21,1,0.06299,0.02067,0,0,90.0*
21,1,0.03445,0.04921,0,0,90.0*
1,1,0.02854,0.01034,0.01722*
1,1,0.02854,0.01034,-0.01722*
1,1,0.02854,-0.01034,-0.01722*
1,1,0.02854,-0.01034,0.01722*
%
%ADD37ROUNDEDRECTD37*%
G04:AMPARAMS|DCode=38|XSize=59.06mil|YSize=41.34mil|CornerRadius=11.32mil|HoleSize=0mil|Usage=FLASHONLY|Rotation=90.000|XOffset=0mil|YOffset=0mil|HoleType=Round|Shape=RoundedRectangle|*
%AMROUNDEDRECTD38*
21,1,0.05906,0.01870,0,0,90.0*
21,1,0.03642,0.04134,0,0,90.0*
1,1,0.02264,0.00935,0.01821*
1,1,0.02264,0.00935,-0.01821*
1,1,0.02264,-0.00935,-0.01821*
1,1,0.02264,-0.00935,0.01821*
%
%ADD38ROUNDEDRECTD38*%
G04:AMPARAMS|DCode=39|XSize=62.99mil|YSize=49.21mil|CornerRadius=14.27mil|HoleSize=0mil|Usage=FLASHONLY|Rotation=180.000|XOffset=0mil|YOffset=0mil|HoleType=Round|Shape=RoundedRectangle|*
%AMROUNDEDRECTD39*
21,1,0.06299,0.02067,0,0,180.0*
21,1,0.03445,0.04921,0,0,180.0*
1,1,0.02854,-0.01722,0.01034*
1,1,0.02854,0.01722,0.01034*
1,1,0.02854,0.01722,-0.01034*
1,1,0.02854,-0.01722,-0.01034*
%
%ADD39ROUNDEDRECTD39*%
G04:AMPARAMS|DCode=40|XSize=100.39mil|YSize=161.42mil|CornerRadius=26.08mil|HoleSize=0mil|Usage=FLASHONLY|Rotation=0.000|XOffset=0mil|YOffset=0mil|HoleType=Round|Shape=RoundedRectangle|*
%AMROUNDEDRECTD40*
21,1,0.10039,0.10925,0,0,0.0*
21,1,0.04823,0.16142,0,0,0.0*
1,1,0.05217,0.02411,-0.05463*
1,1,0.05217,-0.02411,-0.05463*
1,1,0.05217,-0.02411,0.05463*
1,1,0.05217,0.02411,0.05463*
%
%ADD40ROUNDEDRECTD40*%
D12*
X96850Y-196555D02*
X96406Y-195632D01*
X95407Y-195404D01*
X94605Y-196043D01*
Y-197068D01*
X95407Y-197707D01*
X96406Y-197478D01*
X96850Y-196555D01*
X316831Y-200000D02*
X316386Y-199077D01*
X315387Y-198848D01*
X314585Y-199487D01*
Y-200513D01*
X315387Y-201151D01*
X316386Y-200923D01*
X316831Y-200000D01*
X326772Y-200020D02*
X326327Y-199096D01*
X325328Y-198868D01*
X324526Y-199507D01*
Y-200532D01*
X325328Y-201171D01*
X326327Y-200943D01*
X326772Y-200020D01*
X286850Y-196555D02*
X286406Y-195632D01*
X285406Y-195404D01*
X284605Y-196043D01*
Y-197068D01*
X285406Y-197707D01*
X286406Y-197478D01*
X286850Y-196555D01*
X296850D02*
X296406Y-195632D01*
X295407Y-195404D01*
X294605Y-196043D01*
Y-197068D01*
X295407Y-197707D01*
X296406Y-197478D01*
X296850Y-196555D01*
X306850D02*
X306406Y-195632D01*
X305406Y-195404D01*
X304605Y-196043D01*
Y-197068D01*
X305406Y-197707D01*
X306406Y-197478D01*
X306850Y-196555D01*
X336850Y-200000D02*
X336406Y-199077D01*
X335406Y-198848D01*
X334605Y-199487D01*
Y-200513D01*
X335406Y-201151D01*
X336406Y-200923D01*
X336850Y-200000D01*
D13*
X314173D02*
D03*
X304193Y-196555D02*
D03*
D14*
X95669Y-198031D02*
D03*
X325590Y-201496D02*
D03*
X285669Y-198031D02*
D03*
X295669D02*
D03*
X335669Y-201476D02*
D03*
D16*
Y-231102D02*
D03*
X325669D02*
D03*
X315669D02*
D03*
X305669D02*
D03*
X295669D02*
D03*
X285669D02*
D03*
X275669D02*
D03*
X265669D02*
D03*
X255669D02*
D03*
X245669D02*
D03*
X235669D02*
D03*
X225669D02*
D03*
X215669D02*
D03*
X205669D02*
D03*
X195669D02*
D03*
X185669D02*
D03*
X175669D02*
D03*
X165669D02*
D03*
X155669D02*
D03*
X145669D02*
D03*
X135669D02*
D03*
X125669D02*
D03*
X115669D02*
D03*
X105669D02*
D03*
X95669D02*
D03*
D17*
X351024Y-128740D02*
D03*
X361024D02*
D03*
X371024D02*
D03*
X381024D02*
D03*
Y-138679D02*
D03*
X371198Y-139205D02*
D03*
X361024Y-139142D02*
D03*
X351024Y-138679D02*
D03*
X381024Y-148723D02*
D03*
X371024Y-148740D02*
D03*
X361024Y-148723D02*
D03*
X351024Y-148740D02*
D03*
Y-108740D02*
D03*
X361024D02*
D03*
X371024D02*
D03*
X381024Y-108858D02*
D03*
Y-118740D02*
D03*
X371024D02*
D03*
X361024D02*
D03*
X351024Y-119045D02*
D03*
X130091Y-9449D02*
D03*
X284646Y-26772D02*
D03*
X274157Y-11811D02*
D03*
X284646Y-16535D02*
D03*
Y-6693D02*
D03*
X97244Y-9528D02*
D03*
X107244D02*
D03*
X117244D02*
D03*
Y-19464D02*
D03*
X107244Y-19523D02*
D03*
X97244D02*
D03*
Y-39528D02*
D03*
X107418Y-39521D02*
D03*
X117244Y-39528D02*
D03*
Y-29528D02*
D03*
X107418D02*
D03*
X97244D02*
D03*
X97418Y-69528D02*
D03*
X107418D02*
D03*
X117244D02*
D03*
Y-79528D02*
D03*
X107418Y-79521D02*
D03*
X97244Y-79456D02*
D03*
X97418Y-59464D02*
D03*
X107418Y-59528D02*
D03*
X117244D02*
D03*
Y-49528D02*
D03*
X107418D02*
D03*
X97244Y-49575D02*
D03*
Y-109528D02*
D03*
X107244D02*
D03*
X117244Y-109646D02*
D03*
Y-119528D02*
D03*
X107244D02*
D03*
X97244D02*
D03*
Y-99606D02*
D03*
X107418D02*
D03*
X117244Y-99528D02*
D03*
Y-89507D02*
D03*
X107418Y-89528D02*
D03*
X97244Y-89507D02*
D03*
X7323Y-9921D02*
D03*
X17323D02*
D03*
X27323D02*
D03*
X37323D02*
D03*
X47323D02*
D03*
Y-19921D02*
D03*
X37323D02*
D03*
X27323Y-19858D02*
D03*
X17323Y-20183D02*
D03*
X7323D02*
D03*
Y-40211D02*
D03*
X17323Y-40187D02*
D03*
X27323Y-39850D02*
D03*
X37323Y-39915D02*
D03*
X47323Y-39921D02*
D03*
Y-29921D02*
D03*
X37323D02*
D03*
X27323D02*
D03*
X17323D02*
D03*
X7323D02*
D03*
Y-69921D02*
D03*
X17323D02*
D03*
X27323D02*
D03*
X37323D02*
D03*
X47323D02*
D03*
Y-79921D02*
D03*
X37323Y-79915D02*
D03*
X27323Y-79850D02*
D03*
X17323Y-79921D02*
D03*
X7323D02*
D03*
Y-60183D02*
D03*
X17323D02*
D03*
X27323Y-59858D02*
D03*
X37323Y-59921D02*
D03*
X47323D02*
D03*
Y-49921D02*
D03*
X37323D02*
D03*
X27323D02*
D03*
X17323D02*
D03*
X7323D02*
D03*
Y-110039D02*
D03*
X17323Y-109921D02*
D03*
X27323D02*
D03*
X37323D02*
D03*
X47323D02*
D03*
Y-119921D02*
D03*
X37281D02*
D03*
X27323D02*
D03*
X17323D02*
D03*
X7323D02*
D03*
Y-100000D02*
D03*
X17323D02*
D03*
X27282Y-99921D02*
D03*
X37281Y-100000D02*
D03*
X47323Y-99921D02*
D03*
Y-89901D02*
D03*
X37281Y-89921D02*
D03*
X27323Y-89901D02*
D03*
X17323Y-89921D02*
D03*
X7323D02*
D03*
X57323D02*
D03*
X67323Y-89901D02*
D03*
X77497Y-89921D02*
D03*
X87323Y-89901D02*
D03*
Y-99921D02*
D03*
X77497Y-100000D02*
D03*
X67323D02*
D03*
X57323D02*
D03*
Y-120226D02*
D03*
X67323Y-119921D02*
D03*
X77323D02*
D03*
X87323D02*
D03*
Y-110039D02*
D03*
X77323Y-109921D02*
D03*
X67323D02*
D03*
X57323D02*
D03*
Y-49969D02*
D03*
X67323D02*
D03*
X77497Y-49921D02*
D03*
X87323D02*
D03*
Y-59921D02*
D03*
X77497D02*
D03*
X67497Y-59858D02*
D03*
X57497Y-60183D02*
D03*
X57323Y-79915D02*
D03*
X67323Y-79850D02*
D03*
X77497Y-79915D02*
D03*
X87323Y-79921D02*
D03*
Y-69921D02*
D03*
X77497D02*
D03*
X67497D02*
D03*
X57323D02*
D03*
Y-29921D02*
D03*
X67323D02*
D03*
X77497D02*
D03*
X87323D02*
D03*
Y-39921D02*
D03*
X77497Y-39915D02*
D03*
X67323Y-39921D02*
D03*
X57323D02*
D03*
Y-19917D02*
D03*
X67323D02*
D03*
X77323D02*
D03*
X87323Y-19858D02*
D03*
Y-9921D02*
D03*
X77323D02*
D03*
X67323D02*
D03*
X57323Y-9843D02*
D03*
X51085Y-168740D02*
D03*
X61085D02*
D03*
X71085D02*
D03*
X81085D02*
D03*
Y-178740D02*
D03*
X71085Y-178677D02*
D03*
X61085Y-179002D02*
D03*
X51085D02*
D03*
X81085Y-188740D02*
D03*
X71085D02*
D03*
X61085D02*
D03*
X51085D02*
D03*
X351024Y-158661D02*
D03*
X361024Y-158740D02*
D03*
X371024Y-158661D02*
D03*
X381024D02*
D03*
X351024Y-188740D02*
D03*
X361024D02*
D03*
X371024D02*
D03*
X381024Y-188798D02*
D03*
X351024Y-178740D02*
D03*
X361024D02*
D03*
X371024D02*
D03*
X381024D02*
D03*
Y-168665D02*
D03*
X371024D02*
D03*
X361024Y-168740D02*
D03*
X351451Y-168665D02*
D03*
X351024Y-8661D02*
D03*
X361024Y-8740D02*
D03*
X371024D02*
D03*
X381024D02*
D03*
Y-18677D02*
D03*
X371024Y-18736D02*
D03*
X361024D02*
D03*
X351024D02*
D03*
Y-38740D02*
D03*
X361024D02*
D03*
X371198Y-38734D02*
D03*
X381024Y-38740D02*
D03*
Y-28740D02*
D03*
X371198D02*
D03*
X361024D02*
D03*
X351024D02*
D03*
Y-68740D02*
D03*
X361198D02*
D03*
X371198D02*
D03*
X381024D02*
D03*
Y-78740D02*
D03*
X371198Y-78734D02*
D03*
X361024Y-78669D02*
D03*
X351024Y-78734D02*
D03*
X351198Y-59002D02*
D03*
X361198Y-58677D02*
D03*
X371198Y-58740D02*
D03*
X381024D02*
D03*
Y-48740D02*
D03*
X371198D02*
D03*
X361024Y-48788D02*
D03*
X351024D02*
D03*
Y-98819D02*
D03*
X361024D02*
D03*
X371198D02*
D03*
X381024Y-98740D02*
D03*
Y-88720D02*
D03*
X371198Y-88740D02*
D03*
X361024Y-88720D02*
D03*
X351024Y-88740D02*
D03*
X301024D02*
D03*
X311024D02*
D03*
X321024Y-88720D02*
D03*
X330982Y-88740D02*
D03*
X341024Y-88720D02*
D03*
Y-98740D02*
D03*
X330982Y-98819D02*
D03*
X320983Y-98740D02*
D03*
X311024Y-98819D02*
D03*
X301024D02*
D03*
Y-48740D02*
D03*
X311024D02*
D03*
X321024D02*
D03*
X331024D02*
D03*
X341024D02*
D03*
Y-58740D02*
D03*
X331024D02*
D03*
X321024Y-58677D02*
D03*
X311024Y-59002D02*
D03*
X301024D02*
D03*
Y-78740D02*
D03*
X311024D02*
D03*
X321024Y-78669D02*
D03*
X331024Y-78734D02*
D03*
X341024Y-78740D02*
D03*
Y-68740D02*
D03*
X331024D02*
D03*
X321024D02*
D03*
X311024D02*
D03*
X301024D02*
D03*
Y-28740D02*
D03*
X311024D02*
D03*
X321024D02*
D03*
X331024D02*
D03*
X341024D02*
D03*
Y-38740D02*
D03*
X331024Y-38734D02*
D03*
X321024Y-38669D02*
D03*
X311024Y-39006D02*
D03*
X301024Y-39030D02*
D03*
Y-19002D02*
D03*
X311024D02*
D03*
X321024Y-18677D02*
D03*
X331024Y-18740D02*
D03*
X341024D02*
D03*
Y-8740D02*
D03*
X331024D02*
D03*
X321024D02*
D03*
X311024D02*
D03*
X301024D02*
D03*
D18*
X263543Y-61811D02*
D03*
X283543Y-111024D02*
D03*
X263543Y-12992D02*
D03*
D19*
X253543Y-61811D02*
D03*
X243543D02*
D03*
X233543D02*
D03*
X223543D02*
D03*
X213543D02*
D03*
X203543D02*
D03*
X193543D02*
D03*
X183543D02*
D03*
X173543D02*
D03*
X163543D02*
D03*
X153543D02*
D03*
X263543Y-92913D02*
D03*
X253543D02*
D03*
X243543D02*
D03*
X233543D02*
D03*
X223543D02*
D03*
X213543D02*
D03*
X203543D02*
D03*
X193543D02*
D03*
X183543D02*
D03*
X173543D02*
D03*
X163543D02*
D03*
X153543D02*
D03*
X273543Y-111024D02*
D03*
X263543D02*
D03*
X253543D02*
D03*
X243543D02*
D03*
X233543D02*
D03*
X223543D02*
D03*
X213543D02*
D03*
X203543D02*
D03*
X193543D02*
D03*
X183543D02*
D03*
X173543D02*
D03*
X163543D02*
D03*
X153543D02*
D03*
X143543D02*
D03*
X133543D02*
D03*
X283543Y-171653D02*
D03*
X273543D02*
D03*
X263543D02*
D03*
X253543D02*
D03*
X243543D02*
D03*
X233543D02*
D03*
X223543D02*
D03*
X213543D02*
D03*
X203543D02*
D03*
X193543D02*
D03*
X183543D02*
D03*
X173543D02*
D03*
X163543D02*
D03*
X153543D02*
D03*
X143543D02*
D03*
X133543D02*
D03*
X253543Y-12992D02*
D03*
X243543D02*
D03*
X233543D02*
D03*
X223543D02*
D03*
X213543D02*
D03*
X203543D02*
D03*
X193543D02*
D03*
X183543D02*
D03*
X173543D02*
D03*
X163543D02*
D03*
X153543D02*
D03*
X263543Y-44094D02*
D03*
X253543D02*
D03*
X243543D02*
D03*
X233543D02*
D03*
X223543D02*
D03*
X213543D02*
D03*
X203543D02*
D03*
X193543D02*
D03*
X183543D02*
D03*
X173543D02*
D03*
X163543D02*
D03*
X153543D02*
D03*
D20*
X264173Y-21260D02*
D03*
X265417Y-161811D02*
D03*
X285118D02*
D03*
X270168Y-76144D02*
D03*
X273090Y-73782D02*
D03*
X270962Y-81496D02*
D03*
X271654Y-124409D02*
D03*
X290158Y-156693D02*
D03*
X291779Y-151969D02*
D03*
X121653Y-164559D02*
D03*
X121847Y-145276D02*
D03*
X120472Y-155317D02*
D03*
X256299Y-105119D02*
D03*
X262205Y-99606D02*
D03*
X221654Y-72441D02*
D03*
X194095Y-69685D02*
D03*
X205669D02*
D03*
X253543Y-70079D02*
D03*
X244488Y-162205D02*
D03*
X246850Y-120079D02*
D03*
X190945Y-130315D02*
D03*
X171260Y-119685D02*
D03*
X181496Y-120079D02*
D03*
X238976Y-130315D02*
D03*
X255118Y-21260D02*
D03*
X170866Y-68740D02*
D03*
X168898Y-76378D02*
D03*
X154724Y-163386D02*
D03*
X199606Y-127166D02*
D03*
X216141D02*
D03*
X216535Y-160236D02*
D03*
X144488Y-29528D02*
D03*
X163386D02*
D03*
X138189Y-59646D02*
D03*
X114136Y-196850D02*
D03*
X208661Y-188976D02*
D03*
X117323Y-185827D02*
D03*
X201181Y-185433D02*
D03*
X115669Y-181102D02*
D03*
X135827Y-201575D02*
D03*
X205669Y-195433D02*
D03*
X223228Y-184646D02*
D03*
X218504Y-180709D02*
D03*
X114136Y-183071D02*
D03*
X196063Y-202362D02*
D03*
X117323Y-188583D02*
D03*
X222835Y-162598D02*
D03*
X240551Y-206299D02*
D03*
X258661Y-161024D02*
D03*
X248425Y-203937D02*
D03*
X114136Y-185827D02*
D03*
X145669Y-187008D02*
D03*
X155905Y-209055D02*
D03*
X255512Y-200394D02*
D03*
X114136Y-188583D02*
D03*
X181496Y-160630D02*
D03*
X142520Y-208268D02*
D03*
X175669Y-194961D02*
D03*
X149606Y-205512D02*
D03*
X117323Y-183071D02*
D03*
X114136Y-191339D02*
D03*
X172047Y-205906D02*
D03*
X117323Y-191339D02*
D03*
Y-196850D02*
D03*
X255118Y-162598D02*
D03*
X114136Y-194095D02*
D03*
X117323D02*
D03*
X165669Y-198110D02*
D03*
X258661Y-150000D02*
D03*
X159449Y-98819D02*
D03*
X140157Y-205512D02*
D03*
X142913Y-183465D02*
D03*
X218504Y-124016D02*
D03*
X167618Y-99213D02*
D03*
X188583Y-98032D02*
D03*
X178347D02*
D03*
X163386Y-187008D02*
D03*
X158661Y-194882D02*
D03*
X168898Y-180315D02*
D03*
X148425Y-197244D02*
D03*
X233543Y-161811D02*
D03*
X213543Y-162598D02*
D03*
X228740Y-152756D02*
D03*
X228346Y-183446D02*
D03*
X198425Y-180709D02*
D03*
D37*
X262205Y-84646D02*
D03*
X255118D02*
D03*
X262205Y-35433D02*
D03*
X255118D02*
D03*
D38*
X145472Y-81890D02*
D03*
X137992D02*
D03*
X145472Y-73212D02*
D03*
X137992D02*
D03*
X145472Y-64534D02*
D03*
X137992D02*
D03*
X229803Y-84646D02*
D03*
X237283D02*
D03*
X199803Y-35433D02*
D03*
X207283D02*
D03*
X229724D02*
D03*
X237205D02*
D03*
X169882Y-84646D02*
D03*
X177362D02*
D03*
X169882Y-35433D02*
D03*
X177362D02*
D03*
X199016Y-84646D02*
D03*
X206496D02*
D03*
X274606Y-182612D02*
D03*
X282087D02*
D03*
D39*
X289977Y-174814D02*
D03*
Y-181901D02*
D03*
D40*
X128740Y-130709D02*
D03*
Y-155118D02*
D03*
X283543Y-125984D02*
D03*
Y-150394D02*
D03*
M02*
