G04*
G04 #@! TF.GenerationSoftware,Altium Limited,Altium Designer,19.0.7 (175)*
G04*
G04 Layer_Color=16711935*
%FSLAX25Y25*%
%MOIN*%
G70*
G01*
G75*
%ADD11C,0.02362*%
%ADD12R,0.00787X0.00787*%
%ADD13R,0.00787X0.00787*%
G04:AMPARAMS|DCode=15|XSize=69.94mil|YSize=353.94mil|CornerRadius=0mil|HoleSize=0mil|Usage=FLASHONLY|Rotation=0.000|XOffset=0mil|YOffset=0mil|HoleType=Round|Shape=Octagon|*
%AMOCTAGOND15*
4,1,8,-0.01748,0.17697,0.01748,0.17697,0.03497,0.15948,0.03497,-0.15948,0.01748,-0.17697,-0.01748,-0.17697,-0.03497,-0.15948,-0.03497,0.15948,-0.01748,0.17697,0.0*
%
%ADD15OCTAGOND15*%

%ADD16C,0.08268*%
%ADD17R,0.08268X0.08268*%
%ADD18O,0.05906X0.10236*%
%ADD19R,0.05906X0.10236*%
%ADD20R,0.10236X0.05906*%
%ADD21O,0.10236X0.05906*%
%ADD22C,0.02756*%
G04:AMPARAMS|DCode=43|XSize=59.06mil|YSize=41.34mil|CornerRadius=11.32mil|HoleSize=0mil|Usage=FLASHONLY|Rotation=270.000|XOffset=0mil|YOffset=0mil|HoleType=Round|Shape=RoundedRectangle|*
%AMROUNDEDRECTD43*
21,1,0.05906,0.01870,0,0,270.0*
21,1,0.03642,0.04134,0,0,270.0*
1,1,0.02264,-0.00935,-0.01821*
1,1,0.02264,-0.00935,0.01821*
1,1,0.02264,0.00935,0.01821*
1,1,0.02264,0.00935,-0.01821*
%
%ADD43ROUNDEDRECTD43*%
G04:AMPARAMS|DCode=44|XSize=62.99mil|YSize=49.21mil|CornerRadius=14.27mil|HoleSize=0mil|Usage=FLASHONLY|Rotation=90.000|XOffset=0mil|YOffset=0mil|HoleType=Round|Shape=RoundedRectangle|*
%AMROUNDEDRECTD44*
21,1,0.06299,0.02067,0,0,90.0*
21,1,0.03445,0.04921,0,0,90.0*
1,1,0.02854,0.01034,0.01722*
1,1,0.02854,0.01034,-0.01722*
1,1,0.02854,-0.01034,-0.01722*
1,1,0.02854,-0.01034,0.01722*
%
%ADD44ROUNDEDRECTD44*%
G04:AMPARAMS|DCode=45|XSize=62.99mil|YSize=49.21mil|CornerRadius=14.27mil|HoleSize=0mil|Usage=FLASHONLY|Rotation=180.000|XOffset=0mil|YOffset=0mil|HoleType=Round|Shape=RoundedRectangle|*
%AMROUNDEDRECTD45*
21,1,0.06299,0.02067,0,0,180.0*
21,1,0.03445,0.04921,0,0,180.0*
1,1,0.02854,-0.01722,0.01034*
1,1,0.02854,0.01722,0.01034*
1,1,0.02854,0.01722,-0.01034*
1,1,0.02854,-0.01722,-0.01034*
%
%ADD45ROUNDEDRECTD45*%
G04:AMPARAMS|DCode=46|XSize=100.39mil|YSize=161.42mil|CornerRadius=26.08mil|HoleSize=0mil|Usage=FLASHONLY|Rotation=0.000|XOffset=0mil|YOffset=0mil|HoleType=Round|Shape=RoundedRectangle|*
%AMROUNDEDRECTD46*
21,1,0.10039,0.10925,0,0,0.0*
21,1,0.04823,0.16142,0,0,0.0*
1,1,0.05217,0.02411,-0.05463*
1,1,0.05217,-0.02411,-0.05463*
1,1,0.05217,-0.02411,0.05463*
1,1,0.05217,0.02411,0.05463*
%
%ADD46ROUNDEDRECTD46*%
G04:AMPARAMS|DCode=47|XSize=59.06mil|YSize=41.34mil|CornerRadius=11.32mil|HoleSize=0mil|Usage=FLASHONLY|Rotation=0.000|XOffset=0mil|YOffset=0mil|HoleType=Round|Shape=RoundedRectangle|*
%AMROUNDEDRECTD47*
21,1,0.05906,0.01870,0,0,0.0*
21,1,0.03642,0.04134,0,0,0.0*
1,1,0.02264,0.01821,-0.00935*
1,1,0.02264,-0.01821,-0.00935*
1,1,0.02264,-0.01821,0.00935*
1,1,0.02264,0.01821,0.00935*
%
%ADD47ROUNDEDRECTD47*%
D11*
X216850Y-206991D02*
X216406Y-206067D01*
X215406Y-205839D01*
X214605Y-206478D01*
Y-207503D01*
X215406Y-208142D01*
X216406Y-207914D01*
X216850Y-206991D01*
X292707Y-103937D02*
X292262Y-103014D01*
X291263Y-102786D01*
X290462Y-103425D01*
Y-104449D01*
X291263Y-105088D01*
X292262Y-104860D01*
X292707Y-103937D01*
X347638Y-74114D02*
X347193Y-73191D01*
X346194Y-72963D01*
X345393Y-73602D01*
Y-74627D01*
X346194Y-75266D01*
X347193Y-75038D01*
X347638Y-74114D01*
Y-63878D02*
X347193Y-62954D01*
X346194Y-62726D01*
X345393Y-63366D01*
Y-64390D01*
X346194Y-65029D01*
X347193Y-64801D01*
X347638Y-63878D01*
Y-54035D02*
X347193Y-53112D01*
X346194Y-52884D01*
X345393Y-53523D01*
Y-54548D01*
X346194Y-55187D01*
X347193Y-54959D01*
X347638Y-54035D01*
Y-43996D02*
X347193Y-43073D01*
X346194Y-42845D01*
X345393Y-43484D01*
Y-44508D01*
X346194Y-45148D01*
X347193Y-44919D01*
X347638Y-43996D01*
X347539Y-34095D02*
X347095Y-33171D01*
X346095Y-32943D01*
X345294Y-33582D01*
Y-34607D01*
X346095Y-35246D01*
X347095Y-35018D01*
X347539Y-34095D01*
X96850Y-196555D02*
X96406Y-195632D01*
X95407Y-195404D01*
X94605Y-196043D01*
Y-197068D01*
X95407Y-197707D01*
X96406Y-197478D01*
X96850Y-196555D01*
X316831Y-200000D02*
X316386Y-199077D01*
X315387Y-198848D01*
X314585Y-199487D01*
Y-200513D01*
X315387Y-201151D01*
X316386Y-200923D01*
X316831Y-200000D01*
X326772Y-200020D02*
X326327Y-199096D01*
X325328Y-198868D01*
X324526Y-199507D01*
Y-200532D01*
X325328Y-201171D01*
X326327Y-200943D01*
X326772Y-200020D01*
X286850Y-196555D02*
X286406Y-195632D01*
X285406Y-195404D01*
X284605Y-196043D01*
Y-197068D01*
X285406Y-197707D01*
X286406Y-197478D01*
X286850Y-196555D01*
X296850D02*
X296406Y-195632D01*
X295407Y-195404D01*
X294605Y-196043D01*
Y-197068D01*
X295407Y-197707D01*
X296406Y-197478D01*
X296850Y-196555D01*
X306850D02*
X306406Y-195632D01*
X305406Y-195404D01*
X304605Y-196043D01*
Y-197068D01*
X305406Y-197707D01*
X306406Y-197478D01*
X306850Y-196555D01*
X336850Y-200000D02*
X336406Y-199077D01*
X335406Y-198848D01*
X334605Y-199487D01*
Y-200513D01*
X335406Y-201151D01*
X336406Y-200923D01*
X336850Y-200000D01*
D12*
X290050Y-103937D02*
D03*
X344980Y-43996D02*
D03*
X344882Y-34095D02*
D03*
X314173Y-200000D02*
D03*
X304193Y-196555D02*
D03*
D13*
X215669Y-208467D02*
D03*
X346457Y-75590D02*
D03*
Y-65354D02*
D03*
Y-55512D02*
D03*
X95669Y-198031D02*
D03*
X325590Y-201496D02*
D03*
X285669Y-198031D02*
D03*
X295669D02*
D03*
X335669Y-201476D02*
D03*
D15*
Y-231102D02*
D03*
X325669D02*
D03*
X315669D02*
D03*
X305669D02*
D03*
X295669D02*
D03*
X285669D02*
D03*
X275669D02*
D03*
X265669D02*
D03*
X255669D02*
D03*
X245669D02*
D03*
X235669D02*
D03*
X225669D02*
D03*
X215669D02*
D03*
X205669D02*
D03*
X195669D02*
D03*
X185669D02*
D03*
X175669D02*
D03*
X165669D02*
D03*
X155669D02*
D03*
X145669D02*
D03*
X135669D02*
D03*
X125669D02*
D03*
X115669D02*
D03*
X105669D02*
D03*
X95669D02*
D03*
D16*
X117323Y-9139D02*
D03*
X107323D02*
D03*
X77497Y-19443D02*
D03*
X7480Y-19814D02*
D03*
X27528Y-30000D02*
D03*
X17351Y-29921D02*
D03*
X7607Y-30000D02*
D03*
X57323Y-19449D02*
D03*
X67323D02*
D03*
X47323D02*
D03*
X37323Y-19443D02*
D03*
X27323Y-19377D02*
D03*
X17323Y-19715D02*
D03*
X27716Y-9456D02*
D03*
X17717Y-9793D02*
D03*
X7717Y-9817D02*
D03*
X284646Y-20472D02*
D03*
X37402Y-9614D02*
D03*
Y-29606D02*
D03*
X47323Y-9437D02*
D03*
X47146Y-29528D02*
D03*
X57323Y-29606D02*
D03*
X67323D02*
D03*
X77559D02*
D03*
X87323D02*
D03*
X117531Y-29528D02*
D03*
X107418D02*
D03*
X97244Y-29606D02*
D03*
X373622Y-74646D02*
D03*
X383622Y-74724D02*
D03*
Y-84720D02*
D03*
X373622D02*
D03*
Y-104724D02*
D03*
X383622D02*
D03*
Y-94724D02*
D03*
X373622D02*
D03*
Y-134724D02*
D03*
X383796D02*
D03*
X383622Y-144653D02*
D03*
X373622Y-144718D02*
D03*
X373796Y-124986D02*
D03*
X383796Y-124661D02*
D03*
X383622Y-114772D02*
D03*
X373622D02*
D03*
Y-174724D02*
D03*
X383622D02*
D03*
Y-184724D02*
D03*
X373622Y-185029D02*
D03*
Y-164803D02*
D03*
X383622D02*
D03*
Y-154704D02*
D03*
X373622Y-154724D02*
D03*
X353581D02*
D03*
X363622Y-154704D02*
D03*
Y-164724D02*
D03*
X353581Y-164803D02*
D03*
Y-184724D02*
D03*
X363622D02*
D03*
Y-174724D02*
D03*
X353622D02*
D03*
Y-114724D02*
D03*
X363622D02*
D03*
Y-124724D02*
D03*
X353622D02*
D03*
Y-144718D02*
D03*
X363622Y-144724D02*
D03*
Y-134724D02*
D03*
X353622D02*
D03*
Y-94724D02*
D03*
X363622D02*
D03*
Y-104724D02*
D03*
X353622Y-104718D02*
D03*
Y-84724D02*
D03*
X363622D02*
D03*
Y-74724D02*
D03*
X284646Y-6693D02*
D03*
X346457Y-6693D02*
D03*
X97244Y-39528D02*
D03*
X107418Y-39521D02*
D03*
X117244Y-39528D02*
D03*
X97418Y-69528D02*
D03*
X107418D02*
D03*
X117244D02*
D03*
Y-79528D02*
D03*
X107418Y-79521D02*
D03*
X97244Y-79456D02*
D03*
X97418Y-59464D02*
D03*
X107418Y-59528D02*
D03*
X117244D02*
D03*
Y-49528D02*
D03*
X107418D02*
D03*
X97244Y-49575D02*
D03*
Y-109528D02*
D03*
X107244D02*
D03*
X117244Y-109646D02*
D03*
Y-119528D02*
D03*
X107244D02*
D03*
X97244D02*
D03*
Y-99606D02*
D03*
X107418D02*
D03*
X117244Y-99528D02*
D03*
Y-89507D02*
D03*
X107418Y-89528D02*
D03*
X97244Y-89507D02*
D03*
X7323Y-40211D02*
D03*
X17323Y-40187D02*
D03*
X27323Y-39850D02*
D03*
X37323Y-39915D02*
D03*
X47323Y-39921D02*
D03*
X7323Y-69921D02*
D03*
X17323D02*
D03*
X27323D02*
D03*
X37323D02*
D03*
X47323D02*
D03*
Y-79921D02*
D03*
X37323Y-79915D02*
D03*
X27323Y-79850D02*
D03*
X17323Y-79921D02*
D03*
X7323D02*
D03*
Y-60183D02*
D03*
X17323D02*
D03*
X27323Y-59858D02*
D03*
X37323Y-59921D02*
D03*
X47323D02*
D03*
Y-49921D02*
D03*
X37323D02*
D03*
X27323D02*
D03*
X17323D02*
D03*
X7323D02*
D03*
Y-110039D02*
D03*
X17323Y-109921D02*
D03*
X27323D02*
D03*
X37323D02*
D03*
X47323D02*
D03*
Y-119921D02*
D03*
X37281D02*
D03*
X27323D02*
D03*
X17323D02*
D03*
X7323D02*
D03*
Y-100000D02*
D03*
X17323D02*
D03*
X27282Y-99921D02*
D03*
X37281Y-100000D02*
D03*
X47323Y-99921D02*
D03*
Y-89901D02*
D03*
X37281Y-89921D02*
D03*
X27323Y-89901D02*
D03*
X17323Y-89921D02*
D03*
X7323D02*
D03*
X57323D02*
D03*
X67323Y-89901D02*
D03*
X77497Y-89921D02*
D03*
X87323Y-89901D02*
D03*
Y-99921D02*
D03*
X77497Y-100000D02*
D03*
X67323D02*
D03*
X57323D02*
D03*
Y-120226D02*
D03*
X67323Y-119921D02*
D03*
X77323D02*
D03*
X87323D02*
D03*
Y-110039D02*
D03*
X77323Y-109921D02*
D03*
X67323D02*
D03*
X57323D02*
D03*
Y-49969D02*
D03*
X67323D02*
D03*
X77497Y-49921D02*
D03*
X87323D02*
D03*
Y-59921D02*
D03*
X77497D02*
D03*
X67497Y-59858D02*
D03*
X57497Y-60183D02*
D03*
X57323Y-79915D02*
D03*
X67323Y-79850D02*
D03*
X77497Y-79915D02*
D03*
X87323Y-79921D02*
D03*
Y-69921D02*
D03*
X77497D02*
D03*
X67497D02*
D03*
X57323D02*
D03*
X87323Y-39921D02*
D03*
X77497Y-39915D02*
D03*
X67323Y-39921D02*
D03*
X57323D02*
D03*
X77323Y-9614D02*
D03*
X67323D02*
D03*
X57323Y-9536D02*
D03*
X48487Y-168656D02*
D03*
X58486D02*
D03*
X68486D02*
D03*
X78487D02*
D03*
Y-178656D02*
D03*
X68486Y-178593D02*
D03*
X58486Y-178918D02*
D03*
X48487D02*
D03*
X78487Y-188656D02*
D03*
X68486D02*
D03*
X58486D02*
D03*
X48487D02*
D03*
D17*
X97323Y-9139D02*
D03*
D18*
X153543Y-44094D02*
D03*
X163543D02*
D03*
X173543D02*
D03*
X183543D02*
D03*
X193543D02*
D03*
X203543D02*
D03*
X213543D02*
D03*
X223543D02*
D03*
X233543D02*
D03*
X243543D02*
D03*
X253543D02*
D03*
X263543D02*
D03*
X153543Y-12992D02*
D03*
X163543D02*
D03*
X173543D02*
D03*
X183543D02*
D03*
X193543D02*
D03*
X203543D02*
D03*
X213543D02*
D03*
X223543D02*
D03*
X233543D02*
D03*
X243543D02*
D03*
X253543D02*
D03*
X153543Y-92913D02*
D03*
X163543D02*
D03*
X173543D02*
D03*
X183543D02*
D03*
X193543D02*
D03*
X203543D02*
D03*
X213543D02*
D03*
X223543D02*
D03*
X233543D02*
D03*
X243543D02*
D03*
X253543D02*
D03*
X263543D02*
D03*
X153543Y-61811D02*
D03*
X163543D02*
D03*
X173543D02*
D03*
X183543D02*
D03*
X193543D02*
D03*
X203543D02*
D03*
X213543D02*
D03*
X223543D02*
D03*
X233543D02*
D03*
X243543D02*
D03*
X253543D02*
D03*
X273543Y-111024D02*
D03*
X263543D02*
D03*
X253543D02*
D03*
X243543D02*
D03*
X233543D02*
D03*
X223543D02*
D03*
X213543D02*
D03*
X203543D02*
D03*
X193543D02*
D03*
X183543D02*
D03*
X173543D02*
D03*
X163543D02*
D03*
X153543D02*
D03*
X143543D02*
D03*
X133543D02*
D03*
X283543Y-171653D02*
D03*
X273543D02*
D03*
X263543D02*
D03*
X253543D02*
D03*
X243543D02*
D03*
X233543D02*
D03*
X223543D02*
D03*
X213543D02*
D03*
X203543D02*
D03*
X193543D02*
D03*
X183543D02*
D03*
X173543D02*
D03*
X163543D02*
D03*
X153543D02*
D03*
X143543D02*
D03*
X133543D02*
D03*
D19*
X263543Y-12992D02*
D03*
Y-61811D02*
D03*
X283543Y-111024D02*
D03*
D20*
X304331Y-14095D02*
D03*
D21*
Y-24094D02*
D03*
Y-34095D02*
D03*
Y-44094D02*
D03*
Y-54094D02*
D03*
Y-64095D02*
D03*
Y-74094D02*
D03*
Y-84095D02*
D03*
Y-94095D02*
D03*
Y-104095D02*
D03*
Y-114094D02*
D03*
Y-124094D02*
D03*
X335433Y-14095D02*
D03*
Y-24094D02*
D03*
Y-34095D02*
D03*
Y-44094D02*
D03*
Y-54094D02*
D03*
Y-64095D02*
D03*
Y-74094D02*
D03*
Y-84095D02*
D03*
Y-94095D02*
D03*
Y-104095D02*
D03*
Y-114094D02*
D03*
Y-124094D02*
D03*
D22*
X322441Y-65748D02*
D03*
X278346Y-83276D02*
D03*
X167677Y-29298D02*
D03*
X274444Y-148819D02*
D03*
X154724Y-163386D02*
D03*
X276696Y-153205D02*
D03*
X258661Y-150000D02*
D03*
X228740Y-152756D02*
D03*
X274902Y-127166D02*
D03*
X261856Y-101575D02*
D03*
X168506Y-68939D02*
D03*
X194674Y-70472D02*
D03*
X290249Y-164559D02*
D03*
X292520Y-114724D02*
D03*
X290158Y-156693D02*
D03*
X291779Y-151969D02*
D03*
X258661Y-161024D02*
D03*
X289764Y-51968D02*
D03*
X203543Y-72441D02*
D03*
X225590Y-75984D02*
D03*
X152362Y-85039D02*
D03*
X143543D02*
D03*
X265417Y-164567D02*
D03*
X270168Y-76144D02*
D03*
X270962Y-81496D02*
D03*
X121653Y-164559D02*
D03*
X120472Y-155317D02*
D03*
X244488Y-162205D02*
D03*
X246850Y-120079D02*
D03*
X190945Y-130315D02*
D03*
X171260Y-119685D02*
D03*
X181496Y-120079D02*
D03*
X238976Y-130315D02*
D03*
X168898Y-76378D02*
D03*
X199606Y-127166D02*
D03*
X216141D02*
D03*
X216535Y-160236D02*
D03*
X114136Y-196850D02*
D03*
X208661Y-188976D02*
D03*
X117323Y-185827D02*
D03*
X201181Y-185433D02*
D03*
X115669Y-181102D02*
D03*
X135827Y-201575D02*
D03*
X205669Y-195433D02*
D03*
X223228Y-184646D02*
D03*
X218504Y-180709D02*
D03*
X114136Y-183071D02*
D03*
X196063Y-202362D02*
D03*
X117323Y-188583D02*
D03*
X222835Y-162598D02*
D03*
X240551Y-206299D02*
D03*
X248425Y-203937D02*
D03*
X114136Y-185827D02*
D03*
X145669Y-187008D02*
D03*
X155905Y-209055D02*
D03*
X255512Y-200394D02*
D03*
X114136Y-188583D02*
D03*
X181496Y-160630D02*
D03*
X142520Y-208268D02*
D03*
X175669Y-194961D02*
D03*
X149606Y-205512D02*
D03*
X117323Y-183071D02*
D03*
X114136Y-191339D02*
D03*
X172047Y-205906D02*
D03*
X117323Y-191339D02*
D03*
Y-196850D02*
D03*
X255118Y-162598D02*
D03*
X114136Y-194095D02*
D03*
X117323D02*
D03*
X165669Y-198110D02*
D03*
X140157Y-205512D02*
D03*
X142913Y-183465D02*
D03*
X218504Y-124016D02*
D03*
X167618Y-99213D02*
D03*
X188583Y-98032D02*
D03*
X178347D02*
D03*
X163386Y-187008D02*
D03*
X158661Y-194882D02*
D03*
X168898Y-180315D02*
D03*
X148425Y-197244D02*
D03*
X233543Y-161811D02*
D03*
X213543Y-162598D02*
D03*
X228346Y-183446D02*
D03*
X198425Y-180709D02*
D03*
D43*
X221063Y-23941D02*
D03*
X213583D02*
D03*
X234842Y-84252D02*
D03*
X242323D02*
D03*
X226063Y-35039D02*
D03*
X233543D02*
D03*
X163976Y-84252D02*
D03*
X171457D02*
D03*
X186024Y-35433D02*
D03*
X193504D02*
D03*
X204921Y-84252D02*
D03*
X212402D02*
D03*
X274606Y-182612D02*
D03*
X282087D02*
D03*
D44*
X262205Y-84646D02*
D03*
X255118D02*
D03*
X262205Y-35433D02*
D03*
X255118D02*
D03*
D45*
X289977Y-174814D02*
D03*
Y-181901D02*
D03*
D46*
X128740Y-130709D02*
D03*
Y-155118D02*
D03*
X283858Y-129134D02*
D03*
Y-153543D02*
D03*
D47*
X324982Y-112795D02*
D03*
Y-105315D02*
D03*
M02*
