M48
;Layer_Color=9474304
;FILE_FORMAT=2:4
INCH,TZ
;TYPE=PLATED
T1F00S00C0.0118
T2F00S00C0.0315
%
T01
X11414Y-19685
Y-19409
Y-19134
Y-18858
Y-18583
Y-18307
X11732
Y-18583
Y-18858
Y-19134
Y-19409
Y-19685
X11567Y-18110
X12165Y-16456
X12047Y-15532
X15197Y-16102
X15472Y-16339
X18150Y-16063
X16890Y-18032
X16339Y-18701
X15866Y-19488
X16567Y-19811
X17567Y-19496
X17205Y-20591
X15591Y-20906
X14961Y-20551
X14016
X14252Y-20827
X13583Y-20157
X14843Y-19724
X14567Y-18701
X14291Y-18346
X17126Y-11968
X18150Y-12008
X17835Y-9803
X16762Y-9921
X16890Y-7638
X16851Y-6894
X15236Y-8504
X14354
X18858Y-9803
X19467Y-7047
X20354Y-7244
X22559Y-7598
X27017Y-7614
X27096Y-8150
X26186Y-10157
X24685Y-12008
X23898Y-13032
X21614Y-12717
X21850Y-12402
X19961Y-12717
X19094Y-13032
X21354Y-16260
X21654Y-16024
X22283Y-16260
X23354Y-16181
X24449Y-16220
X25512Y-16260
X25866Y-16102
X26542Y-16457
X25866Y-15000
X27670Y-15321
X29178Y-15197
X29016Y-15669
X29025Y-16456
X29252Y-11472
X27490Y-12717
X22874Y-15276
X22835Y-18345
X22323Y-18465
X21850Y-18071
X20866Y-18898
X20567Y-19543
X20118Y-18543
X19843Y-18071
X19606Y-20236
X24055Y-20630
X24843Y-20394
X25551Y-20039
X27835Y-4921
X28976Y-5197
X32625Y-3083
X16772Y-3031
T02
X732Y-11992
Y-11004
Y-10000
X1732
Y-10992
X2732
Y-11992
X1732
X2728Y-9992
X2732Y-8990
X1732Y-8992
Y-7992
X732
Y-8992
Y-6992
Y-6018
X1732
Y-6992
X2732
Y-7985
Y-5986
X3732Y-5992
Y-6992
Y-7992
X4732Y-7992
Y-8990
Y-9992
Y-10992
X3732
X3728Y-10000
Y-8992
X5732
Y-7992
Y-6992
X5750Y-6018
X6750Y-5986
Y-6992
X7750
X8732
Y-5992
X7750
Y-7992
X8732Y-7992
Y-8990
X7750Y-8992
Y-10000
X8732Y-9992
Y-11004
Y-11992
X7732
X6732
Y-10992
Y-10000
X5732
Y-10992
Y-12023
X4732Y-11992
X3728
X7732Y-10992
X9724Y-10953
Y-9961
Y-8951
Y-7946
X9742Y-6953
X10742
X11724
Y-5953
X10742
X9742Y-5946
X10742Y-7952
X11724Y-7953
Y-8951
X10742Y-8953
Y-9961
X11724Y-9953
Y-10965
Y-11953
X10724
Y-10953
X9724Y-11953
X13354Y-11102
X14354
X15354
X16354
X17354
X18354
Y-9291
X17354
X16354
X15354
Y-6181
X16354
X17354
X18354
Y-17165
X17354
X16354
X15354
X14354
X13354
X7849Y-16866
X6849
Y-17859
Y-18866
X7849
Y-17866
X5849Y-17892
Y-18866
X4849
Y-17892
Y-16866
X5849
X6732Y-8990
Y-7985
X4732Y-6992
Y-5992
X19354Y-6181
X20354
X21354
X22354
X23354
X24354
X25354
X26354
Y-9291
X25354
X24354
X23354
X22354
X21354
X20354
X19354
Y-11102
X20354
X21354
X22354
X23354
X24354
X25354
X26354
X27354
X28354
X30433Y-11409
Y-10409
Y-9409
Y-8409
Y-7409
Y-6409
X33543
Y-7409
Y-8409
Y-9409
Y-10409
Y-11409
Y-12409
X30433
X28354Y-17165
X27354
X26354
X25354
X24354
X23354
X22354
X21354
X20354
X19354
X35362Y-17472
X35358Y-16480
Y-15472
X35362Y-14472
Y-13472
Y-12472
Y-11472
X36362
Y-12472
Y-13472
X37362
X37380Y-12499
X38380Y-12466
X38362Y-11477
X37362
Y-10472
X38362
Y-9472
X37362
X36362
Y-8472
X35362
Y-9472
Y-10472
X36362Y-10472
Y-7472
X37362Y-7465
Y-8472
X38362
Y-7472
X38380Y-13472
X38362Y-14465
Y-15470
X37362Y-15472
Y-14472
X36362Y-14472
Y-15470
Y-16472
Y-17472
X37362
Y-16480
X38362
Y-17472
Y-18472
X37362Y-18503
X36362Y-18472
X35358
X34646Y-669
X33543Y-1409
Y-2409
Y-3409
Y-4409
Y-5409
X30433
Y-4409
Y-3409
Y-2409
Y-1409
X28465Y-2047
Y-669
X26354Y-1299
X25354
X24354
X23354
X22354
X21354
X20354
X19354
Y-4409
X20354
X21354
X22354
X23354
X24354
X25354
X26354
X18354
X17354
X16354
X15354
Y-1299
X16354
X17354
X18354
X13009Y-945
X11724Y-953
Y-1946
X10724Y-1952
Y-953
X9724
Y-1952
Y-2953
Y-3953
Y-4958
X10742Y-4953
X11724
Y-3953
X10742Y-3952
Y-2953
X11724
X8732Y-2992
X7750
Y-3992
X8732Y-3992
Y-4992
X7750
X6732Y-4997
X5732
X4732Y-4992
Y-3992
X5732
X6732
Y-2992
X5732
X4732
Y-1992
Y-992
X3732
Y-1992
Y-2992
Y-3992
Y-4992
X5732Y-1992
X6732
Y-992
X7732
Y-1992
X8732Y-1986
Y-992
X5732Y-984
X2732Y-992
Y-1986
Y-2992
Y-3985
Y-4992
X1732
Y-4019
X732Y-4021
Y-4992
Y-2992
Y-2018
X1732
Y-2992
Y-992
X732
M30
