G04*
G04 #@! TF.GenerationSoftware,Altium Limited,Altium Designer,19.0.7 (175)*
G04*
G04 Layer_Color=16711935*
%FSLAX25Y25*%
%MOIN*%
G70*
G01*
G75*
%ADD41C,0.00394*%
G36*
X260104Y-77377D02*
X260132Y-77383D01*
X260154Y-77388D01*
X260159Y-77394D01*
X260187Y-77411D01*
X260215Y-77433D01*
X260231Y-77449D01*
X260237Y-77455D01*
X260986Y-78210D01*
X261020Y-78254D01*
X261036Y-78298D01*
X261042Y-78326D01*
Y-78332D01*
Y-78337D01*
X261036Y-78365D01*
X261031Y-78387D01*
X261009Y-78432D01*
X260992Y-78460D01*
X260981Y-78465D01*
Y-78471D01*
X260936Y-78504D01*
X260892Y-78521D01*
X260864Y-78526D01*
X260853D01*
X260803Y-78515D01*
X260759Y-78498D01*
X260731Y-78482D01*
X260720Y-78471D01*
X260287Y-78038D01*
Y-80963D01*
X260276Y-81024D01*
X260259Y-81068D01*
X260243Y-81090D01*
X260231Y-81101D01*
X260187Y-81129D01*
X260148Y-81140D01*
X260115Y-81146D01*
X260104D01*
X260048Y-81140D01*
X260004Y-81124D01*
X259982Y-81107D01*
X259971Y-81101D01*
X259937Y-81057D01*
X259921Y-81012D01*
X259915Y-80979D01*
Y-80968D01*
Y-80963D01*
Y-77588D01*
X259921Y-77522D01*
X259937Y-77472D01*
X259960Y-77438D01*
X259965Y-77427D01*
X260010Y-77394D01*
X260043Y-77377D01*
X260065Y-77372D01*
X260071D01*
X260104Y-77377D01*
D02*
G37*
G36*
X263023Y-77411D02*
X263129Y-77433D01*
X263217Y-77472D01*
X263295Y-77510D01*
X263362Y-77549D01*
X263406Y-77588D01*
X263434Y-77610D01*
X263445Y-77621D01*
X263517Y-77705D01*
X263573Y-77794D01*
X263606Y-77882D01*
X263634Y-77965D01*
X263650Y-78038D01*
X263656Y-78099D01*
X263661Y-78121D01*
Y-78132D01*
Y-78143D01*
Y-78149D01*
Y-80396D01*
X263650Y-80507D01*
X263628Y-80613D01*
X263589Y-80702D01*
X263550Y-80779D01*
X263512Y-80846D01*
X263473Y-80890D01*
X263451Y-80918D01*
X263439Y-80929D01*
X263351Y-81001D01*
X263262Y-81057D01*
X263173Y-81090D01*
X263090Y-81118D01*
X263018Y-81135D01*
X262962Y-81140D01*
X262940Y-81146D01*
X261974D01*
X261941Y-81140D01*
X261913Y-81135D01*
X261874Y-81112D01*
X261847Y-81096D01*
X261841Y-81085D01*
X261813Y-81040D01*
X261797Y-81001D01*
X261791Y-80974D01*
Y-80963D01*
X261802Y-80913D01*
X261819Y-80874D01*
X261836Y-80846D01*
X261847Y-80835D01*
X261869Y-80813D01*
X261891Y-80802D01*
X261930Y-80779D01*
X261963Y-80774D01*
X262918D01*
X262968Y-80768D01*
X263012Y-80763D01*
X263051Y-80757D01*
X263056Y-80752D01*
X263062D01*
X263106Y-80724D01*
X263145Y-80696D01*
X263173Y-80674D01*
X263184Y-80668D01*
X263217Y-80624D01*
X263245Y-80580D01*
X263262Y-80535D01*
X263279Y-80491D01*
X263284Y-80458D01*
X263290Y-80430D01*
Y-80408D01*
Y-80402D01*
Y-78149D01*
X263284Y-78093D01*
X263279Y-78049D01*
X263273Y-78016D01*
X263267Y-78010D01*
Y-78004D01*
X263245Y-77954D01*
X263217Y-77916D01*
X263195Y-77893D01*
X263184Y-77882D01*
X263140Y-77843D01*
X263095Y-77816D01*
X263051Y-77799D01*
X263006Y-77782D01*
X262973Y-77777D01*
X262946Y-77771D01*
X261980D01*
X261947Y-77766D01*
X261919Y-77760D01*
X261874Y-77738D01*
X261847Y-77721D01*
X261841Y-77710D01*
X261813Y-77666D01*
X261797Y-77627D01*
X261791Y-77599D01*
Y-77588D01*
X261802Y-77538D01*
X261819Y-77499D01*
X261836Y-77472D01*
X261847Y-77460D01*
X261869Y-77438D01*
X261885Y-77427D01*
X261930Y-77405D01*
X261963Y-77399D01*
X262912D01*
X263023Y-77411D01*
D02*
G37*
G36*
X145610Y-74649D02*
X145655Y-74671D01*
X145688Y-74705D01*
X145710Y-74738D01*
X145721Y-74771D01*
X145727Y-74805D01*
X145732Y-74827D01*
Y-74832D01*
Y-78207D01*
X145721Y-78268D01*
X145704Y-78312D01*
X145688Y-78334D01*
X145677Y-78345D01*
X145632Y-78373D01*
X145594Y-78384D01*
X145560Y-78390D01*
X145549D01*
X145494Y-78384D01*
X145449Y-78368D01*
X145427Y-78351D01*
X145416Y-78345D01*
X145383Y-78301D01*
X145366Y-78257D01*
X145360Y-78223D01*
Y-78212D01*
Y-78207D01*
Y-76891D01*
X144717D01*
X143834Y-78307D01*
X143806Y-78340D01*
X143784Y-78362D01*
X143768Y-78373D01*
X143762Y-78379D01*
X143734Y-78384D01*
X143707Y-78390D01*
X143684D01*
X143629Y-78384D01*
X143584Y-78362D01*
X143557Y-78345D01*
X143546Y-78340D01*
X143523Y-78318D01*
X143512Y-78295D01*
X143490Y-78251D01*
X143484Y-78218D01*
Y-78212D01*
Y-78207D01*
X143501Y-78146D01*
X143518Y-78101D01*
X144273Y-76891D01*
X144239D01*
X144128Y-76880D01*
X144023Y-76858D01*
X143934Y-76825D01*
X143856Y-76780D01*
X143795Y-76741D01*
X143745Y-76708D01*
X143718Y-76686D01*
X143707Y-76675D01*
X143634Y-76586D01*
X143579Y-76497D01*
X143540Y-76408D01*
X143512Y-76325D01*
X143496Y-76253D01*
X143490Y-76192D01*
X143484Y-76170D01*
Y-76153D01*
Y-76148D01*
Y-76142D01*
Y-75393D01*
X143496Y-75282D01*
X143518Y-75182D01*
X143557Y-75093D01*
X143596Y-75015D01*
X143634Y-74954D01*
X143673Y-74904D01*
X143695Y-74877D01*
X143707Y-74866D01*
X143790Y-74793D01*
X143879Y-74738D01*
X143967Y-74699D01*
X144051Y-74671D01*
X144123Y-74655D01*
X144184Y-74649D01*
X144206Y-74643D01*
X145549D01*
X145610Y-74649D01*
D02*
G37*
G36*
X142103Y-74655D02*
X142202Y-74677D01*
X142297Y-74716D01*
X142369Y-74755D01*
X142436Y-74793D01*
X142480Y-74832D01*
X142508Y-74854D01*
X142519Y-74866D01*
X142591Y-74954D01*
X142647Y-75043D01*
X142680Y-75132D01*
X142708Y-75210D01*
X142724Y-75282D01*
X142730Y-75343D01*
X142735Y-75365D01*
Y-75382D01*
Y-75387D01*
Y-75393D01*
Y-76142D01*
X142724Y-76253D01*
X142702Y-76358D01*
X142663Y-76447D01*
X142624Y-76525D01*
X142585Y-76592D01*
X142547Y-76636D01*
X142524Y-76664D01*
X142513Y-76675D01*
X142424Y-76747D01*
X142336Y-76802D01*
X142252Y-76836D01*
X142169Y-76863D01*
X142097Y-76880D01*
X142042Y-76886D01*
X142019Y-76891D01*
X141314D01*
X141359Y-77052D01*
X141409Y-77191D01*
X141459Y-77296D01*
X141520Y-77396D01*
X141575Y-77480D01*
X141625Y-77557D01*
X141675Y-77618D01*
X141714Y-77663D01*
X141736Y-77691D01*
X141747Y-77702D01*
X141831Y-77779D01*
X141908Y-77846D01*
X141942Y-77868D01*
X141964Y-77885D01*
X141981Y-77896D01*
X141986Y-77901D01*
X142080Y-77957D01*
X142125Y-77979D01*
X142164Y-77996D01*
X142197Y-78012D01*
X142225Y-78023D01*
X142241Y-78035D01*
X142247D01*
X142291Y-78062D01*
X142319Y-78084D01*
X142336Y-78107D01*
X142341Y-78112D01*
X142352Y-78140D01*
X142358Y-78168D01*
X142363Y-78190D01*
Y-78196D01*
X142352Y-78251D01*
X142336Y-78295D01*
X142319Y-78323D01*
X142308Y-78329D01*
Y-78334D01*
X142263Y-78368D01*
X142225Y-78384D01*
X142197Y-78390D01*
X142186D01*
X142103Y-78379D01*
X141975Y-78318D01*
X141858Y-78251D01*
X141753Y-78184D01*
X141659Y-78118D01*
X141586Y-78057D01*
X141531Y-78007D01*
X141514Y-77990D01*
X141498Y-77974D01*
X141492Y-77968D01*
X141487Y-77962D01*
X141392Y-77857D01*
X141309Y-77751D01*
X141237Y-77646D01*
X141176Y-77552D01*
X141131Y-77463D01*
X141115Y-77430D01*
X141098Y-77402D01*
X141087Y-77374D01*
X141076Y-77358D01*
X141070Y-77346D01*
Y-77341D01*
X141004Y-77163D01*
X140954Y-76986D01*
X140915Y-76814D01*
X140893Y-76658D01*
X140882Y-76592D01*
X140876Y-76525D01*
X140870Y-76469D01*
Y-76420D01*
X140865Y-76381D01*
Y-76353D01*
Y-76336D01*
Y-76331D01*
Y-75393D01*
X140876Y-75282D01*
X140898Y-75182D01*
X140937Y-75093D01*
X140976Y-75015D01*
X141015Y-74954D01*
X141054Y-74904D01*
X141076Y-74877D01*
X141087Y-74866D01*
X141170Y-74793D01*
X141259Y-74738D01*
X141348Y-74699D01*
X141431Y-74671D01*
X141503Y-74655D01*
X141564Y-74649D01*
X141586Y-74643D01*
X141992D01*
X142103Y-74655D01*
D02*
G37*
G36*
X145610Y-65971D02*
X145655Y-65993D01*
X145688Y-66026D01*
X145710Y-66060D01*
X145721Y-66093D01*
X145727Y-66126D01*
X145732Y-66149D01*
Y-66154D01*
Y-69529D01*
X145721Y-69590D01*
X145704Y-69634D01*
X145688Y-69656D01*
X145677Y-69667D01*
X145632Y-69695D01*
X145594Y-69706D01*
X145560Y-69712D01*
X145549D01*
X145494Y-69706D01*
X145449Y-69689D01*
X145427Y-69673D01*
X145416Y-69667D01*
X145383Y-69623D01*
X145366Y-69578D01*
X145360Y-69545D01*
Y-69534D01*
Y-69529D01*
Y-68213D01*
X144717D01*
X143834Y-69628D01*
X143806Y-69662D01*
X143784Y-69684D01*
X143768Y-69695D01*
X143762Y-69700D01*
X143734Y-69706D01*
X143707Y-69712D01*
X143684D01*
X143629Y-69706D01*
X143584Y-69684D01*
X143557Y-69667D01*
X143546Y-69662D01*
X143523Y-69639D01*
X143512Y-69617D01*
X143490Y-69573D01*
X143484Y-69540D01*
Y-69534D01*
Y-69529D01*
X143501Y-69467D01*
X143518Y-69423D01*
X144273Y-68213D01*
X144239D01*
X144128Y-68202D01*
X144023Y-68180D01*
X143934Y-68147D01*
X143856Y-68102D01*
X143795Y-68063D01*
X143745Y-68030D01*
X143718Y-68008D01*
X143707Y-67997D01*
X143634Y-67908D01*
X143579Y-67819D01*
X143540Y-67730D01*
X143512Y-67647D01*
X143496Y-67575D01*
X143490Y-67514D01*
X143484Y-67492D01*
Y-67475D01*
Y-67469D01*
Y-67464D01*
Y-66715D01*
X143496Y-66604D01*
X143518Y-66504D01*
X143557Y-66415D01*
X143596Y-66337D01*
X143634Y-66276D01*
X143673Y-66226D01*
X143695Y-66198D01*
X143707Y-66187D01*
X143790Y-66115D01*
X143879Y-66060D01*
X143967Y-66021D01*
X144051Y-65993D01*
X144123Y-65977D01*
X144184Y-65971D01*
X144206Y-65965D01*
X145549D01*
X145610Y-65971D01*
D02*
G37*
G36*
X141697D02*
X141770Y-65977D01*
X141914Y-66010D01*
X142030Y-66060D01*
X142130Y-66110D01*
X142214Y-66165D01*
X142247Y-66193D01*
X142269Y-66215D01*
X142291Y-66232D01*
X142308Y-66248D01*
X142314Y-66254D01*
X142319Y-66259D01*
X142397Y-66365D01*
X142452Y-66476D01*
X142491Y-66587D01*
X142519Y-66687D01*
X142535Y-66776D01*
X142541Y-66815D01*
Y-66848D01*
X142547Y-66870D01*
Y-66892D01*
Y-66903D01*
Y-66909D01*
X142541Y-66987D01*
X142535Y-67059D01*
X142524Y-67125D01*
X142508Y-67186D01*
X142491Y-67236D01*
X142480Y-67275D01*
X142474Y-67297D01*
X142469Y-67308D01*
X142436Y-67381D01*
X142397Y-67442D01*
X142358Y-67497D01*
X142319Y-67542D01*
X142286Y-67580D01*
X142258Y-67608D01*
X142241Y-67625D01*
X142236Y-67630D01*
X142325Y-67691D01*
X142402Y-67758D01*
X142469Y-67830D01*
X142519Y-67891D01*
X142563Y-67952D01*
X142591Y-67997D01*
X142608Y-68030D01*
X142613Y-68036D01*
Y-68041D01*
X142652Y-68135D01*
X142685Y-68235D01*
X142708Y-68330D01*
X142719Y-68413D01*
X142730Y-68485D01*
X142735Y-68541D01*
Y-68563D01*
Y-68579D01*
Y-68585D01*
Y-68590D01*
X142730Y-68674D01*
X142724Y-68757D01*
X142691Y-68907D01*
X142647Y-69040D01*
X142596Y-69151D01*
X142569Y-69201D01*
X142547Y-69245D01*
X142524Y-69279D01*
X142502Y-69312D01*
X142485Y-69334D01*
X142469Y-69351D01*
X142463Y-69362D01*
X142458Y-69367D01*
X142397Y-69429D01*
X142330Y-69478D01*
X142263Y-69529D01*
X142191Y-69567D01*
X142119Y-69601D01*
X142053Y-69628D01*
X141919Y-69667D01*
X141853Y-69684D01*
X141797Y-69695D01*
X141747Y-69700D01*
X141703Y-69706D01*
X141664Y-69712D01*
X141614D01*
X141514Y-69706D01*
X141426Y-69695D01*
X141337Y-69678D01*
X141259Y-69656D01*
X141181Y-69628D01*
X141115Y-69601D01*
X141048Y-69567D01*
X140993Y-69534D01*
X140943Y-69506D01*
X140898Y-69473D01*
X140859Y-69445D01*
X140826Y-69418D01*
X140804Y-69395D01*
X140787Y-69379D01*
X140776Y-69367D01*
X140771Y-69362D01*
X140721Y-69301D01*
X140676Y-69234D01*
X140637Y-69168D01*
X140604Y-69101D01*
X140554Y-68973D01*
X140521Y-68851D01*
X140504Y-68746D01*
X140499Y-68701D01*
X140493Y-68663D01*
X140488Y-68635D01*
Y-68613D01*
Y-68596D01*
Y-68590D01*
X140493Y-68480D01*
X140510Y-68380D01*
X140532Y-68285D01*
X140554Y-68208D01*
X140576Y-68135D01*
X140598Y-68085D01*
X140615Y-68052D01*
X140621Y-68041D01*
X140671Y-67947D01*
X140732Y-67869D01*
X140793Y-67797D01*
X140854Y-67741D01*
X140909Y-67697D01*
X140954Y-67664D01*
X140981Y-67642D01*
X140987Y-67636D01*
X140993D01*
X140937Y-67586D01*
X140893Y-67531D01*
X140848Y-67475D01*
X140815Y-67419D01*
X140793Y-67375D01*
X140776Y-67342D01*
X140765Y-67320D01*
X140760Y-67308D01*
X140732Y-67236D01*
X140709Y-67164D01*
X140698Y-67098D01*
X140687Y-67036D01*
X140682Y-66987D01*
X140676Y-66942D01*
Y-66920D01*
Y-66909D01*
Y-66837D01*
X140687Y-66770D01*
X140715Y-66648D01*
X140754Y-66537D01*
X140793Y-66443D01*
X140837Y-66365D01*
X140876Y-66309D01*
X140893Y-66287D01*
X140904Y-66271D01*
X140909Y-66265D01*
X140915Y-66259D01*
X140965Y-66210D01*
X141020Y-66160D01*
X141076Y-66121D01*
X141137Y-66088D01*
X141253Y-66037D01*
X141364Y-66004D01*
X141464Y-65982D01*
X141503Y-65977D01*
X141542Y-65971D01*
X141570Y-65965D01*
X141614D01*
X141697Y-65971D01*
D02*
G37*
G36*
X141797Y-57265D02*
X141825Y-57271D01*
X141847Y-57276D01*
X141853Y-57282D01*
X141881Y-57298D01*
X141908Y-57320D01*
X141925Y-57337D01*
X141930Y-57343D01*
X142680Y-58097D01*
X142713Y-58142D01*
X142730Y-58186D01*
X142735Y-58214D01*
Y-58220D01*
Y-58225D01*
X142730Y-58253D01*
X142724Y-58275D01*
X142702Y-58319D01*
X142685Y-58347D01*
X142674Y-58353D01*
Y-58358D01*
X142630Y-58392D01*
X142585Y-58408D01*
X142558Y-58414D01*
X142547D01*
X142497Y-58403D01*
X142452Y-58386D01*
X142424Y-58369D01*
X142413Y-58358D01*
X141981Y-57925D01*
Y-60850D01*
X141969Y-60911D01*
X141953Y-60956D01*
X141936Y-60978D01*
X141925Y-60989D01*
X141881Y-61017D01*
X141842Y-61028D01*
X141808Y-61033D01*
X141797D01*
X141742Y-61028D01*
X141697Y-61011D01*
X141675Y-60995D01*
X141664Y-60989D01*
X141631Y-60945D01*
X141614Y-60900D01*
X141609Y-60867D01*
Y-60856D01*
Y-60850D01*
Y-57476D01*
X141614Y-57409D01*
X141631Y-57359D01*
X141653Y-57326D01*
X141659Y-57315D01*
X141703Y-57282D01*
X141736Y-57265D01*
X141759Y-57260D01*
X141764D01*
X141797Y-57265D01*
D02*
G37*
G36*
X145610Y-57293D02*
X145655Y-57315D01*
X145688Y-57348D01*
X145710Y-57382D01*
X145721Y-57415D01*
X145727Y-57448D01*
X145732Y-57470D01*
Y-57476D01*
Y-60850D01*
X145721Y-60911D01*
X145704Y-60956D01*
X145688Y-60978D01*
X145677Y-60989D01*
X145632Y-61017D01*
X145594Y-61028D01*
X145560Y-61033D01*
X145549D01*
X145494Y-61028D01*
X145449Y-61011D01*
X145427Y-60995D01*
X145416Y-60989D01*
X145383Y-60945D01*
X145366Y-60900D01*
X145360Y-60867D01*
Y-60856D01*
Y-60850D01*
Y-59535D01*
X144717D01*
X143834Y-60950D01*
X143806Y-60984D01*
X143784Y-61006D01*
X143768Y-61017D01*
X143762Y-61022D01*
X143734Y-61028D01*
X143707Y-61033D01*
X143684D01*
X143629Y-61028D01*
X143584Y-61006D01*
X143557Y-60989D01*
X143546Y-60984D01*
X143523Y-60961D01*
X143512Y-60939D01*
X143490Y-60895D01*
X143484Y-60861D01*
Y-60856D01*
Y-60850D01*
X143501Y-60789D01*
X143518Y-60745D01*
X144273Y-59535D01*
X144239D01*
X144128Y-59524D01*
X144023Y-59502D01*
X143934Y-59468D01*
X143856Y-59424D01*
X143795Y-59385D01*
X143745Y-59352D01*
X143718Y-59330D01*
X143707Y-59319D01*
X143634Y-59230D01*
X143579Y-59141D01*
X143540Y-59052D01*
X143512Y-58969D01*
X143496Y-58897D01*
X143490Y-58836D01*
X143484Y-58814D01*
Y-58797D01*
Y-58791D01*
Y-58786D01*
Y-58037D01*
X143496Y-57925D01*
X143518Y-57826D01*
X143557Y-57737D01*
X143596Y-57659D01*
X143634Y-57598D01*
X143673Y-57548D01*
X143695Y-57520D01*
X143707Y-57509D01*
X143790Y-57437D01*
X143879Y-57382D01*
X143967Y-57343D01*
X144051Y-57315D01*
X144123Y-57298D01*
X144184Y-57293D01*
X144206Y-57287D01*
X145549D01*
X145610Y-57293D01*
D02*
G37*
G36*
X140166Y-57298D02*
X140282Y-57326D01*
X140376Y-57365D01*
X140465Y-57409D01*
X140532Y-57459D01*
X140582Y-57498D01*
X140615Y-57526D01*
X140621Y-57531D01*
X140626Y-57537D01*
X140671Y-57587D01*
X140704Y-57631D01*
X140765Y-57731D01*
X140804Y-57831D01*
X140837Y-57920D01*
X140854Y-57998D01*
X140859Y-58059D01*
X140865Y-58081D01*
Y-58097D01*
Y-58109D01*
Y-58114D01*
Y-60212D01*
X140859Y-60279D01*
X140854Y-60340D01*
X140826Y-60451D01*
X140787Y-60551D01*
X140743Y-60639D01*
X140698Y-60706D01*
X140660Y-60756D01*
X140632Y-60789D01*
X140621Y-60795D01*
Y-60800D01*
X140526Y-60878D01*
X140427Y-60934D01*
X140332Y-60978D01*
X140238Y-61006D01*
X140160Y-61022D01*
X140099Y-61028D01*
X140077Y-61033D01*
X139822D01*
X139760Y-61028D01*
X139699Y-61022D01*
X139583Y-60995D01*
X139483Y-60956D01*
X139400Y-60911D01*
X139333Y-60867D01*
X139283Y-60828D01*
X139250Y-60800D01*
X139239Y-60789D01*
X139194Y-60745D01*
X139155Y-60695D01*
X139100Y-60595D01*
X139056Y-60501D01*
X139022Y-60406D01*
X139006Y-60329D01*
X139000Y-60268D01*
X138995Y-60245D01*
Y-60229D01*
Y-60218D01*
Y-60212D01*
Y-58114D01*
Y-58053D01*
X139006Y-57992D01*
X139033Y-57876D01*
X139072Y-57776D01*
X139117Y-57692D01*
X139167Y-57626D01*
X139206Y-57576D01*
X139233Y-57543D01*
X139239Y-57531D01*
X139244D01*
X139289Y-57487D01*
X139339Y-57448D01*
X139439Y-57393D01*
X139533Y-57348D01*
X139622Y-57315D01*
X139705Y-57298D01*
X139766Y-57293D01*
X139788Y-57287D01*
X140105D01*
X140166Y-57298D01*
D02*
G37*
G36*
X285839Y-173369D02*
X285945Y-173391D01*
X286033Y-173430D01*
X286111Y-173469D01*
X286178Y-173507D01*
X286222Y-173546D01*
X286250Y-173569D01*
X286261Y-173580D01*
X286333Y-173669D01*
X286389Y-173757D01*
X286422Y-173846D01*
X286450Y-173929D01*
X286466Y-174002D01*
X286472Y-174057D01*
X286477Y-174079D01*
Y-175045D01*
X286472Y-175078D01*
X286466Y-175106D01*
X286444Y-175145D01*
X286427Y-175172D01*
X286416Y-175178D01*
X286372Y-175206D01*
X286333Y-175223D01*
X286305Y-175228D01*
X286294D01*
X286244Y-175217D01*
X286205Y-175200D01*
X286178Y-175184D01*
X286167Y-175172D01*
X286144Y-175150D01*
X286133Y-175128D01*
X286111Y-175089D01*
X286105Y-175056D01*
Y-174101D01*
X286100Y-174051D01*
X286094Y-174007D01*
X286089Y-173968D01*
X286083Y-173963D01*
Y-173957D01*
X286056Y-173913D01*
X286028Y-173874D01*
X286006Y-173846D01*
X286000Y-173835D01*
X285956Y-173802D01*
X285911Y-173774D01*
X285867Y-173757D01*
X285823Y-173741D01*
X285789Y-173735D01*
X285761Y-173730D01*
X285739D01*
X285734D01*
X283480D01*
X283425Y-173735D01*
X283381Y-173741D01*
X283347Y-173746D01*
X283342Y-173752D01*
X283336D01*
X283286Y-173774D01*
X283247Y-173802D01*
X283225Y-173824D01*
X283214Y-173835D01*
X283175Y-173879D01*
X283147Y-173924D01*
X283131Y-173968D01*
X283114Y-174013D01*
X283108Y-174046D01*
X283103Y-174074D01*
Y-175039D01*
X283097Y-175073D01*
X283092Y-175100D01*
X283070Y-175145D01*
X283053Y-175172D01*
X283042Y-175178D01*
X282997Y-175206D01*
X282959Y-175223D01*
X282931Y-175228D01*
X282920D01*
X282870Y-175217D01*
X282831Y-175200D01*
X282803Y-175184D01*
X282792Y-175172D01*
X282770Y-175150D01*
X282759Y-175134D01*
X282737Y-175089D01*
X282731Y-175056D01*
Y-174107D01*
X282742Y-173996D01*
X282764Y-173890D01*
X282803Y-173802D01*
X282842Y-173724D01*
X282881Y-173657D01*
X282920Y-173613D01*
X282942Y-173585D01*
X282953Y-173574D01*
X283036Y-173502D01*
X283125Y-173447D01*
X283214Y-173413D01*
X283297Y-173385D01*
X283369Y-173369D01*
X283430Y-173363D01*
X283453Y-173358D01*
X283464D01*
X283475D01*
X283480D01*
X285728D01*
X285839Y-173369D01*
D02*
G37*
G36*
X286344Y-175966D02*
X286389Y-175983D01*
X286416Y-175999D01*
X286422Y-176005D01*
X286427D01*
X286455Y-176049D01*
X286472Y-176094D01*
X286477Y-176133D01*
Y-176893D01*
X286472Y-176965D01*
X286466Y-177032D01*
X286433Y-177159D01*
X286389Y-177270D01*
X286339Y-177365D01*
X286289Y-177448D01*
X286250Y-177504D01*
X286228Y-177526D01*
X286216Y-177542D01*
X286211Y-177548D01*
X286205Y-177553D01*
X286150Y-177603D01*
X286094Y-177648D01*
X286039Y-177681D01*
X285983Y-177714D01*
X285872Y-177764D01*
X285772Y-177798D01*
X285678Y-177814D01*
X285639Y-177825D01*
X285612D01*
X285584Y-177831D01*
X285562D01*
X285550D01*
X285545D01*
X285173D01*
X285090Y-177825D01*
X285012Y-177809D01*
X284940Y-177792D01*
X284879Y-177776D01*
X284823Y-177753D01*
X284785Y-177737D01*
X284762Y-177726D01*
X284751Y-177720D01*
X284679Y-177681D01*
X284618Y-177637D01*
X284563Y-177598D01*
X284518Y-177553D01*
X284479Y-177520D01*
X284452Y-177492D01*
X284435Y-177470D01*
X284429Y-177465D01*
X284374Y-177531D01*
X284313Y-177587D01*
X284257Y-177631D01*
X284202Y-177670D01*
X284157Y-177698D01*
X284124Y-177720D01*
X284096Y-177731D01*
X284091Y-177737D01*
X284019Y-177764D01*
X283941Y-177787D01*
X283874Y-177803D01*
X283808Y-177820D01*
X283752Y-177825D01*
X283708Y-177831D01*
X283680D01*
X283669D01*
X283597D01*
X283530Y-177820D01*
X283408Y-177792D01*
X283297Y-177753D01*
X283203Y-177714D01*
X283131Y-177670D01*
X283075Y-177631D01*
X283053Y-177614D01*
X283036Y-177603D01*
X283031Y-177598D01*
X283025Y-177592D01*
X282975Y-177542D01*
X282931Y-177487D01*
X282892Y-177431D01*
X282859Y-177376D01*
X282809Y-177259D01*
X282770Y-177143D01*
X282753Y-177048D01*
X282748Y-177004D01*
X282742Y-176965D01*
X282737Y-176937D01*
Y-176110D01*
X282748Y-176083D01*
X282764Y-176044D01*
X282787Y-176016D01*
X282792Y-176005D01*
X282798D01*
X282842Y-175977D01*
X282887Y-175966D01*
X282914Y-175961D01*
X282920D01*
X282925D01*
X282981Y-175966D01*
X283020Y-175983D01*
X283048Y-175999D01*
X283059Y-176005D01*
X283086Y-176049D01*
X283103Y-176094D01*
X283108Y-176133D01*
Y-176893D01*
X283114Y-176987D01*
X283136Y-177071D01*
X283164Y-177143D01*
X283192Y-177204D01*
X283225Y-177248D01*
X283253Y-177281D01*
X283275Y-177304D01*
X283281Y-177309D01*
X283342Y-177354D01*
X283408Y-177387D01*
X283469Y-177409D01*
X283530Y-177426D01*
X283586Y-177437D01*
X283625Y-177443D01*
X283652D01*
X283664D01*
X283747Y-177437D01*
X283824Y-177420D01*
X283891Y-177398D01*
X283947Y-177376D01*
X283997Y-177348D01*
X284030Y-177326D01*
X284052Y-177309D01*
X284058Y-177304D01*
X284119Y-177243D01*
X284157Y-177171D01*
X284191Y-177104D01*
X284213Y-177037D01*
X284224Y-176982D01*
X284230Y-176937D01*
X284235Y-176904D01*
Y-176488D01*
X284246Y-176460D01*
X284268Y-176416D01*
X284291Y-176388D01*
X284296Y-176377D01*
X284302D01*
X284346Y-176349D01*
X284385Y-176338D01*
X284413Y-176332D01*
X284418D01*
X284424D01*
X284474Y-176338D01*
X284518Y-176360D01*
X284546Y-176377D01*
X284552Y-176382D01*
X284557D01*
X284585Y-176427D01*
X284601Y-176471D01*
X284607Y-176505D01*
Y-176893D01*
X284613Y-176976D01*
X284635Y-177054D01*
X284657Y-177126D01*
X284690Y-177182D01*
X284718Y-177232D01*
X284746Y-177265D01*
X284768Y-177287D01*
X284773Y-177293D01*
X284840Y-177348D01*
X284907Y-177387D01*
X284973Y-177420D01*
X285034Y-177437D01*
X285090Y-177448D01*
X285134Y-177459D01*
X285162D01*
X285173D01*
X285545D01*
X285628Y-177454D01*
X285706Y-177431D01*
X285772Y-177409D01*
X285834Y-177376D01*
X285878Y-177348D01*
X285917Y-177320D01*
X285939Y-177298D01*
X285945Y-177293D01*
X286000Y-177226D01*
X286039Y-177159D01*
X286067Y-177093D01*
X286083Y-177032D01*
X286094Y-176976D01*
X286105Y-176932D01*
Y-176110D01*
X286117Y-176083D01*
X286139Y-176038D01*
X286161Y-176016D01*
X286167Y-176005D01*
X286172D01*
X286216Y-175977D01*
X286255Y-175966D01*
X286283Y-175961D01*
X286289D01*
X286294D01*
X286344Y-175966D01*
D02*
G37*
G36*
X260315Y-28192D02*
X260387Y-28203D01*
X260415Y-28215D01*
X260437Y-28220D01*
X260448Y-28226D01*
X260454D01*
X260531Y-28253D01*
X260603Y-28287D01*
X260631Y-28298D01*
X260653Y-28309D01*
X260664Y-28315D01*
X260670Y-28320D01*
X260748Y-28370D01*
X260820Y-28425D01*
X260875Y-28481D01*
X260925Y-28531D01*
X260970Y-28575D01*
X260997Y-28614D01*
X261014Y-28636D01*
X261020Y-28648D01*
X261036Y-28692D01*
X261047Y-28725D01*
X261053Y-28747D01*
Y-28753D01*
X261047Y-28781D01*
X261042Y-28808D01*
X261020Y-28847D01*
X261003Y-28875D01*
X260992Y-28886D01*
X260947Y-28914D01*
X260903Y-28931D01*
X260870Y-28936D01*
X260859D01*
X260775Y-28919D01*
X260742Y-28897D01*
X260720Y-28875D01*
X260709Y-28858D01*
X260703Y-28853D01*
X260637Y-28764D01*
X260598Y-28725D01*
X260564Y-28692D01*
X260531Y-28670D01*
X260509Y-28653D01*
X260492Y-28642D01*
X260487Y-28636D01*
X260437Y-28609D01*
X260387Y-28592D01*
X260343Y-28575D01*
X260298Y-28570D01*
X260265Y-28564D01*
X260237Y-28559D01*
X260215D01*
X260115Y-28564D01*
X260071Y-28575D01*
X260037Y-28581D01*
X260004Y-28592D01*
X259982Y-28603D01*
X259965Y-28609D01*
X259960D01*
X259876Y-28653D01*
X259815Y-28692D01*
X259788Y-28714D01*
X259771Y-28725D01*
X259760Y-28736D01*
X259754Y-28742D01*
X259693Y-28808D01*
X259643Y-28881D01*
X259610Y-28953D01*
X259588Y-29014D01*
X259577Y-29075D01*
X259565Y-29119D01*
Y-29147D01*
Y-29153D01*
Y-29158D01*
X259571Y-29208D01*
X259577Y-29258D01*
X259588Y-29308D01*
X259599Y-29347D01*
X259615Y-29386D01*
X259627Y-29413D01*
X259632Y-29436D01*
X259638Y-29441D01*
X261020Y-31644D01*
X261047Y-31700D01*
X261058Y-31744D01*
X261064Y-31772D01*
Y-31783D01*
X261053Y-31833D01*
X261031Y-31872D01*
X260997Y-31894D01*
X260959Y-31916D01*
X260925Y-31927D01*
X260892Y-31933D01*
X259360D01*
X259327Y-31927D01*
X259299Y-31922D01*
X259260Y-31900D01*
X259232Y-31883D01*
X259227Y-31872D01*
X259199Y-31828D01*
X259183Y-31789D01*
X259177Y-31761D01*
Y-31750D01*
X259188Y-31700D01*
X259205Y-31661D01*
X259221Y-31633D01*
X259232Y-31622D01*
X259255Y-31600D01*
X259271Y-31589D01*
X259316Y-31567D01*
X259349Y-31561D01*
X260526D01*
X259316Y-29635D01*
X259277Y-29547D01*
X259244Y-29463D01*
X259221Y-29386D01*
X259210Y-29319D01*
X259199Y-29258D01*
X259194Y-29214D01*
Y-29186D01*
Y-29175D01*
X259199Y-29103D01*
X259205Y-29030D01*
X259244Y-28897D01*
X259288Y-28775D01*
X259344Y-28675D01*
X259405Y-28592D01*
X259427Y-28559D01*
X259449Y-28531D01*
X259471Y-28509D01*
X259488Y-28492D01*
X259493Y-28486D01*
X259499Y-28481D01*
X259560Y-28431D01*
X259621Y-28381D01*
X259682Y-28342D01*
X259743Y-28309D01*
X259871Y-28259D01*
X259987Y-28226D01*
X260087Y-28203D01*
X260132Y-28198D01*
X260171Y-28192D01*
X260198Y-28187D01*
X260243D01*
X260315Y-28192D01*
D02*
G37*
G36*
X263023Y-28198D02*
X263129Y-28220D01*
X263217Y-28259D01*
X263295Y-28298D01*
X263362Y-28337D01*
X263406Y-28376D01*
X263434Y-28398D01*
X263445Y-28409D01*
X263517Y-28492D01*
X263573Y-28581D01*
X263606Y-28670D01*
X263634Y-28753D01*
X263650Y-28825D01*
X263656Y-28886D01*
X263661Y-28908D01*
Y-28919D01*
Y-28931D01*
Y-28936D01*
Y-31184D01*
X263650Y-31295D01*
X263628Y-31400D01*
X263589Y-31489D01*
X263550Y-31567D01*
X263512Y-31633D01*
X263473Y-31678D01*
X263451Y-31705D01*
X263439Y-31717D01*
X263351Y-31789D01*
X263262Y-31844D01*
X263173Y-31878D01*
X263090Y-31905D01*
X263018Y-31922D01*
X262962Y-31927D01*
X262940Y-31933D01*
X261974D01*
X261941Y-31927D01*
X261913Y-31922D01*
X261874Y-31900D01*
X261847Y-31883D01*
X261841Y-31872D01*
X261813Y-31828D01*
X261797Y-31789D01*
X261791Y-31761D01*
Y-31750D01*
X261802Y-31700D01*
X261819Y-31661D01*
X261836Y-31633D01*
X261847Y-31622D01*
X261869Y-31600D01*
X261891Y-31589D01*
X261930Y-31567D01*
X261963Y-31561D01*
X262918D01*
X262968Y-31556D01*
X263012Y-31550D01*
X263051Y-31545D01*
X263056Y-31539D01*
X263062D01*
X263106Y-31511D01*
X263145Y-31484D01*
X263173Y-31461D01*
X263184Y-31456D01*
X263217Y-31411D01*
X263245Y-31367D01*
X263262Y-31323D01*
X263279Y-31278D01*
X263284Y-31245D01*
X263290Y-31217D01*
Y-31195D01*
Y-31189D01*
Y-28936D01*
X263284Y-28881D01*
X263279Y-28836D01*
X263273Y-28803D01*
X263267Y-28797D01*
Y-28792D01*
X263245Y-28742D01*
X263217Y-28703D01*
X263195Y-28681D01*
X263184Y-28670D01*
X263140Y-28631D01*
X263095Y-28603D01*
X263051Y-28586D01*
X263006Y-28570D01*
X262973Y-28564D01*
X262946Y-28559D01*
X261980D01*
X261947Y-28553D01*
X261919Y-28548D01*
X261874Y-28525D01*
X261847Y-28509D01*
X261841Y-28498D01*
X261813Y-28453D01*
X261797Y-28414D01*
X261791Y-28387D01*
Y-28376D01*
X261802Y-28326D01*
X261819Y-28287D01*
X261836Y-28259D01*
X261847Y-28248D01*
X261869Y-28226D01*
X261885Y-28215D01*
X261930Y-28192D01*
X261963Y-28187D01*
X262912D01*
X263023Y-28198D01*
D02*
G37*
G36*
X143962Y-149852D02*
X144001Y-149869D01*
X144028Y-149885D01*
X144039Y-149896D01*
X144062Y-149918D01*
X144073Y-149941D01*
X144095Y-149985D01*
X144101Y-150018D01*
Y-151528D01*
X144095Y-151589D01*
X144073Y-151633D01*
X144039Y-151667D01*
X144006Y-151689D01*
X143973Y-151700D01*
X143940Y-151706D01*
X143917Y-151711D01*
X143912D01*
X142408D01*
X142347Y-151706D01*
X142302Y-151683D01*
X142269Y-151656D01*
X142247Y-151617D01*
X142236Y-151584D01*
X142230Y-151556D01*
X142225Y-151533D01*
Y-150779D01*
X142219Y-150696D01*
X142197Y-150618D01*
X142175Y-150546D01*
X142141Y-150490D01*
X142114Y-150440D01*
X142086Y-150407D01*
X142064Y-150385D01*
X142058Y-150379D01*
X141992Y-150324D01*
X141925Y-150285D01*
X141858Y-150251D01*
X141797Y-150235D01*
X141742Y-150224D01*
X141697Y-150213D01*
X141670D01*
X141659D01*
X141287D01*
X141198Y-150218D01*
X141120Y-150240D01*
X141054Y-150263D01*
X140993Y-150296D01*
X140948Y-150324D01*
X140909Y-150351D01*
X140887Y-150374D01*
X140882Y-150379D01*
X140832Y-150446D01*
X140793Y-150512D01*
X140765Y-150579D01*
X140748Y-150640D01*
X140737Y-150696D01*
X140726Y-150740D01*
Y-151561D01*
X140715Y-151589D01*
X140698Y-151628D01*
X140676Y-151656D01*
X140671Y-151667D01*
X140665D01*
X140621Y-151695D01*
X140576Y-151706D01*
X140549Y-151711D01*
X140543D01*
X140538D01*
X140482Y-151706D01*
X140443Y-151689D01*
X140415Y-151672D01*
X140404Y-151667D01*
X140376Y-151622D01*
X140360Y-151578D01*
X140354Y-151539D01*
Y-150779D01*
X140360Y-150707D01*
X140365Y-150640D01*
X140399Y-150512D01*
X140443Y-150401D01*
X140493Y-150307D01*
X140543Y-150224D01*
X140582Y-150168D01*
X140604Y-150146D01*
X140615Y-150129D01*
X140621Y-150124D01*
X140626Y-150118D01*
X140682Y-150068D01*
X140737Y-150024D01*
X140793Y-149991D01*
X140848Y-149957D01*
X140959Y-149907D01*
X141059Y-149874D01*
X141154Y-149857D01*
X141192Y-149846D01*
X141220D01*
X141248Y-149841D01*
X141270D01*
X141281D01*
X141287D01*
X141659D01*
X141731Y-149846D01*
X141797Y-149852D01*
X141925Y-149885D01*
X142036Y-149930D01*
X142136Y-149979D01*
X142214Y-150030D01*
X142269Y-150074D01*
X142291Y-150091D01*
X142308Y-150107D01*
X142314Y-150113D01*
X142319Y-150118D01*
X142369Y-150174D01*
X142413Y-150224D01*
X142447Y-150285D01*
X142480Y-150340D01*
X142530Y-150451D01*
X142563Y-150551D01*
X142580Y-150640D01*
X142591Y-150679D01*
Y-150712D01*
X142596Y-150740D01*
Y-151339D01*
X143729D01*
Y-150030D01*
X143734Y-149996D01*
X143740Y-149968D01*
X143762Y-149924D01*
X143779Y-149896D01*
X143790Y-149891D01*
X143834Y-149863D01*
X143873Y-149846D01*
X143901Y-149841D01*
X143912D01*
X143962Y-149852D01*
D02*
G37*
G36*
Y-152471D02*
X144001Y-152488D01*
X144028Y-152505D01*
X144039Y-152516D01*
X144062Y-152538D01*
X144073Y-152555D01*
X144095Y-152599D01*
X144101Y-152632D01*
Y-153582D01*
X144089Y-153692D01*
X144067Y-153798D01*
X144028Y-153887D01*
X143990Y-153964D01*
X143951Y-154031D01*
X143912Y-154075D01*
X143890Y-154103D01*
X143879Y-154114D01*
X143795Y-154186D01*
X143707Y-154242D01*
X143618Y-154275D01*
X143535Y-154303D01*
X143462Y-154320D01*
X143401Y-154325D01*
X143379Y-154331D01*
X143368D01*
X143357D01*
X143351D01*
X141104D01*
X140993Y-154320D01*
X140887Y-154297D01*
X140798Y-154259D01*
X140721Y-154220D01*
X140654Y-154181D01*
X140610Y-154142D01*
X140582Y-154120D01*
X140571Y-154109D01*
X140499Y-154020D01*
X140443Y-153931D01*
X140410Y-153842D01*
X140382Y-153759D01*
X140365Y-153687D01*
X140360Y-153631D01*
X140354Y-153609D01*
Y-152644D01*
X140360Y-152610D01*
X140365Y-152583D01*
X140388Y-152544D01*
X140404Y-152516D01*
X140415Y-152510D01*
X140460Y-152483D01*
X140499Y-152466D01*
X140526Y-152460D01*
X140538D01*
X140587Y-152471D01*
X140626Y-152488D01*
X140654Y-152505D01*
X140665Y-152516D01*
X140687Y-152538D01*
X140698Y-152560D01*
X140721Y-152599D01*
X140726Y-152632D01*
Y-153587D01*
X140732Y-153637D01*
X140737Y-153681D01*
X140743Y-153720D01*
X140748Y-153726D01*
Y-153731D01*
X140776Y-153776D01*
X140804Y-153815D01*
X140826Y-153842D01*
X140832Y-153853D01*
X140876Y-153887D01*
X140920Y-153914D01*
X140965Y-153931D01*
X141009Y-153948D01*
X141042Y-153953D01*
X141070Y-153959D01*
X141093D01*
X141098D01*
X143351D01*
X143407Y-153953D01*
X143451Y-153948D01*
X143484Y-153942D01*
X143490Y-153937D01*
X143496D01*
X143546Y-153914D01*
X143584Y-153887D01*
X143607Y-153865D01*
X143618Y-153853D01*
X143657Y-153809D01*
X143684Y-153765D01*
X143701Y-153720D01*
X143718Y-153676D01*
X143723Y-153642D01*
X143729Y-153615D01*
Y-152649D01*
X143734Y-152616D01*
X143740Y-152588D01*
X143762Y-152544D01*
X143779Y-152516D01*
X143790Y-152510D01*
X143834Y-152483D01*
X143873Y-152466D01*
X143901Y-152460D01*
X143912D01*
X143962Y-152471D01*
D02*
G37*
G36*
X296134Y-144750D02*
X296173Y-144767D01*
X296201Y-144783D01*
X296212Y-144794D01*
X296234Y-144817D01*
X296245Y-144839D01*
X296268Y-144883D01*
X296273Y-144917D01*
Y-145299D01*
X296834D01*
X296867D01*
X296895Y-145311D01*
X296939Y-145327D01*
X296967Y-145350D01*
X296972Y-145355D01*
Y-145361D01*
X297000Y-145405D01*
X297017Y-145444D01*
X297022Y-145477D01*
Y-145488D01*
X297017Y-145538D01*
X297000Y-145577D01*
X296978Y-145605D01*
X296972Y-145616D01*
X296922Y-145649D01*
X296878Y-145666D01*
X296845Y-145671D01*
X296839D01*
X296834D01*
X296273D01*
Y-146554D01*
X298659Y-145871D01*
X298715Y-145866D01*
X298770Y-145877D01*
X298815Y-145893D01*
X298837Y-145910D01*
X298848Y-145921D01*
X298882Y-145966D01*
X298898Y-146010D01*
X298904Y-146043D01*
Y-146088D01*
X298898Y-146110D01*
X298893Y-146126D01*
X298887Y-146132D01*
X298865Y-146165D01*
X298832Y-146199D01*
X298798Y-146215D01*
X298776Y-146226D01*
X298765Y-146232D01*
X296140Y-146981D01*
X296095Y-146992D01*
X296051D01*
X296001Y-146981D01*
X295962Y-146959D01*
X295940Y-146931D01*
X295918Y-146892D01*
X295907Y-146859D01*
X295901Y-146826D01*
Y-145671D01*
X295341D01*
X295280Y-145660D01*
X295235Y-145644D01*
X295213Y-145627D01*
X295202Y-145616D01*
X295174Y-145571D01*
X295163Y-145533D01*
X295158Y-145499D01*
Y-145488D01*
X295163Y-145433D01*
X295180Y-145388D01*
X295196Y-145366D01*
X295202Y-145355D01*
X295246Y-145322D01*
X295291Y-145305D01*
X295324Y-145299D01*
X295335D01*
X295341D01*
X295901D01*
Y-144928D01*
X295907Y-144894D01*
X295912Y-144867D01*
X295935Y-144822D01*
X295951Y-144794D01*
X295962Y-144789D01*
X296007Y-144761D01*
X296045Y-144745D01*
X296073Y-144739D01*
X296084D01*
X296134Y-144750D01*
D02*
G37*
G36*
X298765Y-147747D02*
X298804Y-147764D01*
X298832Y-147780D01*
X298843Y-147792D01*
X298865Y-147814D01*
X298876Y-147830D01*
X298898Y-147875D01*
X298904Y-147908D01*
Y-148857D01*
X298893Y-148968D01*
X298870Y-149074D01*
X298832Y-149162D01*
X298793Y-149240D01*
X298754Y-149307D01*
X298715Y-149351D01*
X298693Y-149379D01*
X298682Y-149390D01*
X298599Y-149462D01*
X298510Y-149518D01*
X298421Y-149551D01*
X298338Y-149578D01*
X298266Y-149595D01*
X298204Y-149601D01*
X298182Y-149606D01*
X298171D01*
X298160D01*
X298154D01*
X295907D01*
X295796Y-149595D01*
X295690Y-149573D01*
X295602Y-149534D01*
X295524Y-149495D01*
X295457Y-149456D01*
X295413Y-149418D01*
X295385Y-149395D01*
X295374Y-149384D01*
X295302Y-149295D01*
X295246Y-149207D01*
X295213Y-149118D01*
X295185Y-149035D01*
X295169Y-148962D01*
X295163Y-148907D01*
X295158Y-148885D01*
Y-147919D01*
X295163Y-147886D01*
X295169Y-147858D01*
X295191Y-147819D01*
X295207Y-147792D01*
X295218Y-147786D01*
X295263Y-147758D01*
X295302Y-147741D01*
X295329Y-147736D01*
X295341D01*
X295391Y-147747D01*
X295429Y-147764D01*
X295457Y-147780D01*
X295468Y-147792D01*
X295491Y-147814D01*
X295502Y-147836D01*
X295524Y-147875D01*
X295529Y-147908D01*
Y-148863D01*
X295535Y-148913D01*
X295540Y-148957D01*
X295546Y-148996D01*
X295551Y-149001D01*
Y-149007D01*
X295579Y-149051D01*
X295607Y-149090D01*
X295629Y-149118D01*
X295635Y-149129D01*
X295679Y-149162D01*
X295724Y-149190D01*
X295768Y-149207D01*
X295812Y-149223D01*
X295846Y-149229D01*
X295873Y-149234D01*
X295896D01*
X295901D01*
X298154D01*
X298210Y-149229D01*
X298254Y-149223D01*
X298288Y-149218D01*
X298293Y-149212D01*
X298299D01*
X298349Y-149190D01*
X298388Y-149162D01*
X298410Y-149140D01*
X298421Y-149129D01*
X298460Y-149085D01*
X298487Y-149040D01*
X298504Y-148996D01*
X298521Y-148951D01*
X298526Y-148918D01*
X298532Y-148890D01*
Y-147925D01*
X298537Y-147891D01*
X298543Y-147864D01*
X298565Y-147819D01*
X298582Y-147792D01*
X298593Y-147786D01*
X298637Y-147758D01*
X298676Y-147741D01*
X298704Y-147736D01*
X298715D01*
X298765Y-147747D01*
D02*
G37*
G36*
X231647Y-88151D02*
X231691Y-88173D01*
X231719Y-88190D01*
X231730Y-88196D01*
X231752Y-88218D01*
X231763Y-88240D01*
X231785Y-88284D01*
X231791Y-88318D01*
Y-88323D01*
Y-88329D01*
X231774Y-88390D01*
X231758Y-88434D01*
X231003Y-89644D01*
X231036D01*
X231147Y-89655D01*
X231253Y-89678D01*
X231342Y-89711D01*
X231419Y-89755D01*
X231480Y-89794D01*
X231530Y-89827D01*
X231558Y-89850D01*
X231569Y-89861D01*
X231641Y-89949D01*
X231697Y-90038D01*
X231736Y-90127D01*
X231763Y-90210D01*
X231780Y-90282D01*
X231785Y-90343D01*
X231791Y-90366D01*
Y-90382D01*
Y-90388D01*
Y-90393D01*
Y-91143D01*
X231780Y-91254D01*
X231758Y-91354D01*
X231719Y-91442D01*
X231680Y-91520D01*
X231641Y-91581D01*
X231602Y-91631D01*
X231580Y-91659D01*
X231569Y-91670D01*
X231486Y-91742D01*
X231397Y-91798D01*
X231308Y-91836D01*
X231225Y-91864D01*
X231153Y-91881D01*
X231092Y-91886D01*
X231069Y-91892D01*
X229727D01*
X229665Y-91886D01*
X229621Y-91864D01*
X229588Y-91831D01*
X229566Y-91798D01*
X229554Y-91764D01*
X229549Y-91731D01*
X229543Y-91709D01*
Y-91703D01*
Y-88329D01*
X229554Y-88268D01*
X229571Y-88223D01*
X229588Y-88201D01*
X229599Y-88190D01*
X229643Y-88162D01*
X229682Y-88151D01*
X229715Y-88146D01*
X229727D01*
X229782Y-88151D01*
X229826Y-88168D01*
X229849Y-88184D01*
X229860Y-88190D01*
X229893Y-88235D01*
X229910Y-88279D01*
X229915Y-88312D01*
Y-88323D01*
Y-88329D01*
Y-89644D01*
X230559D01*
X231441Y-88229D01*
X231469Y-88196D01*
X231491Y-88173D01*
X231508Y-88162D01*
X231514Y-88157D01*
X231541Y-88151D01*
X231569Y-88146D01*
X231591D01*
X231647Y-88151D01*
D02*
G37*
G36*
X234094D02*
X234139Y-88168D01*
X234161Y-88184D01*
X234172Y-88190D01*
X234205Y-88235D01*
X234222Y-88279D01*
X234227Y-88312D01*
Y-88323D01*
Y-88329D01*
Y-88889D01*
X234599D01*
X234633Y-88895D01*
X234660Y-88901D01*
X234705Y-88923D01*
X234733Y-88939D01*
X234738Y-88950D01*
X234766Y-88995D01*
X234783Y-89034D01*
X234788Y-89061D01*
Y-89073D01*
X234777Y-89122D01*
X234760Y-89161D01*
X234744Y-89189D01*
X234733Y-89200D01*
X234710Y-89222D01*
X234688Y-89233D01*
X234644Y-89256D01*
X234610Y-89261D01*
X234227D01*
Y-89822D01*
Y-89855D01*
X234216Y-89883D01*
X234200Y-89927D01*
X234178Y-89955D01*
X234172Y-89960D01*
X234166D01*
X234122Y-89988D01*
X234083Y-90005D01*
X234050Y-90010D01*
X234039D01*
X233989Y-90005D01*
X233950Y-89988D01*
X233922Y-89966D01*
X233911Y-89960D01*
X233878Y-89911D01*
X233861Y-89866D01*
X233856Y-89833D01*
Y-89827D01*
Y-89822D01*
Y-89261D01*
X232973D01*
X233656Y-91648D01*
X233661Y-91703D01*
X233650Y-91759D01*
X233634Y-91803D01*
X233617Y-91825D01*
X233606Y-91836D01*
X233561Y-91870D01*
X233517Y-91886D01*
X233484Y-91892D01*
X233439D01*
X233417Y-91886D01*
X233401Y-91881D01*
X233395Y-91875D01*
X233362Y-91853D01*
X233328Y-91820D01*
X233312Y-91786D01*
X233301Y-91764D01*
X233295Y-91753D01*
X232546Y-89128D01*
X232535Y-89084D01*
Y-89039D01*
X232546Y-88989D01*
X232568Y-88950D01*
X232596Y-88928D01*
X232635Y-88906D01*
X232668Y-88895D01*
X232701Y-88889D01*
X233856D01*
Y-88329D01*
X233867Y-88268D01*
X233883Y-88223D01*
X233900Y-88201D01*
X233911Y-88190D01*
X233956Y-88162D01*
X233994Y-88151D01*
X234028Y-88146D01*
X234039D01*
X234094Y-88151D01*
D02*
G37*
G36*
X201647Y-38939D02*
X201691Y-38961D01*
X201719Y-38978D01*
X201730Y-38983D01*
X201752Y-39005D01*
X201763Y-39027D01*
X201785Y-39072D01*
X201791Y-39105D01*
Y-39111D01*
Y-39116D01*
X201774Y-39177D01*
X201758Y-39222D01*
X201003Y-40432D01*
X201036D01*
X201147Y-40443D01*
X201253Y-40465D01*
X201342Y-40498D01*
X201419Y-40543D01*
X201480Y-40581D01*
X201530Y-40615D01*
X201558Y-40637D01*
X201569Y-40648D01*
X201641Y-40737D01*
X201697Y-40826D01*
X201735Y-40914D01*
X201763Y-40998D01*
X201780Y-41070D01*
X201785Y-41131D01*
X201791Y-41153D01*
Y-41170D01*
Y-41175D01*
Y-41181D01*
Y-41930D01*
X201780Y-42041D01*
X201758Y-42141D01*
X201719Y-42230D01*
X201680Y-42307D01*
X201641Y-42369D01*
X201602Y-42419D01*
X201580Y-42446D01*
X201569Y-42457D01*
X201486Y-42529D01*
X201397Y-42585D01*
X201308Y-42624D01*
X201225Y-42652D01*
X201153Y-42668D01*
X201092Y-42674D01*
X201070Y-42679D01*
X199726D01*
X199665Y-42674D01*
X199621Y-42652D01*
X199588Y-42618D01*
X199565Y-42585D01*
X199554Y-42552D01*
X199549Y-42518D01*
X199543Y-42496D01*
Y-42491D01*
Y-39116D01*
X199554Y-39055D01*
X199571Y-39011D01*
X199588Y-38989D01*
X199599Y-38978D01*
X199643Y-38950D01*
X199682Y-38939D01*
X199715Y-38933D01*
X199726D01*
X199782Y-38939D01*
X199826Y-38955D01*
X199849Y-38972D01*
X199860Y-38978D01*
X199893Y-39022D01*
X199910Y-39066D01*
X199915Y-39100D01*
Y-39111D01*
Y-39116D01*
Y-40432D01*
X200559D01*
X201441Y-39016D01*
X201469Y-38983D01*
X201491Y-38961D01*
X201508Y-38950D01*
X201514Y-38944D01*
X201541Y-38939D01*
X201569Y-38933D01*
X201591D01*
X201647Y-38939D01*
D02*
G37*
G36*
X204255D02*
X204283Y-38944D01*
X204322Y-38966D01*
X204350Y-38983D01*
X204355Y-38994D01*
X204383Y-39039D01*
X204399Y-39077D01*
X204405Y-39105D01*
Y-39116D01*
X204394Y-39166D01*
X204377Y-39205D01*
X204361Y-39233D01*
X204350Y-39244D01*
X204327Y-39266D01*
X204311Y-39277D01*
X204266Y-39299D01*
X204233Y-39305D01*
X203056D01*
X204266Y-41231D01*
X204305Y-41320D01*
X204339Y-41403D01*
X204361Y-41480D01*
X204372Y-41547D01*
X204383Y-41608D01*
X204388Y-41653D01*
Y-41680D01*
Y-41691D01*
X204383Y-41764D01*
X204377Y-41836D01*
X204339Y-41969D01*
X204294Y-42091D01*
X204239Y-42191D01*
X204177Y-42274D01*
X204155Y-42307D01*
X204133Y-42335D01*
X204111Y-42357D01*
X204094Y-42374D01*
X204089Y-42380D01*
X204083Y-42385D01*
X204022Y-42435D01*
X203961Y-42485D01*
X203900Y-42524D01*
X203839Y-42557D01*
X203711Y-42607D01*
X203595Y-42641D01*
X203495Y-42663D01*
X203450Y-42668D01*
X203412Y-42674D01*
X203384Y-42679D01*
X203340D01*
X203267Y-42674D01*
X203195Y-42663D01*
X203168Y-42652D01*
X203145Y-42646D01*
X203134Y-42641D01*
X203129D01*
X203051Y-42613D01*
X202979Y-42579D01*
X202951Y-42568D01*
X202929Y-42557D01*
X202918Y-42552D01*
X202912Y-42546D01*
X202834Y-42496D01*
X202762Y-42441D01*
X202707Y-42385D01*
X202657Y-42335D01*
X202612Y-42291D01*
X202585Y-42252D01*
X202568Y-42230D01*
X202562Y-42219D01*
X202546Y-42174D01*
X202535Y-42141D01*
X202529Y-42119D01*
Y-42113D01*
X202535Y-42085D01*
X202540Y-42058D01*
X202562Y-42019D01*
X202579Y-41991D01*
X202590Y-41980D01*
X202635Y-41952D01*
X202679Y-41936D01*
X202712Y-41930D01*
X202724D01*
X202807Y-41947D01*
X202840Y-41969D01*
X202862Y-41991D01*
X202873Y-42008D01*
X202879Y-42013D01*
X202945Y-42102D01*
X202984Y-42141D01*
X203018Y-42174D01*
X203051Y-42197D01*
X203073Y-42213D01*
X203090Y-42224D01*
X203095Y-42230D01*
X203145Y-42257D01*
X203195Y-42274D01*
X203240Y-42291D01*
X203284Y-42296D01*
X203317Y-42302D01*
X203345Y-42307D01*
X203367D01*
X203467Y-42302D01*
X203512Y-42291D01*
X203545Y-42285D01*
X203578Y-42274D01*
X203600Y-42263D01*
X203617Y-42257D01*
X203623D01*
X203706Y-42213D01*
X203767Y-42174D01*
X203795Y-42152D01*
X203811Y-42141D01*
X203822Y-42130D01*
X203828Y-42124D01*
X203889Y-42058D01*
X203939Y-41986D01*
X203972Y-41913D01*
X203994Y-41852D01*
X204006Y-41791D01*
X204017Y-41747D01*
Y-41719D01*
Y-41714D01*
Y-41708D01*
X204011Y-41658D01*
X204006Y-41608D01*
X203994Y-41558D01*
X203983Y-41519D01*
X203967Y-41480D01*
X203956Y-41453D01*
X203950Y-41431D01*
X203944Y-41425D01*
X202562Y-39222D01*
X202535Y-39166D01*
X202524Y-39122D01*
X202518Y-39094D01*
Y-39083D01*
X202529Y-39033D01*
X202551Y-38994D01*
X202585Y-38972D01*
X202624Y-38950D01*
X202657Y-38939D01*
X202690Y-38933D01*
X204222D01*
X204255Y-38939D01*
D02*
G37*
G36*
X231568D02*
X231612Y-38961D01*
X231640Y-38978D01*
X231651Y-38983D01*
X231674Y-39005D01*
X231685Y-39027D01*
X231707Y-39072D01*
X231712Y-39105D01*
Y-39111D01*
Y-39116D01*
X231696Y-39177D01*
X231679Y-39222D01*
X230924Y-40432D01*
X230958D01*
X231068Y-40443D01*
X231174Y-40465D01*
X231263Y-40498D01*
X231341Y-40543D01*
X231401Y-40581D01*
X231452Y-40615D01*
X231479Y-40637D01*
X231490Y-40648D01*
X231562Y-40737D01*
X231618Y-40826D01*
X231657Y-40914D01*
X231685Y-40998D01*
X231701Y-41070D01*
X231707Y-41131D01*
X231712Y-41153D01*
Y-41170D01*
Y-41175D01*
Y-41181D01*
Y-41930D01*
X231701Y-42041D01*
X231679Y-42141D01*
X231640Y-42230D01*
X231601Y-42307D01*
X231562Y-42369D01*
X231524Y-42419D01*
X231501Y-42446D01*
X231490Y-42457D01*
X231407Y-42529D01*
X231318Y-42585D01*
X231229Y-42624D01*
X231146Y-42652D01*
X231074Y-42668D01*
X231013Y-42674D01*
X230991Y-42679D01*
X229648D01*
X229587Y-42674D01*
X229542Y-42652D01*
X229509Y-42618D01*
X229487Y-42585D01*
X229476Y-42552D01*
X229470Y-42518D01*
X229465Y-42496D01*
Y-42491D01*
Y-39116D01*
X229476Y-39055D01*
X229492Y-39011D01*
X229509Y-38989D01*
X229520Y-38978D01*
X229564Y-38950D01*
X229603Y-38939D01*
X229637Y-38933D01*
X229648D01*
X229703Y-38939D01*
X229748Y-38955D01*
X229770Y-38972D01*
X229781Y-38978D01*
X229814Y-39022D01*
X229831Y-39066D01*
X229836Y-39100D01*
Y-39111D01*
Y-39116D01*
Y-40432D01*
X230480D01*
X231363Y-39016D01*
X231390Y-38983D01*
X231413Y-38961D01*
X231429Y-38950D01*
X231435Y-38944D01*
X231463Y-38939D01*
X231490Y-38933D01*
X231512D01*
X231568Y-38939D01*
D02*
G37*
G36*
X233455D02*
X233499Y-38955D01*
X233522Y-38972D01*
X233533Y-38978D01*
X233566Y-39022D01*
X233583Y-39066D01*
X233588Y-39100D01*
Y-39111D01*
Y-39116D01*
Y-42491D01*
X233583Y-42557D01*
X233566Y-42607D01*
X233544Y-42641D01*
X233538Y-42652D01*
X233494Y-42685D01*
X233461Y-42702D01*
X233438Y-42707D01*
X233433D01*
X233400Y-42702D01*
X233372Y-42696D01*
X233350Y-42690D01*
X233344Y-42685D01*
X233316Y-42668D01*
X233289Y-42646D01*
X233272Y-42629D01*
X233266Y-42624D01*
X232517Y-41869D01*
X232484Y-41825D01*
X232467Y-41780D01*
X232462Y-41752D01*
Y-41747D01*
Y-41741D01*
X232467Y-41714D01*
X232473Y-41691D01*
X232495Y-41647D01*
X232511Y-41619D01*
X232523Y-41614D01*
Y-41608D01*
X232567Y-41575D01*
X232611Y-41558D01*
X232639Y-41553D01*
X232650D01*
X232700Y-41564D01*
X232745Y-41580D01*
X232772Y-41597D01*
X232784Y-41608D01*
X233216Y-42041D01*
Y-39116D01*
X233227Y-39055D01*
X233244Y-39011D01*
X233261Y-38989D01*
X233272Y-38978D01*
X233316Y-38950D01*
X233355Y-38939D01*
X233388Y-38933D01*
X233400D01*
X233455Y-38939D01*
D02*
G37*
G36*
X171725Y-88151D02*
X171770Y-88173D01*
X171798Y-88190D01*
X171809Y-88196D01*
X171831Y-88218D01*
X171842Y-88240D01*
X171864Y-88284D01*
X171870Y-88318D01*
Y-88323D01*
Y-88329D01*
X171853Y-88390D01*
X171836Y-88434D01*
X171082Y-89644D01*
X171115D01*
X171226Y-89655D01*
X171331Y-89678D01*
X171420Y-89711D01*
X171498Y-89755D01*
X171559Y-89794D01*
X171609Y-89827D01*
X171637Y-89850D01*
X171648Y-89861D01*
X171720Y-89949D01*
X171775Y-90038D01*
X171814Y-90127D01*
X171842Y-90210D01*
X171859Y-90282D01*
X171864Y-90343D01*
X171870Y-90366D01*
Y-90382D01*
Y-90388D01*
Y-90393D01*
Y-91143D01*
X171859Y-91254D01*
X171836Y-91354D01*
X171798Y-91442D01*
X171759Y-91520D01*
X171720Y-91581D01*
X171681Y-91631D01*
X171659Y-91659D01*
X171648Y-91670D01*
X171565Y-91742D01*
X171476Y-91798D01*
X171387Y-91836D01*
X171304Y-91864D01*
X171231Y-91881D01*
X171170Y-91886D01*
X171148Y-91892D01*
X169805D01*
X169744Y-91886D01*
X169700Y-91864D01*
X169667Y-91831D01*
X169644Y-91798D01*
X169633Y-91764D01*
X169628Y-91731D01*
X169622Y-91709D01*
Y-91703D01*
Y-88329D01*
X169633Y-88268D01*
X169650Y-88223D01*
X169667Y-88201D01*
X169677Y-88190D01*
X169722Y-88162D01*
X169761Y-88151D01*
X169794Y-88146D01*
X169805D01*
X169861Y-88151D01*
X169905Y-88168D01*
X169927Y-88184D01*
X169938Y-88190D01*
X169972Y-88235D01*
X169988Y-88279D01*
X169994Y-88312D01*
Y-88323D01*
Y-88329D01*
Y-89644D01*
X170638D01*
X171520Y-88229D01*
X171548Y-88196D01*
X171570Y-88173D01*
X171587Y-88162D01*
X171592Y-88157D01*
X171620Y-88151D01*
X171648Y-88146D01*
X171670D01*
X171725Y-88151D01*
D02*
G37*
G36*
X173851Y-88157D02*
X173957Y-88179D01*
X174045Y-88212D01*
X174123Y-88257D01*
X174184Y-88296D01*
X174229Y-88329D01*
X174256Y-88351D01*
X174267Y-88362D01*
X174340Y-88451D01*
X174395Y-88540D01*
X174434Y-88629D01*
X174462Y-88712D01*
X174478Y-88784D01*
X174484Y-88839D01*
X174489Y-88862D01*
Y-88878D01*
Y-88884D01*
Y-88889D01*
Y-89639D01*
X174478Y-89750D01*
X174456Y-89855D01*
X174417Y-89944D01*
X174378Y-90022D01*
X174340Y-90083D01*
X174301Y-90127D01*
X174278Y-90155D01*
X174267Y-90166D01*
X174179Y-90238D01*
X174090Y-90294D01*
X174001Y-90332D01*
X173923Y-90360D01*
X173851Y-90377D01*
X173790Y-90382D01*
X173768Y-90388D01*
X173063D01*
X173107Y-90538D01*
X173163Y-90688D01*
X173213Y-90793D01*
X173263Y-90887D01*
X173324Y-90971D01*
X173374Y-91048D01*
X173424Y-91109D01*
X173463Y-91154D01*
X173490Y-91181D01*
X173502Y-91193D01*
X173585Y-91270D01*
X173662Y-91331D01*
X173690Y-91354D01*
X173712Y-91376D01*
X173729Y-91381D01*
X173735Y-91387D01*
X173784Y-91415D01*
X173823Y-91442D01*
X173851Y-91453D01*
X173862Y-91459D01*
X173912Y-91481D01*
X173957Y-91503D01*
X173990Y-91520D01*
X173995Y-91526D01*
X174001D01*
X174045Y-91553D01*
X174073Y-91581D01*
X174084Y-91598D01*
X174090Y-91603D01*
X174101Y-91631D01*
X174112Y-91664D01*
Y-91687D01*
Y-91692D01*
X174106Y-91748D01*
X174090Y-91792D01*
X174073Y-91820D01*
X174068Y-91831D01*
X174045Y-91853D01*
X174023Y-91864D01*
X173979Y-91886D01*
X173945Y-91892D01*
X173934D01*
X173857Y-91870D01*
X173729Y-91809D01*
X173607Y-91737D01*
X173502Y-91664D01*
X173413Y-91598D01*
X173335Y-91537D01*
X173280Y-91487D01*
X173257Y-91470D01*
X173241Y-91453D01*
X173235Y-91448D01*
X173230Y-91442D01*
X173135Y-91337D01*
X173052Y-91232D01*
X172980Y-91132D01*
X172924Y-91037D01*
X172880Y-90960D01*
X172847Y-90893D01*
X172836Y-90871D01*
X172824Y-90854D01*
X172819Y-90843D01*
Y-90837D01*
X172752Y-90660D01*
X172702Y-90477D01*
X172669Y-90310D01*
X172652Y-90227D01*
X172647Y-90155D01*
X172636Y-90083D01*
X172630Y-90022D01*
X172625Y-89966D01*
Y-89916D01*
X172619Y-89877D01*
Y-89850D01*
Y-89833D01*
Y-89827D01*
Y-88889D01*
X172630Y-88778D01*
X172652Y-88678D01*
X172691Y-88584D01*
X172730Y-88512D01*
X172769Y-88445D01*
X172808Y-88401D01*
X172830Y-88373D01*
X172841Y-88362D01*
X172930Y-88290D01*
X173019Y-88235D01*
X173102Y-88201D01*
X173185Y-88173D01*
X173257Y-88157D01*
X173313Y-88151D01*
X173335Y-88146D01*
X173740D01*
X173851Y-88157D01*
D02*
G37*
G36*
X171725Y-38939D02*
X171770Y-38961D01*
X171798Y-38978D01*
X171809Y-38983D01*
X171831Y-39005D01*
X171842Y-39027D01*
X171864Y-39072D01*
X171870Y-39105D01*
Y-39111D01*
Y-39116D01*
X171853Y-39177D01*
X171836Y-39222D01*
X171082Y-40432D01*
X171115D01*
X171226Y-40443D01*
X171331Y-40465D01*
X171420Y-40498D01*
X171498Y-40543D01*
X171559Y-40581D01*
X171609Y-40615D01*
X171637Y-40637D01*
X171648Y-40648D01*
X171720Y-40737D01*
X171775Y-40826D01*
X171814Y-40914D01*
X171842Y-40998D01*
X171859Y-41070D01*
X171864Y-41131D01*
X171870Y-41153D01*
Y-41170D01*
Y-41175D01*
Y-41181D01*
Y-41930D01*
X171859Y-42041D01*
X171836Y-42141D01*
X171798Y-42230D01*
X171759Y-42307D01*
X171720Y-42369D01*
X171681Y-42419D01*
X171659Y-42446D01*
X171648Y-42457D01*
X171565Y-42529D01*
X171476Y-42585D01*
X171387Y-42624D01*
X171304Y-42652D01*
X171231Y-42668D01*
X171170Y-42674D01*
X171148Y-42679D01*
X169805D01*
X169744Y-42674D01*
X169700Y-42652D01*
X169667Y-42618D01*
X169644Y-42585D01*
X169633Y-42552D01*
X169628Y-42518D01*
X169622Y-42496D01*
Y-42491D01*
Y-39116D01*
X169633Y-39055D01*
X169650Y-39011D01*
X169667Y-38989D01*
X169677Y-38978D01*
X169722Y-38950D01*
X169761Y-38939D01*
X169794Y-38933D01*
X169805D01*
X169861Y-38939D01*
X169905Y-38955D01*
X169927Y-38972D01*
X169938Y-38978D01*
X169972Y-39022D01*
X169988Y-39066D01*
X169994Y-39100D01*
Y-39111D01*
Y-39116D01*
Y-40432D01*
X170638D01*
X171520Y-39016D01*
X171548Y-38983D01*
X171570Y-38961D01*
X171587Y-38950D01*
X171592Y-38944D01*
X171620Y-38939D01*
X171648Y-38933D01*
X171670D01*
X171725Y-38939D01*
D02*
G37*
G36*
X173607D02*
X173674Y-38944D01*
X173801Y-38978D01*
X173912Y-39022D01*
X174006Y-39072D01*
X174090Y-39122D01*
X174145Y-39161D01*
X174168Y-39183D01*
X174184Y-39194D01*
X174190Y-39200D01*
X174195Y-39205D01*
X174245Y-39261D01*
X174290Y-39316D01*
X174323Y-39371D01*
X174356Y-39427D01*
X174406Y-39538D01*
X174440Y-39638D01*
X174456Y-39732D01*
X174467Y-39771D01*
Y-39799D01*
X174473Y-39827D01*
Y-39849D01*
Y-39860D01*
Y-39865D01*
Y-40237D01*
X174467Y-40321D01*
X174451Y-40398D01*
X174434Y-40470D01*
X174417Y-40532D01*
X174395Y-40587D01*
X174378Y-40626D01*
X174367Y-40648D01*
X174362Y-40659D01*
X174323Y-40731D01*
X174278Y-40792D01*
X174240Y-40848D01*
X174195Y-40892D01*
X174162Y-40931D01*
X174134Y-40959D01*
X174112Y-40975D01*
X174106Y-40981D01*
X174173Y-41036D01*
X174229Y-41098D01*
X174273Y-41153D01*
X174312Y-41209D01*
X174340Y-41253D01*
X174362Y-41286D01*
X174373Y-41314D01*
X174378Y-41320D01*
X174406Y-41392D01*
X174428Y-41469D01*
X174445Y-41536D01*
X174462Y-41603D01*
X174467Y-41658D01*
X174473Y-41702D01*
Y-41730D01*
Y-41741D01*
Y-41813D01*
X174462Y-41880D01*
X174434Y-42002D01*
X174395Y-42113D01*
X174356Y-42208D01*
X174312Y-42280D01*
X174273Y-42335D01*
X174256Y-42357D01*
X174245Y-42374D01*
X174240Y-42380D01*
X174234Y-42385D01*
X174184Y-42435D01*
X174129Y-42480D01*
X174073Y-42518D01*
X174018Y-42552D01*
X173901Y-42602D01*
X173784Y-42641D01*
X173690Y-42657D01*
X173646Y-42663D01*
X173607Y-42668D01*
X173579Y-42674D01*
X172752D01*
X172724Y-42663D01*
X172686Y-42646D01*
X172658Y-42624D01*
X172647Y-42618D01*
Y-42613D01*
X172619Y-42568D01*
X172608Y-42524D01*
X172602Y-42496D01*
Y-42491D01*
Y-42485D01*
X172608Y-42430D01*
X172625Y-42391D01*
X172641Y-42363D01*
X172647Y-42352D01*
X172691Y-42324D01*
X172736Y-42307D01*
X172775Y-42302D01*
X173535D01*
X173629Y-42296D01*
X173712Y-42274D01*
X173784Y-42246D01*
X173846Y-42219D01*
X173890Y-42185D01*
X173923Y-42158D01*
X173945Y-42135D01*
X173951Y-42130D01*
X173995Y-42069D01*
X174029Y-42002D01*
X174051Y-41941D01*
X174068Y-41880D01*
X174079Y-41825D01*
X174084Y-41786D01*
Y-41758D01*
Y-41747D01*
X174079Y-41664D01*
X174062Y-41586D01*
X174040Y-41519D01*
X174018Y-41464D01*
X173990Y-41414D01*
X173968Y-41381D01*
X173951Y-41358D01*
X173945Y-41353D01*
X173884Y-41292D01*
X173812Y-41253D01*
X173746Y-41220D01*
X173679Y-41197D01*
X173624Y-41186D01*
X173579Y-41181D01*
X173546Y-41175D01*
X173130D01*
X173102Y-41164D01*
X173057Y-41142D01*
X173030Y-41120D01*
X173019Y-41114D01*
Y-41109D01*
X172991Y-41064D01*
X172980Y-41025D01*
X172974Y-40998D01*
Y-40992D01*
Y-40987D01*
X172980Y-40937D01*
X173002Y-40892D01*
X173019Y-40865D01*
X173024Y-40859D01*
Y-40853D01*
X173069Y-40826D01*
X173113Y-40809D01*
X173146Y-40803D01*
X173535D01*
X173618Y-40798D01*
X173696Y-40776D01*
X173768Y-40753D01*
X173823Y-40720D01*
X173873Y-40692D01*
X173907Y-40665D01*
X173929Y-40642D01*
X173934Y-40637D01*
X173990Y-40570D01*
X174029Y-40504D01*
X174062Y-40437D01*
X174079Y-40376D01*
X174090Y-40321D01*
X174101Y-40276D01*
Y-40248D01*
Y-40237D01*
Y-39865D01*
X174095Y-39782D01*
X174073Y-39704D01*
X174051Y-39638D01*
X174018Y-39577D01*
X173990Y-39533D01*
X173962Y-39494D01*
X173940Y-39471D01*
X173934Y-39466D01*
X173868Y-39410D01*
X173801Y-39371D01*
X173735Y-39344D01*
X173674Y-39327D01*
X173618Y-39316D01*
X173574Y-39305D01*
X172752D01*
X172724Y-39294D01*
X172680Y-39272D01*
X172658Y-39249D01*
X172647Y-39244D01*
Y-39238D01*
X172619Y-39194D01*
X172608Y-39155D01*
X172602Y-39127D01*
Y-39122D01*
Y-39116D01*
X172608Y-39066D01*
X172625Y-39022D01*
X172641Y-38994D01*
X172647Y-38989D01*
Y-38983D01*
X172691Y-38955D01*
X172736Y-38939D01*
X172775Y-38933D01*
X173535D01*
X173607Y-38939D01*
D02*
G37*
G36*
X200859Y-88151D02*
X200904Y-88173D01*
X200932Y-88190D01*
X200943Y-88196D01*
X200965Y-88218D01*
X200976Y-88240D01*
X200998Y-88284D01*
X201004Y-88318D01*
Y-88323D01*
Y-88329D01*
X200987Y-88390D01*
X200970Y-88434D01*
X200216Y-89644D01*
X200249D01*
X200360Y-89655D01*
X200465Y-89678D01*
X200554Y-89711D01*
X200632Y-89755D01*
X200693Y-89794D01*
X200743Y-89827D01*
X200771Y-89850D01*
X200782Y-89861D01*
X200854Y-89949D01*
X200909Y-90038D01*
X200948Y-90127D01*
X200976Y-90210D01*
X200993Y-90282D01*
X200998Y-90343D01*
X201004Y-90366D01*
Y-90382D01*
Y-90388D01*
Y-90393D01*
Y-91143D01*
X200993Y-91254D01*
X200970Y-91354D01*
X200932Y-91442D01*
X200893Y-91520D01*
X200854Y-91581D01*
X200815Y-91631D01*
X200793Y-91659D01*
X200782Y-91670D01*
X200698Y-91742D01*
X200610Y-91798D01*
X200521Y-91836D01*
X200438Y-91864D01*
X200365Y-91881D01*
X200304Y-91886D01*
X200282Y-91892D01*
X198939D01*
X198878Y-91886D01*
X198834Y-91864D01*
X198800Y-91831D01*
X198778Y-91798D01*
X198767Y-91764D01*
X198761Y-91731D01*
X198756Y-91709D01*
Y-91703D01*
Y-88329D01*
X198767Y-88268D01*
X198784Y-88223D01*
X198800Y-88201D01*
X198811Y-88190D01*
X198856Y-88162D01*
X198895Y-88151D01*
X198928Y-88146D01*
X198939D01*
X198995Y-88151D01*
X199039Y-88168D01*
X199061Y-88184D01*
X199072Y-88190D01*
X199106Y-88235D01*
X199122Y-88279D01*
X199128Y-88312D01*
Y-88323D01*
Y-88329D01*
Y-89644D01*
X199772D01*
X200654Y-88229D01*
X200682Y-88196D01*
X200704Y-88173D01*
X200721Y-88162D01*
X200726Y-88157D01*
X200754Y-88151D01*
X200782Y-88146D01*
X200804D01*
X200859Y-88151D01*
D02*
G37*
G36*
X202757D02*
X202824Y-88157D01*
X202952Y-88190D01*
X203063Y-88235D01*
X203157Y-88284D01*
X203240Y-88334D01*
X203296Y-88373D01*
X203318Y-88395D01*
X203335Y-88406D01*
X203340Y-88412D01*
X203346Y-88418D01*
X203396Y-88473D01*
X203440Y-88529D01*
X203473Y-88584D01*
X203507Y-88640D01*
X203557Y-88751D01*
X203590Y-88850D01*
X203607Y-88945D01*
X203618Y-88984D01*
Y-89012D01*
X203623Y-89039D01*
Y-89061D01*
Y-89073D01*
Y-89078D01*
Y-89450D01*
X203618Y-89522D01*
X203612Y-89589D01*
X203579Y-89716D01*
X203534Y-89827D01*
X203485Y-89927D01*
X203434Y-90005D01*
X203390Y-90060D01*
X203374Y-90083D01*
X203357Y-90099D01*
X203351Y-90105D01*
X203346Y-90110D01*
X203290Y-90160D01*
X203240Y-90205D01*
X203179Y-90238D01*
X203124Y-90271D01*
X203013Y-90321D01*
X202913Y-90355D01*
X202824Y-90371D01*
X202785Y-90382D01*
X202752D01*
X202724Y-90388D01*
X202125D01*
Y-91520D01*
X203434D01*
X203468Y-91526D01*
X203496Y-91531D01*
X203540Y-91553D01*
X203568Y-91570D01*
X203573Y-91581D01*
X203601Y-91625D01*
X203618Y-91664D01*
X203623Y-91692D01*
Y-91703D01*
X203612Y-91753D01*
X203595Y-91792D01*
X203579Y-91820D01*
X203568Y-91831D01*
X203546Y-91853D01*
X203523Y-91864D01*
X203479Y-91886D01*
X203446Y-91892D01*
X201936D01*
X201875Y-91886D01*
X201831Y-91864D01*
X201797Y-91831D01*
X201775Y-91798D01*
X201764Y-91764D01*
X201758Y-91731D01*
X201753Y-91709D01*
Y-91703D01*
Y-90199D01*
X201758Y-90138D01*
X201781Y-90094D01*
X201808Y-90060D01*
X201847Y-90038D01*
X201881Y-90027D01*
X201908Y-90022D01*
X201930Y-90016D01*
X202685D01*
X202769Y-90010D01*
X202846Y-89988D01*
X202918Y-89966D01*
X202974Y-89933D01*
X203024Y-89905D01*
X203057Y-89877D01*
X203079Y-89855D01*
X203085Y-89850D01*
X203140Y-89783D01*
X203179Y-89716D01*
X203213Y-89650D01*
X203229Y-89589D01*
X203240Y-89533D01*
X203251Y-89489D01*
Y-89461D01*
Y-89450D01*
Y-89078D01*
X203246Y-88989D01*
X203224Y-88912D01*
X203201Y-88845D01*
X203168Y-88784D01*
X203140Y-88740D01*
X203113Y-88701D01*
X203091Y-88678D01*
X203085Y-88673D01*
X203018Y-88623D01*
X202952Y-88584D01*
X202885Y-88556D01*
X202824Y-88540D01*
X202769Y-88529D01*
X202724Y-88517D01*
X201903D01*
X201875Y-88506D01*
X201836Y-88490D01*
X201808Y-88468D01*
X201797Y-88462D01*
Y-88456D01*
X201770Y-88412D01*
X201758Y-88368D01*
X201753Y-88340D01*
Y-88334D01*
Y-88329D01*
X201758Y-88273D01*
X201775Y-88235D01*
X201792Y-88207D01*
X201797Y-88196D01*
X201842Y-88168D01*
X201886Y-88151D01*
X201925Y-88146D01*
X202685D01*
X202757Y-88151D01*
D02*
G37*
G36*
X276450Y-186117D02*
X276494Y-186139D01*
X276522Y-186156D01*
X276533Y-186162D01*
X276555Y-186184D01*
X276566Y-186206D01*
X276589Y-186250D01*
X276594Y-186284D01*
Y-186289D01*
Y-186295D01*
X276578Y-186356D01*
X276561Y-186400D01*
X275806Y-187610D01*
X275839D01*
X275950Y-187621D01*
X276056Y-187643D01*
X276145Y-187677D01*
X276222Y-187721D01*
X276283Y-187760D01*
X276333Y-187793D01*
X276361Y-187815D01*
X276372Y-187827D01*
X276444Y-187915D01*
X276500Y-188004D01*
X276539Y-188093D01*
X276566Y-188176D01*
X276583Y-188248D01*
X276589Y-188309D01*
X276594Y-188332D01*
Y-188348D01*
Y-188354D01*
Y-188359D01*
Y-189109D01*
X276583Y-189220D01*
X276561Y-189320D01*
X276522Y-189408D01*
X276483Y-189486D01*
X276444Y-189547D01*
X276406Y-189597D01*
X276383Y-189625D01*
X276372Y-189636D01*
X276289Y-189708D01*
X276200Y-189763D01*
X276111Y-189802D01*
X276028Y-189830D01*
X275956Y-189847D01*
X275895Y-189852D01*
X275873Y-189858D01*
X274530D01*
X274469Y-189852D01*
X274424Y-189830D01*
X274391Y-189797D01*
X274369Y-189763D01*
X274358Y-189730D01*
X274352Y-189697D01*
X274346Y-189675D01*
Y-189669D01*
Y-186295D01*
X274358Y-186234D01*
X274374Y-186189D01*
X274391Y-186167D01*
X274402Y-186156D01*
X274446Y-186128D01*
X274485Y-186117D01*
X274518Y-186112D01*
X274530D01*
X274585Y-186117D01*
X274629Y-186134D01*
X274652Y-186151D01*
X274663Y-186156D01*
X274696Y-186200D01*
X274713Y-186245D01*
X274718Y-186278D01*
Y-186289D01*
Y-186295D01*
Y-187610D01*
X275362D01*
X276244Y-186195D01*
X276272Y-186162D01*
X276294Y-186139D01*
X276311Y-186128D01*
X276317Y-186123D01*
X276344Y-186117D01*
X276372Y-186112D01*
X276394D01*
X276450Y-186117D01*
D02*
G37*
G36*
X278137D02*
X278176Y-186134D01*
X278198Y-186145D01*
X278209Y-186151D01*
X278242Y-186184D01*
X278259Y-186217D01*
X278270Y-186239D01*
Y-186250D01*
X279208Y-189619D01*
X279219Y-189702D01*
X279214Y-189752D01*
X279192Y-189791D01*
X279158Y-189819D01*
X279125Y-189841D01*
X279092Y-189852D01*
X279058Y-189858D01*
X277527D01*
X277466Y-189852D01*
X277421Y-189830D01*
X277388Y-189797D01*
X277366Y-189763D01*
X277355Y-189730D01*
X277349Y-189697D01*
X277343Y-189675D01*
Y-189669D01*
Y-189292D01*
X277355Y-189231D01*
X277371Y-189186D01*
X277388Y-189164D01*
X277399Y-189153D01*
X277443Y-189125D01*
X277482Y-189114D01*
X277516Y-189109D01*
X277527D01*
X277582Y-189114D01*
X277626Y-189131D01*
X277649Y-189147D01*
X277660Y-189153D01*
X277693Y-189197D01*
X277710Y-189242D01*
X277715Y-189264D01*
Y-189281D01*
Y-189292D01*
Y-189297D01*
Y-189486D01*
X278781D01*
X277915Y-186345D01*
X277909Y-186328D01*
X277904Y-186311D01*
Y-186295D01*
Y-186289D01*
X277909Y-186234D01*
X277932Y-186189D01*
X277948Y-186167D01*
X277954Y-186156D01*
X277998Y-186128D01*
X278043Y-186117D01*
X278082Y-186112D01*
X278093D01*
X278137Y-186117D01*
D02*
G37*
%LPC*%
G36*
X145360Y-75015D02*
X144234D01*
X144178Y-75021D01*
X144123Y-75032D01*
X144078Y-75049D01*
X144039Y-75071D01*
X144012Y-75093D01*
X143984Y-75110D01*
X143973Y-75121D01*
X143967Y-75126D01*
X143929Y-75171D01*
X143901Y-75215D01*
X143884Y-75260D01*
X143868Y-75298D01*
X143862Y-75337D01*
X143856Y-75365D01*
Y-75387D01*
Y-75393D01*
Y-76148D01*
X143862Y-76209D01*
X143873Y-76259D01*
X143890Y-76309D01*
X143912Y-76347D01*
X143934Y-76375D01*
X143951Y-76403D01*
X143962Y-76414D01*
X143967Y-76420D01*
X144012Y-76453D01*
X144056Y-76475D01*
X144101Y-76497D01*
X144139Y-76508D01*
X144178Y-76514D01*
X144206Y-76519D01*
X145360D01*
Y-75015D01*
D02*
G37*
G36*
X142019D02*
X141614D01*
X141559Y-75021D01*
X141503Y-75032D01*
X141459Y-75049D01*
X141420Y-75071D01*
X141392Y-75093D01*
X141364Y-75110D01*
X141353Y-75121D01*
X141348Y-75126D01*
X141309Y-75171D01*
X141281Y-75215D01*
X141264Y-75260D01*
X141248Y-75298D01*
X141242Y-75337D01*
X141237Y-75365D01*
Y-75387D01*
Y-75393D01*
Y-76336D01*
Y-76436D01*
X141242Y-76519D01*
X141992D01*
X142042Y-76514D01*
X142086Y-76508D01*
X142125Y-76503D01*
X142130Y-76497D01*
X142136D01*
X142180Y-76469D01*
X142219Y-76442D01*
X142247Y-76420D01*
X142258Y-76414D01*
X142291Y-76370D01*
X142319Y-76325D01*
X142336Y-76281D01*
X142352Y-76236D01*
X142358Y-76203D01*
X142363Y-76175D01*
Y-76153D01*
Y-76148D01*
Y-75393D01*
X142358Y-75337D01*
X142352Y-75293D01*
X142347Y-75260D01*
X142341Y-75254D01*
Y-75248D01*
X142319Y-75199D01*
X142291Y-75160D01*
X142269Y-75138D01*
X142258Y-75126D01*
X142214Y-75087D01*
X142169Y-75060D01*
X142125Y-75043D01*
X142080Y-75027D01*
X142047Y-75021D01*
X142019Y-75015D01*
D02*
G37*
G36*
X145360Y-66337D02*
X144234D01*
X144178Y-66343D01*
X144123Y-66354D01*
X144078Y-66370D01*
X144039Y-66393D01*
X144012Y-66415D01*
X143984Y-66432D01*
X143973Y-66443D01*
X143967Y-66448D01*
X143929Y-66493D01*
X143901Y-66537D01*
X143884Y-66581D01*
X143868Y-66620D01*
X143862Y-66659D01*
X143856Y-66687D01*
Y-66709D01*
Y-66715D01*
Y-67469D01*
X143862Y-67531D01*
X143873Y-67580D01*
X143890Y-67630D01*
X143912Y-67669D01*
X143934Y-67697D01*
X143951Y-67725D01*
X143962Y-67736D01*
X143967Y-67741D01*
X144012Y-67775D01*
X144056Y-67797D01*
X144101Y-67819D01*
X144139Y-67830D01*
X144178Y-67836D01*
X144206Y-67841D01*
X145360D01*
Y-66337D01*
D02*
G37*
G36*
X141653D02*
X141614D01*
X141520Y-66343D01*
X141431Y-66365D01*
X141359Y-66393D01*
X141303Y-66426D01*
X141253Y-66465D01*
X141220Y-66493D01*
X141198Y-66515D01*
X141192Y-66520D01*
X141142Y-66581D01*
X141109Y-66648D01*
X141081Y-66709D01*
X141065Y-66770D01*
X141054Y-66826D01*
X141048Y-66865D01*
Y-66892D01*
Y-66903D01*
X141054Y-66987D01*
X141070Y-67059D01*
X141093Y-67125D01*
X141120Y-67181D01*
X141148Y-67231D01*
X141170Y-67264D01*
X141187Y-67286D01*
X141192Y-67292D01*
X141259Y-67353D01*
X141326Y-67392D01*
X141398Y-67425D01*
X141464Y-67447D01*
X141525Y-67458D01*
X141570Y-67464D01*
X141603Y-67469D01*
X141614D01*
X141709Y-67464D01*
X141797Y-67442D01*
X141869Y-67414D01*
X141925Y-67381D01*
X141975Y-67347D01*
X142008Y-67320D01*
X142030Y-67297D01*
X142036Y-67292D01*
X142080Y-67231D01*
X142114Y-67164D01*
X142141Y-67103D01*
X142158Y-67036D01*
X142169Y-66987D01*
X142175Y-66942D01*
Y-66914D01*
Y-66903D01*
X142169Y-66826D01*
X142153Y-66748D01*
X142130Y-66687D01*
X142103Y-66626D01*
X142080Y-66581D01*
X142058Y-66548D01*
X142042Y-66526D01*
X142036Y-66520D01*
X141969Y-66459D01*
X141897Y-66415D01*
X141825Y-66382D01*
X141759Y-66359D01*
X141703Y-66348D01*
X141653Y-66337D01*
D02*
G37*
G36*
X141648Y-67841D02*
X141548D01*
X141487Y-67852D01*
X141376Y-67880D01*
X141281Y-67919D01*
X141198Y-67958D01*
X141131Y-68002D01*
X141087Y-68041D01*
X141059Y-68069D01*
X141048Y-68074D01*
Y-68080D01*
X140987Y-68163D01*
X140937Y-68252D01*
X140904Y-68335D01*
X140882Y-68419D01*
X140870Y-68485D01*
X140859Y-68541D01*
Y-68563D01*
Y-68579D01*
Y-68585D01*
Y-68590D01*
X140865Y-68701D01*
X140887Y-68801D01*
X140920Y-68890D01*
X140954Y-68968D01*
X140987Y-69029D01*
X141020Y-69073D01*
X141042Y-69101D01*
X141048Y-69112D01*
X141131Y-69190D01*
X141226Y-69245D01*
X141320Y-69284D01*
X141409Y-69312D01*
X141492Y-69329D01*
X141553Y-69334D01*
X141581Y-69340D01*
X141614D01*
X141736Y-69329D01*
X141847Y-69301D01*
X141947Y-69268D01*
X142030Y-69223D01*
X142092Y-69179D01*
X142141Y-69146D01*
X142169Y-69118D01*
X142180Y-69107D01*
X142241Y-69023D01*
X142286Y-68935D01*
X142319Y-68851D01*
X142341Y-68768D01*
X142352Y-68696D01*
X142358Y-68641D01*
X142363Y-68618D01*
Y-68602D01*
Y-68596D01*
Y-68590D01*
X142358Y-68480D01*
X142336Y-68385D01*
X142308Y-68296D01*
X142269Y-68219D01*
X142236Y-68158D01*
X142208Y-68113D01*
X142186Y-68085D01*
X142180Y-68074D01*
X142097Y-67997D01*
X142003Y-67941D01*
X141908Y-67897D01*
X141820Y-67869D01*
X141736Y-67852D01*
X141675Y-67847D01*
X141648Y-67841D01*
D02*
G37*
G36*
X145360Y-57659D02*
X144234D01*
X144178Y-57665D01*
X144123Y-57676D01*
X144078Y-57692D01*
X144039Y-57715D01*
X144012Y-57737D01*
X143984Y-57753D01*
X143973Y-57765D01*
X143967Y-57770D01*
X143929Y-57815D01*
X143901Y-57859D01*
X143884Y-57903D01*
X143868Y-57942D01*
X143862Y-57981D01*
X143856Y-58009D01*
Y-58031D01*
Y-58037D01*
Y-58791D01*
X143862Y-58852D01*
X143873Y-58902D01*
X143890Y-58952D01*
X143912Y-58991D01*
X143934Y-59019D01*
X143951Y-59047D01*
X143962Y-59058D01*
X143967Y-59063D01*
X144012Y-59096D01*
X144056Y-59119D01*
X144101Y-59141D01*
X144139Y-59152D01*
X144178Y-59158D01*
X144206Y-59163D01*
X145360D01*
Y-57659D01*
D02*
G37*
G36*
X140077D02*
X139822D01*
X139749Y-57665D01*
X139688Y-57681D01*
X139633Y-57704D01*
X139588Y-57726D01*
X139550Y-57748D01*
X139522Y-57770D01*
X139505Y-57787D01*
X139500Y-57792D01*
X139455Y-57842D01*
X139422Y-57898D01*
X139400Y-57953D01*
X139383Y-58003D01*
X139372Y-58048D01*
X139366Y-58081D01*
Y-58103D01*
Y-58114D01*
Y-60212D01*
X139372Y-60284D01*
X139389Y-60345D01*
X139411Y-60401D01*
X139433Y-60445D01*
X139461Y-60484D01*
X139483Y-60512D01*
X139500Y-60528D01*
X139505Y-60534D01*
X139555Y-60578D01*
X139611Y-60606D01*
X139666Y-60628D01*
X139710Y-60645D01*
X139755Y-60656D01*
X139788Y-60662D01*
X140043D01*
X140110Y-60656D01*
X140171Y-60639D01*
X140227Y-60623D01*
X140277Y-60595D01*
X140315Y-60573D01*
X140343Y-60556D01*
X140360Y-60540D01*
X140365Y-60534D01*
X140410Y-60484D01*
X140438Y-60429D01*
X140460Y-60373D01*
X140476Y-60323D01*
X140488Y-60279D01*
X140493Y-60245D01*
Y-60218D01*
Y-60212D01*
Y-58114D01*
X140488Y-58048D01*
X140471Y-57986D01*
X140454Y-57931D01*
X140427Y-57881D01*
X140404Y-57842D01*
X140388Y-57815D01*
X140371Y-57798D01*
X140365Y-57792D01*
X140315Y-57748D01*
X140260Y-57715D01*
X140205Y-57692D01*
X140155Y-57676D01*
X140110Y-57665D01*
X140077Y-57659D01*
D02*
G37*
G36*
X231069Y-90016D02*
X229915D01*
Y-91520D01*
X231042D01*
X231097Y-91514D01*
X231153Y-91503D01*
X231197Y-91487D01*
X231236Y-91465D01*
X231264Y-91442D01*
X231292Y-91426D01*
X231303Y-91415D01*
X231308Y-91409D01*
X231347Y-91365D01*
X231375Y-91320D01*
X231391Y-91276D01*
X231408Y-91237D01*
X231414Y-91198D01*
X231419Y-91170D01*
Y-91148D01*
Y-91143D01*
Y-90388D01*
X231414Y-90327D01*
X231403Y-90277D01*
X231386Y-90227D01*
X231364Y-90188D01*
X231342Y-90160D01*
X231325Y-90133D01*
X231314Y-90122D01*
X231308Y-90116D01*
X231264Y-90083D01*
X231219Y-90060D01*
X231175Y-90038D01*
X231136Y-90027D01*
X231097Y-90022D01*
X231069Y-90016D01*
D02*
G37*
G36*
X201070Y-40803D02*
X199915D01*
Y-42307D01*
X201042D01*
X201097Y-42302D01*
X201153Y-42291D01*
X201197Y-42274D01*
X201236Y-42252D01*
X201264Y-42230D01*
X201292Y-42213D01*
X201303Y-42202D01*
X201308Y-42197D01*
X201347Y-42152D01*
X201375Y-42108D01*
X201392Y-42063D01*
X201408Y-42024D01*
X201414Y-41986D01*
X201419Y-41958D01*
Y-41936D01*
Y-41930D01*
Y-41175D01*
X201414Y-41114D01*
X201402Y-41064D01*
X201386Y-41014D01*
X201364Y-40975D01*
X201342Y-40948D01*
X201325Y-40920D01*
X201314Y-40909D01*
X201308Y-40903D01*
X201264Y-40870D01*
X201219Y-40848D01*
X201175Y-40826D01*
X201136Y-40815D01*
X201097Y-40809D01*
X201070Y-40803D01*
D02*
G37*
G36*
X230991D02*
X229836D01*
Y-42307D01*
X230963D01*
X231019Y-42302D01*
X231074Y-42291D01*
X231118Y-42274D01*
X231157Y-42252D01*
X231185Y-42230D01*
X231213Y-42213D01*
X231224Y-42202D01*
X231229Y-42197D01*
X231268Y-42152D01*
X231296Y-42108D01*
X231313Y-42063D01*
X231329Y-42024D01*
X231335Y-41986D01*
X231341Y-41958D01*
Y-41936D01*
Y-41930D01*
Y-41175D01*
X231335Y-41114D01*
X231324Y-41064D01*
X231307Y-41014D01*
X231285Y-40975D01*
X231263Y-40948D01*
X231246Y-40920D01*
X231235Y-40909D01*
X231229Y-40903D01*
X231185Y-40870D01*
X231141Y-40848D01*
X231096Y-40826D01*
X231057Y-40815D01*
X231019Y-40809D01*
X230991Y-40803D01*
D02*
G37*
G36*
X171148Y-90016D02*
X169994D01*
Y-91520D01*
X171121D01*
X171176Y-91514D01*
X171231Y-91503D01*
X171276Y-91487D01*
X171315Y-91465D01*
X171343Y-91442D01*
X171370Y-91426D01*
X171381Y-91415D01*
X171387Y-91409D01*
X171426Y-91365D01*
X171453Y-91320D01*
X171470Y-91276D01*
X171487Y-91237D01*
X171492Y-91198D01*
X171498Y-91170D01*
Y-91148D01*
Y-91143D01*
Y-90388D01*
X171492Y-90327D01*
X171481Y-90277D01*
X171465Y-90227D01*
X171442Y-90188D01*
X171420Y-90160D01*
X171404Y-90133D01*
X171393Y-90122D01*
X171387Y-90116D01*
X171343Y-90083D01*
X171298Y-90060D01*
X171254Y-90038D01*
X171215Y-90027D01*
X171176Y-90022D01*
X171148Y-90016D01*
D02*
G37*
G36*
X173768Y-88517D02*
X173363D01*
X173313Y-88523D01*
X173268Y-88529D01*
X173230Y-88534D01*
X173224Y-88540D01*
X173219D01*
X173174Y-88568D01*
X173135Y-88595D01*
X173107Y-88617D01*
X173096Y-88623D01*
X173063Y-88667D01*
X173035Y-88712D01*
X173019Y-88756D01*
X173002Y-88801D01*
X172996Y-88834D01*
X172991Y-88862D01*
Y-88884D01*
Y-88889D01*
Y-89827D01*
X172996Y-90016D01*
X173740D01*
X173796Y-90010D01*
X173851Y-89999D01*
X173896Y-89983D01*
X173934Y-89960D01*
X173962Y-89938D01*
X173990Y-89922D01*
X174001Y-89911D01*
X174006Y-89905D01*
X174045Y-89861D01*
X174073Y-89816D01*
X174090Y-89772D01*
X174106Y-89733D01*
X174112Y-89694D01*
X174118Y-89666D01*
Y-89644D01*
Y-89639D01*
Y-88889D01*
X174112Y-88828D01*
X174101Y-88778D01*
X174084Y-88728D01*
X174062Y-88690D01*
X174040Y-88662D01*
X174023Y-88634D01*
X174012Y-88623D01*
X174006Y-88617D01*
X173962Y-88584D01*
X173918Y-88562D01*
X173873Y-88540D01*
X173835Y-88529D01*
X173796Y-88523D01*
X173768Y-88517D01*
D02*
G37*
G36*
X171148Y-40803D02*
X169994D01*
Y-42307D01*
X171121D01*
X171176Y-42302D01*
X171231Y-42291D01*
X171276Y-42274D01*
X171315Y-42252D01*
X171343Y-42230D01*
X171370Y-42213D01*
X171381Y-42202D01*
X171387Y-42197D01*
X171426Y-42152D01*
X171453Y-42108D01*
X171470Y-42063D01*
X171487Y-42024D01*
X171492Y-41986D01*
X171498Y-41958D01*
Y-41936D01*
Y-41930D01*
Y-41175D01*
X171492Y-41114D01*
X171481Y-41064D01*
X171465Y-41014D01*
X171442Y-40975D01*
X171420Y-40948D01*
X171404Y-40920D01*
X171393Y-40909D01*
X171387Y-40903D01*
X171343Y-40870D01*
X171298Y-40848D01*
X171254Y-40826D01*
X171215Y-40815D01*
X171176Y-40809D01*
X171148Y-40803D01*
D02*
G37*
G36*
X200282Y-90016D02*
X199128D01*
Y-91520D01*
X200254D01*
X200310Y-91514D01*
X200365Y-91503D01*
X200410Y-91487D01*
X200449Y-91465D01*
X200476Y-91442D01*
X200504Y-91426D01*
X200515Y-91415D01*
X200521Y-91409D01*
X200560Y-91365D01*
X200587Y-91320D01*
X200604Y-91276D01*
X200621Y-91237D01*
X200626Y-91198D01*
X200632Y-91170D01*
Y-91148D01*
Y-91143D01*
Y-90388D01*
X200626Y-90327D01*
X200615Y-90277D01*
X200599Y-90227D01*
X200576Y-90188D01*
X200554Y-90160D01*
X200537Y-90133D01*
X200526Y-90122D01*
X200521Y-90116D01*
X200476Y-90083D01*
X200432Y-90060D01*
X200388Y-90038D01*
X200349Y-90027D01*
X200310Y-90022D01*
X200282Y-90016D01*
D02*
G37*
G36*
X275873Y-187982D02*
X274718D01*
Y-189486D01*
X275845D01*
X275901Y-189480D01*
X275956Y-189469D01*
X276000Y-189453D01*
X276039Y-189430D01*
X276067Y-189408D01*
X276095Y-189392D01*
X276106Y-189381D01*
X276111Y-189375D01*
X276150Y-189331D01*
X276178Y-189286D01*
X276195Y-189242D01*
X276211Y-189203D01*
X276217Y-189164D01*
X276222Y-189136D01*
Y-189114D01*
Y-189109D01*
Y-188354D01*
X276217Y-188293D01*
X276206Y-188243D01*
X276189Y-188193D01*
X276167Y-188154D01*
X276145Y-188126D01*
X276128Y-188099D01*
X276117Y-188087D01*
X276111Y-188082D01*
X276067Y-188049D01*
X276023Y-188026D01*
X275978Y-188004D01*
X275939Y-187993D01*
X275901Y-187987D01*
X275873Y-187982D01*
D02*
G37*
%LPD*%
D41*
X262795Y-87303D02*
Y-81988D01*
X254528Y-87303D02*
Y-81988D01*
X262795D01*
X254528Y-87303D02*
X262795D01*
X145866Y-84547D02*
Y-79232D01*
X137598D02*
X145866D01*
X137598Y-84547D02*
X145866D01*
X137598D02*
Y-79232D01*
X145866Y-75869D02*
Y-70554D01*
X137598D02*
X145866D01*
X137598Y-75869D02*
X145866D01*
X137598D02*
Y-70554D01*
X145866Y-67191D02*
Y-61876D01*
X137598D02*
X145866D01*
X137598Y-67191D02*
X145866D01*
X137598D02*
Y-61876D01*
X287320Y-174224D02*
X292635D01*
Y-182492D02*
Y-174224D01*
X287320Y-182492D02*
Y-174224D01*
Y-182492D02*
X292635D01*
X262795Y-38091D02*
Y-32776D01*
X254528Y-38091D02*
Y-32776D01*
X262795D01*
X254528Y-38091D02*
X262795D01*
X119685Y-127953D02*
X137795D01*
X119685Y-157874D02*
X137795D01*
Y-127953D01*
X119685Y-157874D02*
Y-127953D01*
X274488Y-123228D02*
X292598D01*
X274488Y-153150D02*
X292598D01*
Y-123228D01*
X274488Y-153150D02*
Y-123228D01*
X229409Y-87303D02*
Y-81988D01*
X237677Y-87303D02*
Y-81988D01*
X229409Y-87303D02*
X237677D01*
X229409Y-81988D02*
X237677D01*
X199409Y-38091D02*
Y-32776D01*
X207677Y-38091D02*
Y-32776D01*
X199409Y-38091D02*
X207677D01*
X199409Y-32776D02*
X207677D01*
X229331Y-38091D02*
Y-32776D01*
X237598Y-38091D02*
Y-32776D01*
X229331Y-38091D02*
X237598D01*
X229331Y-32776D02*
X237598D01*
X169488Y-87303D02*
Y-81988D01*
X177756Y-87303D02*
Y-81988D01*
X169488Y-87303D02*
X177756D01*
X169488Y-81988D02*
X177756D01*
X169488Y-38091D02*
Y-32776D01*
X177756Y-38091D02*
Y-32776D01*
X169488Y-38091D02*
X177756D01*
X169488Y-32776D02*
X177756D01*
X198622Y-87303D02*
Y-81988D01*
X206890Y-87303D02*
Y-81988D01*
X198622Y-87303D02*
X206890D01*
X198622Y-81988D02*
X206890D01*
X274213Y-185269D02*
Y-179954D01*
X282480Y-185269D02*
Y-179954D01*
X274213Y-185269D02*
X282480D01*
X274213Y-179954D02*
X282480D01*
M02*
