M48
;Layer_Color=9474304
;FILE_FORMAT=2:4
INCH,TZ
;TYPE=PLATED
T1F00S00C0.0118
T2F00S00C0.0315
%
T01
X11414Y-19685
Y-19409
Y-19134
Y-18858
Y-18583
Y-18307
X11732
Y-18583
Y-18858
Y-19134
Y-19409
Y-19685
X11567Y-18110
X12165Y-16456
X12047Y-15532
X12185Y-14528
X15472Y-16339
X18150Y-16063
X16890Y-18032
X16339Y-18701
X15866Y-19488
X16567Y-19811
X17567Y-19496
X17205Y-20591
X15591Y-20906
X14961Y-20551
X14016
X14252Y-20827
X13583Y-20157
X14843Y-19724
X14567Y-18701
X14291Y-18346
X17126Y-11968
X18150Y-12008
X17835Y-9803
X16762Y-9921
X15945Y-9882
X16890Y-7638
X17087Y-6874
X13819Y-5965
X19409Y-6969
X20567
X22165Y-7244
X25354Y-7008
X27017Y-7614
X27309Y-7378
X27096Y-8150
X26220Y-9961
X25630Y-10512
X24685Y-12008
X23898Y-13032
X21614Y-12717
X21850Y-12402
X19961Y-12717
X19094Y-13032
X18858Y-9803
X21354Y-16260
X21654Y-16024
X22283Y-16260
X23354Y-16181
X24449Y-16220
X25512Y-16260
X25866Y-16102
X26542Y-16181
X25866Y-15000
X22874Y-15276
X22835Y-18345
X22323Y-18465
X21850Y-18071
X20866Y-18898
X20567Y-19543
X20118Y-18543
X19843Y-18071
X19606Y-20236
X24055Y-20630
X24843Y-20394
X25551Y-20039
X28512Y-16181
X29016Y-15669
X29178Y-15197
X27165Y-12441
X26417Y-2126
X25512
X16339Y-2953
X14449
T02
X732Y-11992
Y-11004
Y-10000
X1732
Y-10992
X2732
Y-11992
X1732
X2728Y-9992
X2732Y-8990
X1732Y-8992
Y-7992
X732
Y-8992
Y-6992
Y-6018
X1732
Y-6992
X2732
Y-7985
Y-5986
X3732Y-5992
Y-6992
Y-7992
X4732Y-7992
Y-8990
Y-9992
Y-10992
X3732
X3728Y-10000
Y-8992
X5732
Y-7992
Y-6992
X5750Y-6018
X6750Y-5986
Y-6992
X7750
X8732
Y-5992
X7750
Y-7992
X8732Y-7992
Y-8990
X7750Y-8992
Y-10000
X8732Y-9992
Y-11004
Y-11992
X7732
X6732
Y-10992
Y-10000
X5732
Y-10992
Y-12023
X4732Y-11992
X3728
X7732Y-10992
X9724Y-10953
Y-9961
Y-8951
Y-7946
X9742Y-6953
X10742
X11724
Y-5953
X10742
X9742Y-5946
X10742Y-7952
X11724Y-7953
Y-8951
X10742Y-8953
Y-9961
X11724Y-9953
Y-10965
Y-11953
X10724
Y-10953
X9724Y-11953
X13354Y-11102
X14354
X15354
X16354
X17354
X18354
Y-9291
X17354
X16354
X15354
Y-6181
X16354
X17354
X18354
Y-17165
X17354
X16354
X15354
X14354
X13354
X8109Y-16874
X7109
Y-17868
Y-18874
X8109
Y-17874
X6108Y-17900
Y-18874
X5109
Y-17900
Y-16874
X6108
X6732Y-8990
Y-7985
X4732Y-6992
Y-5992
X19354Y-6181
X20354
X21354
X22354
X23354
X24354
X25354
X26354
Y-9291
X25354
X24354
X23354
X22354
X21354
X20354
X19354
Y-11102
X20354
X21354
X22354
X23354
X24354
X25354
X26354
X27354
X28354
X30102Y-9882
X31102
X32098Y-9874
X32102Y-8872
X33098Y-8874
X33102Y-7873
Y-6874
Y-5874
X32102Y-5868
Y-6874
Y-7867
X31102Y-7874
Y-8874
X30102
Y-7874
Y-6874
Y-5900
X31102
Y-6874
X33098Y-9882
X28354Y-17165
X27354
X26354
X25354
X24354
X23354
X22354
X21354
X20354
X19354
X35145Y-16867
X36102Y-16874
Y-15874
Y-14872
Y-13914
X37120Y-13921
X37102Y-14874
Y-15866
X38102
Y-14872
Y-13868
Y-12874
X37102
X36102
X35102
Y-11905
Y-10874
Y-9882
X36102
Y-10874
X37102
Y-11874
X38102
Y-10886
Y-9874
X37120Y-9882
Y-8874
X38102Y-8872
Y-7874
X37120Y-7873
Y-6874
X38102
Y-5874
X37120
X36120Y-5868
Y-6874
X36102Y-7867
Y-8872
X35102Y-8874
Y-7873
Y-6874
X35120Y-5900
X34102Y-5874
Y-6874
Y-7874
Y-8872
Y-9874
X36102Y-11874
X35102Y-13868
Y-14874
Y-15866
Y-17874
Y-18874
X36102
X37102
Y-17874
X36102
X38102
Y-18880
Y-16867
X37102
X37120Y-4874
X38102
Y-3874
X37120Y-3873
Y-2874
X38102
Y-1868
Y-874
X37102
Y-1874
X36102
Y-874
X35102Y-866
Y-1874
Y-2874
X36102
Y-3874
X35102
X34102
Y-4874
X35102Y-4879
X36102
X34102Y-2874
Y-1874
Y-874
X33102
Y-1874
Y-2874
Y-3873
Y-4874
X32102
X31102
Y-3901
X30102Y-3903
Y-4874
Y-2874
Y-1900
X31102
Y-2874
X32102
Y-3867
Y-1868
Y-874
X31102
X30102
X28465Y-669
Y-1654
Y-2677
X27416Y-1181
X26354Y-1299
X25354
X24354
X23354
X22354
X21354
X20354
X19354
Y-4409
X20354
X21354
X22354
X23354
X24354
X25354
X26354
X18354
X17354
X16354
X15354
Y-1299
X16354
X17354
X18354
X13009Y-945
X11724Y-953
Y-1946
X10724Y-1952
Y-953
X9724
Y-1952
Y-2953
Y-3953
Y-4958
X10742Y-4953
X11724
Y-3953
X10742Y-3952
Y-2953
X11724
X8732Y-2992
X7750
Y-3992
X8732Y-3992
Y-4992
X7750
X6732Y-4997
X5732
X4732Y-4992
Y-3992
X5732
X6732
Y-2992
X5732
X4732
Y-1992
Y-992
X3732
Y-1992
Y-2992
Y-3992
Y-4992
X5732Y-1992
X6732
Y-992
X7732
Y-1992
X8732Y-1986
Y-992
X5732Y-984
X2732Y-992
Y-1986
Y-2992
Y-3985
Y-4992
X1732
Y-4019
X732Y-4021
Y-4992
Y-2992
Y-2018
X1732
Y-2992
Y-992
X732
M30
