G04*
G04 #@! TF.GenerationSoftware,Altium Limited,Altium Designer,19.0.7 (175)*
G04*
G04 Layer_Physical_Order=1*
G04 Layer_Color=255*
%FSLAX25Y25*%
%MOIN*%
G70*
G01*
G75*
%ADD21C,0.01575*%
%ADD22R,0.00394X0.00394*%
%ADD23R,0.00394X0.00394*%
G04:AMPARAMS|DCode=24|XSize=66mil|YSize=315mil|CornerRadius=0mil|HoleSize=0mil|Usage=FLASHONLY|Rotation=0.000|XOffset=0mil|YOffset=0mil|HoleType=Round|Shape=Octagon|*
%AMOCTAGOND24*
4,1,8,-0.01650,0.15750,0.01650,0.15750,0.03300,0.14100,0.03300,-0.14100,0.01650,-0.15750,-0.01650,-0.15750,-0.03300,-0.14100,-0.03300,0.14100,-0.01650,0.15750,0.0*
%
%ADD24OCTAGOND24*%

G04:AMPARAMS|DCode=25|XSize=66mil|YSize=350mil|CornerRadius=0mil|HoleSize=0mil|Usage=FLASHONLY|Rotation=0.000|XOffset=0mil|YOffset=0mil|HoleType=Round|Shape=Octagon|*
%AMOCTAGOND25*
4,1,8,-0.01650,0.17500,0.01650,0.17500,0.03300,0.15850,0.03300,-0.15850,0.01650,-0.17500,-0.01650,-0.17500,-0.03300,-0.15850,-0.03300,0.15850,-0.01650,0.17500,0.0*
%
%ADD25OCTAGOND25*%

%ADD26C,0.01968*%
%ADD27C,0.03937*%
%ADD28C,0.07874*%
%ADD29R,0.05512X0.09843*%
%ADD30O,0.05512X0.09843*%
%ADD31C,0.02362*%
G36*
X260197Y-9751D02*
Y-15485D01*
X257526Y-18156D01*
X257178Y-18677D01*
X257056Y-19291D01*
X257056Y-19291D01*
Y-20071D01*
X256556Y-20223D01*
X256395Y-19983D01*
X255809Y-19591D01*
X255118Y-19454D01*
X254427Y-19591D01*
X253841Y-19983D01*
X253449Y-20569D01*
X253401Y-20813D01*
X252408Y-21806D01*
X252060Y-22327D01*
X251938Y-22941D01*
X251938Y-22941D01*
Y-38972D01*
X251856Y-39006D01*
X251157Y-39542D01*
X250620Y-40242D01*
X250531Y-40457D01*
X250031Y-40358D01*
Y-20350D01*
X252170Y-18211D01*
X252670Y-18418D01*
X253543Y-18533D01*
X254417Y-18418D01*
X255231Y-18081D01*
X255930Y-17544D01*
X256466Y-16845D01*
X256804Y-16031D01*
X256919Y-15157D01*
Y-10827D01*
X256804Y-9953D01*
X256466Y-9139D01*
X255930Y-8440D01*
X255231Y-7904D01*
X254417Y-7566D01*
X253543Y-7451D01*
X252670Y-7566D01*
X251856Y-7904D01*
X251157Y-8440D01*
X250620Y-9139D01*
X250283Y-9953D01*
X250168Y-10827D01*
Y-15157D01*
X250228Y-15612D01*
X247290Y-18550D01*
X246942Y-19071D01*
X246819Y-19685D01*
X246819Y-19685D01*
Y-39880D01*
X246320Y-40050D01*
X245930Y-39542D01*
X245231Y-39006D01*
X244417Y-38669D01*
X243543Y-38554D01*
X242670Y-38669D01*
X241856Y-39006D01*
X241157Y-39542D01*
X240688Y-40153D01*
X240329Y-40092D01*
X240188Y-40020D01*
Y-19956D01*
X242003Y-18142D01*
X242670Y-18418D01*
X243543Y-18533D01*
X244417Y-18418D01*
X245231Y-18081D01*
X245930Y-17544D01*
X246466Y-16845D01*
X246804Y-16031D01*
X246919Y-15157D01*
Y-10827D01*
X246804Y-9953D01*
X246466Y-9139D01*
X245930Y-8440D01*
X245231Y-7904D01*
X244417Y-7566D01*
X243543Y-7451D01*
X242670Y-7566D01*
X241856Y-7904D01*
X241157Y-8440D01*
X240620Y-9139D01*
X240283Y-9953D01*
X240168Y-10827D01*
Y-15157D01*
X240200Y-15403D01*
X237447Y-18156D01*
X237099Y-18677D01*
X236977Y-19291D01*
X236977Y-19291D01*
Y-40168D01*
X236477Y-40267D01*
X236466Y-40242D01*
X235930Y-39542D01*
X235231Y-39006D01*
X234417Y-38669D01*
X233543Y-38554D01*
X232670Y-38669D01*
X231856Y-39006D01*
X231157Y-39542D01*
X230846Y-39947D01*
X230346Y-39778D01*
Y-19667D01*
X231910Y-18103D01*
X232670Y-18418D01*
X233543Y-18533D01*
X234417Y-18418D01*
X235231Y-18081D01*
X235930Y-17544D01*
X236466Y-16845D01*
X236804Y-16031D01*
X236919Y-15157D01*
Y-10827D01*
X236804Y-9953D01*
X236466Y-9139D01*
X235930Y-8440D01*
X235231Y-7904D01*
X234417Y-7566D01*
X233543Y-7451D01*
X232670Y-7566D01*
X231856Y-7904D01*
X231157Y-8440D01*
X230620Y-9139D01*
X230283Y-9953D01*
X230168Y-10827D01*
Y-15157D01*
X230185Y-15286D01*
X227605Y-17866D01*
X227257Y-18387D01*
X227134Y-19002D01*
X227134Y-19002D01*
Y-40548D01*
X226635Y-40647D01*
X226466Y-40242D01*
X225930Y-39542D01*
X225231Y-39006D01*
X224417Y-38669D01*
X223543Y-38554D01*
X222670Y-38669D01*
X221856Y-39006D01*
X221157Y-39542D01*
X221003Y-39742D01*
X220503Y-39572D01*
Y-18303D01*
X221216Y-17590D01*
X221856Y-18081D01*
X222670Y-18418D01*
X223543Y-18533D01*
X224417Y-18418D01*
X225231Y-18081D01*
X225930Y-17544D01*
X226466Y-16845D01*
X226804Y-16031D01*
X226919Y-15157D01*
Y-10827D01*
X226804Y-9953D01*
X226466Y-9139D01*
X225930Y-8440D01*
X225231Y-7904D01*
X224417Y-7566D01*
X223543Y-7451D01*
X222670Y-7566D01*
X221856Y-7904D01*
X221157Y-8440D01*
X220620Y-9139D01*
X220283Y-9953D01*
X220168Y-10827D01*
Y-14097D01*
X217762Y-16502D01*
X217414Y-17023D01*
X217292Y-17638D01*
X217292Y-17638D01*
Y-40977D01*
X216804Y-41056D01*
X216466Y-40242D01*
X215930Y-39542D01*
X215231Y-39006D01*
X214417Y-38669D01*
X213543Y-38554D01*
X212670Y-38669D01*
X211856Y-39006D01*
X211157Y-39542D01*
X210767Y-40050D01*
X210267Y-39880D01*
Y-19746D01*
X211910Y-18103D01*
X212670Y-18418D01*
X213543Y-18533D01*
X214417Y-18418D01*
X215231Y-18081D01*
X215930Y-17544D01*
X216466Y-16845D01*
X216804Y-16031D01*
X216919Y-15157D01*
Y-10827D01*
X216804Y-9953D01*
X216466Y-9139D01*
X215930Y-8440D01*
X215231Y-7904D01*
X214417Y-7566D01*
X213543Y-7451D01*
X212670Y-7566D01*
X211856Y-7904D01*
X211157Y-8440D01*
X210620Y-9139D01*
X210283Y-9953D01*
X210168Y-10827D01*
Y-15157D01*
X210185Y-15286D01*
X207526Y-17945D01*
X207178Y-18466D01*
X207056Y-19081D01*
X207056Y-19081D01*
Y-40358D01*
X206556Y-40457D01*
X206466Y-40242D01*
X205930Y-39542D01*
X205231Y-39006D01*
X204417Y-38669D01*
X203543Y-38554D01*
X202670Y-38669D01*
X201856Y-39006D01*
X201157Y-39542D01*
X200620Y-40242D01*
X200531Y-40457D01*
X200031Y-40358D01*
Y-20941D01*
X202588Y-18384D01*
X202670Y-18418D01*
X203543Y-18533D01*
X204417Y-18418D01*
X205231Y-18081D01*
X205930Y-17544D01*
X206466Y-16845D01*
X206804Y-16031D01*
X206919Y-15157D01*
Y-10827D01*
X206804Y-9953D01*
X206466Y-9139D01*
X205930Y-8440D01*
X205231Y-7904D01*
X204417Y-7566D01*
X203543Y-7451D01*
X202670Y-7566D01*
X201856Y-7904D01*
X201157Y-8440D01*
X200620Y-9139D01*
X200283Y-9953D01*
X200168Y-10827D01*
Y-15157D01*
X200283Y-16031D01*
X200317Y-16113D01*
X197290Y-19140D01*
X196942Y-19661D01*
X196819Y-20276D01*
X196819Y-20276D01*
Y-39880D01*
X196319Y-40050D01*
X195930Y-39542D01*
X195231Y-39006D01*
X194417Y-38669D01*
X193543Y-38554D01*
X192670Y-38669D01*
X191856Y-39006D01*
X191157Y-39542D01*
X190620Y-40242D01*
X190283Y-41056D01*
X190168Y-41929D01*
Y-46260D01*
X190283Y-47133D01*
X190620Y-47947D01*
X191157Y-48647D01*
X191856Y-49183D01*
X192670Y-49520D01*
X193543Y-49635D01*
X194417Y-49520D01*
X195231Y-49183D01*
X195930Y-48647D01*
X196319Y-48139D01*
X196819Y-48309D01*
Y-50394D01*
X196819Y-50394D01*
X196942Y-51008D01*
X197290Y-51529D01*
X201938Y-56177D01*
Y-56689D01*
X201856Y-56722D01*
X201157Y-57259D01*
X200620Y-57958D01*
X200531Y-58174D01*
X200031Y-58074D01*
Y-56299D01*
X199909Y-55685D01*
X199561Y-55164D01*
X199560Y-55164D01*
X195230Y-50833D01*
X194709Y-50485D01*
X194095Y-50363D01*
X194094Y-50363D01*
X189917D01*
X186770Y-47216D01*
X186804Y-47133D01*
X186919Y-46260D01*
Y-41929D01*
X186804Y-41056D01*
X186466Y-40242D01*
X185930Y-39542D01*
X185231Y-39006D01*
X184417Y-38669D01*
X183543Y-38554D01*
X182670Y-38669D01*
X181856Y-39006D01*
X181157Y-39542D01*
X180620Y-40242D01*
X180283Y-41056D01*
X180168Y-41929D01*
Y-46260D01*
X180283Y-47133D01*
X180620Y-47947D01*
X181157Y-48647D01*
X181856Y-49183D01*
X182670Y-49520D01*
X183543Y-49635D01*
X184417Y-49520D01*
X184499Y-49486D01*
X188117Y-53104D01*
X188117Y-53104D01*
X188637Y-53452D01*
X189252Y-53574D01*
X189252Y-53574D01*
X193429D01*
X196819Y-56964D01*
Y-57597D01*
X196319Y-57767D01*
X195930Y-57259D01*
X195231Y-56722D01*
X194417Y-56385D01*
X193543Y-56270D01*
X192670Y-56385D01*
X191856Y-56722D01*
X191157Y-57259D01*
X190620Y-57958D01*
X190283Y-58772D01*
X190168Y-59646D01*
Y-63976D01*
X190283Y-64850D01*
X190317Y-64932D01*
X187447Y-67802D01*
X187099Y-68322D01*
X186977Y-68937D01*
X186977Y-68937D01*
Y-88986D01*
X186477Y-89086D01*
X186466Y-89060D01*
X185930Y-88361D01*
X185231Y-87825D01*
X184417Y-87488D01*
X183543Y-87373D01*
X182670Y-87488D01*
X181856Y-87825D01*
X181157Y-88361D01*
X180620Y-89060D01*
X180452Y-89466D01*
X179952Y-89367D01*
Y-69838D01*
X182588Y-67203D01*
X182670Y-67237D01*
X183543Y-67352D01*
X184417Y-67237D01*
X185231Y-66900D01*
X185930Y-66363D01*
X186466Y-65664D01*
X186804Y-64850D01*
X186919Y-63976D01*
Y-59646D01*
X186804Y-58772D01*
X186466Y-57958D01*
X185930Y-57259D01*
X185231Y-56722D01*
X184417Y-56385D01*
X183543Y-56270D01*
X182670Y-56385D01*
X181856Y-56722D01*
X181157Y-57259D01*
X180620Y-57958D01*
X180283Y-58772D01*
X180168Y-59646D01*
Y-63976D01*
X180283Y-64850D01*
X180317Y-64932D01*
X177211Y-68038D01*
X176863Y-68559D01*
X176741Y-69173D01*
X176741Y-69173D01*
Y-88597D01*
X176241Y-88766D01*
X175930Y-88361D01*
X175231Y-87825D01*
X174417Y-87488D01*
X173543Y-87373D01*
X172670Y-87488D01*
X171856Y-87825D01*
X171157Y-88361D01*
X171003Y-88561D01*
X170503Y-88391D01*
Y-77164D01*
X170566Y-77069D01*
X170589Y-76958D01*
X174679Y-72868D01*
X174679Y-72868D01*
X175027Y-72347D01*
X175149Y-71732D01*
X175149Y-71732D01*
Y-66934D01*
X175231Y-66900D01*
X175930Y-66363D01*
X176466Y-65664D01*
X176804Y-64850D01*
X176919Y-63976D01*
Y-59646D01*
X176804Y-58772D01*
X176466Y-57958D01*
X175930Y-57259D01*
X175231Y-56722D01*
X174417Y-56385D01*
X173543Y-56270D01*
X172670Y-56385D01*
X171856Y-56722D01*
X171157Y-57259D01*
X170620Y-57958D01*
X170283Y-58772D01*
X170168Y-59646D01*
Y-63976D01*
X170283Y-64850D01*
X170620Y-65664D01*
X171157Y-66363D01*
X171365Y-66523D01*
X171153Y-66991D01*
X170866Y-66934D01*
X170236Y-67059D01*
X168897D01*
X166770Y-64932D01*
X166804Y-64850D01*
X166919Y-63976D01*
Y-59646D01*
X166804Y-58772D01*
X166466Y-57958D01*
X165930Y-57259D01*
X165231Y-56722D01*
X164417Y-56385D01*
X163543Y-56270D01*
X162670Y-56385D01*
X161856Y-56722D01*
X161157Y-57259D01*
X160620Y-57958D01*
X160283Y-58772D01*
X160177Y-59581D01*
X159677Y-59548D01*
Y-46358D01*
X160177Y-46325D01*
X160283Y-47133D01*
X160620Y-47947D01*
X161157Y-48647D01*
X161856Y-49183D01*
X162670Y-49520D01*
X163543Y-49635D01*
X164417Y-49520D01*
X165231Y-49183D01*
X165930Y-48647D01*
X166466Y-47947D01*
X166804Y-47133D01*
X166919Y-46260D01*
Y-41929D01*
X166804Y-41056D01*
X166466Y-40242D01*
X165930Y-39542D01*
X165231Y-39006D01*
X164417Y-38669D01*
X163543Y-38554D01*
X162670Y-38669D01*
X161856Y-39006D01*
X161157Y-39542D01*
X160620Y-40242D01*
X160283Y-41056D01*
X160177Y-41864D01*
X159677Y-41831D01*
Y-30783D01*
X161104Y-29356D01*
X161409Y-29466D01*
X161589Y-29577D01*
X161717Y-30219D01*
X162109Y-30805D01*
X162695Y-31196D01*
X163386Y-31334D01*
X164077Y-31196D01*
X164172Y-31133D01*
X179173D01*
X179173Y-31133D01*
X179788Y-31011D01*
X180309Y-30663D01*
X192588Y-18384D01*
X192670Y-18418D01*
X193543Y-18533D01*
X194417Y-18418D01*
X195231Y-18081D01*
X195930Y-17544D01*
X196466Y-16845D01*
X196804Y-16031D01*
X196919Y-15157D01*
Y-10827D01*
X196804Y-9953D01*
X196466Y-9139D01*
X195930Y-8440D01*
X195231Y-7904D01*
X194417Y-7566D01*
X193543Y-7451D01*
X192670Y-7566D01*
X191856Y-7904D01*
X191157Y-8440D01*
X190620Y-9139D01*
X190283Y-9953D01*
X190168Y-10827D01*
Y-15157D01*
X190283Y-16031D01*
X190317Y-16113D01*
X178508Y-27922D01*
X164172D01*
X164077Y-27859D01*
X163436Y-27731D01*
X163324Y-27551D01*
X163214Y-27246D01*
X164050Y-26409D01*
X173897D01*
X173897Y-26409D01*
X174512Y-26287D01*
X175032Y-25939D01*
X182588Y-18384D01*
X182670Y-18418D01*
X183543Y-18533D01*
X184417Y-18418D01*
X185231Y-18081D01*
X185930Y-17544D01*
X186466Y-16845D01*
X186804Y-16031D01*
X186919Y-15157D01*
Y-10827D01*
X186804Y-9953D01*
X186466Y-9139D01*
X185930Y-8440D01*
X185231Y-7904D01*
X184417Y-7566D01*
X183543Y-7451D01*
X182670Y-7566D01*
X181856Y-7904D01*
X181157Y-8440D01*
X180620Y-9139D01*
X180283Y-9953D01*
X180168Y-10827D01*
Y-15157D01*
X180283Y-16031D01*
X180317Y-16113D01*
X173232Y-23198D01*
X170057D01*
X169981Y-22971D01*
X169974Y-22698D01*
X170427Y-22395D01*
X174402Y-18420D01*
X174417Y-18418D01*
X175231Y-18081D01*
X175930Y-17544D01*
X176466Y-16845D01*
X176804Y-16031D01*
X176919Y-15157D01*
Y-10827D01*
X176804Y-9953D01*
X176466Y-9139D01*
X175930Y-8440D01*
X175231Y-7904D01*
X174417Y-7566D01*
X173543Y-7451D01*
X172670Y-7566D01*
X171856Y-7904D01*
X171157Y-8440D01*
X170620Y-9139D01*
X170283Y-9953D01*
X170168Y-10827D01*
Y-15157D01*
X170283Y-16031D01*
X170620Y-16845D01*
X170974Y-17306D01*
X168626Y-19654D01*
X162205D01*
X162205Y-19654D01*
X161980Y-19699D01*
X161733Y-19238D01*
X162588Y-18384D01*
X162670Y-18418D01*
X163543Y-18533D01*
X164417Y-18418D01*
X165231Y-18081D01*
X165930Y-17544D01*
X166466Y-16845D01*
X166804Y-16031D01*
X166919Y-15157D01*
Y-10827D01*
X166804Y-9953D01*
X166466Y-9139D01*
X165930Y-8440D01*
X165231Y-7904D01*
X164417Y-7566D01*
X163543Y-7451D01*
X162670Y-7566D01*
X161856Y-7904D01*
X161157Y-8440D01*
X160620Y-9139D01*
X160283Y-9953D01*
X160168Y-10827D01*
Y-15157D01*
X160283Y-16031D01*
X160317Y-16113D01*
X146780Y-29650D01*
X146534Y-29588D01*
X146278Y-29445D01*
X146157Y-28836D01*
X145765Y-28250D01*
X145179Y-27859D01*
X144488Y-27721D01*
X143797Y-27859D01*
X143211Y-28250D01*
X142819Y-28836D01*
X142797Y-28948D01*
X137054Y-34691D01*
X136706Y-35212D01*
X136583Y-35827D01*
X136583Y-35827D01*
Y-58860D01*
X136520Y-58954D01*
X136383Y-59646D01*
X136520Y-60337D01*
X136912Y-60923D01*
X137498Y-61314D01*
X138189Y-61452D01*
X138880Y-61314D01*
X139466Y-60923D01*
X139858Y-60337D01*
X139995Y-59646D01*
X139858Y-58954D01*
X139795Y-58860D01*
Y-36492D01*
X141266Y-35021D01*
X141727Y-35267D01*
X141701Y-35394D01*
X141701Y-35394D01*
Y-88666D01*
X133756Y-96611D01*
X133367Y-96293D01*
X133373Y-96284D01*
X133495Y-95669D01*
X133495Y-95669D01*
Y-21531D01*
X148106Y-6921D01*
X257366D01*
X260197Y-9751D01*
D02*
G37*
G36*
X156500Y-29942D02*
X156465Y-30118D01*
X156465Y-30118D01*
Y-39462D01*
X155992Y-39623D01*
X155930Y-39542D01*
X155231Y-39006D01*
X154417Y-38669D01*
X153543Y-38554D01*
X152670Y-38669D01*
X151856Y-39006D01*
X151157Y-39542D01*
X150620Y-40242D01*
X150283Y-41056D01*
X150168Y-41929D01*
Y-46260D01*
X150283Y-47133D01*
X150317Y-47216D01*
X148562Y-48970D01*
X148062Y-48763D01*
Y-37673D01*
X156039Y-29696D01*
X156500Y-29942D01*
D02*
G37*
G36*
X257056Y-22449D02*
Y-40358D01*
X256556Y-40457D01*
X256466Y-40242D01*
X255930Y-39542D01*
X255231Y-39006D01*
X255149Y-38972D01*
Y-23606D01*
X255861Y-22894D01*
X256395Y-22537D01*
X256556Y-22297D01*
X257056Y-22449D01*
D02*
G37*
G36*
X292126Y-146810D02*
X303937Y-158621D01*
X343307D01*
Y-216101D01*
X339560D01*
Y-214957D01*
X337615Y-213012D01*
X337275D01*
Y-201993D01*
X337494Y-201825D01*
X337905Y-201291D01*
X338162Y-200668D01*
X338250Y-200000D01*
X338162Y-199332D01*
X337905Y-198709D01*
X337494Y-198175D01*
X336960Y-197765D01*
X336337Y-197507D01*
X335669Y-197419D01*
X335001Y-197507D01*
X334379Y-197765D01*
X333844Y-198175D01*
X333434Y-198709D01*
X333176Y-199332D01*
X333088Y-200000D01*
X333176Y-200668D01*
X333434Y-201291D01*
X333844Y-201825D01*
X334064Y-201993D01*
Y-213012D01*
X333724D01*
X331779Y-214957D01*
Y-216101D01*
X329560D01*
Y-214957D01*
X327615Y-213012D01*
X327275D01*
Y-202362D01*
X327275Y-202362D01*
X327153Y-201748D01*
X326805Y-201227D01*
X320994Y-195416D01*
X321233Y-194993D01*
X322903Y-195685D01*
X322980Y-195700D01*
X323054Y-195730D01*
X324826Y-196083D01*
X324905D01*
X324982Y-196098D01*
X326789D01*
X326867Y-196083D01*
X326946D01*
X328718Y-195730D01*
X328791Y-195700D01*
X328869Y-195685D01*
X330538Y-194993D01*
X330604Y-194949D01*
X330677Y-194919D01*
X332179Y-193915D01*
X332235Y-193859D01*
X332301Y-193815D01*
X333579Y-192537D01*
X333623Y-192472D01*
X333679Y-192416D01*
X334683Y-190913D01*
X334713Y-190840D01*
X334757Y-190774D01*
X335448Y-189105D01*
X335464Y-189028D01*
X335494Y-188954D01*
X335846Y-187182D01*
Y-187103D01*
X335862Y-187025D01*
Y-185219D01*
X335846Y-185141D01*
Y-185062D01*
X335494Y-183290D01*
X335464Y-183217D01*
X335448Y-183139D01*
X334757Y-181470D01*
X334713Y-181404D01*
X334683Y-181331D01*
X333679Y-179828D01*
X333623Y-179772D01*
X333579Y-179707D01*
X332301Y-178429D01*
X332235Y-178385D01*
X332179Y-178329D01*
X330677Y-177325D01*
X330604Y-177295D01*
X330538Y-177251D01*
X328869Y-176560D01*
X328791Y-176544D01*
X328718Y-176514D01*
X326946Y-176161D01*
X326867D01*
X326789Y-176146D01*
X324982D01*
X324905Y-176161D01*
X324826D01*
X323054Y-176514D01*
X322980Y-176544D01*
X322903Y-176560D01*
X321233Y-177251D01*
X321168Y-177295D01*
X321095Y-177325D01*
X319592Y-178329D01*
X319536Y-178385D01*
X319471Y-178429D01*
X318193Y-179707D01*
X318149Y-179772D01*
X318093Y-179828D01*
X317089Y-181331D01*
X317059Y-181404D01*
X317015Y-181470D01*
X316323Y-183139D01*
X316308Y-183217D01*
X316278Y-183290D01*
X315925Y-185062D01*
Y-185141D01*
X315910Y-185219D01*
Y-187025D01*
X315925Y-187103D01*
Y-187182D01*
X316278Y-188954D01*
X316308Y-189027D01*
X316323Y-189105D01*
X317015Y-190774D01*
X316592Y-191014D01*
X286809Y-161231D01*
X286787Y-161120D01*
X286395Y-160534D01*
X285809Y-160142D01*
X285118Y-160005D01*
X284427Y-160142D01*
X283841Y-160534D01*
X283449Y-161120D01*
X283312Y-161811D01*
X283449Y-162502D01*
X283841Y-163088D01*
X284427Y-163480D01*
X284538Y-163502D01*
X324064Y-203027D01*
Y-213012D01*
X323724D01*
X321779Y-214957D01*
Y-216101D01*
X319560D01*
Y-214957D01*
X317615Y-213012D01*
X317275D01*
Y-201993D01*
X317494Y-201825D01*
X317905Y-201291D01*
X318162Y-200668D01*
X318250Y-200000D01*
X318255D01*
X318241Y-199927D01*
X318162Y-199332D01*
X317905Y-198709D01*
X317494Y-198175D01*
X316960Y-197765D01*
X316337Y-197507D01*
X315669Y-197419D01*
X315001Y-197507D01*
X314379Y-197765D01*
X313844Y-198175D01*
X313434Y-198709D01*
X313176Y-199332D01*
X313088Y-200000D01*
X313176Y-200668D01*
X313434Y-201291D01*
X313844Y-201825D01*
X314064Y-201993D01*
Y-213012D01*
X313724D01*
X311779Y-214957D01*
Y-216101D01*
X309560D01*
Y-214957D01*
X307615Y-213012D01*
X307275D01*
Y-198549D01*
X307494Y-198380D01*
X307905Y-197846D01*
X308162Y-197223D01*
X308250Y-196555D01*
X308162Y-195887D01*
X307905Y-195265D01*
X307494Y-194730D01*
X306960Y-194320D01*
X306337Y-194062D01*
X305669Y-193974D01*
X305001Y-194062D01*
X304379Y-194320D01*
X303844Y-194730D01*
X303434Y-195265D01*
X303176Y-195887D01*
X303088Y-196555D01*
X303176Y-197223D01*
X303434Y-197846D01*
X303844Y-198380D01*
X304064Y-198549D01*
Y-213012D01*
X303724D01*
X301779Y-214957D01*
Y-216101D01*
X299560D01*
Y-214957D01*
X297615Y-213012D01*
X297275D01*
Y-198450D01*
X297494Y-198282D01*
X297905Y-197747D01*
X298163Y-197125D01*
X298250Y-196457D01*
X298163Y-195789D01*
X297905Y-195166D01*
X297494Y-194632D01*
X296960Y-194221D01*
X296337Y-193964D01*
X295669Y-193876D01*
X295001Y-193964D01*
X294379Y-194221D01*
X293844Y-194632D01*
X293434Y-195166D01*
X293176Y-195789D01*
X293088Y-196457D01*
X293176Y-197125D01*
X293434Y-197747D01*
X293844Y-198282D01*
X294064Y-198450D01*
Y-213012D01*
X293724D01*
X291779Y-214957D01*
Y-216101D01*
X289560D01*
Y-214957D01*
X287615Y-213012D01*
X287275D01*
Y-198549D01*
X287494Y-198380D01*
X287905Y-197846D01*
X288162Y-197223D01*
X288250Y-196555D01*
X288162Y-195887D01*
X287905Y-195265D01*
X287494Y-194730D01*
X286960Y-194320D01*
X286337Y-194062D01*
X285669Y-193974D01*
X285001Y-194062D01*
X284379Y-194320D01*
X283844Y-194730D01*
X283434Y-195265D01*
X283176Y-195887D01*
X283088Y-196555D01*
X283176Y-197223D01*
X283434Y-197846D01*
X283844Y-198380D01*
X284064Y-198549D01*
Y-213012D01*
X283724D01*
X281779Y-214957D01*
Y-216101D01*
X279560D01*
Y-214957D01*
X277615Y-213012D01*
X277275D01*
Y-197717D01*
X277275Y-197716D01*
X277153Y-197102D01*
X276805Y-196581D01*
X260267Y-180044D01*
Y-175868D01*
X260767Y-175698D01*
X261157Y-176206D01*
X261856Y-176742D01*
X262670Y-177079D01*
X263543Y-177194D01*
X264417Y-177079D01*
X265231Y-176742D01*
X265930Y-176206D01*
X266466Y-175507D01*
X266804Y-174692D01*
X266919Y-173819D01*
Y-169488D01*
X266804Y-168615D01*
X266489Y-167855D01*
X269639Y-164704D01*
X269987Y-164183D01*
X270110Y-163569D01*
X270110Y-163569D01*
Y-126110D01*
X270610Y-125843D01*
X270911Y-126044D01*
X271938Y-127071D01*
Y-166531D01*
X271856Y-166565D01*
X271157Y-167102D01*
X270620Y-167800D01*
X270283Y-168615D01*
X270168Y-169488D01*
Y-173819D01*
X270283Y-174692D01*
X270620Y-175507D01*
X271157Y-176206D01*
X271856Y-176742D01*
X272670Y-177079D01*
X273543Y-177194D01*
X274417Y-177079D01*
X275231Y-176742D01*
X275930Y-176206D01*
X276466Y-175507D01*
X276804Y-174692D01*
X276919Y-173819D01*
Y-169488D01*
X276804Y-168615D01*
X276466Y-167800D01*
X275930Y-167102D01*
X275231Y-166565D01*
X275149Y-166531D01*
Y-126406D01*
X275027Y-125791D01*
X274679Y-125270D01*
X274679Y-125270D01*
X273371Y-123963D01*
X273322Y-123718D01*
X272931Y-123132D01*
X272345Y-122741D01*
X271654Y-122603D01*
X270962Y-122741D01*
X270610Y-122976D01*
X270110Y-122709D01*
Y-114951D01*
X270610Y-114851D01*
X270620Y-114877D01*
X271157Y-115576D01*
X271856Y-116112D01*
X272670Y-116449D01*
X273543Y-116564D01*
X274417Y-116449D01*
X275231Y-116112D01*
X275930Y-115576D01*
X276466Y-114877D01*
X276804Y-114063D01*
X276919Y-113189D01*
Y-108858D01*
X276804Y-107985D01*
X276466Y-107171D01*
X275930Y-106472D01*
X275231Y-105935D01*
X275149Y-105901D01*
Y-102466D01*
X275649Y-102417D01*
X275682Y-102583D01*
X276030Y-103104D01*
X280197Y-107271D01*
Y-116535D01*
X286890D01*
Y-105512D01*
X282979D01*
X278771Y-101303D01*
Y-77858D01*
X278649Y-77243D01*
X278301Y-76722D01*
X278301Y-76722D01*
X274781Y-73202D01*
X274759Y-73091D01*
X274367Y-72505D01*
X273781Y-72113D01*
X273090Y-71975D01*
X272398Y-72113D01*
X271813Y-72505D01*
X271421Y-73091D01*
X271283Y-73782D01*
X271370Y-74215D01*
X270920Y-74515D01*
X270859Y-74475D01*
X270168Y-74338D01*
X269477Y-74475D01*
X268891Y-74867D01*
X268499Y-75453D01*
X268362Y-76144D01*
X268499Y-76835D01*
X268891Y-77421D01*
X269477Y-77813D01*
X269588Y-77835D01*
X270974Y-79221D01*
X270773Y-79727D01*
X270271Y-79827D01*
X269685Y-80219D01*
X269293Y-80805D01*
X269156Y-81496D01*
X269293Y-82187D01*
X269357Y-82282D01*
Y-101625D01*
X267369Y-103613D01*
X267021Y-104134D01*
X266898Y-104748D01*
X266898Y-104748D01*
Y-106949D01*
X266758Y-107021D01*
X266398Y-107082D01*
X265930Y-106472D01*
X265231Y-105935D01*
X265149Y-105901D01*
Y-101051D01*
X265149Y-101051D01*
X265027Y-100437D01*
X264679Y-99916D01*
X264679Y-99916D01*
X263922Y-99160D01*
X263912Y-99108D01*
X264196Y-98567D01*
X264468Y-98531D01*
X265330Y-98174D01*
X265598Y-97968D01*
X263126Y-95496D01*
X263961Y-94661D01*
X266433Y-97133D01*
X266638Y-96866D01*
X266995Y-96004D01*
X267117Y-95079D01*
Y-90748D01*
X266995Y-89823D01*
X266638Y-88961D01*
X266433Y-88693D01*
X263961Y-91166D01*
X263126Y-90330D01*
X265598Y-87858D01*
X265330Y-87653D01*
X264468Y-87296D01*
X263543Y-87174D01*
X262618Y-87296D01*
X261756Y-87653D01*
X261016Y-88221D01*
X260937Y-88324D01*
X260463Y-88164D01*
Y-69291D01*
X260341Y-68676D01*
X259993Y-68155D01*
X259993Y-68155D01*
X256770Y-64932D01*
X256804Y-64850D01*
X256919Y-63976D01*
Y-59646D01*
X256804Y-58772D01*
X256466Y-57958D01*
X255930Y-57259D01*
X255231Y-56722D01*
X255149Y-56689D01*
Y-54725D01*
X255149Y-54724D01*
X255027Y-54110D01*
X254679Y-53589D01*
X250031Y-48941D01*
Y-47831D01*
X250531Y-47732D01*
X250620Y-47947D01*
X251157Y-48647D01*
X251856Y-49183D01*
X252670Y-49520D01*
X253543Y-49635D01*
X254417Y-49520D01*
X255231Y-49183D01*
X255930Y-48647D01*
X256466Y-47947D01*
X256556Y-47732D01*
X257056Y-47831D01*
Y-50000D01*
X257056Y-50000D01*
X257178Y-50615D01*
X257526Y-51135D01*
X261938Y-55547D01*
Y-56299D01*
X260197D01*
Y-67323D01*
X266890D01*
Y-56299D01*
X265149D01*
Y-54882D01*
X265149Y-54882D01*
X265027Y-54267D01*
X264679Y-53746D01*
X260267Y-49335D01*
Y-48632D01*
X260371Y-48597D01*
X263126Y-45842D01*
X263543Y-46260D01*
X263961Y-45842D01*
X266433Y-48314D01*
X266638Y-48047D01*
X266995Y-47185D01*
X267117Y-46260D01*
Y-41929D01*
X266995Y-41004D01*
X266638Y-40142D01*
X266433Y-39875D01*
X263961Y-42347D01*
X263543Y-41929D01*
X263126Y-42347D01*
X260371Y-39592D01*
X260267Y-39557D01*
Y-19956D01*
X261720Y-18504D01*
X266890D01*
Y-7480D01*
X262468D01*
X259167Y-4180D01*
X258646Y-3831D01*
X258032Y-3709D01*
X258031Y-3709D01*
X147441D01*
X147441Y-3709D01*
X146827Y-3831D01*
X146306Y-4180D01*
X130754Y-19731D01*
X130406Y-20252D01*
X130284Y-20866D01*
X130284Y-20866D01*
Y-95004D01*
X125636Y-99652D01*
X125288Y-100173D01*
X125166Y-100787D01*
X125166Y-100787D01*
Y-198031D01*
X125166Y-198031D01*
X125288Y-198646D01*
X125636Y-199167D01*
X134064Y-207594D01*
Y-213012D01*
X133724D01*
X131779Y-214957D01*
Y-216101D01*
X129560D01*
Y-215207D01*
X128250Y-213898D01*
Y-203622D01*
X128163Y-202954D01*
X127905Y-202331D01*
X127494Y-201797D01*
X125841Y-200143D01*
X125306Y-199733D01*
X124684Y-199475D01*
X124016Y-199387D01*
X117323D01*
X116655Y-199475D01*
X116032Y-199733D01*
X115498Y-200143D01*
X113988Y-201653D01*
X113578Y-202187D01*
X113320Y-202810D01*
X113232Y-203478D01*
Y-213504D01*
X111779Y-214957D01*
Y-216101D01*
X109560D01*
Y-214957D01*
X107615Y-213012D01*
X107275D01*
Y-198549D01*
X107494Y-198380D01*
X107905Y-197846D01*
X108162Y-197223D01*
X108250Y-196555D01*
X108255D01*
X108241Y-196482D01*
X108162Y-195887D01*
X107905Y-195265D01*
X107494Y-194730D01*
X106960Y-194320D01*
X106337Y-194062D01*
X105669Y-193974D01*
X105001Y-194062D01*
X104379Y-194320D01*
X103844Y-194730D01*
X103434Y-195265D01*
X103176Y-195887D01*
X103088Y-196555D01*
X103176Y-197223D01*
X103434Y-197846D01*
X103844Y-198380D01*
X104064Y-198549D01*
Y-213012D01*
X103724D01*
X101779Y-214957D01*
Y-216101D01*
X99560D01*
Y-214957D01*
X97615Y-213012D01*
X97275D01*
Y-198549D01*
X97494Y-198380D01*
X97905Y-197846D01*
X98163Y-197223D01*
X98250Y-196555D01*
X98255D01*
X98241Y-196482D01*
X98163Y-195887D01*
X97905Y-195265D01*
X97494Y-194730D01*
X96960Y-194320D01*
X96337Y-194062D01*
X95669Y-193974D01*
X95001Y-194062D01*
X94379Y-194320D01*
X93844Y-194730D01*
X93434Y-195265D01*
X93176Y-195887D01*
X93088Y-196555D01*
X93176Y-197223D01*
X93434Y-197846D01*
X93844Y-198380D01*
X94064Y-198549D01*
Y-213012D01*
X93724D01*
X91779Y-214957D01*
Y-216101D01*
X88381D01*
X88028Y-215747D01*
X88103Y-198509D01*
X88095Y-198470D01*
X88100Y-198432D01*
X88095Y-198379D01*
X88079Y-198051D01*
X88065Y-197993D01*
X88065Y-197933D01*
X87992Y-197567D01*
Y-167676D01*
X83071Y-162558D01*
X38322D01*
X37722Y-162309D01*
X37644Y-162294D01*
X37571Y-162264D01*
X36911Y-162132D01*
X36851D01*
X36794Y-162118D01*
X36457Y-162101D01*
X36450Y-162102D01*
X36444Y-162101D01*
X36388Y-162099D01*
X36375Y-162101D01*
X36362Y-162099D01*
X4626Y-162100D01*
X4268D01*
X3565Y-161961D01*
X2904Y-161687D01*
X2308Y-161289D01*
X1802Y-160782D01*
X1404Y-160187D01*
X1130Y-159525D01*
X990Y-158823D01*
X990Y-158465D01*
Y-4728D01*
X990Y-4366D01*
X1130Y-3664D01*
X1404Y-3002D01*
X1802Y-2407D01*
X2308Y-1900D01*
X2904Y-1503D01*
X3565Y-1228D01*
X4268Y-1089D01*
X292126D01*
Y-146810D01*
D02*
G37*
G36*
X236977Y-48021D02*
Y-51968D01*
X236977Y-51968D01*
X237099Y-52583D01*
X237447Y-53104D01*
X241184Y-56841D01*
X241157Y-57259D01*
X240620Y-57958D01*
X240283Y-58772D01*
X240168Y-59646D01*
Y-63976D01*
X240283Y-64850D01*
X240620Y-65664D01*
X241157Y-66363D01*
X241856Y-66900D01*
X241938Y-66934D01*
Y-67165D01*
X241938Y-67165D01*
X242060Y-67780D01*
X242408Y-68301D01*
X247213Y-73106D01*
Y-89557D01*
X246713Y-89656D01*
X246466Y-89060D01*
X245930Y-88361D01*
X245231Y-87825D01*
X244417Y-87488D01*
X243543Y-87373D01*
X242670Y-87488D01*
X241856Y-87825D01*
X241157Y-88361D01*
X240688Y-88972D01*
X240329Y-88911D01*
X240188Y-88839D01*
Y-74410D01*
X240188Y-74410D01*
X240066Y-73795D01*
X239718Y-73274D01*
X239718Y-73274D01*
X234471Y-68027D01*
Y-67214D01*
X235231Y-66900D01*
X235930Y-66363D01*
X236466Y-65664D01*
X236804Y-64850D01*
X236919Y-63976D01*
Y-59646D01*
X236804Y-58772D01*
X236466Y-57958D01*
X235930Y-57259D01*
X235231Y-56722D01*
X234471Y-56408D01*
Y-54519D01*
X234471Y-54519D01*
X234349Y-53904D01*
X234001Y-53383D01*
X234001Y-53383D01*
X230346Y-49729D01*
Y-48411D01*
X230846Y-48242D01*
X231157Y-48647D01*
X231856Y-49183D01*
X232670Y-49520D01*
X233543Y-49635D01*
X234417Y-49520D01*
X235231Y-49183D01*
X235930Y-48647D01*
X236466Y-47947D01*
X236477Y-47922D01*
X236977Y-48021D01*
D02*
G37*
G36*
X227134Y-47641D02*
Y-50394D01*
X227134Y-50394D01*
X227257Y-51008D01*
X227605Y-51529D01*
X231260Y-55184D01*
Y-57180D01*
X231157Y-57259D01*
X230620Y-57958D01*
X230283Y-58772D01*
X230168Y-59646D01*
Y-63976D01*
X230283Y-64850D01*
X230620Y-65664D01*
X231157Y-66363D01*
X231260Y-66442D01*
Y-68692D01*
X231260Y-68692D01*
X231382Y-69307D01*
X231730Y-69828D01*
X236977Y-75074D01*
Y-88986D01*
X236477Y-89086D01*
X236466Y-89060D01*
X235930Y-88361D01*
X235231Y-87825D01*
X234417Y-87488D01*
X233543Y-87373D01*
X232670Y-87488D01*
X231856Y-87825D01*
X231157Y-88361D01*
X230620Y-89060D01*
X230452Y-89466D01*
X229952Y-89367D01*
Y-74016D01*
X229952Y-74016D01*
X229830Y-73401D01*
X229482Y-72880D01*
X225149Y-68547D01*
Y-66934D01*
X225231Y-66900D01*
X225930Y-66363D01*
X226466Y-65664D01*
X226804Y-64850D01*
X226919Y-63976D01*
Y-59646D01*
X226804Y-58772D01*
X226466Y-57958D01*
X225930Y-57259D01*
X225231Y-56722D01*
X225149Y-56689D01*
Y-54646D01*
X225149Y-54646D01*
X225027Y-54031D01*
X224679Y-53510D01*
X224679Y-53510D01*
X220503Y-49335D01*
Y-48616D01*
X221003Y-48447D01*
X221157Y-48647D01*
X221856Y-49183D01*
X222670Y-49520D01*
X223543Y-49635D01*
X224417Y-49520D01*
X225231Y-49183D01*
X225930Y-48647D01*
X226466Y-47947D01*
X226635Y-47542D01*
X227134Y-47641D01*
D02*
G37*
G36*
X207056Y-47831D02*
Y-50000D01*
X207056Y-50000D01*
X207178Y-50615D01*
X207526Y-51135D01*
X211260Y-54869D01*
Y-57180D01*
X211157Y-57259D01*
X210620Y-57958D01*
X210283Y-58772D01*
X210168Y-59646D01*
Y-63976D01*
X210283Y-64850D01*
X210620Y-65664D01*
X211157Y-66363D01*
X211260Y-66442D01*
Y-69165D01*
X211260Y-69165D01*
X211382Y-69779D01*
X211730Y-70300D01*
X216898Y-75468D01*
Y-88839D01*
X216758Y-88911D01*
X216398Y-88972D01*
X215930Y-88361D01*
X215231Y-87825D01*
X214417Y-87488D01*
X213543Y-87373D01*
X212670Y-87488D01*
X211856Y-87825D01*
X211157Y-88361D01*
X210620Y-89060D01*
X210373Y-89656D01*
X209873Y-89557D01*
Y-68664D01*
X209751Y-68050D01*
X209403Y-67529D01*
X209403Y-67529D01*
X206780Y-64906D01*
X206804Y-64850D01*
X206919Y-63976D01*
Y-59646D01*
X206804Y-58772D01*
X206466Y-57958D01*
X205930Y-57259D01*
X205231Y-56722D01*
X205149Y-56689D01*
Y-55512D01*
X205149Y-55512D01*
X205027Y-54897D01*
X204679Y-54376D01*
X200031Y-49729D01*
Y-47831D01*
X200531Y-47732D01*
X200620Y-47947D01*
X201157Y-48647D01*
X201856Y-49183D01*
X202670Y-49520D01*
X203543Y-49635D01*
X204417Y-49520D01*
X205231Y-49183D01*
X205930Y-48647D01*
X206466Y-47947D01*
X206556Y-47732D01*
X207056Y-47831D01*
D02*
G37*
G36*
X156465Y-48727D02*
Y-57179D01*
X155992Y-57339D01*
X155930Y-57259D01*
X155231Y-56722D01*
X154417Y-56385D01*
X153543Y-56270D01*
X152670Y-56385D01*
X151856Y-56722D01*
X151515Y-56984D01*
X151015Y-56737D01*
Y-51059D01*
X152588Y-49486D01*
X152670Y-49520D01*
X153543Y-49635D01*
X154417Y-49520D01*
X155231Y-49183D01*
X155930Y-48647D01*
X155992Y-48566D01*
X156465Y-48727D01*
D02*
G37*
G36*
X196819Y-66025D02*
Y-66142D01*
X196819Y-66142D01*
X196942Y-66756D01*
X197290Y-67277D01*
X200833Y-70820D01*
X200833Y-70820D01*
X201354Y-71169D01*
X201969Y-71291D01*
X201969Y-71291D01*
X204883D01*
X204978Y-71354D01*
X205669Y-71491D01*
X206162Y-71393D01*
X206662Y-71708D01*
Y-88494D01*
X206162Y-88664D01*
X205930Y-88361D01*
X205231Y-87825D01*
X204417Y-87488D01*
X203543Y-87373D01*
X202670Y-87488D01*
X201856Y-87825D01*
X201157Y-88361D01*
X200620Y-89060D01*
X200531Y-89276D01*
X200031Y-89177D01*
Y-74016D01*
X199909Y-73401D01*
X199561Y-72880D01*
X199560Y-72880D01*
X195785Y-69105D01*
X195763Y-68994D01*
X195372Y-68408D01*
X194786Y-68016D01*
X194095Y-67879D01*
X193403Y-68016D01*
X192817Y-68408D01*
X192426Y-68994D01*
X192288Y-69685D01*
X192426Y-70376D01*
X192817Y-70962D01*
X193403Y-71354D01*
X193515Y-71376D01*
X196819Y-74681D01*
Y-88699D01*
X196319Y-88869D01*
X195930Y-88361D01*
X195231Y-87825D01*
X194417Y-87488D01*
X193543Y-87373D01*
X192670Y-87488D01*
X191856Y-87825D01*
X191157Y-88361D01*
X190688Y-88972D01*
X190329Y-88911D01*
X190188Y-88839D01*
Y-69602D01*
X192588Y-67203D01*
X192670Y-67237D01*
X193543Y-67352D01*
X194417Y-67237D01*
X195231Y-66900D01*
X195930Y-66363D01*
X196319Y-65855D01*
X196819Y-66025D01*
D02*
G37*
G36*
X156465Y-66443D02*
Y-88281D01*
X155992Y-88442D01*
X155930Y-88361D01*
X155231Y-87825D01*
X154417Y-87488D01*
X153543Y-87373D01*
X152670Y-87488D01*
X152588Y-87522D01*
X151015Y-85949D01*
Y-66885D01*
X151515Y-66638D01*
X151856Y-66900D01*
X152670Y-67237D01*
X153543Y-67352D01*
X154417Y-67237D01*
X155231Y-66900D01*
X155930Y-66363D01*
X155992Y-66283D01*
X156465Y-66443D01*
D02*
G37*
G36*
X216758Y-65813D02*
X216898Y-65886D01*
Y-69291D01*
X216898Y-69291D01*
X217021Y-69906D01*
X217369Y-70427D01*
X219963Y-73021D01*
X219985Y-73132D01*
X220376Y-73718D01*
X220962Y-74110D01*
X221654Y-74247D01*
X222345Y-74110D01*
X222931Y-73718D01*
X223322Y-73132D01*
X223460Y-72441D01*
X223377Y-72024D01*
X223838Y-71778D01*
X226741Y-74681D01*
Y-88597D01*
X226241Y-88766D01*
X225930Y-88361D01*
X225231Y-87825D01*
X224417Y-87488D01*
X223543Y-87373D01*
X222670Y-87488D01*
X221856Y-87825D01*
X221157Y-88361D01*
X220620Y-89060D01*
X220610Y-89086D01*
X220110Y-88986D01*
Y-74803D01*
X220110Y-74803D01*
X219987Y-74189D01*
X219639Y-73668D01*
X214471Y-68499D01*
Y-67214D01*
X215231Y-66900D01*
X215930Y-66363D01*
X216398Y-65753D01*
X216758Y-65813D01*
D02*
G37*
G36*
X247001Y-65680D02*
X247060Y-65978D01*
X247408Y-66498D01*
X252124Y-71214D01*
X252124Y-71214D01*
X252209Y-71272D01*
X252266Y-71356D01*
X252852Y-71748D01*
X253543Y-71885D01*
X254235Y-71748D01*
X254821Y-71356D01*
X255212Y-70770D01*
X255350Y-70079D01*
X255212Y-69388D01*
X254821Y-68801D01*
X254235Y-68410D01*
X253768Y-68317D01*
X253240Y-67789D01*
X253462Y-67341D01*
X253543Y-67352D01*
X254417Y-67237D01*
X254499Y-67203D01*
X257252Y-69956D01*
Y-89650D01*
X256752Y-89750D01*
X256466Y-89060D01*
X255930Y-88361D01*
X255231Y-87825D01*
X254417Y-87488D01*
X253543Y-87373D01*
X252670Y-87488D01*
X251856Y-87825D01*
X251157Y-88361D01*
X250924Y-88664D01*
X250425Y-88494D01*
Y-72441D01*
X250425Y-72441D01*
X250302Y-71826D01*
X249954Y-71306D01*
X249954Y-71306D01*
X245679Y-67030D01*
X245711Y-66531D01*
X245930Y-66363D01*
X246466Y-65664D01*
X246481Y-65629D01*
X247001Y-65680D01*
D02*
G37*
G36*
X160283Y-64850D02*
X160620Y-65664D01*
X161157Y-66363D01*
X161856Y-66900D01*
X162670Y-67237D01*
X163543Y-67352D01*
X164417Y-67237D01*
X164499Y-67203D01*
X167096Y-69800D01*
X167617Y-70148D01*
X168232Y-70271D01*
X168232Y-70271D01*
X169968D01*
X170175Y-70409D01*
X170866Y-70547D01*
X171362Y-70448D01*
X171801Y-70746D01*
X171841Y-71164D01*
X168318Y-74687D01*
X168206Y-74709D01*
X167620Y-75101D01*
X167229Y-75687D01*
X167091Y-76378D01*
X167229Y-77069D01*
X167292Y-77164D01*
Y-89796D01*
X166804Y-89874D01*
X166466Y-89060D01*
X165930Y-88361D01*
X165231Y-87825D01*
X164417Y-87488D01*
X163543Y-87373D01*
X162670Y-87488D01*
X161856Y-87825D01*
X161157Y-88361D01*
X160620Y-89060D01*
X160283Y-89874D01*
X160177Y-90683D01*
X159677Y-90650D01*
Y-64074D01*
X160177Y-64041D01*
X160283Y-64850D01*
D02*
G37*
G36*
X247213Y-96270D02*
Y-107667D01*
X246713Y-107766D01*
X246466Y-107171D01*
X245930Y-106472D01*
X245231Y-105935D01*
X244417Y-105598D01*
X243543Y-105483D01*
X242670Y-105598D01*
X241856Y-105935D01*
X241157Y-106472D01*
X240688Y-107082D01*
X240329Y-107021D01*
X240188Y-106949D01*
Y-96988D01*
X240329Y-96916D01*
X240688Y-96855D01*
X241157Y-97465D01*
X241856Y-98002D01*
X242670Y-98339D01*
X243543Y-98454D01*
X244417Y-98339D01*
X245231Y-98002D01*
X245930Y-97465D01*
X246466Y-96766D01*
X246713Y-96171D01*
X247213Y-96270D01*
D02*
G37*
G36*
X167292Y-96030D02*
Y-97268D01*
X167038Y-97522D01*
X166927Y-97544D01*
X166341Y-97935D01*
X165949Y-98521D01*
X165812Y-99213D01*
X165949Y-99904D01*
X166341Y-100490D01*
X166927Y-100882D01*
X167618Y-101019D01*
X168309Y-100882D01*
X168895Y-100490D01*
X169287Y-99904D01*
X169309Y-99792D01*
X170033Y-99068D01*
X170033Y-99068D01*
X170381Y-98547D01*
X170503Y-97933D01*
Y-97435D01*
X171003Y-97266D01*
X171157Y-97465D01*
X171856Y-98002D01*
X172670Y-98339D01*
X173543Y-98454D01*
X174417Y-98339D01*
X175231Y-98002D01*
X175930Y-97465D01*
X176241Y-97061D01*
X176261Y-97067D01*
X176678Y-97340D01*
X176540Y-98032D01*
X176678Y-98723D01*
X177069Y-99309D01*
X177655Y-99700D01*
X178347Y-99838D01*
X179038Y-99700D01*
X179624Y-99309D01*
X180015Y-98723D01*
X180153Y-98032D01*
X180015Y-97340D01*
X179952Y-97246D01*
Y-96460D01*
X180452Y-96361D01*
X180620Y-96766D01*
X181157Y-97465D01*
X181856Y-98002D01*
X182616Y-98317D01*
Y-99576D01*
X182616Y-99576D01*
X182738Y-100190D01*
X183086Y-100711D01*
X186977Y-104602D01*
Y-107097D01*
X186477Y-107196D01*
X186466Y-107171D01*
X185930Y-106472D01*
X185231Y-105935D01*
X184417Y-105598D01*
X183543Y-105483D01*
X182670Y-105598D01*
X181856Y-105935D01*
X181157Y-106472D01*
X180620Y-107171D01*
X180283Y-107985D01*
X180168Y-108858D01*
Y-113189D01*
X180283Y-114063D01*
X180620Y-114877D01*
X181157Y-115576D01*
X181856Y-116112D01*
X182449Y-116358D01*
Y-118029D01*
X181949Y-118363D01*
X181496Y-118272D01*
X180805Y-118410D01*
X180219Y-118801D01*
X179831Y-118505D01*
X176352Y-115026D01*
X176466Y-114877D01*
X176804Y-114063D01*
X176919Y-113189D01*
Y-108858D01*
X176804Y-107985D01*
X176466Y-107171D01*
X175930Y-106472D01*
X175231Y-105935D01*
X174417Y-105598D01*
X173543Y-105483D01*
X172670Y-105598D01*
X171856Y-105935D01*
X171157Y-106472D01*
X170620Y-107171D01*
X170525Y-107400D01*
X170008Y-107361D01*
X169987Y-107260D01*
X169639Y-106739D01*
X161296Y-98395D01*
X161284Y-98193D01*
X161769Y-97935D01*
X161856Y-98002D01*
X162670Y-98339D01*
X163543Y-98454D01*
X164417Y-98339D01*
X165231Y-98002D01*
X165930Y-97465D01*
X166466Y-96766D01*
X166804Y-95952D01*
X167292Y-96030D01*
D02*
G37*
G36*
X200620Y-96766D02*
X201157Y-97465D01*
X201856Y-98002D01*
X202670Y-98339D01*
X203543Y-98454D01*
X204417Y-98339D01*
X205231Y-98002D01*
X205930Y-97465D01*
X206162Y-97163D01*
X206662Y-97333D01*
Y-106604D01*
X206162Y-106774D01*
X205930Y-106472D01*
X205231Y-105935D01*
X204417Y-105598D01*
X203543Y-105483D01*
X202670Y-105598D01*
X201856Y-105935D01*
X201157Y-106472D01*
X200620Y-107171D01*
X200531Y-107386D01*
X200031Y-107287D01*
Y-96650D01*
X200531Y-96551D01*
X200620Y-96766D01*
D02*
G37*
G36*
X220620D02*
X221157Y-97465D01*
X221856Y-98002D01*
X222670Y-98339D01*
X223543Y-98454D01*
X224417Y-98339D01*
X225231Y-98002D01*
X225930Y-97465D01*
X226241Y-97061D01*
X226741Y-97230D01*
Y-106707D01*
X226241Y-106877D01*
X225930Y-106472D01*
X225231Y-105935D01*
X224417Y-105598D01*
X223543Y-105483D01*
X222670Y-105598D01*
X221856Y-105935D01*
X221157Y-106472D01*
X220620Y-107171D01*
X220610Y-107196D01*
X220110Y-107097D01*
Y-96840D01*
X220610Y-96741D01*
X220620Y-96766D01*
D02*
G37*
G36*
X186865Y-97063D02*
X186926Y-97321D01*
X186914Y-97340D01*
X186776Y-98032D01*
X186914Y-98723D01*
X187305Y-99309D01*
X187891Y-99700D01*
X188583Y-99838D01*
X189274Y-99700D01*
X189860Y-99309D01*
X190252Y-98723D01*
X190389Y-98032D01*
X190258Y-97374D01*
X190300Y-97248D01*
X190324Y-97202D01*
X190914Y-97150D01*
X191157Y-97465D01*
X191856Y-98002D01*
X192670Y-98339D01*
X193543Y-98454D01*
X194417Y-98339D01*
X195231Y-98002D01*
X195930Y-97465D01*
X196319Y-96958D01*
X196819Y-97128D01*
Y-106809D01*
X196319Y-106979D01*
X195930Y-106472D01*
X195231Y-105935D01*
X194417Y-105598D01*
X193543Y-105483D01*
X192670Y-105598D01*
X191856Y-105935D01*
X191157Y-106472D01*
X190688Y-107082D01*
X190329Y-107021D01*
X190188Y-106949D01*
Y-103937D01*
X190066Y-103323D01*
X189718Y-102802D01*
X185827Y-98910D01*
Y-97545D01*
X185930Y-97465D01*
X186325Y-96951D01*
X186865Y-97063D01*
D02*
G37*
G36*
X150317Y-89792D02*
X150283Y-89874D01*
X150168Y-90748D01*
Y-95079D01*
X150283Y-95952D01*
X150620Y-96766D01*
X151157Y-97465D01*
X151856Y-98002D01*
X152670Y-98339D01*
X153255Y-98416D01*
X153434Y-98944D01*
X147290Y-105088D01*
X146942Y-105609D01*
X146819Y-106223D01*
X146819Y-106223D01*
Y-106809D01*
X146319Y-106979D01*
X145930Y-106472D01*
X145231Y-105935D01*
X144417Y-105598D01*
X143543Y-105483D01*
X142670Y-105598D01*
X141856Y-105935D01*
X141515Y-106196D01*
X141015Y-105950D01*
Y-101807D01*
X147592Y-95230D01*
X147592Y-95230D01*
X147940Y-94709D01*
X148062Y-94095D01*
Y-88245D01*
X148562Y-88038D01*
X150317Y-89792D01*
D02*
G37*
G36*
X210620Y-96766D02*
X211157Y-97465D01*
X211856Y-98002D01*
X212670Y-98339D01*
X213543Y-98454D01*
X214417Y-98339D01*
X215231Y-98002D01*
X215930Y-97465D01*
X216398Y-96855D01*
X216758Y-96916D01*
X216898Y-96988D01*
Y-106949D01*
X216758Y-107021D01*
X216398Y-107082D01*
X215930Y-106472D01*
X215231Y-105935D01*
X214417Y-105598D01*
X213543Y-105483D01*
X212670Y-105598D01*
X211856Y-105935D01*
X211157Y-106472D01*
X210620Y-107171D01*
X210373Y-107766D01*
X209873Y-107667D01*
Y-96270D01*
X210373Y-96171D01*
X210620Y-96766D01*
D02*
G37*
G36*
X230620D02*
X231157Y-97465D01*
X231856Y-98002D01*
X232670Y-98339D01*
X233543Y-98454D01*
X234417Y-98339D01*
X235231Y-98002D01*
X235930Y-97465D01*
X236466Y-96766D01*
X236477Y-96741D01*
X236977Y-96840D01*
Y-107097D01*
X236477Y-107196D01*
X236466Y-107171D01*
X235930Y-106472D01*
X235231Y-105935D01*
X234417Y-105598D01*
X233543Y-105483D01*
X232670Y-105598D01*
X231856Y-105935D01*
X231157Y-106472D01*
X230620Y-107171D01*
X230452Y-107576D01*
X229952Y-107477D01*
Y-96460D01*
X230452Y-96361D01*
X230620Y-96766D01*
D02*
G37*
G36*
X266758Y-115026D02*
X266898Y-115098D01*
Y-160069D01*
X266398Y-160336D01*
X266108Y-160142D01*
X265997Y-160120D01*
X260267Y-154390D01*
Y-150786D01*
X260330Y-150691D01*
X260468Y-150000D01*
X260435Y-149837D01*
X260463Y-149697D01*
X260463Y-149697D01*
Y-115494D01*
X260963Y-115324D01*
X261157Y-115576D01*
X261856Y-116112D01*
X262670Y-116449D01*
X263543Y-116564D01*
X264417Y-116449D01*
X265231Y-116112D01*
X265930Y-115576D01*
X266398Y-114965D01*
X266758Y-115026D01*
D02*
G37*
G36*
X257252Y-114287D02*
Y-148920D01*
X256993Y-149309D01*
X256855Y-150000D01*
X256993Y-150691D01*
X257056Y-150786D01*
Y-155055D01*
X257056Y-155055D01*
X257178Y-155670D01*
X257526Y-156191D01*
X263726Y-162391D01*
X263748Y-162502D01*
X264140Y-163088D01*
X264726Y-163480D01*
X265417Y-163617D01*
X265492Y-163602D01*
X265739Y-164063D01*
X263672Y-166130D01*
X263543Y-166113D01*
X262670Y-166228D01*
X261856Y-166565D01*
X261157Y-167102D01*
X260767Y-167609D01*
X260267Y-167439D01*
Y-166248D01*
X260267Y-166248D01*
X260145Y-165634D01*
X259797Y-165113D01*
X259797Y-165113D01*
X257855Y-163171D01*
X258112Y-162721D01*
X258661Y-162830D01*
X259353Y-162692D01*
X259939Y-162301D01*
X260330Y-161715D01*
X260468Y-161024D01*
X260330Y-160332D01*
X259939Y-159746D01*
X259353Y-159355D01*
X259241Y-159333D01*
X255543Y-155634D01*
Y-120473D01*
X255543Y-120473D01*
X255420Y-119858D01*
X255072Y-119337D01*
X252692Y-116956D01*
X252925Y-116483D01*
X253543Y-116564D01*
X254417Y-116449D01*
X255231Y-116112D01*
X255930Y-115576D01*
X256466Y-114877D01*
X256752Y-114187D01*
X257252Y-114287D01*
D02*
G37*
G36*
X226741Y-115340D02*
Y-148425D01*
X226741Y-148425D01*
X226863Y-149040D01*
X227211Y-149561D01*
X228199Y-150548D01*
X228112Y-151041D01*
X228038Y-151094D01*
X227463Y-151479D01*
X227071Y-152065D01*
X226934Y-152756D01*
X227071Y-153447D01*
X227134Y-153542D01*
Y-168107D01*
X226635Y-168206D01*
X226466Y-167800D01*
X225930Y-167102D01*
X225231Y-166565D01*
X224417Y-166228D01*
X223543Y-166113D01*
X222670Y-166228D01*
X221856Y-166565D01*
X221200Y-167068D01*
X220855Y-166999D01*
X220700Y-166946D01*
Y-163692D01*
X220789Y-163625D01*
X221466Y-163739D01*
X221557Y-163876D01*
X222143Y-164267D01*
X222835Y-164405D01*
X223526Y-164267D01*
X224112Y-163876D01*
X224503Y-163290D01*
X224641Y-162598D01*
X224503Y-161907D01*
X224440Y-161813D01*
Y-120079D01*
X224440Y-120079D01*
X224318Y-119464D01*
X223970Y-118943D01*
X221483Y-116457D01*
X221814Y-116080D01*
X221856Y-116112D01*
X222670Y-116449D01*
X223543Y-116564D01*
X224417Y-116449D01*
X225231Y-116112D01*
X225930Y-115576D01*
X226241Y-115171D01*
X226741Y-115340D01*
D02*
G37*
G36*
X166758Y-115026D02*
X166898Y-115098D01*
Y-118157D01*
X162408Y-122647D01*
X162060Y-123168D01*
X161938Y-123783D01*
X161938Y-123783D01*
Y-166531D01*
X161856Y-166565D01*
X161157Y-167102D01*
X160767Y-167609D01*
X160267Y-167439D01*
Y-118736D01*
X162588Y-116415D01*
X162670Y-116449D01*
X163543Y-116564D01*
X164417Y-116449D01*
X165231Y-116112D01*
X165930Y-115576D01*
X166398Y-114965D01*
X166758Y-115026D01*
D02*
G37*
G36*
X144708Y-90650D02*
X144851Y-90749D01*
Y-93429D01*
X138274Y-100006D01*
X137926Y-100527D01*
X137804Y-101142D01*
X137804Y-101142D01*
Y-117756D01*
X137804Y-117756D01*
X137926Y-118370D01*
X138274Y-118891D01*
X141938Y-122555D01*
Y-166531D01*
X141856Y-166565D01*
X141157Y-167102D01*
X140620Y-167800D01*
X140283Y-168615D01*
X140168Y-169488D01*
Y-173819D01*
X140283Y-174692D01*
X140583Y-175417D01*
X138825Y-177174D01*
X138477Y-177695D01*
X138355Y-178310D01*
X138355Y-178310D01*
Y-205315D01*
X138355Y-205315D01*
X138373Y-205404D01*
X138351Y-205512D01*
X138489Y-206203D01*
X138880Y-206789D01*
X139466Y-207181D01*
X140157Y-207318D01*
X140463Y-207258D01*
X140603Y-207373D01*
X140827Y-207695D01*
X140713Y-208268D01*
X140851Y-208959D01*
X141242Y-209545D01*
X141828Y-209937D01*
X142520Y-210074D01*
X143211Y-209937D01*
X143564Y-209701D01*
X144064Y-209968D01*
Y-213012D01*
X143724D01*
X141779Y-214957D01*
Y-216101D01*
X139560D01*
Y-214957D01*
X137615Y-213012D01*
X137275D01*
Y-206929D01*
X137153Y-206315D01*
X136805Y-205794D01*
X136805Y-205794D01*
X134293Y-203282D01*
X134612Y-202894D01*
X135135Y-203244D01*
X135827Y-203381D01*
X136518Y-203244D01*
X137104Y-202852D01*
X137496Y-202266D01*
X137633Y-201575D01*
X137496Y-200884D01*
X137104Y-200297D01*
X136518Y-199906D01*
X136038Y-199810D01*
X135149Y-198922D01*
Y-176776D01*
X135231Y-176742D01*
X135930Y-176206D01*
X136466Y-175507D01*
X136804Y-174692D01*
X136919Y-173819D01*
Y-169488D01*
X136804Y-168615D01*
X136466Y-167800D01*
X135930Y-167102D01*
X135231Y-166565D01*
X134417Y-166228D01*
X133543Y-166113D01*
X132670Y-166228D01*
X131856Y-166565D01*
X131515Y-166826D01*
X131015Y-166580D01*
Y-116097D01*
X131515Y-115851D01*
X131856Y-116112D01*
X132670Y-116449D01*
X133543Y-116564D01*
X134417Y-116449D01*
X135231Y-116112D01*
X135930Y-115576D01*
X136466Y-114877D01*
X136804Y-114063D01*
X136919Y-113189D01*
Y-108858D01*
X136804Y-107985D01*
X136466Y-107171D01*
X135930Y-106472D01*
X135231Y-105935D01*
X134417Y-105598D01*
X133543Y-105483D01*
X132670Y-105598D01*
X131856Y-105935D01*
X131515Y-106196D01*
X131015Y-105950D01*
Y-103893D01*
X144351Y-90557D01*
X144708Y-90650D01*
D02*
G37*
G36*
X241157Y-115576D02*
X241856Y-116112D01*
X241938Y-116146D01*
Y-122050D01*
X241938Y-122050D01*
X242060Y-122665D01*
X242408Y-123186D01*
X246426Y-127204D01*
Y-129220D01*
X246203Y-129295D01*
X245926Y-129303D01*
X245624Y-128851D01*
X245623Y-128851D01*
X240188Y-123416D01*
Y-115098D01*
X240329Y-115026D01*
X240688Y-114965D01*
X241157Y-115576D01*
D02*
G37*
G36*
X236977Y-114951D02*
Y-124081D01*
X236977Y-124081D01*
X237099Y-124695D01*
X237447Y-125216D01*
X242882Y-130651D01*
Y-131259D01*
X242740Y-131358D01*
X242383Y-131450D01*
X240667Y-129735D01*
X240645Y-129624D01*
X240254Y-129038D01*
X239668Y-128646D01*
X238976Y-128509D01*
X238285Y-128646D01*
X237699Y-129038D01*
X237308Y-129624D01*
X237170Y-130315D01*
X237308Y-131006D01*
X237699Y-131592D01*
X238285Y-131984D01*
X238397Y-132006D01*
X239733Y-133342D01*
Y-159999D01*
X239590Y-160098D01*
X239233Y-160191D01*
X235267Y-156225D01*
Y-116084D01*
X235930Y-115576D01*
X236466Y-114877D01*
X236477Y-114851D01*
X236977Y-114951D01*
D02*
G37*
G36*
X230620Y-114877D02*
X231157Y-115576D01*
X231856Y-116112D01*
X232056Y-116195D01*
Y-149211D01*
X231594Y-149402D01*
X229952Y-147760D01*
Y-114570D01*
X230452Y-114471D01*
X230620Y-114877D01*
D02*
G37*
G36*
X210620D02*
X211157Y-115576D01*
X211856Y-116112D01*
X212670Y-116449D01*
X213543Y-116564D01*
X214417Y-116449D01*
X215231Y-116112D01*
X215930Y-115576D01*
X216398Y-114965D01*
X216758Y-115026D01*
X216898Y-115098D01*
Y-115748D01*
X216898Y-115748D01*
X217021Y-116363D01*
X217369Y-116883D01*
X221229Y-120744D01*
Y-161298D01*
X221071Y-161392D01*
X220700Y-161196D01*
Y-124713D01*
X220578Y-124098D01*
X220230Y-123577D01*
X220230Y-123577D01*
X220221Y-123569D01*
X220173Y-123325D01*
X219781Y-122739D01*
X219195Y-122347D01*
X218504Y-122209D01*
X217813Y-122347D01*
X217227Y-122739D01*
X216835Y-123325D01*
X216698Y-124016D01*
X216835Y-124707D01*
X217081Y-125075D01*
X216956Y-125287D01*
X216751Y-125480D01*
X216141Y-125359D01*
X215450Y-125497D01*
X214864Y-125888D01*
X214472Y-126474D01*
X214335Y-127166D01*
X214472Y-127857D01*
X214616Y-128073D01*
X214658Y-128280D01*
X214930Y-128687D01*
Y-145810D01*
X214430Y-146017D01*
X209873Y-141461D01*
Y-114380D01*
X210373Y-114281D01*
X210620Y-114877D01*
D02*
G37*
G36*
X150620D02*
X151157Y-115576D01*
X151856Y-116112D01*
X152670Y-116449D01*
X153119Y-116508D01*
Y-162085D01*
X152960Y-162180D01*
X152590Y-161984D01*
Y-118701D01*
X152468Y-118086D01*
X152120Y-117565D01*
X152120Y-117565D01*
X150031Y-115477D01*
Y-114760D01*
X150531Y-114661D01*
X150620Y-114877D01*
D02*
G37*
G36*
X186977Y-158539D02*
Y-167727D01*
X186477Y-167826D01*
X186466Y-167800D01*
X185930Y-167102D01*
X185231Y-166565D01*
X184417Y-166228D01*
X183543Y-166113D01*
X182670Y-166228D01*
X181856Y-166565D01*
X181157Y-167102D01*
X180846Y-167507D01*
X180346Y-167337D01*
Y-162522D01*
X180726Y-162320D01*
X180846Y-162307D01*
X181496Y-162436D01*
X182187Y-162299D01*
X182773Y-161907D01*
X183165Y-161321D01*
X183302Y-160630D01*
X183165Y-159939D01*
X183102Y-159844D01*
Y-155317D01*
X183564Y-155126D01*
X186977Y-158539D01*
D02*
G37*
G36*
X157915Y-99712D02*
X158171Y-100096D01*
X158758Y-100488D01*
X158869Y-100510D01*
X163362Y-105002D01*
X163182Y-105530D01*
X162670Y-105598D01*
X161856Y-105935D01*
X161157Y-106472D01*
X160620Y-107171D01*
X160283Y-107985D01*
X160168Y-108858D01*
Y-113189D01*
X160283Y-114063D01*
X160317Y-114145D01*
X157526Y-116936D01*
X157178Y-117456D01*
X157056Y-118071D01*
X157056Y-118071D01*
Y-167917D01*
X156556Y-168016D01*
X156466Y-167800D01*
X155930Y-167102D01*
X155231Y-166565D01*
X154417Y-166228D01*
X154189Y-166198D01*
X152823Y-164832D01*
X152858Y-164413D01*
X153356Y-164526D01*
X153447Y-164663D01*
X154033Y-165055D01*
X154724Y-165192D01*
X155416Y-165055D01*
X156002Y-164663D01*
X156393Y-164077D01*
X156531Y-163386D01*
X156393Y-162695D01*
X156330Y-162600D01*
Y-115054D01*
X156466Y-114877D01*
X156804Y-114063D01*
X156919Y-113189D01*
Y-108858D01*
X156804Y-107985D01*
X156466Y-107171D01*
X155930Y-106472D01*
X155231Y-105935D01*
X154417Y-105598D01*
X153543Y-105483D01*
X152670Y-105598D01*
X151856Y-105935D01*
X151157Y-106472D01*
X150671Y-107104D01*
X150420Y-107097D01*
X150151Y-106998D01*
X150122Y-106798D01*
X157326Y-99594D01*
X157915Y-99712D01*
D02*
G37*
G36*
X231826Y-162258D02*
X231874Y-162502D01*
X232266Y-163088D01*
X232852Y-163480D01*
X233543Y-163617D01*
X234235Y-163480D01*
X234821Y-163088D01*
X235212Y-162502D01*
X235350Y-161811D01*
X235286Y-161493D01*
X235747Y-161246D01*
X236583Y-162082D01*
Y-167131D01*
X236083Y-167301D01*
X235930Y-167102D01*
X235231Y-166565D01*
X234417Y-166228D01*
X233543Y-166113D01*
X232670Y-166228D01*
X231856Y-166565D01*
X231157Y-167102D01*
X230846Y-167507D01*
X230346Y-167337D01*
Y-161431D01*
X230808Y-161240D01*
X231826Y-162258D01*
D02*
G37*
G36*
X186977Y-114951D02*
Y-127953D01*
X186977Y-127953D01*
X187099Y-128567D01*
X187447Y-129088D01*
X189254Y-130895D01*
X189276Y-131006D01*
X189668Y-131592D01*
X190254Y-131984D01*
X190945Y-132121D01*
X191438Y-132023D01*
X191938Y-132338D01*
Y-153779D01*
X191938Y-153779D01*
X192060Y-154394D01*
X192408Y-154915D01*
X196819Y-159327D01*
Y-167439D01*
X196319Y-167609D01*
X195930Y-167102D01*
X195231Y-166565D01*
X194417Y-166228D01*
X193543Y-166113D01*
X192670Y-166228D01*
X191856Y-166565D01*
X191157Y-167102D01*
X190688Y-167712D01*
X190329Y-167651D01*
X190188Y-167579D01*
Y-157874D01*
X190188Y-157874D01*
X190066Y-157260D01*
X189718Y-156739D01*
X185661Y-152681D01*
Y-115782D01*
X185930Y-115576D01*
X186466Y-114877D01*
X186477Y-114851D01*
X186977Y-114951D01*
D02*
G37*
G36*
X141856Y-116112D02*
X141938Y-116146D01*
Y-116525D01*
X141938Y-116526D01*
X142060Y-117140D01*
X142408Y-117661D01*
X146819Y-122073D01*
Y-167439D01*
X146319Y-167609D01*
X145930Y-167102D01*
X145231Y-166565D01*
X145149Y-166531D01*
Y-121890D01*
X145149Y-121890D01*
X145027Y-121275D01*
X144679Y-120754D01*
X144679Y-120754D01*
X141015Y-117091D01*
Y-116097D01*
X141515Y-115851D01*
X141856Y-116112D01*
D02*
G37*
G36*
X197290Y-115052D02*
X198000Y-115763D01*
Y-126380D01*
X197937Y-126474D01*
X197800Y-127166D01*
X197937Y-127857D01*
X198328Y-128443D01*
X198915Y-128834D01*
X199606Y-128972D01*
X200297Y-128834D01*
X200883Y-128443D01*
X201275Y-127857D01*
X201412Y-127166D01*
X201275Y-126474D01*
X201212Y-126380D01*
Y-116476D01*
X201712Y-116202D01*
X201938Y-116346D01*
Y-146838D01*
X201938Y-146838D01*
X202060Y-147452D01*
X202408Y-147973D01*
X207056Y-152621D01*
Y-167917D01*
X206556Y-168016D01*
X206466Y-167800D01*
X205930Y-167102D01*
X205231Y-166565D01*
X204417Y-166228D01*
X203543Y-166113D01*
X202670Y-166228D01*
X201856Y-166565D01*
X201157Y-167102D01*
X200620Y-167800D01*
X200531Y-168016D01*
X200031Y-167917D01*
Y-158661D01*
X200031Y-158661D01*
X199909Y-158047D01*
X199561Y-157526D01*
X199560Y-157526D01*
X195149Y-153114D01*
Y-116146D01*
X195231Y-116112D01*
X195930Y-115576D01*
X196466Y-114877D01*
X196516Y-114758D01*
X197071Y-114724D01*
X197290Y-115052D01*
D02*
G37*
G36*
X170620Y-114877D02*
X171157Y-115576D01*
X171856Y-116112D01*
X172670Y-116449D01*
X173319Y-116535D01*
X177135Y-120350D01*
Y-168107D01*
X176635Y-168206D01*
X176466Y-167800D01*
X175930Y-167102D01*
X175231Y-166565D01*
X174417Y-166228D01*
X173543Y-166113D01*
X172670Y-166228D01*
X171856Y-166565D01*
X171157Y-167102D01*
X171003Y-167301D01*
X170503Y-167131D01*
Y-122712D01*
X171839Y-121376D01*
X171951Y-121354D01*
X172537Y-120962D01*
X172929Y-120376D01*
X173066Y-119685D01*
X172929Y-118994D01*
X172537Y-118408D01*
X171951Y-118016D01*
X171260Y-117879D01*
X170610Y-118008D01*
X170489Y-117996D01*
X170110Y-117792D01*
Y-114951D01*
X170610Y-114851D01*
X170620Y-114877D01*
D02*
G37*
G36*
X167292Y-122958D02*
Y-168537D01*
X166804Y-168615D01*
X166466Y-167800D01*
X165930Y-167102D01*
X165231Y-166565D01*
X165149Y-166531D01*
Y-124448D01*
X166830Y-122766D01*
X167292Y-122958D01*
D02*
G37*
G36*
X206662Y-115443D02*
Y-142126D01*
X206662Y-142126D01*
X206784Y-142740D01*
X207132Y-143261D01*
X211938Y-148067D01*
Y-161813D01*
X211874Y-161907D01*
X211737Y-162598D01*
X211874Y-163290D01*
X212266Y-163876D01*
X212852Y-164267D01*
X213543Y-164405D01*
X214235Y-164267D01*
X214821Y-163876D01*
X215212Y-163290D01*
X215350Y-162598D01*
X215253Y-162111D01*
X215703Y-161811D01*
X215844Y-161905D01*
X216535Y-162043D01*
X216989Y-161952D01*
X217489Y-162285D01*
Y-168573D01*
X217321Y-168711D01*
X217070Y-168664D01*
X216765Y-168520D01*
X216466Y-167800D01*
X215930Y-167102D01*
X215231Y-166565D01*
X214417Y-166228D01*
X213543Y-166113D01*
X212670Y-166228D01*
X211856Y-166565D01*
X211157Y-167102D01*
X210767Y-167609D01*
X210267Y-167439D01*
Y-151956D01*
X210145Y-151341D01*
X209797Y-150820D01*
X209797Y-150820D01*
X205149Y-146173D01*
Y-116146D01*
X205231Y-116112D01*
X205930Y-115576D01*
X206162Y-115273D01*
X206662Y-115443D01*
D02*
G37*
G36*
X227134Y-175200D02*
Y-182125D01*
X227069Y-182169D01*
X226678Y-182755D01*
X226540Y-183446D01*
X226678Y-184138D01*
X227069Y-184724D01*
X227655Y-185115D01*
X228346Y-185253D01*
X229038Y-185115D01*
X229624Y-184724D01*
X230015Y-184138D01*
X230060Y-183912D01*
X230224Y-183667D01*
X230346Y-183053D01*
X230346Y-183053D01*
Y-175970D01*
X230846Y-175801D01*
X231157Y-176206D01*
X231856Y-176742D01*
X231938Y-176776D01*
Y-189414D01*
X224534Y-196817D01*
X224186Y-197338D01*
X224064Y-197953D01*
X224064Y-197953D01*
Y-213012D01*
X223724D01*
X221779Y-214957D01*
Y-216101D01*
X219560D01*
Y-214957D01*
X217615Y-213012D01*
X217275D01*
Y-205827D01*
X217153Y-205212D01*
X216805Y-204691D01*
X216805Y-204691D01*
X210267Y-198154D01*
Y-189762D01*
X210330Y-189668D01*
X210468Y-188976D01*
X210330Y-188285D01*
X209939Y-187699D01*
X209353Y-187308D01*
X208661Y-187170D01*
X207970Y-187308D01*
X207384Y-187699D01*
X206993Y-188285D01*
X206855Y-188976D01*
X206993Y-189668D01*
X207056Y-189762D01*
Y-193627D01*
X206556Y-193895D01*
X206361Y-193764D01*
X206249Y-193742D01*
X199647Y-187140D01*
X199966Y-186752D01*
X200490Y-187102D01*
X201181Y-187239D01*
X201872Y-187102D01*
X202458Y-186710D01*
X202850Y-186124D01*
X202872Y-186013D01*
X209797Y-179088D01*
X210145Y-178567D01*
X210267Y-177953D01*
X210267Y-177953D01*
Y-175868D01*
X210767Y-175698D01*
X211157Y-176206D01*
X211856Y-176742D01*
X211938Y-176776D01*
Y-182283D01*
X211938Y-182283D01*
X212060Y-182898D01*
X212408Y-183419D01*
X214770Y-185781D01*
X214770Y-185781D01*
X215291Y-186129D01*
X215905Y-186251D01*
X215905Y-186251D01*
X222443D01*
X222537Y-186314D01*
X223228Y-186452D01*
X223920Y-186314D01*
X224506Y-185923D01*
X224897Y-185337D01*
X225035Y-184646D01*
X224897Y-183954D01*
X224506Y-183368D01*
X223920Y-182977D01*
X223228Y-182839D01*
X222537Y-182977D01*
X222443Y-183040D01*
X216571D01*
X215149Y-181618D01*
Y-176776D01*
X215231Y-176742D01*
X215930Y-176206D01*
X216398Y-175595D01*
X216758Y-175656D01*
X216898Y-175728D01*
Y-179923D01*
X216835Y-180017D01*
X216698Y-180709D01*
X216835Y-181400D01*
X217227Y-181986D01*
X217813Y-182378D01*
X218504Y-182515D01*
X219195Y-182378D01*
X219781Y-181986D01*
X220173Y-181400D01*
X220310Y-180709D01*
X220173Y-180017D01*
X220110Y-179923D01*
Y-175580D01*
X220610Y-175481D01*
X220620Y-175507D01*
X221157Y-176206D01*
X221856Y-176742D01*
X222670Y-177079D01*
X223543Y-177194D01*
X224417Y-177079D01*
X225231Y-176742D01*
X225930Y-176206D01*
X226466Y-175507D01*
X226635Y-175101D01*
X227134Y-175200D01*
D02*
G37*
G36*
X207056Y-175390D02*
Y-177288D01*
X200601Y-183742D01*
X200490Y-183764D01*
X199904Y-184156D01*
X199512Y-184742D01*
X199375Y-185433D01*
X199512Y-186124D01*
X199862Y-186648D01*
X199474Y-186967D01*
X190188Y-177681D01*
Y-175728D01*
X190329Y-175656D01*
X190688Y-175595D01*
X191157Y-176206D01*
X191856Y-176742D01*
X192670Y-177079D01*
X193543Y-177194D01*
X194417Y-177079D01*
X195231Y-176742D01*
X195930Y-176206D01*
X196319Y-175698D01*
X196819Y-175868D01*
Y-179923D01*
X196756Y-180017D01*
X196619Y-180709D01*
X196756Y-181400D01*
X197148Y-181986D01*
X197734Y-182378D01*
X198425Y-182515D01*
X199117Y-182378D01*
X199703Y-181986D01*
X200094Y-181400D01*
X200232Y-180709D01*
X200094Y-180017D01*
X200031Y-179923D01*
Y-175390D01*
X200531Y-175291D01*
X200620Y-175507D01*
X201157Y-176206D01*
X201856Y-176742D01*
X202670Y-177079D01*
X203543Y-177194D01*
X204417Y-177079D01*
X205231Y-176742D01*
X205930Y-176206D01*
X206466Y-175507D01*
X206556Y-175291D01*
X207056Y-175390D01*
D02*
G37*
G36*
X186977Y-175580D02*
Y-178346D01*
X186977Y-178347D01*
X187099Y-178961D01*
X187447Y-179482D01*
X203978Y-196013D01*
X204000Y-196124D01*
X204392Y-196710D01*
X204978Y-197102D01*
X205669Y-197239D01*
X206361Y-197102D01*
X206556Y-196971D01*
X207056Y-197239D01*
Y-198819D01*
X207056Y-198819D01*
X207178Y-199433D01*
X207526Y-199954D01*
X214064Y-206492D01*
Y-213012D01*
X213724D01*
X211779Y-214957D01*
Y-216101D01*
X209560D01*
Y-214957D01*
X207615Y-213012D01*
X207275D01*
Y-205039D01*
X207275Y-205039D01*
X207153Y-204425D01*
X206805Y-203904D01*
X180346Y-177445D01*
Y-175970D01*
X180846Y-175801D01*
X181157Y-176206D01*
X181856Y-176742D01*
X182670Y-177079D01*
X183543Y-177194D01*
X184417Y-177079D01*
X185231Y-176742D01*
X185930Y-176206D01*
X186466Y-175507D01*
X186477Y-175481D01*
X186977Y-175580D01*
D02*
G37*
G36*
X146819Y-175868D02*
Y-185115D01*
X146440Y-185318D01*
X146319Y-185331D01*
X145669Y-185202D01*
X145019Y-185331D01*
X144899Y-185318D01*
X144519Y-185115D01*
Y-184250D01*
X144582Y-184156D01*
X144720Y-183465D01*
X144582Y-182773D01*
X144191Y-182187D01*
X143605Y-181796D01*
X142913Y-181658D01*
X142222Y-181796D01*
X142066Y-181900D01*
X141566Y-181633D01*
Y-178975D01*
X143369Y-177171D01*
X143543Y-177194D01*
X144417Y-177079D01*
X145231Y-176742D01*
X145930Y-176206D01*
X146319Y-175698D01*
X146819Y-175868D01*
D02*
G37*
G36*
X167292Y-174770D02*
Y-175495D01*
X167292Y-175495D01*
X167414Y-176110D01*
X167762Y-176630D01*
X169188Y-178057D01*
X168942Y-178517D01*
X168898Y-178509D01*
X168206Y-178646D01*
X167620Y-179038D01*
X167229Y-179624D01*
X167091Y-180315D01*
X167229Y-181006D01*
X167620Y-181592D01*
X168206Y-181984D01*
X168318Y-182006D01*
X170442Y-184130D01*
Y-205120D01*
X170378Y-205214D01*
X170241Y-205906D01*
X170378Y-206597D01*
X170770Y-207183D01*
X171356Y-207574D01*
X172047Y-207712D01*
X172739Y-207574D01*
X173325Y-207183D01*
X173564Y-206825D01*
X174064Y-206977D01*
Y-213012D01*
X173724D01*
X171779Y-214957D01*
Y-216101D01*
X169560D01*
Y-214957D01*
X167615Y-213012D01*
X167275D01*
Y-198896D01*
X167338Y-198802D01*
X167476Y-198110D01*
X167338Y-197419D01*
X166947Y-196833D01*
X166360Y-196441D01*
X165669Y-196304D01*
X164978Y-196441D01*
X164392Y-196833D01*
X164000Y-197419D01*
X163863Y-198110D01*
X164000Y-198802D01*
X164064Y-198896D01*
Y-213012D01*
X163724D01*
X161779Y-214957D01*
Y-216101D01*
X159560D01*
Y-214957D01*
X157615Y-213012D01*
X155624D01*
X151212Y-208599D01*
Y-206298D01*
X151275Y-206203D01*
X151413Y-205512D01*
X151275Y-204821D01*
X150884Y-204235D01*
X150298Y-203843D01*
X149606Y-203705D01*
X148915Y-203843D01*
X148329Y-204235D01*
X147937Y-204821D01*
X147800Y-205512D01*
X147937Y-206203D01*
X148001Y-206298D01*
Y-209264D01*
X148001Y-209265D01*
X148123Y-209879D01*
X148471Y-210400D01*
X152403Y-214332D01*
X151779Y-214957D01*
Y-216101D01*
X149560D01*
Y-214957D01*
X147615Y-213012D01*
X147275D01*
Y-199137D01*
X147655Y-198934D01*
X147775Y-198921D01*
X148425Y-199050D01*
X149117Y-198913D01*
X149703Y-198521D01*
X150094Y-197935D01*
X150232Y-197244D01*
X150094Y-196553D01*
X150031Y-196458D01*
Y-175390D01*
X150531Y-175291D01*
X150620Y-175507D01*
X151157Y-176206D01*
X151856Y-176742D01*
X151938Y-176776D01*
Y-206586D01*
X151938Y-206586D01*
X152060Y-207201D01*
X152408Y-207722D01*
X154188Y-209502D01*
X154237Y-209746D01*
X154628Y-210332D01*
X155214Y-210724D01*
X155905Y-210861D01*
X156597Y-210724D01*
X157183Y-210332D01*
X157574Y-209746D01*
X157712Y-209055D01*
X157574Y-208364D01*
X157183Y-207778D01*
X156649Y-207421D01*
X155149Y-205921D01*
Y-176776D01*
X155231Y-176742D01*
X155930Y-176206D01*
X156466Y-175507D01*
X156556Y-175291D01*
X157056Y-175390D01*
Y-194096D01*
X156993Y-194191D01*
X156855Y-194882D01*
X156993Y-195573D01*
X157384Y-196159D01*
X157970Y-196551D01*
X158661Y-196688D01*
X159353Y-196551D01*
X159939Y-196159D01*
X160330Y-195573D01*
X160468Y-194882D01*
X160330Y-194191D01*
X160267Y-194096D01*
Y-175868D01*
X160767Y-175698D01*
X161157Y-176206D01*
X161855Y-176742D01*
Y-186075D01*
X161852Y-186114D01*
X161717Y-186317D01*
X161580Y-187008D01*
X161717Y-187699D01*
X162109Y-188285D01*
X162695Y-188677D01*
X163386Y-188814D01*
X164077Y-188677D01*
X164663Y-188285D01*
X165055Y-187699D01*
X165192Y-187008D01*
X165057Y-186328D01*
X165061Y-186285D01*
X165053Y-186214D01*
X165067Y-186145D01*
Y-176810D01*
X165231Y-176742D01*
X165930Y-176206D01*
X166466Y-175507D01*
X166804Y-174692D01*
X167292Y-174770D01*
D02*
G37*
G36*
X130168Y-170549D02*
Y-173819D01*
X130283Y-174692D01*
X130620Y-175507D01*
X131157Y-176206D01*
X131856Y-176742D01*
X131938Y-176776D01*
Y-199587D01*
X131938Y-199587D01*
X132060Y-200201D01*
X132343Y-200625D01*
X131955Y-200944D01*
X128377Y-197366D01*
Y-169412D01*
X128839Y-169220D01*
X130168Y-170549D01*
D02*
G37*
G36*
X251260Y-164630D02*
Y-167022D01*
X251157Y-167102D01*
X250620Y-167800D01*
X250283Y-168615D01*
X250168Y-169488D01*
Y-173819D01*
X250283Y-174692D01*
X250620Y-175507D01*
X251157Y-176206D01*
X251856Y-176742D01*
X252670Y-177079D01*
X253543Y-177194D01*
X254417Y-177079D01*
X255231Y-176742D01*
X255930Y-176206D01*
X256466Y-175507D01*
X256556Y-175291D01*
X257056Y-175390D01*
Y-180709D01*
X257056Y-180709D01*
X257178Y-181323D01*
X257526Y-181844D01*
X274064Y-198382D01*
Y-213012D01*
X273724D01*
X271779Y-214957D01*
Y-216101D01*
X269560D01*
Y-214957D01*
X267615Y-213012D01*
X267275D01*
Y-198549D01*
X267494Y-198380D01*
X267905Y-197846D01*
X268162Y-197223D01*
X268250Y-196555D01*
X268162Y-195887D01*
X267905Y-195265D01*
X267494Y-194730D01*
X266960Y-194320D01*
X266337Y-194062D01*
X265669Y-193974D01*
X265001Y-194062D01*
X264379Y-194320D01*
X263844Y-194730D01*
X263434Y-195265D01*
X263176Y-195887D01*
X263088Y-196555D01*
X263176Y-197223D01*
X263434Y-197846D01*
X263844Y-198380D01*
X264064Y-198549D01*
Y-213012D01*
X263724D01*
X261779Y-214957D01*
Y-216101D01*
X259560D01*
Y-214957D01*
X257615Y-213012D01*
X257193D01*
Y-201024D01*
X257318Y-200394D01*
X257181Y-199702D01*
X256789Y-199116D01*
X256203Y-198725D01*
X255512Y-198587D01*
X254821Y-198725D01*
X254235Y-199116D01*
X253843Y-199702D01*
X253706Y-200394D01*
X253843Y-201085D01*
X253981Y-201292D01*
Y-213012D01*
X253724D01*
X251779Y-214957D01*
Y-216101D01*
X249560D01*
Y-214957D01*
X247615Y-213012D01*
X247275D01*
Y-212476D01*
X249561Y-210191D01*
X249909Y-209670D01*
X250031Y-209055D01*
Y-204723D01*
X250094Y-204628D01*
X250232Y-203937D01*
X250094Y-203246D01*
X249703Y-202660D01*
X249116Y-202268D01*
X248425Y-202131D01*
X247734Y-202268D01*
X247210Y-202618D01*
X246891Y-202230D01*
X249167Y-199954D01*
X249167Y-199954D01*
X249515Y-199433D01*
X249637Y-198819D01*
X249637Y-198819D01*
Y-163698D01*
X249780Y-163600D01*
X250137Y-163507D01*
X251260Y-164630D01*
D02*
G37*
G36*
X240620Y-175507D02*
X241157Y-176206D01*
X241856Y-176742D01*
X242670Y-177079D01*
X243543Y-177194D01*
X244417Y-177079D01*
X245231Y-176742D01*
X245930Y-176206D01*
X245952Y-176177D01*
X246426Y-176337D01*
Y-198154D01*
X239971Y-204608D01*
X239860Y-204630D01*
X239274Y-205022D01*
X238882Y-205608D01*
X238745Y-206299D01*
X238882Y-206991D01*
X239274Y-207576D01*
X239860Y-207968D01*
X240551Y-208106D01*
X241242Y-207968D01*
X241828Y-207576D01*
X242220Y-206991D01*
X242242Y-206879D01*
X246718Y-202403D01*
X247106Y-202722D01*
X246756Y-203246D01*
X246619Y-203937D01*
X246756Y-204628D01*
X246819Y-204723D01*
Y-208390D01*
X244534Y-210676D01*
X244186Y-211197D01*
X244064Y-211811D01*
X244064Y-211811D01*
Y-213012D01*
X243724D01*
X241779Y-214957D01*
Y-216101D01*
X239560D01*
Y-214957D01*
X237615Y-213012D01*
X237275D01*
Y-195026D01*
X239324Y-192976D01*
X239324Y-192976D01*
X239672Y-192456D01*
X239795Y-191841D01*
X239795Y-191841D01*
Y-174770D01*
X240283Y-174692D01*
X240620Y-175507D01*
D02*
G37*
G36*
X236583Y-176176D02*
Y-191176D01*
X234534Y-193225D01*
X234186Y-193746D01*
X234064Y-194361D01*
X234064Y-194361D01*
Y-213012D01*
X233724D01*
X231779Y-214957D01*
Y-216101D01*
X229560D01*
Y-214957D01*
X227615Y-213012D01*
X227275D01*
Y-198618D01*
X234679Y-191214D01*
X234679Y-191214D01*
X235027Y-190693D01*
X235149Y-190079D01*
Y-176776D01*
X235231Y-176742D01*
X235930Y-176206D01*
X236083Y-176006D01*
X236583Y-176176D01*
D02*
G37*
G36*
X177135Y-175200D02*
Y-178110D01*
X177135Y-178110D01*
X177257Y-178725D01*
X177605Y-179246D01*
X204064Y-205704D01*
Y-213012D01*
X203724D01*
X201779Y-214957D01*
Y-216101D01*
X199560D01*
Y-214957D01*
X197615Y-213012D01*
X197593D01*
Y-203261D01*
X197732Y-203053D01*
X197869Y-202362D01*
X197732Y-201671D01*
X197340Y-201085D01*
X196754Y-200693D01*
X196063Y-200556D01*
X195372Y-200693D01*
X194786Y-201085D01*
X194394Y-201671D01*
X194257Y-202362D01*
X194382Y-202993D01*
Y-213012D01*
X193724D01*
X191779Y-214957D01*
Y-216101D01*
X189560D01*
Y-214957D01*
X187615Y-213012D01*
X187275D01*
Y-192267D01*
X187153Y-191652D01*
X186805Y-191131D01*
X186805Y-191131D01*
X173315Y-177642D01*
X173467Y-177334D01*
X173571Y-177191D01*
X174417Y-177079D01*
X175231Y-176742D01*
X175930Y-176206D01*
X176466Y-175507D01*
X176635Y-175101D01*
X177135Y-175200D01*
D02*
G37*
G36*
X184064Y-192932D02*
Y-213012D01*
X183724D01*
X181779Y-214957D01*
Y-216101D01*
X179560D01*
Y-214957D01*
X177615Y-213012D01*
X177275D01*
Y-195747D01*
X177338Y-195652D01*
X177476Y-194961D01*
X177338Y-194269D01*
X176947Y-193683D01*
X176360Y-193292D01*
X175669Y-193154D01*
X174978Y-193292D01*
X174392Y-193683D01*
X174153Y-194041D01*
X173653Y-193889D01*
Y-183465D01*
X173653Y-183465D01*
X173594Y-183169D01*
X174055Y-182923D01*
X184064Y-192932D01*
D02*
G37*
G36*
X123088Y-204691D02*
Y-213898D01*
X121779Y-215207D01*
Y-216101D01*
X119560D01*
Y-214957D01*
X118394Y-213792D01*
Y-204550D01*
X122947D01*
X123088Y-204691D01*
D02*
G37*
%LPC*%
G36*
X153543Y-7451D02*
X152670Y-7566D01*
X151856Y-7904D01*
X151157Y-8440D01*
X150620Y-9139D01*
X150283Y-9953D01*
X150168Y-10827D01*
Y-15157D01*
X150283Y-16031D01*
X150620Y-16845D01*
X151157Y-17544D01*
X151856Y-18081D01*
X152670Y-18418D01*
X153543Y-18533D01*
X154417Y-18418D01*
X155231Y-18081D01*
X155930Y-17544D01*
X156466Y-16845D01*
X156804Y-16031D01*
X156919Y-15157D01*
Y-10827D01*
X156804Y-9953D01*
X156466Y-9139D01*
X155930Y-8440D01*
X155231Y-7904D01*
X154417Y-7566D01*
X153543Y-7451D01*
D02*
G37*
G36*
X173543Y-38554D02*
X172670Y-38669D01*
X171856Y-39006D01*
X171157Y-39542D01*
X170620Y-40242D01*
X170283Y-41056D01*
X170168Y-41929D01*
Y-46260D01*
X170283Y-47133D01*
X170620Y-47947D01*
X171157Y-48647D01*
X171856Y-49183D01*
X172670Y-49520D01*
X173543Y-49635D01*
X174417Y-49520D01*
X175231Y-49183D01*
X175930Y-48647D01*
X176466Y-47947D01*
X176804Y-47133D01*
X176919Y-46260D01*
Y-41929D01*
X176804Y-41056D01*
X176466Y-40242D01*
X175930Y-39542D01*
X175231Y-39006D01*
X174417Y-38669D01*
X173543Y-38554D01*
D02*
G37*
G36*
X7323Y-5156D02*
X6089Y-5319D01*
X4940Y-5794D01*
X4426Y-6189D01*
X7323Y-9086D01*
X10220Y-6189D01*
X9705Y-5794D01*
X8556Y-5319D01*
X7323Y-5156D01*
D02*
G37*
G36*
X284646Y-2126D02*
X283464Y-2282D01*
X282362Y-2738D01*
X281417Y-3464D01*
X280691Y-4410D01*
X280235Y-5511D01*
X280079Y-6693D01*
X280235Y-7875D01*
X280691Y-8976D01*
X281417Y-9922D01*
X282362Y-10648D01*
X283464Y-11104D01*
X284646Y-11260D01*
X285828Y-11104D01*
X286929Y-10648D01*
X287875Y-9922D01*
X288600Y-8976D01*
X289057Y-7875D01*
X289212Y-6693D01*
X289057Y-5511D01*
X288600Y-4410D01*
X287875Y-3464D01*
X286929Y-2738D01*
X285828Y-2282D01*
X284646Y-2126D01*
D02*
G37*
G36*
X11055Y-7024D02*
X8158Y-9921D01*
X11055Y-12818D01*
X11450Y-12304D01*
X11926Y-11155D01*
X12088Y-9921D01*
X11926Y-8688D01*
X11450Y-7539D01*
X11055Y-7024D01*
D02*
G37*
G36*
X3591D02*
X3196Y-7539D01*
X2720Y-8688D01*
X2558Y-9921D01*
X2720Y-11155D01*
X3196Y-12304D01*
X3591Y-12818D01*
X6488Y-9921D01*
X3591Y-7024D01*
D02*
G37*
G36*
X130091Y-4882D02*
X128909Y-5038D01*
X127808Y-5494D01*
X126862Y-6220D01*
X126136Y-7165D01*
X125680Y-8267D01*
X125525Y-9449D01*
X125680Y-10631D01*
X126136Y-11732D01*
X126862Y-12678D01*
X127808Y-13404D01*
X128909Y-13860D01*
X130091Y-14016D01*
X131273Y-13860D01*
X132375Y-13404D01*
X133320Y-12678D01*
X134046Y-11732D01*
X134502Y-10631D01*
X134658Y-9449D01*
X134502Y-8267D01*
X134046Y-7165D01*
X133320Y-6220D01*
X132375Y-5494D01*
X131273Y-5038D01*
X130091Y-4882D01*
D02*
G37*
G36*
X117244Y-4961D02*
X116062Y-5116D01*
X114961Y-5573D01*
X114015Y-6299D01*
X113289Y-7244D01*
X112833Y-8346D01*
X112678Y-9528D01*
X112833Y-10710D01*
X113289Y-11811D01*
X114015Y-12757D01*
X114961Y-13482D01*
X116062Y-13939D01*
X117244Y-14094D01*
X118426Y-13939D01*
X119527Y-13482D01*
X120473Y-12757D01*
X121199Y-11811D01*
X121655Y-10710D01*
X121811Y-9528D01*
X121655Y-8346D01*
X121199Y-7244D01*
X120473Y-6299D01*
X119527Y-5573D01*
X118426Y-5116D01*
X117244Y-4961D01*
D02*
G37*
G36*
X107244D02*
X106062Y-5116D01*
X104961Y-5573D01*
X104015Y-6299D01*
X103289Y-7244D01*
X102833Y-8346D01*
X102678Y-9528D01*
X102833Y-10710D01*
X103289Y-11811D01*
X104015Y-12757D01*
X104961Y-13482D01*
X106062Y-13939D01*
X107244Y-14094D01*
X108426Y-13939D01*
X109527Y-13482D01*
X110473Y-12757D01*
X111199Y-11811D01*
X111655Y-10710D01*
X111811Y-9528D01*
X111655Y-8346D01*
X111199Y-7244D01*
X110473Y-6299D01*
X109527Y-5573D01*
X108426Y-5116D01*
X107244Y-4961D01*
D02*
G37*
G36*
X97244D02*
X96062Y-5116D01*
X94961Y-5573D01*
X94015Y-6299D01*
X93289Y-7244D01*
X92833Y-8346D01*
X92677Y-9528D01*
X92833Y-10710D01*
X93289Y-11811D01*
X94015Y-12757D01*
X94961Y-13482D01*
X96062Y-13939D01*
X97244Y-14094D01*
X98426Y-13939D01*
X99527Y-13482D01*
X100473Y-12757D01*
X101199Y-11811D01*
X101655Y-10710D01*
X101811Y-9528D01*
X101655Y-8346D01*
X101199Y-7244D01*
X100473Y-6299D01*
X99527Y-5573D01*
X98426Y-5116D01*
X97244Y-4961D01*
D02*
G37*
G36*
X57323Y-5276D02*
X56141Y-5432D01*
X55040Y-5888D01*
X54094Y-6613D01*
X53368Y-7559D01*
X52912Y-8661D01*
X52756Y-9843D01*
X52912Y-11024D01*
X53368Y-12126D01*
X54094Y-13072D01*
X55040Y-13797D01*
X56141Y-14254D01*
X57323Y-14409D01*
X58505Y-14254D01*
X59606Y-13797D01*
X60552Y-13072D01*
X61278Y-12126D01*
X61734Y-11024D01*
X61889Y-9843D01*
X61734Y-8661D01*
X61278Y-7559D01*
X60552Y-6613D01*
X59606Y-5888D01*
X58505Y-5432D01*
X57323Y-5276D01*
D02*
G37*
G36*
X87323Y-5355D02*
X86141Y-5510D01*
X85040Y-5966D01*
X84094Y-6692D01*
X83368Y-7638D01*
X82912Y-8739D01*
X82756Y-9921D01*
X82912Y-11103D01*
X83368Y-12205D01*
X84094Y-13150D01*
X85040Y-13876D01*
X86141Y-14332D01*
X87323Y-14488D01*
X88505Y-14332D01*
X89606Y-13876D01*
X90552Y-13150D01*
X91278Y-12205D01*
X91734Y-11103D01*
X91890Y-9921D01*
X91734Y-8739D01*
X91278Y-7638D01*
X90552Y-6692D01*
X89606Y-5966D01*
X88505Y-5510D01*
X87323Y-5355D01*
D02*
G37*
G36*
X77323D02*
X76141Y-5510D01*
X75039Y-5966D01*
X74094Y-6692D01*
X73368Y-7638D01*
X72912Y-8739D01*
X72756Y-9921D01*
X72912Y-11103D01*
X73368Y-12205D01*
X74094Y-13150D01*
X75039Y-13876D01*
X76141Y-14332D01*
X77323Y-14488D01*
X78505Y-14332D01*
X79606Y-13876D01*
X80552Y-13150D01*
X81278Y-12205D01*
X81734Y-11103D01*
X81889Y-9921D01*
X81734Y-8739D01*
X81278Y-7638D01*
X80552Y-6692D01*
X79606Y-5966D01*
X78505Y-5510D01*
X77323Y-5355D01*
D02*
G37*
G36*
X67323D02*
X66141Y-5510D01*
X65039Y-5966D01*
X64094Y-6692D01*
X63368Y-7638D01*
X62912Y-8739D01*
X62756Y-9921D01*
X62912Y-11103D01*
X63368Y-12205D01*
X64094Y-13150D01*
X65039Y-13876D01*
X66141Y-14332D01*
X67323Y-14488D01*
X68505Y-14332D01*
X69606Y-13876D01*
X70552Y-13150D01*
X71278Y-12205D01*
X71734Y-11103D01*
X71890Y-9921D01*
X71734Y-8739D01*
X71278Y-7638D01*
X70552Y-6692D01*
X69606Y-5966D01*
X68505Y-5510D01*
X67323Y-5355D01*
D02*
G37*
G36*
X47323D02*
X46141Y-5510D01*
X45039Y-5966D01*
X44094Y-6692D01*
X43368Y-7638D01*
X42912Y-8739D01*
X42756Y-9921D01*
X42912Y-11103D01*
X43368Y-12205D01*
X44094Y-13150D01*
X45039Y-13876D01*
X46141Y-14332D01*
X47323Y-14488D01*
X48505Y-14332D01*
X49606Y-13876D01*
X50552Y-13150D01*
X51278Y-12205D01*
X51734Y-11103D01*
X51889Y-9921D01*
X51734Y-8739D01*
X51278Y-7638D01*
X50552Y-6692D01*
X49606Y-5966D01*
X48505Y-5510D01*
X47323Y-5355D01*
D02*
G37*
G36*
X37323D02*
X36141Y-5510D01*
X35039Y-5966D01*
X34094Y-6692D01*
X33368Y-7638D01*
X32912Y-8739D01*
X32756Y-9921D01*
X32912Y-11103D01*
X33368Y-12205D01*
X34094Y-13150D01*
X35039Y-13876D01*
X36141Y-14332D01*
X37323Y-14488D01*
X38505Y-14332D01*
X39606Y-13876D01*
X40552Y-13150D01*
X41278Y-12205D01*
X41734Y-11103D01*
X41890Y-9921D01*
X41734Y-8739D01*
X41278Y-7638D01*
X40552Y-6692D01*
X39606Y-5966D01*
X38505Y-5510D01*
X37323Y-5355D01*
D02*
G37*
G36*
X27323D02*
X26141Y-5510D01*
X25039Y-5966D01*
X24094Y-6692D01*
X23368Y-7638D01*
X22912Y-8739D01*
X22756Y-9921D01*
X22912Y-11103D01*
X23368Y-12205D01*
X24094Y-13150D01*
X25039Y-13876D01*
X26141Y-14332D01*
X27323Y-14488D01*
X28505Y-14332D01*
X29606Y-13876D01*
X30552Y-13150D01*
X31278Y-12205D01*
X31734Y-11103D01*
X31890Y-9921D01*
X31734Y-8739D01*
X31278Y-7638D01*
X30552Y-6692D01*
X29606Y-5966D01*
X28505Y-5510D01*
X27323Y-5355D01*
D02*
G37*
G36*
X17323D02*
X16141Y-5510D01*
X15040Y-5966D01*
X14094Y-6692D01*
X13368Y-7638D01*
X12912Y-8739D01*
X12756Y-9921D01*
X12912Y-11103D01*
X13368Y-12205D01*
X14094Y-13150D01*
X15040Y-13876D01*
X16141Y-14332D01*
X17323Y-14488D01*
X18505Y-14332D01*
X19606Y-13876D01*
X20552Y-13150D01*
X21278Y-12205D01*
X21734Y-11103D01*
X21890Y-9921D01*
X21734Y-8739D01*
X21278Y-7638D01*
X20552Y-6692D01*
X19606Y-5966D01*
X18505Y-5510D01*
X17323Y-5355D01*
D02*
G37*
G36*
X7323Y-10756D02*
X4426Y-13653D01*
X4940Y-14048D01*
X6089Y-14524D01*
X7323Y-14686D01*
X8556Y-14524D01*
X9705Y-14048D01*
X10220Y-13653D01*
X7323Y-10756D01*
D02*
G37*
G36*
X274157Y-7244D02*
X272975Y-7400D01*
X271874Y-7856D01*
X270928Y-8582D01*
X270202Y-9528D01*
X269746Y-10629D01*
X269590Y-11811D01*
X269746Y-12993D01*
X270202Y-14094D01*
X270928Y-15040D01*
X271874Y-15766D01*
X272356Y-15966D01*
X272421Y-16264D01*
X272239Y-16561D01*
X272084Y-16739D01*
X272022Y-16747D01*
X272004Y-16743D01*
X271652Y-16795D01*
X271632Y-16798D01*
X271605Y-16809D01*
X271466Y-16850D01*
X271399Y-16895D01*
X271010Y-17056D01*
X270475Y-17466D01*
X270065Y-18001D01*
X269807Y-18623D01*
X269719Y-19291D01*
X269373Y-19654D01*
X264959D01*
X264864Y-19591D01*
X264173Y-19454D01*
X263482Y-19591D01*
X262896Y-19983D01*
X262504Y-20569D01*
X262367Y-21260D01*
X262504Y-21951D01*
X262896Y-22537D01*
X263482Y-22929D01*
X264173Y-23066D01*
X264864Y-22929D01*
X264959Y-22865D01*
X270079D01*
X270079Y-22865D01*
X270693Y-22743D01*
X271214Y-22395D01*
X271797Y-21813D01*
X271797Y-21813D01*
X271802Y-21807D01*
X271889Y-21818D01*
X272041Y-21849D01*
X272072Y-21842D01*
X272300Y-21872D01*
X272968Y-21784D01*
X273591Y-21527D01*
X274125Y-21116D01*
X274535Y-20582D01*
X274793Y-19959D01*
X274872Y-19365D01*
X274886Y-19291D01*
X274872Y-19218D01*
X274816Y-18793D01*
X275330Y-18280D01*
X275330Y-18280D01*
X275678Y-17759D01*
X275800Y-17144D01*
Y-16031D01*
X276440Y-15766D01*
X277386Y-15040D01*
X278112Y-14094D01*
X278568Y-12993D01*
X278724Y-11811D01*
X278568Y-10629D01*
X278112Y-9528D01*
X277386Y-8582D01*
X276440Y-7856D01*
X275339Y-7400D01*
X274157Y-7244D01*
D02*
G37*
G36*
X7323Y-15418D02*
X6089Y-15580D01*
X4940Y-16056D01*
X4426Y-16451D01*
X7323Y-19348D01*
X10220Y-16451D01*
X9705Y-16056D01*
X8556Y-15580D01*
X7323Y-15418D01*
D02*
G37*
G36*
X284646Y-11969D02*
X283464Y-12124D01*
X282362Y-12581D01*
X281417Y-13306D01*
X280691Y-14252D01*
X280235Y-15353D01*
X280079Y-16535D01*
X280235Y-17717D01*
X280691Y-18819D01*
X281417Y-19764D01*
X282362Y-20490D01*
X283464Y-20946D01*
X284646Y-21102D01*
X285828Y-20946D01*
X286929Y-20490D01*
X287875Y-19764D01*
X288600Y-18819D01*
X289057Y-17717D01*
X289212Y-16535D01*
X289057Y-15353D01*
X288600Y-14252D01*
X287875Y-13306D01*
X286929Y-12581D01*
X285828Y-12124D01*
X284646Y-11969D01*
D02*
G37*
G36*
X11055Y-17286D02*
X8158Y-20183D01*
X11055Y-23080D01*
X11450Y-22566D01*
X11926Y-21416D01*
X12088Y-20183D01*
X11926Y-18950D01*
X11450Y-17800D01*
X11055Y-17286D01*
D02*
G37*
G36*
X3591D02*
X3196Y-17800D01*
X2720Y-18950D01*
X2558Y-20183D01*
X2720Y-21416D01*
X3196Y-22566D01*
X3591Y-23080D01*
X6488Y-20183D01*
X3591Y-17286D01*
D02*
G37*
G36*
X117244Y-14898D02*
X116062Y-15053D01*
X114961Y-15509D01*
X114015Y-16235D01*
X113289Y-17181D01*
X112833Y-18282D01*
X112678Y-19464D01*
X112833Y-20646D01*
X113289Y-21748D01*
X114015Y-22693D01*
X114961Y-23419D01*
X116062Y-23875D01*
X117244Y-24031D01*
X118426Y-23875D01*
X119527Y-23419D01*
X120473Y-22693D01*
X121199Y-21748D01*
X121655Y-20646D01*
X121811Y-19464D01*
X121655Y-18282D01*
X121199Y-17181D01*
X120473Y-16235D01*
X119527Y-15509D01*
X118426Y-15053D01*
X117244Y-14898D01*
D02*
G37*
G36*
X107244Y-14957D02*
X106062Y-15112D01*
X104961Y-15568D01*
X104015Y-16294D01*
X103289Y-17240D01*
X102833Y-18341D01*
X102678Y-19523D01*
X102833Y-20705D01*
X103289Y-21806D01*
X104015Y-22752D01*
X104961Y-23478D01*
X106062Y-23934D01*
X107244Y-24090D01*
X108426Y-23934D01*
X109527Y-23478D01*
X110473Y-22752D01*
X111199Y-21806D01*
X111655Y-20705D01*
X111811Y-19523D01*
X111655Y-18341D01*
X111199Y-17240D01*
X110473Y-16294D01*
X109527Y-15568D01*
X108426Y-15112D01*
X107244Y-14957D01*
D02*
G37*
G36*
X97244D02*
X96062Y-15112D01*
X94961Y-15568D01*
X94015Y-16294D01*
X93289Y-17240D01*
X92833Y-18341D01*
X92677Y-19523D01*
X92833Y-20705D01*
X93289Y-21806D01*
X94015Y-22752D01*
X94961Y-23478D01*
X96062Y-23934D01*
X97244Y-24090D01*
X98426Y-23934D01*
X99527Y-23478D01*
X100473Y-22752D01*
X101199Y-21806D01*
X101655Y-20705D01*
X101811Y-19523D01*
X101655Y-18341D01*
X101199Y-17240D01*
X100473Y-16294D01*
X99527Y-15568D01*
X98426Y-15112D01*
X97244Y-14957D01*
D02*
G37*
G36*
X87323Y-15291D02*
X86141Y-15447D01*
X85040Y-15903D01*
X84094Y-16629D01*
X83368Y-17575D01*
X82912Y-18676D01*
X82756Y-19858D01*
X82912Y-21040D01*
X83368Y-22141D01*
X84094Y-23087D01*
X85040Y-23813D01*
X86141Y-24269D01*
X87323Y-24425D01*
X88505Y-24269D01*
X89606Y-23813D01*
X90552Y-23087D01*
X91278Y-22141D01*
X91734Y-21040D01*
X91890Y-19858D01*
X91734Y-18676D01*
X91278Y-17575D01*
X90552Y-16629D01*
X89606Y-15903D01*
X88505Y-15447D01*
X87323Y-15291D01*
D02*
G37*
G36*
X27323D02*
X26141Y-15447D01*
X25039Y-15903D01*
X24094Y-16629D01*
X23368Y-17575D01*
X22912Y-18676D01*
X22756Y-19858D01*
X22912Y-21040D01*
X23368Y-22141D01*
X24094Y-23087D01*
X25039Y-23813D01*
X26141Y-24269D01*
X27323Y-24425D01*
X28505Y-24269D01*
X29606Y-23813D01*
X30552Y-23087D01*
X31278Y-22141D01*
X31734Y-21040D01*
X31890Y-19858D01*
X31734Y-18676D01*
X31278Y-17575D01*
X30552Y-16629D01*
X29606Y-15903D01*
X28505Y-15447D01*
X27323Y-15291D01*
D02*
G37*
G36*
X77323Y-15350D02*
X76141Y-15506D01*
X75039Y-15962D01*
X74094Y-16688D01*
X73368Y-17634D01*
X72912Y-18735D01*
X72756Y-19917D01*
X72912Y-21099D01*
X73368Y-22200D01*
X74094Y-23146D01*
X75039Y-23872D01*
X76141Y-24328D01*
X77323Y-24484D01*
X78505Y-24328D01*
X79606Y-23872D01*
X80552Y-23146D01*
X81278Y-22200D01*
X81734Y-21099D01*
X81889Y-19917D01*
X81734Y-18735D01*
X81278Y-17634D01*
X80552Y-16688D01*
X79606Y-15962D01*
X78505Y-15506D01*
X77323Y-15350D01*
D02*
G37*
G36*
X67323D02*
X66141Y-15506D01*
X65039Y-15962D01*
X64094Y-16688D01*
X63368Y-17634D01*
X62912Y-18735D01*
X62756Y-19917D01*
X62912Y-21099D01*
X63368Y-22200D01*
X64094Y-23146D01*
X65039Y-23872D01*
X66141Y-24328D01*
X67323Y-24484D01*
X68505Y-24328D01*
X69606Y-23872D01*
X70552Y-23146D01*
X71278Y-22200D01*
X71734Y-21099D01*
X71890Y-19917D01*
X71734Y-18735D01*
X71278Y-17634D01*
X70552Y-16688D01*
X69606Y-15962D01*
X68505Y-15506D01*
X67323Y-15350D01*
D02*
G37*
G36*
X57323D02*
X56141Y-15506D01*
X55040Y-15962D01*
X54094Y-16688D01*
X53368Y-17634D01*
X52912Y-18735D01*
X52756Y-19917D01*
X52912Y-21099D01*
X53368Y-22200D01*
X54094Y-23146D01*
X55040Y-23872D01*
X56141Y-24328D01*
X57323Y-24484D01*
X58505Y-24328D01*
X59606Y-23872D01*
X60552Y-23146D01*
X61278Y-22200D01*
X61734Y-21099D01*
X61889Y-19917D01*
X61734Y-18735D01*
X61278Y-17634D01*
X60552Y-16688D01*
X59606Y-15962D01*
X58505Y-15506D01*
X57323Y-15350D01*
D02*
G37*
G36*
X47323Y-15355D02*
X46141Y-15510D01*
X45039Y-15967D01*
X44094Y-16692D01*
X43368Y-17638D01*
X42912Y-18739D01*
X42756Y-19921D01*
X42912Y-21103D01*
X43368Y-22205D01*
X44094Y-23150D01*
X45039Y-23876D01*
X46141Y-24332D01*
X47323Y-24488D01*
X48505Y-24332D01*
X49606Y-23876D01*
X50552Y-23150D01*
X51278Y-22205D01*
X51734Y-21103D01*
X51889Y-19921D01*
X51734Y-18739D01*
X51278Y-17638D01*
X50552Y-16692D01*
X49606Y-15967D01*
X48505Y-15510D01*
X47323Y-15355D01*
D02*
G37*
G36*
X37323D02*
X36141Y-15510D01*
X35039Y-15967D01*
X34094Y-16692D01*
X33368Y-17638D01*
X32912Y-18739D01*
X32756Y-19921D01*
X32912Y-21103D01*
X33368Y-22205D01*
X34094Y-23150D01*
X35039Y-23876D01*
X36141Y-24332D01*
X37323Y-24488D01*
X38505Y-24332D01*
X39606Y-23876D01*
X40552Y-23150D01*
X41278Y-22205D01*
X41734Y-21103D01*
X41890Y-19921D01*
X41734Y-18739D01*
X41278Y-17638D01*
X40552Y-16692D01*
X39606Y-15967D01*
X38505Y-15510D01*
X37323Y-15355D01*
D02*
G37*
G36*
X17323Y-15616D02*
X16141Y-15772D01*
X15040Y-16228D01*
X14094Y-16954D01*
X13368Y-17900D01*
X12912Y-19001D01*
X12756Y-20183D01*
X12912Y-21365D01*
X13368Y-22466D01*
X14094Y-23412D01*
X15040Y-24138D01*
X16141Y-24594D01*
X17323Y-24749D01*
X18505Y-24594D01*
X19606Y-24138D01*
X20552Y-23412D01*
X21278Y-22466D01*
X21734Y-21365D01*
X21890Y-20183D01*
X21734Y-19001D01*
X21278Y-17900D01*
X20552Y-16954D01*
X19606Y-16228D01*
X18505Y-15772D01*
X17323Y-15616D01*
D02*
G37*
G36*
X7323Y-21018D02*
X4426Y-23915D01*
X4940Y-24310D01*
X6089Y-24786D01*
X6197Y-24800D01*
Y-25304D01*
X6089Y-25318D01*
X4940Y-25795D01*
X4426Y-26189D01*
X7323Y-29086D01*
X10220Y-26189D01*
X9705Y-25795D01*
X8556Y-25318D01*
X8448Y-25304D01*
Y-24800D01*
X8556Y-24786D01*
X9705Y-24310D01*
X10220Y-23915D01*
X7323Y-21018D01*
D02*
G37*
G36*
X284646Y-22205D02*
X283464Y-22361D01*
X282362Y-22817D01*
X281417Y-23543D01*
X280691Y-24488D01*
X280235Y-25590D01*
X280079Y-26772D01*
X280235Y-27954D01*
X280691Y-29055D01*
X281417Y-30001D01*
X282362Y-30727D01*
X283464Y-31183D01*
X284646Y-31338D01*
X285828Y-31183D01*
X286929Y-30727D01*
X287875Y-30001D01*
X288600Y-29055D01*
X289057Y-27954D01*
X289212Y-26772D01*
X289057Y-25590D01*
X288600Y-24488D01*
X287875Y-23543D01*
X286929Y-22817D01*
X285828Y-22361D01*
X284646Y-22205D01*
D02*
G37*
G36*
X11055Y-27024D02*
X8158Y-29921D01*
X11055Y-32818D01*
X11450Y-32304D01*
X11926Y-31155D01*
X12088Y-29921D01*
X11926Y-28688D01*
X11450Y-27539D01*
X11055Y-27024D01*
D02*
G37*
G36*
X3591D02*
X3196Y-27539D01*
X2720Y-28688D01*
X2558Y-29921D01*
X2720Y-31155D01*
X3196Y-32304D01*
X3591Y-32818D01*
X6488Y-29921D01*
X3591Y-27024D01*
D02*
G37*
G36*
X117244Y-24961D02*
X116062Y-25117D01*
X114961Y-25573D01*
X114015Y-26298D01*
X113289Y-27244D01*
X112833Y-28346D01*
X112678Y-29528D01*
X112833Y-30709D01*
X113289Y-31811D01*
X114015Y-32757D01*
X114961Y-33482D01*
X116062Y-33939D01*
X117244Y-34094D01*
X118426Y-33939D01*
X119527Y-33482D01*
X120473Y-32757D01*
X121199Y-31811D01*
X121655Y-30709D01*
X121811Y-29528D01*
X121655Y-28346D01*
X121199Y-27244D01*
X120473Y-26298D01*
X119527Y-25573D01*
X118426Y-25117D01*
X117244Y-24961D01*
D02*
G37*
G36*
X107418D02*
X106236Y-25117D01*
X105135Y-25573D01*
X104189Y-26298D01*
X103463Y-27244D01*
X103007Y-28346D01*
X102852Y-29528D01*
X103007Y-30709D01*
X103463Y-31811D01*
X104189Y-32757D01*
X105135Y-33482D01*
X106236Y-33939D01*
X107418Y-34094D01*
X108600Y-33939D01*
X109702Y-33482D01*
X110647Y-32757D01*
X111373Y-31811D01*
X111829Y-30709D01*
X111985Y-29528D01*
X111829Y-28346D01*
X111373Y-27244D01*
X110647Y-26298D01*
X109702Y-25573D01*
X108600Y-25117D01*
X107418Y-24961D01*
D02*
G37*
G36*
X97244D02*
X96062Y-25117D01*
X94961Y-25573D01*
X94015Y-26298D01*
X93289Y-27244D01*
X92833Y-28346D01*
X92677Y-29528D01*
X92833Y-30709D01*
X93289Y-31811D01*
X94015Y-32757D01*
X94961Y-33482D01*
X96062Y-33939D01*
X97244Y-34094D01*
X98426Y-33939D01*
X99527Y-33482D01*
X100473Y-32757D01*
X101199Y-31811D01*
X101655Y-30709D01*
X101811Y-29528D01*
X101655Y-28346D01*
X101199Y-27244D01*
X100473Y-26298D01*
X99527Y-25573D01*
X98426Y-25117D01*
X97244Y-24961D01*
D02*
G37*
G36*
X87323Y-25355D02*
X86141Y-25510D01*
X85040Y-25966D01*
X84094Y-26692D01*
X83368Y-27638D01*
X82912Y-28739D01*
X82756Y-29921D01*
X82912Y-31103D01*
X83368Y-32205D01*
X84094Y-33150D01*
X85040Y-33876D01*
X86141Y-34332D01*
X87323Y-34488D01*
X88505Y-34332D01*
X89606Y-33876D01*
X90552Y-33150D01*
X91278Y-32205D01*
X91734Y-31103D01*
X91890Y-29921D01*
X91734Y-28739D01*
X91278Y-27638D01*
X90552Y-26692D01*
X89606Y-25966D01*
X88505Y-25510D01*
X87323Y-25355D01*
D02*
G37*
G36*
X77497D02*
X76315Y-25510D01*
X75214Y-25966D01*
X74268Y-26692D01*
X73542Y-27638D01*
X73086Y-28739D01*
X72930Y-29921D01*
X73086Y-31103D01*
X73542Y-32205D01*
X74268Y-33150D01*
X75214Y-33876D01*
X76315Y-34332D01*
X77497Y-34488D01*
X78679Y-34332D01*
X79780Y-33876D01*
X80726Y-33150D01*
X81452Y-32205D01*
X81908Y-31103D01*
X82064Y-29921D01*
X81908Y-28739D01*
X81452Y-27638D01*
X80726Y-26692D01*
X79780Y-25966D01*
X78679Y-25510D01*
X77497Y-25355D01*
D02*
G37*
G36*
X67323D02*
X66141Y-25510D01*
X65039Y-25966D01*
X64094Y-26692D01*
X63368Y-27638D01*
X62912Y-28739D01*
X62756Y-29921D01*
X62912Y-31103D01*
X63368Y-32205D01*
X64094Y-33150D01*
X65039Y-33876D01*
X66141Y-34332D01*
X67323Y-34488D01*
X68505Y-34332D01*
X69606Y-33876D01*
X70552Y-33150D01*
X71278Y-32205D01*
X71734Y-31103D01*
X71890Y-29921D01*
X71734Y-28739D01*
X71278Y-27638D01*
X70552Y-26692D01*
X69606Y-25966D01*
X68505Y-25510D01*
X67323Y-25355D01*
D02*
G37*
G36*
X57323D02*
X56141Y-25510D01*
X55040Y-25966D01*
X54094Y-26692D01*
X53368Y-27638D01*
X52912Y-28739D01*
X52756Y-29921D01*
X52912Y-31103D01*
X53368Y-32205D01*
X54094Y-33150D01*
X55040Y-33876D01*
X56141Y-34332D01*
X57323Y-34488D01*
X58505Y-34332D01*
X59606Y-33876D01*
X60552Y-33150D01*
X61278Y-32205D01*
X61734Y-31103D01*
X61889Y-29921D01*
X61734Y-28739D01*
X61278Y-27638D01*
X60552Y-26692D01*
X59606Y-25966D01*
X58505Y-25510D01*
X57323Y-25355D01*
D02*
G37*
G36*
X47323D02*
X46141Y-25510D01*
X45039Y-25966D01*
X44094Y-26692D01*
X43368Y-27638D01*
X42912Y-28739D01*
X42756Y-29921D01*
X42912Y-31103D01*
X43368Y-32205D01*
X44094Y-33150D01*
X45039Y-33876D01*
X46141Y-34332D01*
X47323Y-34488D01*
X48505Y-34332D01*
X49606Y-33876D01*
X50552Y-33150D01*
X51278Y-32205D01*
X51734Y-31103D01*
X51889Y-29921D01*
X51734Y-28739D01*
X51278Y-27638D01*
X50552Y-26692D01*
X49606Y-25966D01*
X48505Y-25510D01*
X47323Y-25355D01*
D02*
G37*
G36*
X37323D02*
X36141Y-25510D01*
X35039Y-25966D01*
X34094Y-26692D01*
X33368Y-27638D01*
X32912Y-28739D01*
X32756Y-29921D01*
X32912Y-31103D01*
X33368Y-32205D01*
X34094Y-33150D01*
X35039Y-33876D01*
X36141Y-34332D01*
X37323Y-34488D01*
X38505Y-34332D01*
X39606Y-33876D01*
X40552Y-33150D01*
X41278Y-32205D01*
X41734Y-31103D01*
X41890Y-29921D01*
X41734Y-28739D01*
X41278Y-27638D01*
X40552Y-26692D01*
X39606Y-25966D01*
X38505Y-25510D01*
X37323Y-25355D01*
D02*
G37*
G36*
X27323D02*
X26141Y-25510D01*
X25039Y-25966D01*
X24094Y-26692D01*
X23368Y-27638D01*
X22912Y-28739D01*
X22756Y-29921D01*
X22912Y-31103D01*
X23368Y-32205D01*
X24094Y-33150D01*
X25039Y-33876D01*
X26141Y-34332D01*
X27323Y-34488D01*
X28505Y-34332D01*
X29606Y-33876D01*
X30552Y-33150D01*
X31278Y-32205D01*
X31734Y-31103D01*
X31890Y-29921D01*
X31734Y-28739D01*
X31278Y-27638D01*
X30552Y-26692D01*
X29606Y-25966D01*
X28505Y-25510D01*
X27323Y-25355D01*
D02*
G37*
G36*
X17323D02*
X16141Y-25510D01*
X15040Y-25966D01*
X14094Y-26692D01*
X13368Y-27638D01*
X12912Y-28739D01*
X12756Y-29921D01*
X12912Y-31103D01*
X13368Y-32205D01*
X14094Y-33150D01*
X15040Y-33876D01*
X16141Y-34332D01*
X17323Y-34488D01*
X18505Y-34332D01*
X19606Y-33876D01*
X20552Y-33150D01*
X21278Y-32205D01*
X21734Y-31103D01*
X21890Y-29921D01*
X21734Y-28739D01*
X21278Y-27638D01*
X20552Y-26692D01*
X19606Y-25966D01*
X18505Y-25510D01*
X17323Y-25355D01*
D02*
G37*
G36*
X7323Y-30756D02*
X4426Y-33653D01*
X4940Y-34048D01*
X6089Y-34524D01*
X7323Y-34686D01*
X8556Y-34524D01*
X9705Y-34048D01*
X10220Y-33653D01*
X7323Y-30756D01*
D02*
G37*
G36*
Y-35446D02*
X6089Y-35609D01*
X4940Y-36085D01*
X4426Y-36479D01*
X7323Y-39376D01*
X10220Y-36479D01*
X9705Y-36085D01*
X8556Y-35609D01*
X7323Y-35446D01*
D02*
G37*
G36*
X263543Y-38355D02*
X262618Y-38477D01*
X261756Y-38834D01*
X261489Y-39039D01*
X263543Y-41094D01*
X265598Y-39039D01*
X265330Y-38834D01*
X264468Y-38477D01*
X263543Y-38355D01*
D02*
G37*
G36*
X11055Y-37315D02*
X8158Y-40211D01*
X11055Y-43108D01*
X11450Y-42594D01*
X11926Y-41445D01*
X12088Y-40211D01*
X11926Y-38978D01*
X11450Y-37829D01*
X11055Y-37315D01*
D02*
G37*
G36*
X3591D02*
X3196Y-37829D01*
X2720Y-38978D01*
X2558Y-40211D01*
X2720Y-41445D01*
X3196Y-42594D01*
X3591Y-43108D01*
X6488Y-40211D01*
X3591Y-37315D01*
D02*
G37*
G36*
X107418Y-34955D02*
X106236Y-35110D01*
X105135Y-35567D01*
X104189Y-36292D01*
X103463Y-37238D01*
X103007Y-38339D01*
X102852Y-39521D01*
X103007Y-40703D01*
X103463Y-41805D01*
X104189Y-42750D01*
X105135Y-43476D01*
X106236Y-43933D01*
X107418Y-44088D01*
X108600Y-43933D01*
X109702Y-43476D01*
X110647Y-42750D01*
X111373Y-41805D01*
X111829Y-40703D01*
X111985Y-39521D01*
X111829Y-38339D01*
X111373Y-37238D01*
X110647Y-36292D01*
X109702Y-35567D01*
X108600Y-35110D01*
X107418Y-34955D01*
D02*
G37*
G36*
X117244Y-34961D02*
X116062Y-35116D01*
X114961Y-35573D01*
X114015Y-36298D01*
X113289Y-37244D01*
X112833Y-38346D01*
X112678Y-39528D01*
X112833Y-40709D01*
X113289Y-41811D01*
X114015Y-42757D01*
X114961Y-43482D01*
X116062Y-43939D01*
X117244Y-44094D01*
X118426Y-43939D01*
X119527Y-43482D01*
X120473Y-42757D01*
X121199Y-41811D01*
X121655Y-40709D01*
X121811Y-39528D01*
X121655Y-38346D01*
X121199Y-37244D01*
X120473Y-36298D01*
X119527Y-35573D01*
X118426Y-35116D01*
X117244Y-34961D01*
D02*
G37*
G36*
X97244D02*
X96062Y-35116D01*
X94961Y-35573D01*
X94015Y-36298D01*
X93289Y-37244D01*
X92833Y-38346D01*
X92677Y-39528D01*
X92833Y-40709D01*
X93289Y-41811D01*
X94015Y-42757D01*
X94961Y-43482D01*
X96062Y-43939D01*
X97244Y-44094D01*
X98426Y-43939D01*
X99527Y-43482D01*
X100473Y-42757D01*
X101199Y-41811D01*
X101655Y-40709D01*
X101811Y-39528D01*
X101655Y-38346D01*
X101199Y-37244D01*
X100473Y-36298D01*
X99527Y-35573D01*
X98426Y-35116D01*
X97244Y-34961D01*
D02*
G37*
G36*
X27323Y-35283D02*
X26141Y-35439D01*
X25039Y-35895D01*
X24094Y-36621D01*
X23368Y-37567D01*
X22912Y-38668D01*
X22756Y-39850D01*
X22912Y-41032D01*
X23368Y-42133D01*
X24094Y-43079D01*
X25039Y-43805D01*
X26141Y-44261D01*
X27323Y-44417D01*
X28505Y-44261D01*
X29606Y-43805D01*
X30552Y-43079D01*
X31278Y-42133D01*
X31734Y-41032D01*
X31890Y-39850D01*
X31734Y-38668D01*
X31278Y-37567D01*
X30552Y-36621D01*
X29606Y-35895D01*
X28505Y-35439D01*
X27323Y-35283D01*
D02*
G37*
G36*
X77497Y-35348D02*
X76315Y-35504D01*
X75214Y-35960D01*
X74268Y-36686D01*
X73542Y-37632D01*
X73086Y-38733D01*
X72930Y-39915D01*
X73086Y-41097D01*
X73542Y-42199D01*
X74268Y-43144D01*
X75214Y-43870D01*
X76315Y-44326D01*
X77497Y-44482D01*
X78679Y-44326D01*
X79780Y-43870D01*
X80726Y-43144D01*
X81452Y-42199D01*
X81908Y-41097D01*
X82064Y-39915D01*
X81908Y-38733D01*
X81452Y-37632D01*
X80726Y-36686D01*
X79780Y-35960D01*
X78679Y-35504D01*
X77497Y-35348D01*
D02*
G37*
G36*
X37323D02*
X36141Y-35504D01*
X35039Y-35960D01*
X34094Y-36686D01*
X33368Y-37632D01*
X32912Y-38733D01*
X32756Y-39915D01*
X32912Y-41097D01*
X33368Y-42199D01*
X34094Y-43144D01*
X35039Y-43870D01*
X36141Y-44326D01*
X37323Y-44482D01*
X38505Y-44326D01*
X39606Y-43870D01*
X40552Y-43144D01*
X41278Y-42199D01*
X41734Y-41097D01*
X41890Y-39915D01*
X41734Y-38733D01*
X41278Y-37632D01*
X40552Y-36686D01*
X39606Y-35960D01*
X38505Y-35504D01*
X37323Y-35348D01*
D02*
G37*
G36*
X87323Y-35355D02*
X86141Y-35510D01*
X85040Y-35966D01*
X84094Y-36692D01*
X83368Y-37638D01*
X82912Y-38739D01*
X82756Y-39921D01*
X82912Y-41103D01*
X83368Y-42205D01*
X84094Y-43150D01*
X85040Y-43876D01*
X86141Y-44332D01*
X87323Y-44488D01*
X88505Y-44332D01*
X89606Y-43876D01*
X90552Y-43150D01*
X91278Y-42205D01*
X91734Y-41103D01*
X91890Y-39921D01*
X91734Y-38739D01*
X91278Y-37638D01*
X90552Y-36692D01*
X89606Y-35966D01*
X88505Y-35510D01*
X87323Y-35355D01*
D02*
G37*
G36*
X67323D02*
X66141Y-35510D01*
X65039Y-35966D01*
X64094Y-36692D01*
X63368Y-37638D01*
X62912Y-38739D01*
X62756Y-39921D01*
X62912Y-41103D01*
X63368Y-42205D01*
X64094Y-43150D01*
X65039Y-43876D01*
X66141Y-44332D01*
X67323Y-44488D01*
X68505Y-44332D01*
X69606Y-43876D01*
X70552Y-43150D01*
X71278Y-42205D01*
X71734Y-41103D01*
X71890Y-39921D01*
X71734Y-38739D01*
X71278Y-37638D01*
X70552Y-36692D01*
X69606Y-35966D01*
X68505Y-35510D01*
X67323Y-35355D01*
D02*
G37*
G36*
X57323D02*
X56141Y-35510D01*
X55040Y-35966D01*
X54094Y-36692D01*
X53368Y-37638D01*
X52912Y-38739D01*
X52756Y-39921D01*
X52912Y-41103D01*
X53368Y-42205D01*
X54094Y-43150D01*
X55040Y-43876D01*
X56141Y-44332D01*
X57323Y-44488D01*
X58505Y-44332D01*
X59606Y-43876D01*
X60552Y-43150D01*
X61278Y-42205D01*
X61734Y-41103D01*
X61889Y-39921D01*
X61734Y-38739D01*
X61278Y-37638D01*
X60552Y-36692D01*
X59606Y-35966D01*
X58505Y-35510D01*
X57323Y-35355D01*
D02*
G37*
G36*
X47323D02*
X46141Y-35510D01*
X45039Y-35966D01*
X44094Y-36692D01*
X43368Y-37638D01*
X42912Y-38739D01*
X42756Y-39921D01*
X42912Y-41103D01*
X43368Y-42205D01*
X44094Y-43150D01*
X45039Y-43876D01*
X46141Y-44332D01*
X47323Y-44488D01*
X48505Y-44332D01*
X49606Y-43876D01*
X50552Y-43150D01*
X51278Y-42205D01*
X51734Y-41103D01*
X51889Y-39921D01*
X51734Y-38739D01*
X51278Y-37638D01*
X50552Y-36692D01*
X49606Y-35966D01*
X48505Y-35510D01*
X47323Y-35355D01*
D02*
G37*
G36*
X17323Y-35620D02*
X16141Y-35776D01*
X15040Y-36232D01*
X14094Y-36958D01*
X13368Y-37904D01*
X12912Y-39005D01*
X12756Y-40187D01*
X12912Y-41369D01*
X13368Y-42470D01*
X14094Y-43416D01*
X15040Y-44142D01*
X16141Y-44598D01*
X17323Y-44754D01*
X18505Y-44598D01*
X19606Y-44142D01*
X20552Y-43416D01*
X21278Y-42470D01*
X21734Y-41369D01*
X21890Y-40187D01*
X21734Y-39005D01*
X21278Y-37904D01*
X20552Y-36958D01*
X19606Y-36232D01*
X18505Y-35776D01*
X17323Y-35620D01*
D02*
G37*
G36*
X7323Y-41047D02*
X4426Y-43944D01*
X4940Y-44338D01*
X6089Y-44814D01*
Y-45318D01*
X4940Y-45794D01*
X4426Y-46189D01*
X7323Y-49086D01*
X10220Y-46189D01*
X9705Y-45794D01*
X8556Y-45318D01*
Y-44814D01*
X9705Y-44338D01*
X10220Y-43944D01*
X7323Y-41047D01*
D02*
G37*
G36*
X263543Y-47095D02*
X261489Y-49150D01*
X261756Y-49355D01*
X262618Y-49712D01*
X263543Y-49834D01*
X264468Y-49712D01*
X265330Y-49355D01*
X265598Y-49150D01*
X263543Y-47095D01*
D02*
G37*
G36*
X11055Y-47024D02*
X8158Y-49921D01*
X11055Y-52818D01*
X11450Y-52304D01*
X11926Y-51155D01*
X12088Y-49921D01*
X11926Y-48688D01*
X11450Y-47539D01*
X11055Y-47024D01*
D02*
G37*
G36*
X3591D02*
X3196Y-47539D01*
X2720Y-48688D01*
X2558Y-49921D01*
X2720Y-51155D01*
X3196Y-52304D01*
X3591Y-52818D01*
X6488Y-49921D01*
X3591Y-47024D01*
D02*
G37*
G36*
X117244Y-44961D02*
X116062Y-45116D01*
X114961Y-45573D01*
X114015Y-46299D01*
X113289Y-47244D01*
X112833Y-48346D01*
X112678Y-49528D01*
X112833Y-50709D01*
X113289Y-51811D01*
X114015Y-52757D01*
X114961Y-53482D01*
X116062Y-53939D01*
X117244Y-54094D01*
X118426Y-53939D01*
X119527Y-53482D01*
X120473Y-52757D01*
X121199Y-51811D01*
X121655Y-50709D01*
X121811Y-49528D01*
X121655Y-48346D01*
X121199Y-47244D01*
X120473Y-46299D01*
X119527Y-45573D01*
X118426Y-45116D01*
X117244Y-44961D01*
D02*
G37*
G36*
X107418D02*
X106236Y-45116D01*
X105135Y-45573D01*
X104189Y-46299D01*
X103463Y-47244D01*
X103007Y-48346D01*
X102852Y-49528D01*
X103007Y-50709D01*
X103463Y-51811D01*
X104189Y-52757D01*
X105135Y-53482D01*
X106236Y-53939D01*
X107418Y-54094D01*
X108600Y-53939D01*
X109702Y-53482D01*
X110647Y-52757D01*
X111373Y-51811D01*
X111829Y-50709D01*
X111985Y-49528D01*
X111829Y-48346D01*
X111373Y-47244D01*
X110647Y-46299D01*
X109702Y-45573D01*
X108600Y-45116D01*
X107418Y-44961D01*
D02*
G37*
G36*
X97244Y-45009D02*
X96062Y-45164D01*
X94961Y-45621D01*
X94015Y-46346D01*
X93289Y-47292D01*
X92833Y-48393D01*
X92677Y-49575D01*
X92833Y-50757D01*
X93289Y-51859D01*
X94015Y-52804D01*
X94961Y-53530D01*
X96062Y-53987D01*
X97244Y-54142D01*
X98426Y-53987D01*
X99527Y-53530D01*
X100473Y-52804D01*
X101199Y-51859D01*
X101655Y-50757D01*
X101811Y-49575D01*
X101655Y-48393D01*
X101199Y-47292D01*
X100473Y-46346D01*
X99527Y-45621D01*
X98426Y-45164D01*
X97244Y-45009D01*
D02*
G37*
G36*
X87323Y-45355D02*
X86141Y-45510D01*
X85040Y-45966D01*
X84094Y-46692D01*
X83368Y-47638D01*
X82912Y-48739D01*
X82756Y-49921D01*
X82912Y-51103D01*
X83368Y-52205D01*
X84094Y-53150D01*
X85040Y-53876D01*
X86141Y-54332D01*
X87323Y-54488D01*
X88505Y-54332D01*
X89606Y-53876D01*
X90552Y-53150D01*
X91278Y-52205D01*
X91734Y-51103D01*
X91890Y-49921D01*
X91734Y-48739D01*
X91278Y-47638D01*
X90552Y-46692D01*
X89606Y-45966D01*
X88505Y-45510D01*
X87323Y-45355D01*
D02*
G37*
G36*
X77497D02*
X76315Y-45510D01*
X75214Y-45966D01*
X74268Y-46692D01*
X73542Y-47638D01*
X73086Y-48739D01*
X72930Y-49921D01*
X73086Y-51103D01*
X73542Y-52205D01*
X74268Y-53150D01*
X75214Y-53876D01*
X76315Y-54332D01*
X77497Y-54488D01*
X78679Y-54332D01*
X79780Y-53876D01*
X80726Y-53150D01*
X81452Y-52205D01*
X81908Y-51103D01*
X82064Y-49921D01*
X81908Y-48739D01*
X81452Y-47638D01*
X80726Y-46692D01*
X79780Y-45966D01*
X78679Y-45510D01*
X77497Y-45355D01*
D02*
G37*
G36*
X47323D02*
X46141Y-45510D01*
X45039Y-45966D01*
X44094Y-46692D01*
X43368Y-47638D01*
X42912Y-48739D01*
X42756Y-49921D01*
X42912Y-51103D01*
X43368Y-52205D01*
X44094Y-53150D01*
X45039Y-53876D01*
X46141Y-54332D01*
X47323Y-54488D01*
X48505Y-54332D01*
X49606Y-53876D01*
X50552Y-53150D01*
X51278Y-52205D01*
X51734Y-51103D01*
X51889Y-49921D01*
X51734Y-48739D01*
X51278Y-47638D01*
X50552Y-46692D01*
X49606Y-45966D01*
X48505Y-45510D01*
X47323Y-45355D01*
D02*
G37*
G36*
X37323D02*
X36141Y-45510D01*
X35039Y-45966D01*
X34094Y-46692D01*
X33368Y-47638D01*
X32912Y-48739D01*
X32756Y-49921D01*
X32912Y-51103D01*
X33368Y-52205D01*
X34094Y-53150D01*
X35039Y-53876D01*
X36141Y-54332D01*
X37323Y-54488D01*
X38505Y-54332D01*
X39606Y-53876D01*
X40552Y-53150D01*
X41278Y-52205D01*
X41734Y-51103D01*
X41890Y-49921D01*
X41734Y-48739D01*
X41278Y-47638D01*
X40552Y-46692D01*
X39606Y-45966D01*
X38505Y-45510D01*
X37323Y-45355D01*
D02*
G37*
G36*
X27323D02*
X26141Y-45510D01*
X25039Y-45966D01*
X24094Y-46692D01*
X23368Y-47638D01*
X22912Y-48739D01*
X22756Y-49921D01*
X22912Y-51103D01*
X23368Y-52205D01*
X24094Y-53150D01*
X25039Y-53876D01*
X26141Y-54332D01*
X27323Y-54488D01*
X28505Y-54332D01*
X29606Y-53876D01*
X30552Y-53150D01*
X31278Y-52205D01*
X31734Y-51103D01*
X31890Y-49921D01*
X31734Y-48739D01*
X31278Y-47638D01*
X30552Y-46692D01*
X29606Y-45966D01*
X28505Y-45510D01*
X27323Y-45355D01*
D02*
G37*
G36*
X17323D02*
X16141Y-45510D01*
X15040Y-45966D01*
X14094Y-46692D01*
X13368Y-47638D01*
X12912Y-48739D01*
X12756Y-49921D01*
X12912Y-51103D01*
X13368Y-52205D01*
X14094Y-53150D01*
X15040Y-53876D01*
X16141Y-54332D01*
X17323Y-54488D01*
X18505Y-54332D01*
X19606Y-53876D01*
X20552Y-53150D01*
X21278Y-52205D01*
X21734Y-51103D01*
X21890Y-49921D01*
X21734Y-48739D01*
X21278Y-47638D01*
X20552Y-46692D01*
X19606Y-45966D01*
X18505Y-45510D01*
X17323Y-45355D01*
D02*
G37*
G36*
X67323Y-45403D02*
X66141Y-45558D01*
X65039Y-46014D01*
X64094Y-46740D01*
X63368Y-47686D01*
X62912Y-48787D01*
X62756Y-49969D01*
X62912Y-51151D01*
X63368Y-52253D01*
X64094Y-53198D01*
X65039Y-53924D01*
X66141Y-54380D01*
X67323Y-54536D01*
X68505Y-54380D01*
X69606Y-53924D01*
X70552Y-53198D01*
X71278Y-52253D01*
X71734Y-51151D01*
X71890Y-49969D01*
X71734Y-48787D01*
X71278Y-47686D01*
X70552Y-46740D01*
X69606Y-46014D01*
X68505Y-45558D01*
X67323Y-45403D01*
D02*
G37*
G36*
X57323D02*
X56141Y-45558D01*
X55040Y-46014D01*
X54094Y-46740D01*
X53368Y-47686D01*
X52912Y-48787D01*
X52756Y-49969D01*
X52912Y-51151D01*
X53368Y-52253D01*
X54094Y-53198D01*
X55040Y-53924D01*
X56141Y-54380D01*
X57323Y-54536D01*
X58505Y-54380D01*
X59606Y-53924D01*
X60552Y-53198D01*
X61278Y-52253D01*
X61734Y-51151D01*
X61889Y-49969D01*
X61734Y-48787D01*
X61278Y-47686D01*
X60552Y-46740D01*
X59606Y-46014D01*
X58505Y-45558D01*
X57323Y-45403D01*
D02*
G37*
G36*
X7323Y-50756D02*
X4426Y-53653D01*
X4940Y-54048D01*
X6089Y-54524D01*
X7323Y-54686D01*
X8556Y-54524D01*
X9705Y-54048D01*
X10220Y-53653D01*
X7323Y-50756D01*
D02*
G37*
G36*
Y-55418D02*
X6089Y-55580D01*
X4940Y-56056D01*
X4426Y-56451D01*
X7323Y-59348D01*
X10220Y-56451D01*
X9705Y-56056D01*
X8556Y-55580D01*
X7323Y-55418D01*
D02*
G37*
G36*
X11055Y-57286D02*
X8158Y-60183D01*
X11055Y-63080D01*
X11450Y-62565D01*
X11926Y-61416D01*
X12088Y-60183D01*
X11926Y-58950D01*
X11450Y-57800D01*
X11055Y-57286D01*
D02*
G37*
G36*
X3591D02*
X3196Y-57800D01*
X2720Y-58950D01*
X2558Y-60183D01*
X2720Y-61416D01*
X3196Y-62565D01*
X3591Y-63080D01*
X6488Y-60183D01*
X3591Y-57286D01*
D02*
G37*
G36*
X97418Y-54898D02*
X96236Y-55053D01*
X95135Y-55510D01*
X94189Y-56235D01*
X93463Y-57181D01*
X93007Y-58282D01*
X92852Y-59464D01*
X93007Y-60646D01*
X93463Y-61748D01*
X94189Y-62693D01*
X95135Y-63419D01*
X96236Y-63875D01*
X97418Y-64031D01*
X98600Y-63875D01*
X99702Y-63419D01*
X100647Y-62693D01*
X101373Y-61748D01*
X101829Y-60646D01*
X101985Y-59464D01*
X101829Y-58282D01*
X101373Y-57181D01*
X100647Y-56235D01*
X99702Y-55510D01*
X98600Y-55053D01*
X97418Y-54898D01*
D02*
G37*
G36*
X117244Y-54961D02*
X116062Y-55116D01*
X114961Y-55573D01*
X114015Y-56299D01*
X113289Y-57244D01*
X112833Y-58346D01*
X112678Y-59528D01*
X112833Y-60710D01*
X113289Y-61811D01*
X114015Y-62757D01*
X114961Y-63482D01*
X116062Y-63939D01*
X117244Y-64094D01*
X118426Y-63939D01*
X119527Y-63482D01*
X120473Y-62757D01*
X121199Y-61811D01*
X121655Y-60710D01*
X121811Y-59528D01*
X121655Y-58346D01*
X121199Y-57244D01*
X120473Y-56299D01*
X119527Y-55573D01*
X118426Y-55116D01*
X117244Y-54961D01*
D02*
G37*
G36*
X107418D02*
X106236Y-55116D01*
X105135Y-55573D01*
X104189Y-56299D01*
X103463Y-57244D01*
X103007Y-58346D01*
X102852Y-59528D01*
X103007Y-60710D01*
X103463Y-61811D01*
X104189Y-62757D01*
X105135Y-63482D01*
X106236Y-63939D01*
X107418Y-64094D01*
X108600Y-63939D01*
X109702Y-63482D01*
X110647Y-62757D01*
X111373Y-61811D01*
X111829Y-60710D01*
X111985Y-59528D01*
X111829Y-58346D01*
X111373Y-57244D01*
X110647Y-56299D01*
X109702Y-55573D01*
X108600Y-55116D01*
X107418Y-54961D01*
D02*
G37*
G36*
X67497Y-55291D02*
X66315Y-55447D01*
X65214Y-55903D01*
X64268Y-56629D01*
X63542Y-57575D01*
X63086Y-58676D01*
X62930Y-59858D01*
X63086Y-61040D01*
X63542Y-62141D01*
X64268Y-63087D01*
X65214Y-63813D01*
X66315Y-64269D01*
X67497Y-64425D01*
X68679Y-64269D01*
X69780Y-63813D01*
X70726Y-63087D01*
X71452Y-62141D01*
X71908Y-61040D01*
X72064Y-59858D01*
X71908Y-58676D01*
X71452Y-57575D01*
X70726Y-56629D01*
X69780Y-55903D01*
X68679Y-55447D01*
X67497Y-55291D01*
D02*
G37*
G36*
X27323D02*
X26141Y-55447D01*
X25039Y-55903D01*
X24094Y-56629D01*
X23368Y-57575D01*
X22912Y-58676D01*
X22756Y-59858D01*
X22912Y-61040D01*
X23368Y-62141D01*
X24094Y-63087D01*
X25039Y-63813D01*
X26141Y-64269D01*
X27323Y-64425D01*
X28505Y-64269D01*
X29606Y-63813D01*
X30552Y-63087D01*
X31278Y-62141D01*
X31734Y-61040D01*
X31890Y-59858D01*
X31734Y-58676D01*
X31278Y-57575D01*
X30552Y-56629D01*
X29606Y-55903D01*
X28505Y-55447D01*
X27323Y-55291D01*
D02*
G37*
G36*
X87323Y-55355D02*
X86141Y-55510D01*
X85040Y-55966D01*
X84094Y-56692D01*
X83368Y-57638D01*
X82912Y-58739D01*
X82756Y-59921D01*
X82912Y-61103D01*
X83368Y-62205D01*
X84094Y-63150D01*
X85040Y-63876D01*
X86141Y-64332D01*
X87323Y-64488D01*
X88505Y-64332D01*
X89606Y-63876D01*
X90552Y-63150D01*
X91278Y-62205D01*
X91734Y-61103D01*
X91890Y-59921D01*
X91734Y-58739D01*
X91278Y-57638D01*
X90552Y-56692D01*
X89606Y-55966D01*
X88505Y-55510D01*
X87323Y-55355D01*
D02*
G37*
G36*
X77497D02*
X76315Y-55510D01*
X75214Y-55966D01*
X74268Y-56692D01*
X73542Y-57638D01*
X73086Y-58739D01*
X72930Y-59921D01*
X73086Y-61103D01*
X73542Y-62205D01*
X74268Y-63150D01*
X75214Y-63876D01*
X76315Y-64332D01*
X77497Y-64488D01*
X78679Y-64332D01*
X79780Y-63876D01*
X80726Y-63150D01*
X81452Y-62205D01*
X81908Y-61103D01*
X82064Y-59921D01*
X81908Y-58739D01*
X81452Y-57638D01*
X80726Y-56692D01*
X79780Y-55966D01*
X78679Y-55510D01*
X77497Y-55355D01*
D02*
G37*
G36*
X47323D02*
X46141Y-55510D01*
X45039Y-55966D01*
X44094Y-56692D01*
X43368Y-57638D01*
X42912Y-58739D01*
X42756Y-59921D01*
X42912Y-61103D01*
X43368Y-62205D01*
X44094Y-63150D01*
X45039Y-63876D01*
X46141Y-64332D01*
X47323Y-64488D01*
X48505Y-64332D01*
X49606Y-63876D01*
X50552Y-63150D01*
X51278Y-62205D01*
X51734Y-61103D01*
X51889Y-59921D01*
X51734Y-58739D01*
X51278Y-57638D01*
X50552Y-56692D01*
X49606Y-55966D01*
X48505Y-55510D01*
X47323Y-55355D01*
D02*
G37*
G36*
X37323D02*
X36141Y-55510D01*
X35039Y-55966D01*
X34094Y-56692D01*
X33368Y-57638D01*
X32912Y-58739D01*
X32756Y-59921D01*
X32912Y-61103D01*
X33368Y-62205D01*
X34094Y-63150D01*
X35039Y-63876D01*
X36141Y-64332D01*
X37323Y-64488D01*
X38505Y-64332D01*
X39606Y-63876D01*
X40552Y-63150D01*
X41278Y-62205D01*
X41734Y-61103D01*
X41890Y-59921D01*
X41734Y-58739D01*
X41278Y-57638D01*
X40552Y-56692D01*
X39606Y-55966D01*
X38505Y-55510D01*
X37323Y-55355D01*
D02*
G37*
G36*
X57497Y-55616D02*
X56315Y-55772D01*
X55214Y-56228D01*
X54268Y-56954D01*
X53542Y-57900D01*
X53086Y-59001D01*
X52930Y-60183D01*
X53086Y-61365D01*
X53542Y-62466D01*
X54268Y-63412D01*
X55214Y-64138D01*
X56315Y-64594D01*
X57497Y-64749D01*
X58679Y-64594D01*
X59780Y-64138D01*
X60726Y-63412D01*
X61452Y-62466D01*
X61908Y-61365D01*
X62064Y-60183D01*
X61908Y-59001D01*
X61452Y-57900D01*
X60726Y-56954D01*
X59780Y-56228D01*
X58679Y-55772D01*
X57497Y-55616D01*
D02*
G37*
G36*
X17323D02*
X16141Y-55772D01*
X15040Y-56228D01*
X14094Y-56954D01*
X13368Y-57900D01*
X12912Y-59001D01*
X12756Y-60183D01*
X12912Y-61365D01*
X13368Y-62466D01*
X14094Y-63412D01*
X15040Y-64138D01*
X16141Y-64594D01*
X17323Y-64749D01*
X18505Y-64594D01*
X19606Y-64138D01*
X20552Y-63412D01*
X21278Y-62466D01*
X21734Y-61365D01*
X21890Y-60183D01*
X21734Y-59001D01*
X21278Y-57900D01*
X20552Y-56954D01*
X19606Y-56228D01*
X18505Y-55772D01*
X17323Y-55616D01*
D02*
G37*
G36*
X7323Y-61018D02*
X4426Y-63915D01*
X4940Y-64310D01*
X6089Y-64786D01*
X6197Y-64800D01*
Y-65304D01*
X6089Y-65318D01*
X4940Y-65794D01*
X4426Y-66189D01*
X7323Y-69086D01*
X10220Y-66189D01*
X9705Y-65794D01*
X8556Y-65318D01*
X8448Y-65304D01*
Y-64800D01*
X8556Y-64786D01*
X9705Y-64310D01*
X10220Y-63915D01*
X7323Y-61018D01*
D02*
G37*
G36*
X11055Y-67024D02*
X8158Y-69921D01*
X11055Y-72818D01*
X11450Y-72304D01*
X11926Y-71155D01*
X12088Y-69921D01*
X11926Y-68688D01*
X11450Y-67539D01*
X11055Y-67024D01*
D02*
G37*
G36*
X3591D02*
X3196Y-67539D01*
X2720Y-68688D01*
X2558Y-69921D01*
X2720Y-71155D01*
X3196Y-72304D01*
X3591Y-72818D01*
X6488Y-69921D01*
X3591Y-67024D01*
D02*
G37*
G36*
X117244Y-64961D02*
X116062Y-65117D01*
X114961Y-65573D01*
X114015Y-66299D01*
X113289Y-67244D01*
X112833Y-68346D01*
X112678Y-69528D01*
X112833Y-70710D01*
X113289Y-71811D01*
X114015Y-72757D01*
X114961Y-73482D01*
X116062Y-73939D01*
X117244Y-74094D01*
X118426Y-73939D01*
X119527Y-73482D01*
X120473Y-72757D01*
X121199Y-71811D01*
X121655Y-70710D01*
X121811Y-69528D01*
X121655Y-68346D01*
X121199Y-67244D01*
X120473Y-66299D01*
X119527Y-65573D01*
X118426Y-65117D01*
X117244Y-64961D01*
D02*
G37*
G36*
X107418D02*
X106236Y-65117D01*
X105135Y-65573D01*
X104189Y-66299D01*
X103463Y-67244D01*
X103007Y-68346D01*
X102852Y-69528D01*
X103007Y-70710D01*
X103463Y-71811D01*
X104189Y-72757D01*
X105135Y-73482D01*
X106236Y-73939D01*
X107418Y-74094D01*
X108600Y-73939D01*
X109702Y-73482D01*
X110647Y-72757D01*
X111373Y-71811D01*
X111829Y-70710D01*
X111985Y-69528D01*
X111829Y-68346D01*
X111373Y-67244D01*
X110647Y-66299D01*
X109702Y-65573D01*
X108600Y-65117D01*
X107418Y-64961D01*
D02*
G37*
G36*
X97418D02*
X96236Y-65117D01*
X95135Y-65573D01*
X94189Y-66299D01*
X93463Y-67244D01*
X93007Y-68346D01*
X92852Y-69528D01*
X93007Y-70710D01*
X93463Y-71811D01*
X94189Y-72757D01*
X95135Y-73482D01*
X96236Y-73939D01*
X97418Y-74094D01*
X98600Y-73939D01*
X99702Y-73482D01*
X100647Y-72757D01*
X101373Y-71811D01*
X101829Y-70710D01*
X101985Y-69528D01*
X101829Y-68346D01*
X101373Y-67244D01*
X100647Y-66299D01*
X99702Y-65573D01*
X98600Y-65117D01*
X97418Y-64961D01*
D02*
G37*
G36*
X87323Y-65355D02*
X86141Y-65510D01*
X85040Y-65966D01*
X84094Y-66692D01*
X83368Y-67638D01*
X82912Y-68739D01*
X82756Y-69921D01*
X82912Y-71103D01*
X83368Y-72205D01*
X84094Y-73150D01*
X85040Y-73876D01*
X86141Y-74332D01*
X87323Y-74488D01*
X88505Y-74332D01*
X89606Y-73876D01*
X90552Y-73150D01*
X91278Y-72205D01*
X91734Y-71103D01*
X91890Y-69921D01*
X91734Y-68739D01*
X91278Y-67638D01*
X90552Y-66692D01*
X89606Y-65966D01*
X88505Y-65510D01*
X87323Y-65355D01*
D02*
G37*
G36*
X77497D02*
X76315Y-65510D01*
X75214Y-65966D01*
X74268Y-66692D01*
X73542Y-67638D01*
X73086Y-68739D01*
X72930Y-69921D01*
X73086Y-71103D01*
X73542Y-72205D01*
X74268Y-73150D01*
X75214Y-73876D01*
X76315Y-74332D01*
X77497Y-74488D01*
X78679Y-74332D01*
X79780Y-73876D01*
X80726Y-73150D01*
X81452Y-72205D01*
X81908Y-71103D01*
X82064Y-69921D01*
X81908Y-68739D01*
X81452Y-67638D01*
X80726Y-66692D01*
X79780Y-65966D01*
X78679Y-65510D01*
X77497Y-65355D01*
D02*
G37*
G36*
X67497D02*
X66315Y-65510D01*
X65214Y-65966D01*
X64268Y-66692D01*
X63542Y-67638D01*
X63086Y-68739D01*
X62930Y-69921D01*
X63086Y-71103D01*
X63542Y-72205D01*
X64268Y-73150D01*
X65214Y-73876D01*
X66315Y-74332D01*
X67497Y-74488D01*
X68679Y-74332D01*
X69780Y-73876D01*
X70726Y-73150D01*
X71452Y-72205D01*
X71908Y-71103D01*
X72064Y-69921D01*
X71908Y-68739D01*
X71452Y-67638D01*
X70726Y-66692D01*
X69780Y-65966D01*
X68679Y-65510D01*
X67497Y-65355D01*
D02*
G37*
G36*
X57323D02*
X56141Y-65510D01*
X55040Y-65966D01*
X54094Y-66692D01*
X53368Y-67638D01*
X52912Y-68739D01*
X52756Y-69921D01*
X52912Y-71103D01*
X53368Y-72205D01*
X54094Y-73150D01*
X55040Y-73876D01*
X56141Y-74332D01*
X57323Y-74488D01*
X58505Y-74332D01*
X59606Y-73876D01*
X60552Y-73150D01*
X61278Y-72205D01*
X61734Y-71103D01*
X61889Y-69921D01*
X61734Y-68739D01*
X61278Y-67638D01*
X60552Y-66692D01*
X59606Y-65966D01*
X58505Y-65510D01*
X57323Y-65355D01*
D02*
G37*
G36*
X47323D02*
X46141Y-65510D01*
X45039Y-65966D01*
X44094Y-66692D01*
X43368Y-67638D01*
X42912Y-68739D01*
X42756Y-69921D01*
X42912Y-71103D01*
X43368Y-72205D01*
X44094Y-73150D01*
X45039Y-73876D01*
X46141Y-74332D01*
X47323Y-74488D01*
X48505Y-74332D01*
X49606Y-73876D01*
X50552Y-73150D01*
X51278Y-72205D01*
X51734Y-71103D01*
X51889Y-69921D01*
X51734Y-68739D01*
X51278Y-67638D01*
X50552Y-66692D01*
X49606Y-65966D01*
X48505Y-65510D01*
X47323Y-65355D01*
D02*
G37*
G36*
X37323D02*
X36141Y-65510D01*
X35039Y-65966D01*
X34094Y-66692D01*
X33368Y-67638D01*
X32912Y-68739D01*
X32756Y-69921D01*
X32912Y-71103D01*
X33368Y-72205D01*
X34094Y-73150D01*
X35039Y-73876D01*
X36141Y-74332D01*
X37323Y-74488D01*
X38505Y-74332D01*
X39606Y-73876D01*
X40552Y-73150D01*
X41278Y-72205D01*
X41734Y-71103D01*
X41890Y-69921D01*
X41734Y-68739D01*
X41278Y-67638D01*
X40552Y-66692D01*
X39606Y-65966D01*
X38505Y-65510D01*
X37323Y-65355D01*
D02*
G37*
G36*
X27323D02*
X26141Y-65510D01*
X25039Y-65966D01*
X24094Y-66692D01*
X23368Y-67638D01*
X22912Y-68739D01*
X22756Y-69921D01*
X22912Y-71103D01*
X23368Y-72205D01*
X24094Y-73150D01*
X25039Y-73876D01*
X26141Y-74332D01*
X27323Y-74488D01*
X28505Y-74332D01*
X29606Y-73876D01*
X30552Y-73150D01*
X31278Y-72205D01*
X31734Y-71103D01*
X31890Y-69921D01*
X31734Y-68739D01*
X31278Y-67638D01*
X30552Y-66692D01*
X29606Y-65966D01*
X28505Y-65510D01*
X27323Y-65355D01*
D02*
G37*
G36*
X17323D02*
X16141Y-65510D01*
X15040Y-65966D01*
X14094Y-66692D01*
X13368Y-67638D01*
X12912Y-68739D01*
X12756Y-69921D01*
X12912Y-71103D01*
X13368Y-72205D01*
X14094Y-73150D01*
X15040Y-73876D01*
X16141Y-74332D01*
X17323Y-74488D01*
X18505Y-74332D01*
X19606Y-73876D01*
X20552Y-73150D01*
X21278Y-72205D01*
X21734Y-71103D01*
X21890Y-69921D01*
X21734Y-68739D01*
X21278Y-67638D01*
X20552Y-66692D01*
X19606Y-65966D01*
X18505Y-65510D01*
X17323Y-65355D01*
D02*
G37*
G36*
X7323Y-70756D02*
X4426Y-73653D01*
X4940Y-74048D01*
X6089Y-74524D01*
X6967Y-74639D01*
X7191Y-74669D01*
Y-75173D01*
X6967Y-75203D01*
X6089Y-75318D01*
X4940Y-75795D01*
X4426Y-76189D01*
X7323Y-79086D01*
X10220Y-76189D01*
X9705Y-75795D01*
X8556Y-75318D01*
X7679Y-75203D01*
X7455Y-75173D01*
Y-74669D01*
X7679Y-74639D01*
X8556Y-74524D01*
X9705Y-74048D01*
X10220Y-73653D01*
X7323Y-70756D01*
D02*
G37*
G36*
X11055Y-77024D02*
X8158Y-79921D01*
X11055Y-82818D01*
X11450Y-82304D01*
X11926Y-81155D01*
X12088Y-79921D01*
X11926Y-78688D01*
X11450Y-77539D01*
X11055Y-77024D01*
D02*
G37*
G36*
X3591D02*
X3196Y-77539D01*
X2720Y-78688D01*
X2558Y-79921D01*
X2720Y-81155D01*
X3196Y-82304D01*
X3591Y-82818D01*
X6488Y-79921D01*
X3591Y-77024D01*
D02*
G37*
G36*
X97244Y-74890D02*
X96062Y-75045D01*
X94961Y-75501D01*
X94015Y-76227D01*
X93289Y-77173D01*
X92833Y-78274D01*
X92677Y-79456D01*
X92833Y-80638D01*
X93289Y-81739D01*
X94015Y-82685D01*
X94961Y-83411D01*
X96062Y-83867D01*
X97244Y-84023D01*
X98426Y-83867D01*
X99527Y-83411D01*
X100473Y-82685D01*
X101199Y-81739D01*
X101655Y-80638D01*
X101811Y-79456D01*
X101655Y-78274D01*
X101199Y-77173D01*
X100473Y-76227D01*
X99527Y-75501D01*
X98426Y-75045D01*
X97244Y-74890D01*
D02*
G37*
G36*
X107418Y-74955D02*
X106236Y-75110D01*
X105135Y-75567D01*
X104189Y-76292D01*
X103463Y-77238D01*
X103007Y-78339D01*
X102852Y-79521D01*
X103007Y-80703D01*
X103463Y-81805D01*
X104189Y-82750D01*
X105135Y-83476D01*
X106236Y-83933D01*
X107418Y-84088D01*
X108600Y-83933D01*
X109702Y-83476D01*
X110647Y-82750D01*
X111373Y-81805D01*
X111829Y-80703D01*
X111985Y-79521D01*
X111829Y-78339D01*
X111373Y-77238D01*
X110647Y-76292D01*
X109702Y-75567D01*
X108600Y-75110D01*
X107418Y-74955D01*
D02*
G37*
G36*
X117244Y-74961D02*
X116062Y-75116D01*
X114961Y-75573D01*
X114015Y-76298D01*
X113289Y-77244D01*
X112833Y-78346D01*
X112678Y-79528D01*
X112833Y-80709D01*
X113289Y-81811D01*
X114015Y-82757D01*
X114961Y-83482D01*
X116062Y-83939D01*
X117244Y-84094D01*
X118426Y-83939D01*
X119527Y-83482D01*
X120473Y-82757D01*
X121199Y-81811D01*
X121655Y-80709D01*
X121811Y-79528D01*
X121655Y-78346D01*
X121199Y-77244D01*
X120473Y-76298D01*
X119527Y-75573D01*
X118426Y-75116D01*
X117244Y-74961D01*
D02*
G37*
G36*
X67323Y-75283D02*
X66141Y-75439D01*
X65039Y-75895D01*
X64094Y-76621D01*
X63368Y-77567D01*
X62912Y-78668D01*
X62756Y-79850D01*
X62912Y-81032D01*
X63368Y-82133D01*
X64094Y-83079D01*
X65039Y-83805D01*
X66141Y-84261D01*
X67323Y-84417D01*
X68505Y-84261D01*
X69606Y-83805D01*
X70552Y-83079D01*
X71278Y-82133D01*
X71734Y-81032D01*
X71890Y-79850D01*
X71734Y-78668D01*
X71278Y-77567D01*
X70552Y-76621D01*
X69606Y-75895D01*
X68505Y-75439D01*
X67323Y-75283D01*
D02*
G37*
G36*
X27323D02*
X26141Y-75439D01*
X25039Y-75895D01*
X24094Y-76621D01*
X23368Y-77567D01*
X22912Y-78668D01*
X22756Y-79850D01*
X22912Y-81032D01*
X23368Y-82133D01*
X24094Y-83079D01*
X25039Y-83805D01*
X26141Y-84261D01*
X27323Y-84417D01*
X28505Y-84261D01*
X29606Y-83805D01*
X30552Y-83079D01*
X31278Y-82133D01*
X31734Y-81032D01*
X31890Y-79850D01*
X31734Y-78668D01*
X31278Y-77567D01*
X30552Y-76621D01*
X29606Y-75895D01*
X28505Y-75439D01*
X27323Y-75283D01*
D02*
G37*
G36*
X77497Y-75349D02*
X76315Y-75504D01*
X75214Y-75960D01*
X74268Y-76686D01*
X73542Y-77632D01*
X73086Y-78733D01*
X72930Y-79915D01*
X73086Y-81097D01*
X73542Y-82199D01*
X74268Y-83144D01*
X75214Y-83870D01*
X76315Y-84326D01*
X77497Y-84482D01*
X78679Y-84326D01*
X79780Y-83870D01*
X80726Y-83144D01*
X81452Y-82199D01*
X81908Y-81097D01*
X82064Y-79915D01*
X81908Y-78733D01*
X81452Y-77632D01*
X80726Y-76686D01*
X79780Y-75960D01*
X78679Y-75504D01*
X77497Y-75349D01*
D02*
G37*
G36*
X57323D02*
X56141Y-75504D01*
X55040Y-75960D01*
X54094Y-76686D01*
X53368Y-77632D01*
X52912Y-78733D01*
X52756Y-79915D01*
X52912Y-81097D01*
X53368Y-82199D01*
X54094Y-83144D01*
X55040Y-83870D01*
X56141Y-84326D01*
X57323Y-84482D01*
X58505Y-84326D01*
X59606Y-83870D01*
X60552Y-83144D01*
X61278Y-82199D01*
X61734Y-81097D01*
X61889Y-79915D01*
X61734Y-78733D01*
X61278Y-77632D01*
X60552Y-76686D01*
X59606Y-75960D01*
X58505Y-75504D01*
X57323Y-75349D01*
D02*
G37*
G36*
X37323D02*
X36141Y-75504D01*
X35039Y-75960D01*
X34094Y-76686D01*
X33368Y-77632D01*
X32912Y-78733D01*
X32756Y-79915D01*
X32912Y-81097D01*
X33368Y-82199D01*
X34094Y-83144D01*
X35039Y-83870D01*
X36141Y-84326D01*
X37323Y-84482D01*
X38505Y-84326D01*
X39606Y-83870D01*
X40552Y-83144D01*
X41278Y-82199D01*
X41734Y-81097D01*
X41890Y-79915D01*
X41734Y-78733D01*
X41278Y-77632D01*
X40552Y-76686D01*
X39606Y-75960D01*
X38505Y-75504D01*
X37323Y-75349D01*
D02*
G37*
G36*
X87323Y-75355D02*
X86141Y-75510D01*
X85040Y-75966D01*
X84094Y-76692D01*
X83368Y-77638D01*
X82912Y-78739D01*
X82756Y-79921D01*
X82912Y-81103D01*
X83368Y-82205D01*
X84094Y-83150D01*
X85040Y-83876D01*
X86141Y-84332D01*
X87323Y-84488D01*
X88505Y-84332D01*
X89606Y-83876D01*
X90552Y-83150D01*
X91278Y-82205D01*
X91734Y-81103D01*
X91890Y-79921D01*
X91734Y-78739D01*
X91278Y-77638D01*
X90552Y-76692D01*
X89606Y-75966D01*
X88505Y-75510D01*
X87323Y-75355D01*
D02*
G37*
G36*
X47323D02*
X46141Y-75510D01*
X45039Y-75966D01*
X44094Y-76692D01*
X43368Y-77638D01*
X42912Y-78739D01*
X42756Y-79921D01*
X42912Y-81103D01*
X43368Y-82205D01*
X44094Y-83150D01*
X45039Y-83876D01*
X46141Y-84332D01*
X47323Y-84488D01*
X48505Y-84332D01*
X49606Y-83876D01*
X50552Y-83150D01*
X51278Y-82205D01*
X51734Y-81103D01*
X51889Y-79921D01*
X51734Y-78739D01*
X51278Y-77638D01*
X50552Y-76692D01*
X49606Y-75966D01*
X48505Y-75510D01*
X47323Y-75355D01*
D02*
G37*
G36*
X17323D02*
X16141Y-75510D01*
X15040Y-75966D01*
X14094Y-76692D01*
X13368Y-77638D01*
X12912Y-78739D01*
X12756Y-79921D01*
X12912Y-81103D01*
X13368Y-82205D01*
X14094Y-83150D01*
X15040Y-83876D01*
X16141Y-84332D01*
X17323Y-84488D01*
X18505Y-84332D01*
X19606Y-83876D01*
X20552Y-83150D01*
X21278Y-82205D01*
X21734Y-81103D01*
X21890Y-79921D01*
X21734Y-78739D01*
X21278Y-77638D01*
X20552Y-76692D01*
X19606Y-75966D01*
X18505Y-75510D01*
X17323Y-75355D01*
D02*
G37*
G36*
X7323Y-80756D02*
X4426Y-83653D01*
X4940Y-84048D01*
X6089Y-84524D01*
X6967Y-84640D01*
X7191Y-84669D01*
Y-85173D01*
X6967Y-85203D01*
X6089Y-85318D01*
X4940Y-85795D01*
X4426Y-86189D01*
X7323Y-89086D01*
X10220Y-86189D01*
X9705Y-85795D01*
X8556Y-85318D01*
X7679Y-85203D01*
X7455Y-85173D01*
Y-84669D01*
X7679Y-84640D01*
X8556Y-84524D01*
X9705Y-84048D01*
X10220Y-83653D01*
X7323Y-80756D01*
D02*
G37*
G36*
X11055Y-87024D02*
X8158Y-89921D01*
X11055Y-92818D01*
X11450Y-92304D01*
X11926Y-91155D01*
X12088Y-89921D01*
X11926Y-88688D01*
X11450Y-87539D01*
X11055Y-87024D01*
D02*
G37*
G36*
X3591D02*
X3196Y-87539D01*
X2720Y-88688D01*
X2558Y-89921D01*
X2720Y-91155D01*
X3196Y-92304D01*
X3591Y-92818D01*
X6488Y-89921D01*
X3591Y-87024D01*
D02*
G37*
G36*
X117244Y-84941D02*
X116062Y-85096D01*
X114961Y-85552D01*
X114015Y-86278D01*
X113289Y-87224D01*
X112833Y-88325D01*
X112678Y-89507D01*
X112833Y-90689D01*
X113289Y-91790D01*
X114015Y-92736D01*
X114961Y-93462D01*
X116062Y-93918D01*
X117244Y-94074D01*
X118426Y-93918D01*
X119527Y-93462D01*
X120473Y-92736D01*
X121199Y-91790D01*
X121655Y-90689D01*
X121811Y-89507D01*
X121655Y-88325D01*
X121199Y-87224D01*
X120473Y-86278D01*
X119527Y-85552D01*
X118426Y-85096D01*
X117244Y-84941D01*
D02*
G37*
G36*
X97244D02*
X96062Y-85096D01*
X94961Y-85552D01*
X94015Y-86278D01*
X93289Y-87224D01*
X92833Y-88325D01*
X92677Y-89507D01*
X92833Y-90689D01*
X93289Y-91790D01*
X94015Y-92736D01*
X94961Y-93462D01*
X96062Y-93918D01*
X97244Y-94074D01*
X98426Y-93918D01*
X99527Y-93462D01*
X100473Y-92736D01*
X101199Y-91790D01*
X101655Y-90689D01*
X101811Y-89507D01*
X101655Y-88325D01*
X101199Y-87224D01*
X100473Y-86278D01*
X99527Y-85552D01*
X98426Y-85096D01*
X97244Y-84941D01*
D02*
G37*
G36*
X107418Y-84961D02*
X106236Y-85116D01*
X105135Y-85573D01*
X104189Y-86299D01*
X103463Y-87244D01*
X103007Y-88346D01*
X102852Y-89528D01*
X103007Y-90710D01*
X103463Y-91811D01*
X104189Y-92757D01*
X105135Y-93482D01*
X106236Y-93939D01*
X107418Y-94094D01*
X108600Y-93939D01*
X109702Y-93482D01*
X110647Y-92757D01*
X111373Y-91811D01*
X111829Y-90710D01*
X111985Y-89528D01*
X111829Y-88346D01*
X111373Y-87244D01*
X110647Y-86299D01*
X109702Y-85573D01*
X108600Y-85116D01*
X107418Y-84961D01*
D02*
G37*
G36*
X87323Y-85334D02*
X86141Y-85490D01*
X85040Y-85946D01*
X84094Y-86672D01*
X83368Y-87618D01*
X82912Y-88719D01*
X82756Y-89901D01*
X82912Y-91083D01*
X83368Y-92184D01*
X84094Y-93130D01*
X85040Y-93856D01*
X86141Y-94312D01*
X87323Y-94468D01*
X88505Y-94312D01*
X89606Y-93856D01*
X90552Y-93130D01*
X91278Y-92184D01*
X91734Y-91083D01*
X91890Y-89901D01*
X91734Y-88719D01*
X91278Y-87618D01*
X90552Y-86672D01*
X89606Y-85946D01*
X88505Y-85490D01*
X87323Y-85334D01*
D02*
G37*
G36*
X67323D02*
X66141Y-85490D01*
X65039Y-85946D01*
X64094Y-86672D01*
X63368Y-87618D01*
X62912Y-88719D01*
X62756Y-89901D01*
X62912Y-91083D01*
X63368Y-92184D01*
X64094Y-93130D01*
X65039Y-93856D01*
X66141Y-94312D01*
X67323Y-94468D01*
X68505Y-94312D01*
X69606Y-93856D01*
X70552Y-93130D01*
X71278Y-92184D01*
X71734Y-91083D01*
X71890Y-89901D01*
X71734Y-88719D01*
X71278Y-87618D01*
X70552Y-86672D01*
X69606Y-85946D01*
X68505Y-85490D01*
X67323Y-85334D01*
D02*
G37*
G36*
X47323D02*
X46141Y-85490D01*
X45039Y-85946D01*
X44094Y-86672D01*
X43368Y-87618D01*
X42912Y-88719D01*
X42756Y-89901D01*
X42912Y-91083D01*
X43368Y-92184D01*
X44094Y-93130D01*
X45039Y-93856D01*
X46141Y-94312D01*
X47323Y-94468D01*
X48505Y-94312D01*
X49606Y-93856D01*
X50552Y-93130D01*
X51278Y-92184D01*
X51734Y-91083D01*
X51889Y-89901D01*
X51734Y-88719D01*
X51278Y-87618D01*
X50552Y-86672D01*
X49606Y-85946D01*
X48505Y-85490D01*
X47323Y-85334D01*
D02*
G37*
G36*
X27323D02*
X26141Y-85490D01*
X25039Y-85946D01*
X24094Y-86672D01*
X23368Y-87618D01*
X22912Y-88719D01*
X22756Y-89901D01*
X22912Y-91083D01*
X23368Y-92184D01*
X24094Y-93130D01*
X25039Y-93856D01*
X26141Y-94312D01*
X27323Y-94468D01*
X28505Y-94312D01*
X29606Y-93856D01*
X30552Y-93130D01*
X31278Y-92184D01*
X31734Y-91083D01*
X31890Y-89901D01*
X31734Y-88719D01*
X31278Y-87618D01*
X30552Y-86672D01*
X29606Y-85946D01*
X28505Y-85490D01*
X27323Y-85334D01*
D02*
G37*
G36*
X77497Y-85355D02*
X76315Y-85510D01*
X75214Y-85966D01*
X74268Y-86692D01*
X73542Y-87638D01*
X73086Y-88739D01*
X72930Y-89921D01*
X73086Y-91103D01*
X73542Y-92205D01*
X74268Y-93150D01*
X75214Y-93876D01*
X76315Y-94332D01*
X77497Y-94488D01*
X78679Y-94332D01*
X79780Y-93876D01*
X80726Y-93150D01*
X81452Y-92205D01*
X81908Y-91103D01*
X82064Y-89921D01*
X81908Y-88739D01*
X81452Y-87638D01*
X80726Y-86692D01*
X79780Y-85966D01*
X78679Y-85510D01*
X77497Y-85355D01*
D02*
G37*
G36*
X57323D02*
X56141Y-85510D01*
X55040Y-85966D01*
X54094Y-86692D01*
X53368Y-87638D01*
X52912Y-88739D01*
X52756Y-89921D01*
X52912Y-91103D01*
X53368Y-92205D01*
X54094Y-93150D01*
X55040Y-93876D01*
X56141Y-94332D01*
X57323Y-94488D01*
X58505Y-94332D01*
X59606Y-93876D01*
X60552Y-93150D01*
X61278Y-92205D01*
X61734Y-91103D01*
X61889Y-89921D01*
X61734Y-88739D01*
X61278Y-87638D01*
X60552Y-86692D01*
X59606Y-85966D01*
X58505Y-85510D01*
X57323Y-85355D01*
D02*
G37*
G36*
X37281D02*
X36099Y-85510D01*
X34998Y-85966D01*
X34052Y-86692D01*
X33327Y-87638D01*
X32870Y-88739D01*
X32715Y-89921D01*
X32870Y-91103D01*
X33327Y-92205D01*
X34052Y-93150D01*
X34998Y-93876D01*
X36099Y-94332D01*
X37281Y-94488D01*
X38463Y-94332D01*
X39565Y-93876D01*
X40510Y-93150D01*
X41236Y-92205D01*
X41692Y-91103D01*
X41848Y-89921D01*
X41692Y-88739D01*
X41236Y-87638D01*
X40510Y-86692D01*
X39565Y-85966D01*
X38463Y-85510D01*
X37281Y-85355D01*
D02*
G37*
G36*
X17323D02*
X16141Y-85510D01*
X15040Y-85966D01*
X14094Y-86692D01*
X13368Y-87638D01*
X12912Y-88739D01*
X12756Y-89921D01*
X12912Y-91103D01*
X13368Y-92205D01*
X14094Y-93150D01*
X15040Y-93876D01*
X16141Y-94332D01*
X17323Y-94488D01*
X18505Y-94332D01*
X19606Y-93876D01*
X20552Y-93150D01*
X21278Y-92205D01*
X21734Y-91103D01*
X21890Y-89921D01*
X21734Y-88739D01*
X21278Y-87638D01*
X20552Y-86692D01*
X19606Y-85966D01*
X18505Y-85510D01*
X17323Y-85355D01*
D02*
G37*
G36*
X7323Y-90756D02*
X4426Y-93653D01*
X4940Y-94048D01*
X6089Y-94524D01*
X7323Y-94687D01*
X8556Y-94524D01*
X9705Y-94048D01*
X10220Y-93653D01*
X7323Y-90756D01*
D02*
G37*
G36*
Y-95235D02*
X6089Y-95397D01*
X4940Y-95873D01*
X4426Y-96268D01*
X7323Y-99165D01*
X10220Y-96268D01*
X9705Y-95873D01*
X8556Y-95397D01*
X7323Y-95235D01*
D02*
G37*
G36*
X11055Y-97103D02*
X8158Y-100000D01*
X11055Y-102897D01*
X11450Y-102383D01*
X11926Y-101233D01*
X12088Y-100000D01*
X11926Y-98767D01*
X11450Y-97617D01*
X11055Y-97103D01*
D02*
G37*
G36*
X3591D02*
X3196Y-97617D01*
X2720Y-98767D01*
X2558Y-100000D01*
X2720Y-101233D01*
X3196Y-102383D01*
X3591Y-102897D01*
X6488Y-100000D01*
X3591Y-97103D01*
D02*
G37*
G36*
X117244Y-94961D02*
X116062Y-95117D01*
X114961Y-95573D01*
X114015Y-96298D01*
X113289Y-97244D01*
X112833Y-98346D01*
X112678Y-99528D01*
X112833Y-100709D01*
X113289Y-101811D01*
X114015Y-102757D01*
X114961Y-103482D01*
X116062Y-103939D01*
X117244Y-104094D01*
X118426Y-103939D01*
X119527Y-103482D01*
X120473Y-102757D01*
X121199Y-101811D01*
X121655Y-100709D01*
X121811Y-99528D01*
X121655Y-98346D01*
X121199Y-97244D01*
X120473Y-96298D01*
X119527Y-95573D01*
X118426Y-95117D01*
X117244Y-94961D01*
D02*
G37*
G36*
X107418Y-95040D02*
X106236Y-95195D01*
X105135Y-95652D01*
X104189Y-96377D01*
X103463Y-97323D01*
X103007Y-98424D01*
X102852Y-99606D01*
X103007Y-100788D01*
X103463Y-101890D01*
X104189Y-102835D01*
X105135Y-103561D01*
X106236Y-104017D01*
X107418Y-104173D01*
X108600Y-104017D01*
X109702Y-103561D01*
X110647Y-102835D01*
X111373Y-101890D01*
X111829Y-100788D01*
X111985Y-99606D01*
X111829Y-98424D01*
X111373Y-97323D01*
X110647Y-96377D01*
X109702Y-95652D01*
X108600Y-95195D01*
X107418Y-95040D01*
D02*
G37*
G36*
X97244D02*
X96062Y-95195D01*
X94961Y-95652D01*
X94015Y-96377D01*
X93289Y-97323D01*
X92833Y-98424D01*
X92677Y-99606D01*
X92833Y-100788D01*
X93289Y-101890D01*
X94015Y-102835D01*
X94961Y-103561D01*
X96062Y-104017D01*
X97244Y-104173D01*
X98426Y-104017D01*
X99527Y-103561D01*
X100473Y-102835D01*
X101199Y-101890D01*
X101655Y-100788D01*
X101811Y-99606D01*
X101655Y-98424D01*
X101199Y-97323D01*
X100473Y-96377D01*
X99527Y-95652D01*
X98426Y-95195D01*
X97244Y-95040D01*
D02*
G37*
G36*
X87323Y-95355D02*
X86141Y-95510D01*
X85040Y-95966D01*
X84094Y-96692D01*
X83368Y-97638D01*
X82912Y-98739D01*
X82756Y-99921D01*
X82912Y-101103D01*
X83368Y-102205D01*
X84094Y-103150D01*
X85040Y-103876D01*
X86141Y-104332D01*
X87323Y-104488D01*
X88505Y-104332D01*
X89606Y-103876D01*
X90552Y-103150D01*
X91278Y-102205D01*
X91734Y-101103D01*
X91890Y-99921D01*
X91734Y-98739D01*
X91278Y-97638D01*
X90552Y-96692D01*
X89606Y-95966D01*
X88505Y-95510D01*
X87323Y-95355D01*
D02*
G37*
G36*
X47323D02*
X46141Y-95510D01*
X45039Y-95966D01*
X44094Y-96692D01*
X43368Y-97638D01*
X42912Y-98739D01*
X42756Y-99921D01*
X42912Y-101103D01*
X43368Y-102205D01*
X44094Y-103150D01*
X45039Y-103876D01*
X46141Y-104332D01*
X47323Y-104488D01*
X48505Y-104332D01*
X49606Y-103876D01*
X50552Y-103150D01*
X51278Y-102205D01*
X51734Y-101103D01*
X51889Y-99921D01*
X51734Y-98739D01*
X51278Y-97638D01*
X50552Y-96692D01*
X49606Y-95966D01*
X48505Y-95510D01*
X47323Y-95355D01*
D02*
G37*
G36*
X27282D02*
X26100Y-95510D01*
X24999Y-95966D01*
X24053Y-96692D01*
X23327Y-97638D01*
X22871Y-98739D01*
X22716Y-99921D01*
X22871Y-101103D01*
X23327Y-102205D01*
X24053Y-103150D01*
X24999Y-103876D01*
X26100Y-104332D01*
X27282Y-104488D01*
X28464Y-104332D01*
X29566Y-103876D01*
X30511Y-103150D01*
X31237Y-102205D01*
X31693Y-101103D01*
X31849Y-99921D01*
X31693Y-98739D01*
X31237Y-97638D01*
X30511Y-96692D01*
X29566Y-95966D01*
X28464Y-95510D01*
X27282Y-95355D01*
D02*
G37*
G36*
X77497Y-95433D02*
X76315Y-95589D01*
X75214Y-96045D01*
X74268Y-96771D01*
X73542Y-97717D01*
X73086Y-98818D01*
X72930Y-100000D01*
X73086Y-101182D01*
X73542Y-102283D01*
X74268Y-103229D01*
X75214Y-103955D01*
X76315Y-104411D01*
X77497Y-104567D01*
X78679Y-104411D01*
X79780Y-103955D01*
X80726Y-103229D01*
X81452Y-102283D01*
X81908Y-101182D01*
X82064Y-100000D01*
X81908Y-98818D01*
X81452Y-97717D01*
X80726Y-96771D01*
X79780Y-96045D01*
X78679Y-95589D01*
X77497Y-95433D01*
D02*
G37*
G36*
X67323D02*
X66141Y-95589D01*
X65039Y-96045D01*
X64094Y-96771D01*
X63368Y-97717D01*
X62912Y-98818D01*
X62756Y-100000D01*
X62912Y-101182D01*
X63368Y-102283D01*
X64094Y-103229D01*
X65039Y-103955D01*
X66141Y-104411D01*
X67323Y-104567D01*
X68505Y-104411D01*
X69606Y-103955D01*
X70552Y-103229D01*
X71278Y-102283D01*
X71734Y-101182D01*
X71890Y-100000D01*
X71734Y-98818D01*
X71278Y-97717D01*
X70552Y-96771D01*
X69606Y-96045D01*
X68505Y-95589D01*
X67323Y-95433D01*
D02*
G37*
G36*
X57323D02*
X56141Y-95589D01*
X55040Y-96045D01*
X54094Y-96771D01*
X53368Y-97717D01*
X52912Y-98818D01*
X52756Y-100000D01*
X52912Y-101182D01*
X53368Y-102283D01*
X54094Y-103229D01*
X55040Y-103955D01*
X56141Y-104411D01*
X57323Y-104567D01*
X58505Y-104411D01*
X59606Y-103955D01*
X60552Y-103229D01*
X61278Y-102283D01*
X61734Y-101182D01*
X61889Y-100000D01*
X61734Y-98818D01*
X61278Y-97717D01*
X60552Y-96771D01*
X59606Y-96045D01*
X58505Y-95589D01*
X57323Y-95433D01*
D02*
G37*
G36*
X37281D02*
X36099Y-95589D01*
X34998Y-96045D01*
X34052Y-96771D01*
X33327Y-97717D01*
X32870Y-98818D01*
X32715Y-100000D01*
X32870Y-101182D01*
X33327Y-102283D01*
X34052Y-103229D01*
X34998Y-103955D01*
X36099Y-104411D01*
X37281Y-104567D01*
X38463Y-104411D01*
X39565Y-103955D01*
X40510Y-103229D01*
X41236Y-102283D01*
X41692Y-101182D01*
X41848Y-100000D01*
X41692Y-98818D01*
X41236Y-97717D01*
X40510Y-96771D01*
X39565Y-96045D01*
X38463Y-95589D01*
X37281Y-95433D01*
D02*
G37*
G36*
X17323D02*
X16141Y-95589D01*
X15040Y-96045D01*
X14094Y-96771D01*
X13368Y-97717D01*
X12912Y-98818D01*
X12756Y-100000D01*
X12912Y-101182D01*
X13368Y-102283D01*
X14094Y-103229D01*
X15040Y-103955D01*
X16141Y-104411D01*
X17323Y-104567D01*
X18505Y-104411D01*
X19606Y-103955D01*
X20552Y-103229D01*
X21278Y-102283D01*
X21734Y-101182D01*
X21890Y-100000D01*
X21734Y-98818D01*
X21278Y-97717D01*
X20552Y-96771D01*
X19606Y-96045D01*
X18505Y-95589D01*
X17323Y-95433D01*
D02*
G37*
G36*
X7323Y-100835D02*
X4426Y-103732D01*
X4940Y-104127D01*
X6089Y-104603D01*
X7323Y-104765D01*
X8556Y-104603D01*
X9705Y-104127D01*
X10220Y-103732D01*
X7323Y-100835D01*
D02*
G37*
G36*
Y-105274D02*
X6089Y-105437D01*
X4940Y-105913D01*
X4426Y-106307D01*
X7323Y-109204D01*
X10220Y-106307D01*
X9705Y-105913D01*
X8556Y-105437D01*
X7323Y-105274D01*
D02*
G37*
G36*
X11055Y-107142D02*
X8158Y-110039D01*
X11055Y-112936D01*
X11450Y-112422D01*
X11926Y-111273D01*
X12088Y-110039D01*
X11926Y-108806D01*
X11450Y-107657D01*
X11055Y-107142D01*
D02*
G37*
G36*
X3591D02*
X3196Y-107657D01*
X2720Y-108806D01*
X2558Y-110039D01*
X2720Y-111273D01*
X3196Y-112422D01*
X3591Y-112936D01*
X6488Y-110039D01*
X3591Y-107142D01*
D02*
G37*
G36*
X107244Y-104961D02*
X106062Y-105116D01*
X104961Y-105573D01*
X104015Y-106298D01*
X103289Y-107244D01*
X102833Y-108346D01*
X102678Y-109528D01*
X102833Y-110710D01*
X103289Y-111811D01*
X104015Y-112757D01*
X104961Y-113482D01*
X106062Y-113939D01*
X107244Y-114094D01*
X108426Y-113939D01*
X109527Y-113482D01*
X110473Y-112757D01*
X111199Y-111811D01*
X111655Y-110710D01*
X111811Y-109528D01*
X111655Y-108346D01*
X111199Y-107244D01*
X110473Y-106298D01*
X109527Y-105573D01*
X108426Y-105116D01*
X107244Y-104961D01*
D02*
G37*
G36*
X97244D02*
X96062Y-105116D01*
X94961Y-105573D01*
X94015Y-106298D01*
X93289Y-107244D01*
X92833Y-108346D01*
X92677Y-109528D01*
X92833Y-110710D01*
X93289Y-111811D01*
X94015Y-112757D01*
X94961Y-113482D01*
X96062Y-113939D01*
X97244Y-114094D01*
X98426Y-113939D01*
X99527Y-113482D01*
X100473Y-112757D01*
X101199Y-111811D01*
X101655Y-110710D01*
X101811Y-109528D01*
X101655Y-108346D01*
X101199Y-107244D01*
X100473Y-106298D01*
X99527Y-105573D01*
X98426Y-105116D01*
X97244Y-104961D01*
D02*
G37*
G36*
X117244Y-105079D02*
X116062Y-105235D01*
X114961Y-105691D01*
X114015Y-106417D01*
X113289Y-107362D01*
X112833Y-108464D01*
X112678Y-109646D01*
X112833Y-110828D01*
X113289Y-111929D01*
X114015Y-112875D01*
X114961Y-113601D01*
X116062Y-114057D01*
X117244Y-114212D01*
X118426Y-114057D01*
X119527Y-113601D01*
X120473Y-112875D01*
X121199Y-111929D01*
X121655Y-110828D01*
X121811Y-109646D01*
X121655Y-108464D01*
X121199Y-107362D01*
X120473Y-106417D01*
X119527Y-105691D01*
X118426Y-105235D01*
X117244Y-105079D01*
D02*
G37*
G36*
X77323Y-105355D02*
X76141Y-105510D01*
X75039Y-105966D01*
X74094Y-106692D01*
X73368Y-107638D01*
X72912Y-108739D01*
X72756Y-109921D01*
X72912Y-111103D01*
X73368Y-112205D01*
X74094Y-113150D01*
X75039Y-113876D01*
X76141Y-114332D01*
X77323Y-114488D01*
X78505Y-114332D01*
X79606Y-113876D01*
X80552Y-113150D01*
X81278Y-112205D01*
X81734Y-111103D01*
X81889Y-109921D01*
X81734Y-108739D01*
X81278Y-107638D01*
X80552Y-106692D01*
X79606Y-105966D01*
X78505Y-105510D01*
X77323Y-105355D01*
D02*
G37*
G36*
X67323D02*
X66141Y-105510D01*
X65039Y-105966D01*
X64094Y-106692D01*
X63368Y-107638D01*
X62912Y-108739D01*
X62756Y-109921D01*
X62912Y-111103D01*
X63368Y-112205D01*
X64094Y-113150D01*
X65039Y-113876D01*
X66141Y-114332D01*
X67323Y-114488D01*
X68505Y-114332D01*
X69606Y-113876D01*
X70552Y-113150D01*
X71278Y-112205D01*
X71734Y-111103D01*
X71890Y-109921D01*
X71734Y-108739D01*
X71278Y-107638D01*
X70552Y-106692D01*
X69606Y-105966D01*
X68505Y-105510D01*
X67323Y-105355D01*
D02*
G37*
G36*
X57323D02*
X56141Y-105510D01*
X55040Y-105966D01*
X54094Y-106692D01*
X53368Y-107638D01*
X52912Y-108739D01*
X52756Y-109921D01*
X52912Y-111103D01*
X53368Y-112205D01*
X54094Y-113150D01*
X55040Y-113876D01*
X56141Y-114332D01*
X57323Y-114488D01*
X58505Y-114332D01*
X59606Y-113876D01*
X60552Y-113150D01*
X61278Y-112205D01*
X61734Y-111103D01*
X61889Y-109921D01*
X61734Y-108739D01*
X61278Y-107638D01*
X60552Y-106692D01*
X59606Y-105966D01*
X58505Y-105510D01*
X57323Y-105355D01*
D02*
G37*
G36*
X47323D02*
X46141Y-105510D01*
X45039Y-105966D01*
X44094Y-106692D01*
X43368Y-107638D01*
X42912Y-108739D01*
X42756Y-109921D01*
X42912Y-111103D01*
X43368Y-112205D01*
X44094Y-113150D01*
X45039Y-113876D01*
X46141Y-114332D01*
X47323Y-114488D01*
X48505Y-114332D01*
X49606Y-113876D01*
X50552Y-113150D01*
X51278Y-112205D01*
X51734Y-111103D01*
X51889Y-109921D01*
X51734Y-108739D01*
X51278Y-107638D01*
X50552Y-106692D01*
X49606Y-105966D01*
X48505Y-105510D01*
X47323Y-105355D01*
D02*
G37*
G36*
X37323D02*
X36141Y-105510D01*
X35039Y-105966D01*
X34094Y-106692D01*
X33368Y-107638D01*
X32912Y-108739D01*
X32756Y-109921D01*
X32912Y-111103D01*
X33368Y-112205D01*
X34094Y-113150D01*
X35039Y-113876D01*
X36141Y-114332D01*
X37323Y-114488D01*
X38505Y-114332D01*
X39606Y-113876D01*
X40552Y-113150D01*
X41278Y-112205D01*
X41734Y-111103D01*
X41890Y-109921D01*
X41734Y-108739D01*
X41278Y-107638D01*
X40552Y-106692D01*
X39606Y-105966D01*
X38505Y-105510D01*
X37323Y-105355D01*
D02*
G37*
G36*
X27323D02*
X26141Y-105510D01*
X25039Y-105966D01*
X24094Y-106692D01*
X23368Y-107638D01*
X22912Y-108739D01*
X22756Y-109921D01*
X22912Y-111103D01*
X23368Y-112205D01*
X24094Y-113150D01*
X25039Y-113876D01*
X26141Y-114332D01*
X27323Y-114488D01*
X28505Y-114332D01*
X29606Y-113876D01*
X30552Y-113150D01*
X31278Y-112205D01*
X31734Y-111103D01*
X31890Y-109921D01*
X31734Y-108739D01*
X31278Y-107638D01*
X30552Y-106692D01*
X29606Y-105966D01*
X28505Y-105510D01*
X27323Y-105355D01*
D02*
G37*
G36*
X17323D02*
X16141Y-105510D01*
X15040Y-105966D01*
X14094Y-106692D01*
X13368Y-107638D01*
X12912Y-108739D01*
X12756Y-109921D01*
X12912Y-111103D01*
X13368Y-112205D01*
X14094Y-113150D01*
X15040Y-113876D01*
X16141Y-114332D01*
X17323Y-114488D01*
X18505Y-114332D01*
X19606Y-113876D01*
X20552Y-113150D01*
X21278Y-112205D01*
X21734Y-111103D01*
X21890Y-109921D01*
X21734Y-108739D01*
X21278Y-107638D01*
X20552Y-106692D01*
X19606Y-105966D01*
X18505Y-105510D01*
X17323Y-105355D01*
D02*
G37*
G36*
X87323Y-105473D02*
X86141Y-105628D01*
X85040Y-106085D01*
X84094Y-106810D01*
X83368Y-107756D01*
X82912Y-108857D01*
X82756Y-110039D01*
X82912Y-111221D01*
X83368Y-112323D01*
X84094Y-113268D01*
X85040Y-113994D01*
X86141Y-114450D01*
X87323Y-114606D01*
X88505Y-114450D01*
X89606Y-113994D01*
X90552Y-113268D01*
X91278Y-112323D01*
X91734Y-111221D01*
X91890Y-110039D01*
X91734Y-108857D01*
X91278Y-107756D01*
X90552Y-106810D01*
X89606Y-106085D01*
X88505Y-105628D01*
X87323Y-105473D01*
D02*
G37*
G36*
X7323Y-110874D02*
X4426Y-113771D01*
X4940Y-114166D01*
X6089Y-114642D01*
X6743Y-114728D01*
Y-115233D01*
X6089Y-115319D01*
X4940Y-115795D01*
X4426Y-116189D01*
X7323Y-119086D01*
X10220Y-116189D01*
X9705Y-115795D01*
X8556Y-115319D01*
X7903Y-115233D01*
Y-114728D01*
X8556Y-114642D01*
X9705Y-114166D01*
X10220Y-113771D01*
X7323Y-110874D01*
D02*
G37*
G36*
X11055Y-117024D02*
X8158Y-119921D01*
X11055Y-122818D01*
X11450Y-122304D01*
X11926Y-121155D01*
X12088Y-119921D01*
X11926Y-118688D01*
X11450Y-117539D01*
X11055Y-117024D01*
D02*
G37*
G36*
X3591D02*
X3196Y-117539D01*
X2720Y-118688D01*
X2558Y-119921D01*
X2720Y-121155D01*
X3196Y-122304D01*
X3591Y-122818D01*
X6488Y-119921D01*
X3591Y-117024D01*
D02*
G37*
G36*
X117244Y-114961D02*
X116062Y-115117D01*
X114961Y-115573D01*
X114015Y-116298D01*
X113289Y-117244D01*
X112833Y-118346D01*
X112678Y-119528D01*
X112833Y-120710D01*
X113289Y-121811D01*
X114015Y-122757D01*
X114961Y-123482D01*
X116062Y-123939D01*
X117244Y-124094D01*
X118426Y-123939D01*
X119527Y-123482D01*
X120473Y-122757D01*
X121199Y-121811D01*
X121655Y-120710D01*
X121811Y-119528D01*
X121655Y-118346D01*
X121199Y-117244D01*
X120473Y-116298D01*
X119527Y-115573D01*
X118426Y-115117D01*
X117244Y-114961D01*
D02*
G37*
G36*
X107244D02*
X106062Y-115117D01*
X104961Y-115573D01*
X104015Y-116298D01*
X103289Y-117244D01*
X102833Y-118346D01*
X102678Y-119528D01*
X102833Y-120710D01*
X103289Y-121811D01*
X104015Y-122757D01*
X104961Y-123482D01*
X106062Y-123939D01*
X107244Y-124094D01*
X108426Y-123939D01*
X109527Y-123482D01*
X110473Y-122757D01*
X111199Y-121811D01*
X111655Y-120710D01*
X111811Y-119528D01*
X111655Y-118346D01*
X111199Y-117244D01*
X110473Y-116298D01*
X109527Y-115573D01*
X108426Y-115117D01*
X107244Y-114961D01*
D02*
G37*
G36*
X97244D02*
X96062Y-115117D01*
X94961Y-115573D01*
X94015Y-116298D01*
X93289Y-117244D01*
X92833Y-118346D01*
X92677Y-119528D01*
X92833Y-120710D01*
X93289Y-121811D01*
X94015Y-122757D01*
X94961Y-123482D01*
X96062Y-123939D01*
X97244Y-124094D01*
X98426Y-123939D01*
X99527Y-123482D01*
X100473Y-122757D01*
X101199Y-121811D01*
X101655Y-120710D01*
X101811Y-119528D01*
X101655Y-118346D01*
X101199Y-117244D01*
X100473Y-116298D01*
X99527Y-115573D01*
X98426Y-115117D01*
X97244Y-114961D01*
D02*
G37*
G36*
X87323Y-115355D02*
X86141Y-115510D01*
X85040Y-115966D01*
X84094Y-116692D01*
X83368Y-117638D01*
X82912Y-118739D01*
X82756Y-119921D01*
X82912Y-121103D01*
X83368Y-122205D01*
X84094Y-123150D01*
X85040Y-123876D01*
X86141Y-124332D01*
X87323Y-124488D01*
X88505Y-124332D01*
X89606Y-123876D01*
X90552Y-123150D01*
X91278Y-122205D01*
X91734Y-121103D01*
X91890Y-119921D01*
X91734Y-118739D01*
X91278Y-117638D01*
X90552Y-116692D01*
X89606Y-115966D01*
X88505Y-115510D01*
X87323Y-115355D01*
D02*
G37*
G36*
X77323D02*
X76141Y-115510D01*
X75039Y-115966D01*
X74094Y-116692D01*
X73368Y-117638D01*
X72912Y-118739D01*
X72756Y-119921D01*
X72912Y-121103D01*
X73368Y-122205D01*
X74094Y-123150D01*
X75039Y-123876D01*
X76141Y-124332D01*
X77323Y-124488D01*
X78505Y-124332D01*
X79606Y-123876D01*
X80552Y-123150D01*
X81278Y-122205D01*
X81734Y-121103D01*
X81889Y-119921D01*
X81734Y-118739D01*
X81278Y-117638D01*
X80552Y-116692D01*
X79606Y-115966D01*
X78505Y-115510D01*
X77323Y-115355D01*
D02*
G37*
G36*
X67323D02*
X66141Y-115510D01*
X65039Y-115966D01*
X64094Y-116692D01*
X63368Y-117638D01*
X62912Y-118739D01*
X62756Y-119921D01*
X62912Y-121103D01*
X63368Y-122205D01*
X64094Y-123150D01*
X65039Y-123876D01*
X66141Y-124332D01*
X67323Y-124488D01*
X68505Y-124332D01*
X69606Y-123876D01*
X70552Y-123150D01*
X71278Y-122205D01*
X71734Y-121103D01*
X71890Y-119921D01*
X71734Y-118739D01*
X71278Y-117638D01*
X70552Y-116692D01*
X69606Y-115966D01*
X68505Y-115510D01*
X67323Y-115355D01*
D02*
G37*
G36*
X47323D02*
X46141Y-115510D01*
X45039Y-115966D01*
X44094Y-116692D01*
X43368Y-117638D01*
X42912Y-118739D01*
X42756Y-119921D01*
X42912Y-121103D01*
X43368Y-122205D01*
X44094Y-123150D01*
X45039Y-123876D01*
X46141Y-124332D01*
X47323Y-124488D01*
X48505Y-124332D01*
X49606Y-123876D01*
X50552Y-123150D01*
X51278Y-122205D01*
X51734Y-121103D01*
X51889Y-119921D01*
X51734Y-118739D01*
X51278Y-117638D01*
X50552Y-116692D01*
X49606Y-115966D01*
X48505Y-115510D01*
X47323Y-115355D01*
D02*
G37*
G36*
X37281D02*
X36099Y-115510D01*
X34998Y-115966D01*
X34052Y-116692D01*
X33327Y-117638D01*
X32870Y-118739D01*
X32715Y-119921D01*
X32870Y-121103D01*
X33327Y-122205D01*
X34052Y-123150D01*
X34998Y-123876D01*
X36099Y-124332D01*
X37281Y-124488D01*
X38463Y-124332D01*
X39565Y-123876D01*
X40510Y-123150D01*
X41236Y-122205D01*
X41692Y-121103D01*
X41848Y-119921D01*
X41692Y-118739D01*
X41236Y-117638D01*
X40510Y-116692D01*
X39565Y-115966D01*
X38463Y-115510D01*
X37281Y-115355D01*
D02*
G37*
G36*
X27323D02*
X26141Y-115510D01*
X25039Y-115966D01*
X24094Y-116692D01*
X23368Y-117638D01*
X22912Y-118739D01*
X22756Y-119921D01*
X22912Y-121103D01*
X23368Y-122205D01*
X24094Y-123150D01*
X25039Y-123876D01*
X26141Y-124332D01*
X27323Y-124488D01*
X28505Y-124332D01*
X29606Y-123876D01*
X30552Y-123150D01*
X31278Y-122205D01*
X31734Y-121103D01*
X31890Y-119921D01*
X31734Y-118739D01*
X31278Y-117638D01*
X30552Y-116692D01*
X29606Y-115966D01*
X28505Y-115510D01*
X27323Y-115355D01*
D02*
G37*
G36*
X17323D02*
X16141Y-115510D01*
X15040Y-115966D01*
X14094Y-116692D01*
X13368Y-117638D01*
X12912Y-118739D01*
X12756Y-119921D01*
X12912Y-121103D01*
X13368Y-122205D01*
X14094Y-123150D01*
X15040Y-123876D01*
X16141Y-124332D01*
X17323Y-124488D01*
X18505Y-124332D01*
X19606Y-123876D01*
X20552Y-123150D01*
X21278Y-122205D01*
X21734Y-121103D01*
X21890Y-119921D01*
X21734Y-118739D01*
X21278Y-117638D01*
X20552Y-116692D01*
X19606Y-115966D01*
X18505Y-115510D01*
X17323Y-115355D01*
D02*
G37*
G36*
X7323Y-120756D02*
X4426Y-123653D01*
X4940Y-124048D01*
X6089Y-124524D01*
X7323Y-124686D01*
X8556Y-124524D01*
X9705Y-124048D01*
X10220Y-123653D01*
X7323Y-120756D01*
D02*
G37*
G36*
X57323Y-115660D02*
X56141Y-115815D01*
X55040Y-116272D01*
X54094Y-116997D01*
X53368Y-117943D01*
X52912Y-119044D01*
X52756Y-120226D01*
X52912Y-121408D01*
X53368Y-122510D01*
X54094Y-123456D01*
X55040Y-124181D01*
X56141Y-124637D01*
X57323Y-124793D01*
X58505Y-124637D01*
X59606Y-124181D01*
X60552Y-123456D01*
X61278Y-122510D01*
X61734Y-121408D01*
X61889Y-120226D01*
X61734Y-119044D01*
X61278Y-117943D01*
X60552Y-116997D01*
X59606Y-116272D01*
X58505Y-115815D01*
X57323Y-115660D01*
D02*
G37*
G36*
X283543Y-165914D02*
X282618Y-166036D01*
X281756Y-166393D01*
X281489Y-166598D01*
X283543Y-168653D01*
X285598Y-166598D01*
X285330Y-166393D01*
X284468Y-166036D01*
X283543Y-165914D01*
D02*
G37*
G36*
X106218Y-155674D02*
X104411D01*
X104334Y-155689D01*
X104255D01*
X102483Y-156042D01*
X102410Y-156072D01*
X102332Y-156087D01*
X100663Y-156779D01*
X100597Y-156823D01*
X100524Y-156853D01*
X99021Y-157857D01*
X98965Y-157913D01*
X98900Y-157957D01*
X97622Y-159234D01*
X97578Y-159300D01*
X97522Y-159356D01*
X96518Y-160858D01*
X96488Y-160932D01*
X96444Y-160997D01*
X95753Y-162667D01*
X95737Y-162744D01*
X95707Y-162817D01*
X95354Y-164590D01*
Y-164669D01*
X95339Y-164746D01*
Y-166553D01*
X95354Y-166631D01*
Y-166710D01*
X95707Y-168482D01*
X95737Y-168555D01*
X95753Y-168633D01*
X96444Y-170302D01*
X96488Y-170368D01*
X96518Y-170441D01*
X97522Y-171943D01*
X97578Y-171999D01*
X97622Y-172065D01*
X98900Y-173343D01*
X98965Y-173387D01*
X99021Y-173442D01*
X100524Y-174446D01*
X100597Y-174477D01*
X100663Y-174521D01*
X102332Y-175212D01*
X102410Y-175227D01*
X102483Y-175258D01*
X104255Y-175610D01*
X104334D01*
X104411Y-175626D01*
X106218D01*
X106296Y-175610D01*
X106375D01*
X108147Y-175258D01*
X108220Y-175227D01*
X108298Y-175212D01*
X109967Y-174521D01*
X110033Y-174477D01*
X110106Y-174446D01*
X111609Y-173442D01*
X111664Y-173387D01*
X111730Y-173343D01*
X113008Y-172065D01*
X113052Y-171999D01*
X113108Y-171943D01*
X114112Y-170441D01*
X114142Y-170368D01*
X114186Y-170302D01*
X114877Y-168633D01*
X114893Y-168555D01*
X114923Y-168482D01*
X115276Y-166710D01*
Y-166631D01*
X115291Y-166553D01*
Y-164746D01*
X115276Y-164669D01*
Y-164590D01*
X114923Y-162817D01*
X114893Y-162744D01*
X114877Y-162667D01*
X114186Y-160997D01*
X114142Y-160932D01*
X114112Y-160858D01*
X113108Y-159356D01*
X113052Y-159300D01*
X113008Y-159234D01*
X111730Y-157957D01*
X111664Y-157913D01*
X111609Y-157857D01*
X110106Y-156853D01*
X110033Y-156823D01*
X109967Y-156779D01*
X108298Y-156087D01*
X108220Y-156072D01*
X108147Y-156042D01*
X106375Y-155689D01*
X106296D01*
X106218Y-155674D01*
D02*
G37*
G36*
X280654Y-167434D02*
X280448Y-167701D01*
X280091Y-168563D01*
X279969Y-169488D01*
Y-173819D01*
X280091Y-174744D01*
X280448Y-175606D01*
X280654Y-175873D01*
X283126Y-173401D01*
X283543Y-173819D01*
X283961Y-173401D01*
X286433Y-175873D01*
X286638Y-175606D01*
X286995Y-174744D01*
X287117Y-173819D01*
Y-169488D01*
X286995Y-168563D01*
X286638Y-167701D01*
X286433Y-167434D01*
X283961Y-169906D01*
X283543Y-169488D01*
X283126Y-169906D01*
X280654Y-167434D01*
D02*
G37*
G36*
X283543Y-174654D02*
X281489Y-176709D01*
X281756Y-176914D01*
X282618Y-177271D01*
X283543Y-177393D01*
X284468Y-177271D01*
X285330Y-176914D01*
X285598Y-176709D01*
X283543Y-174654D01*
D02*
G37*
%LPD*%
D21*
X273481Y-19291D02*
X273023Y-18357D01*
X272004Y-18148D01*
X271251Y-19833D02*
X272041Y-20444D01*
X273038Y-20214D01*
X273481Y-19291D01*
X272004Y-18148D02*
X271259Y-18734D01*
X271184Y-19679D01*
X271251Y-19833D01*
X315669Y-201181D02*
X316504Y-200835D01*
X316850Y-200000D01*
X316504Y-199165D01*
X315669Y-198819D01*
X314834Y-199165D01*
X314488Y-200000D01*
X314834Y-200835D01*
X315669Y-201181D01*
X95669Y-197736D02*
X96504Y-197390D01*
X96850Y-196555D01*
X96504Y-195720D01*
X95669Y-195374D01*
X94834Y-195720D01*
X94488Y-196555D01*
X94834Y-197390D01*
X95669Y-197736D01*
X105669D02*
X106504Y-197390D01*
X106850Y-196555D01*
X106504Y-195720D01*
X105669Y-195374D01*
X104834Y-195720D01*
X104488Y-196555D01*
X104834Y-197390D01*
X105669Y-197736D01*
X266850Y-196555D02*
X266406Y-195632D01*
X265406Y-195404D01*
X264605Y-196043D01*
Y-197068D01*
X265406Y-197707D01*
X266406Y-197478D01*
X266850Y-196555D01*
X336850Y-200000D02*
X336406Y-199077D01*
X335406Y-198848D01*
X334605Y-199487D01*
Y-200513D01*
X335406Y-201151D01*
X336406Y-200923D01*
X336850Y-200000D01*
X306850Y-196555D02*
X306406Y-195632D01*
X305406Y-195404D01*
X304605Y-196043D01*
Y-197068D01*
X305406Y-197707D01*
X306406Y-197478D01*
X306850Y-196555D01*
X286850D02*
X286406Y-195632D01*
X285406Y-195404D01*
X284605Y-196043D01*
Y-197068D01*
X285406Y-197707D01*
X286406Y-197478D01*
X286850Y-196555D01*
X296850Y-196457D02*
X296406Y-195533D01*
X295407Y-195305D01*
X294605Y-195944D01*
Y-196969D01*
X295407Y-197608D01*
X296406Y-197380D01*
X296850Y-196457D01*
D22*
X273777Y-19291D02*
D03*
X107146Y-196555D02*
D03*
D23*
X95669Y-198031D02*
D03*
X265669D02*
D03*
X335669Y-198524D02*
D03*
X305669Y-198031D02*
D03*
X285669Y-195079D02*
D03*
X295669Y-194980D02*
D03*
X315669Y-201476D02*
D03*
D24*
X125669Y-229602D02*
D03*
D25*
X255669Y-231102D02*
D03*
X145669D02*
D03*
X215669D02*
D03*
X275669D02*
D03*
X205669D02*
D03*
X265669D02*
D03*
X225669D02*
D03*
X195669D02*
D03*
X175669D02*
D03*
X185669D02*
D03*
X235669D02*
D03*
X285669D02*
D03*
X155669D02*
D03*
X245669D02*
D03*
X165669D02*
D03*
X305669D02*
D03*
X295669D02*
D03*
X335669D02*
D03*
X325669D02*
D03*
X315669D02*
D03*
X135669D02*
D03*
X105669D02*
D03*
X95669D02*
D03*
X115669D02*
D03*
D26*
X258661Y-150000D02*
Y-149893D01*
Y-155055D02*
Y-150000D01*
X270079Y-21260D02*
X270661Y-20677D01*
X264173Y-21260D02*
X270079D01*
X270661Y-20677D02*
X271836Y-19502D01*
X274194Y-17144D01*
Y-15326D01*
X325669Y-229528D02*
Y-202362D01*
X285118Y-161811D02*
X325669Y-202362D01*
X258661Y-155055D02*
X265417Y-161811D01*
X270168Y-76144D02*
X273543Y-79519D01*
Y-111024D02*
Y-79519D01*
X273090Y-73782D02*
X277165Y-77858D01*
Y-101969D02*
Y-77858D01*
X268504Y-104748D02*
X270962Y-102290D01*
X268504Y-163569D02*
Y-104748D01*
X263543Y-168529D02*
X268504Y-163569D01*
X270962Y-102290D02*
Y-81496D01*
X271654Y-124516D02*
Y-124409D01*
X135669Y-229528D02*
Y-206929D01*
X126772Y-198031D02*
X135669Y-206929D01*
X126772Y-198031D02*
Y-100787D01*
X131890Y-95669D01*
X129409Y-167520D02*
Y-103228D01*
X133543Y-199587D02*
Y-171653D01*
X129409Y-167520D02*
X133543Y-171653D01*
X129409Y-103228D02*
X143307Y-89331D01*
X253543Y-61811D02*
Y-54724D01*
Y-63976D02*
Y-61811D01*
X258661Y-149893D02*
X258858Y-149697D01*
Y-69291D01*
X253543Y-63976D02*
X258858Y-69291D01*
X253543Y-102256D02*
X256299Y-105011D01*
Y-105119D02*
Y-105011D01*
X262205Y-99713D02*
Y-99606D01*
Y-99713D02*
X263543Y-101051D01*
Y-111024D02*
Y-101051D01*
X271654Y-124516D02*
X273543Y-126406D01*
Y-171653D02*
Y-126406D01*
X253543Y-102256D02*
Y-92913D01*
X163502Y-92872D02*
X163543Y-92913D01*
X193543Y-61811D02*
Y-59646D01*
X213543Y-92913D02*
X213779Y-92677D01*
X263543Y-171653D02*
Y-168529D01*
X218504Y-69291D02*
Y-56299D01*
Y-69291D02*
X221654Y-72441D01*
X232865Y-68692D02*
Y-54519D01*
X238583Y-124081D02*
Y-74410D01*
X232865Y-68692D02*
X238583Y-74410D01*
X228346Y-148425D02*
Y-74016D01*
X223543Y-69213D02*
X228346Y-74016D01*
X223543Y-69213D02*
Y-61811D01*
X212865Y-69165D02*
Y-54204D01*
X218504Y-115748D02*
Y-74803D01*
X212865Y-69165D02*
X218504Y-74803D01*
X203543Y-63940D02*
Y-55512D01*
X214173Y-51968D02*
X218504Y-56299D01*
X214173Y-51968D02*
Y-44724D01*
X213543Y-44094D02*
X214173Y-44724D01*
X203543Y-63940D02*
X208268Y-68664D01*
X243543Y-61811D02*
Y-56929D01*
X238583Y-51968D02*
X243543Y-56929D01*
X238583Y-51968D02*
Y-19291D01*
X228740Y-50394D02*
X232865Y-54519D01*
X228740Y-50394D02*
Y-19002D01*
X223543Y-61811D02*
Y-54646D01*
X218898Y-50000D02*
X223543Y-54646D01*
X218898Y-50000D02*
Y-17638D01*
X277165Y-101969D02*
X283543Y-108346D01*
Y-111024D02*
Y-108346D01*
X198425Y-113917D02*
Y-74016D01*
X194095Y-69685D02*
X198425Y-74016D01*
X208268Y-142126D02*
Y-68664D01*
X201969Y-69685D02*
X205669D01*
X198425Y-66142D02*
X201969Y-69685D01*
X198425Y-66142D02*
Y-56299D01*
X194095Y-51968D02*
X198425Y-56299D01*
X189252Y-51968D02*
X194095D01*
X183543Y-46260D02*
X189252Y-51968D01*
X253259Y-70079D02*
X253543D01*
X242989Y-43540D02*
X243543Y-44094D01*
X198425Y-50394D02*
X203543Y-55512D01*
X198425Y-50394D02*
Y-20276D01*
X183543Y-46260D02*
Y-44094D01*
X238976Y-130315D02*
X241339Y-132677D01*
Y-165905D02*
Y-132677D01*
Y-165905D02*
X242865Y-167432D01*
X238583Y-124081D02*
X244488Y-129986D01*
Y-162205D02*
Y-129986D01*
X246850Y-120079D02*
X251181Y-124409D01*
Y-162280D02*
Y-124409D01*
Y-162280D02*
X252865Y-163965D01*
X243543Y-122050D02*
X248031Y-126538D01*
Y-198819D02*
Y-126538D01*
X240551Y-206299D02*
X248031Y-198819D01*
X248819Y-115354D02*
X253937Y-120473D01*
Y-156299D02*
Y-120473D01*
Y-156299D02*
X258661Y-161024D01*
X243543Y-122050D02*
Y-111024D01*
X252865Y-170976D02*
Y-163965D01*
Y-170976D02*
X253543Y-171653D01*
X231299Y-159460D02*
Y-151378D01*
X228346Y-148425D02*
X231299Y-151378D01*
X188583Y-127953D02*
X190945Y-130315D01*
X171260Y-119685D02*
Y-119685D01*
X181496Y-160630D02*
Y-120079D01*
X184055Y-153347D02*
Y-111535D01*
X188583Y-127953D02*
Y-103937D01*
X184221Y-99576D02*
X188583Y-103937D01*
X238976Y-130315D02*
Y-130315D01*
X184221Y-99576D02*
Y-93591D01*
X183543Y-92913D02*
X184221Y-93591D01*
X255118Y-21366D02*
Y-21260D01*
X253543Y-22941D02*
X255118Y-21366D01*
X253543Y-44094D02*
Y-22941D01*
X248819Y-115354D02*
Y-72441D01*
X243543Y-67165D02*
X248819Y-72441D01*
X243543Y-67165D02*
Y-61811D01*
X248543Y-65363D02*
X253259Y-70079D01*
X248543Y-65363D02*
Y-56620D01*
X243892Y-51968D02*
X248543Y-56620D01*
X243892Y-51968D02*
Y-44443D01*
X243543Y-44094D02*
X243892Y-44443D01*
X170791Y-68665D02*
X170866Y-68740D01*
X168232Y-68665D02*
X170791D01*
X163543Y-63976D02*
X168232Y-68665D01*
X163543Y-63976D02*
Y-61811D01*
X168898Y-97933D02*
Y-76378D01*
X167618Y-99213D02*
X168898Y-97933D01*
X173543Y-71732D02*
Y-61811D01*
X168898Y-76378D02*
X173543Y-71732D01*
X150984Y-165264D02*
Y-118701D01*
X148425Y-116142D02*
X150984Y-118701D01*
X148425Y-116142D02*
Y-106223D01*
X158071Y-96578D01*
X148425Y-197244D02*
Y-121407D01*
X143543Y-116526D02*
X148425Y-121407D01*
X143543Y-116526D02*
Y-111024D01*
X154724Y-163386D02*
Y-112205D01*
X153543Y-111024D02*
X154724Y-112205D01*
X153543Y-171653D02*
Y-167823D01*
X150984Y-165264D02*
X153543Y-167823D01*
X208661Y-50000D02*
X212865Y-54204D01*
X208661Y-50000D02*
Y-19081D01*
X198425Y-113917D02*
X199606Y-115098D01*
Y-127166D02*
Y-115098D01*
X203543Y-146838D02*
Y-111024D01*
Y-146838D02*
X208661Y-151956D01*
X216141Y-127666D02*
Y-127166D01*
Y-127666D02*
X216535Y-128060D01*
Y-160236D02*
Y-128060D01*
X219094Y-169594D02*
Y-124713D01*
X218504Y-124122D02*
X219094Y-124713D01*
X218504Y-124122D02*
Y-124016D01*
X208268Y-142126D02*
X213543Y-147402D01*
X193543Y-153779D02*
Y-111024D01*
Y-153779D02*
X198425Y-158661D01*
X218504Y-170184D02*
X219094Y-169594D01*
X218504Y-180709D02*
Y-170184D01*
X138189Y-35827D02*
X144488Y-29528D01*
X138189Y-59646D02*
Y-35827D01*
X143307Y-35394D02*
X163543Y-15157D01*
X143307Y-89331D02*
Y-35394D01*
X163543Y-15157D02*
Y-12992D01*
X179173Y-29528D02*
X193543Y-15157D01*
X163386Y-29528D02*
X179173D01*
X163385Y-24804D02*
X173897D01*
X158071Y-30118D02*
X163385Y-24804D01*
X158071Y-96578D02*
Y-30118D01*
X146457Y-37008D02*
X162205Y-21260D01*
X146457Y-94095D02*
Y-37008D01*
X131890Y-95669D02*
Y-20866D01*
X147441Y-5315D01*
X193543Y-15157D02*
Y-12992D01*
X147441Y-5315D02*
X258032D01*
X139409Y-117756D02*
X143543Y-121890D01*
X139409Y-101142D02*
X146457Y-94095D01*
X139409Y-117756D02*
Y-101142D01*
X162205Y-21260D02*
X169291D01*
X173543Y-17008D02*
Y-12992D01*
X169291Y-21260D02*
X173543Y-17008D01*
X173897Y-24804D02*
X183543Y-15157D01*
Y-12992D01*
X218898Y-17638D02*
X223543Y-12992D01*
X315669Y-201476D02*
Y-201181D01*
Y-200000D01*
X95669Y-197736D02*
Y-196555D01*
Y-198031D02*
Y-197736D01*
Y-231102D02*
Y-198031D01*
Y-231496D02*
Y-231102D01*
X105669Y-197736D02*
Y-196555D01*
Y-231102D02*
Y-197736D01*
Y-231496D02*
Y-231102D01*
X258032Y-5315D02*
X263543Y-10827D01*
X295669Y-231496D02*
Y-197889D01*
X195988Y-229209D02*
Y-202437D01*
X168898Y-175495D02*
X185669Y-192267D01*
X155669Y-229528D02*
Y-215328D01*
X245669Y-211811D02*
X248425Y-209055D01*
Y-203937D01*
X255512Y-200394D02*
X255587Y-200469D01*
Y-229445D02*
Y-200469D01*
X215669Y-229528D02*
Y-205827D01*
X195988Y-202437D02*
X196063Y-202362D01*
X149606Y-209265D02*
X155669Y-215328D01*
X255587Y-229445D02*
X255669Y-229528D01*
X285669Y-231496D02*
Y-197908D01*
X195669Y-229528D02*
X195988Y-229209D01*
X165669Y-229528D02*
Y-198110D01*
X255118Y-162705D02*
Y-162598D01*
X149606Y-209265D02*
Y-205512D01*
X145669Y-229528D02*
Y-187008D01*
X258661Y-180709D02*
Y-166248D01*
X175669Y-229528D02*
Y-194961D01*
X168898Y-122047D02*
X171260Y-119685D01*
X285483Y-197721D02*
X285669Y-197908D01*
X335669Y-231496D02*
Y-201181D01*
X125669Y-228028D02*
Y-216614D01*
X208661Y-198819D02*
X215669Y-205827D01*
X255118Y-162705D02*
X258661Y-166248D01*
X335669Y-201181D02*
Y-200000D01*
X258661Y-180709D02*
X275669Y-197716D01*
X245669Y-229528D02*
Y-211811D01*
X185669Y-229528D02*
Y-192267D01*
X125197Y-216142D02*
X125669Y-216614D01*
X208661Y-198819D02*
Y-188976D01*
X295669Y-197889D02*
X295669Y-197889D01*
X275669Y-229528D02*
Y-197716D01*
X168898Y-175495D02*
Y-122047D01*
X233661Y-115433D02*
Y-111142D01*
X135728Y-201476D02*
X135827Y-201575D01*
X135433Y-201476D02*
X135728D01*
X133543Y-199587D02*
X135433Y-201476D01*
X168504Y-118822D02*
Y-107874D01*
X159449Y-98819D02*
X168504Y-107874D01*
X158661Y-194882D02*
Y-118071D01*
X139961Y-205315D02*
X140157Y-205512D01*
X142913Y-206375D02*
Y-183465D01*
X142595Y-208192D02*
Y-206693D01*
X139961Y-205315D02*
Y-178310D01*
X142595Y-206693D02*
X142913Y-206375D01*
X142520Y-208268D02*
X142595Y-208192D01*
X155905Y-209055D02*
Y-208949D01*
X153543Y-206586D02*
X155905Y-208949D01*
X153543Y-206586D02*
Y-171653D01*
X163386Y-187008D02*
X163461Y-186145D01*
Y-171736D01*
X163543Y-123783D02*
X168504Y-118822D01*
X184055Y-153347D02*
X188583Y-157874D01*
Y-178347D02*
Y-157874D01*
X183543Y-111024D02*
X184055Y-111535D01*
X233661Y-156890D02*
X238189Y-161417D01*
Y-191841D02*
Y-161417D01*
X235669Y-194361D02*
X238189Y-191841D01*
X242865Y-170976D02*
Y-167432D01*
X233661Y-156890D02*
Y-115433D01*
X233543Y-111024D02*
X233661Y-111142D01*
X242865Y-170976D02*
X243543Y-171653D01*
X233543Y-115433D02*
Y-111024D01*
X222835Y-162598D02*
Y-120079D01*
X218504Y-115748D02*
X222835Y-120079D01*
X233543Y-44094D02*
X234103Y-44654D01*
X238583Y-19291D02*
X243543Y-14331D01*
X149409Y-86614D02*
Y-50394D01*
X152386Y-47417D01*
X149409Y-86614D02*
X153543Y-90748D01*
Y-92913D02*
Y-90748D01*
X163543Y-171653D02*
Y-123783D01*
X178740Y-178110D02*
Y-119685D01*
X173543Y-114488D02*
X178740Y-119685D01*
X173543Y-114488D02*
Y-111024D01*
X178740Y-178110D02*
X205669Y-205039D01*
X188583Y-98032D02*
Y-68937D01*
X178347Y-98032D02*
Y-69173D01*
X152386Y-47417D02*
Y-44512D01*
X143543Y-171653D02*
Y-121890D01*
X178347Y-69173D02*
X183543Y-63976D01*
X163543Y-111024D02*
Y-108858D01*
Y-113189D02*
Y-111024D01*
X158661Y-118071D02*
X163543Y-113189D01*
X139961Y-178310D02*
X143543Y-174727D01*
Y-171653D01*
X163461Y-171736D02*
X163543Y-171653D01*
X168898Y-180315D02*
X172047Y-183465D01*
Y-205906D02*
Y-183465D01*
X248425Y-49606D02*
X253543Y-54724D01*
X248425Y-49606D02*
Y-19685D01*
X258661Y-50000D02*
Y-19291D01*
Y-50000D02*
X263543Y-54882D01*
Y-61811D02*
Y-54882D01*
X248425Y-19685D02*
X253543Y-14567D01*
X258661Y-19291D02*
X263543Y-14410D01*
X253543Y-14567D02*
Y-12992D01*
X263543Y-14410D02*
Y-12992D01*
Y-10827D01*
X243543Y-14331D02*
Y-12992D01*
X231299Y-159460D02*
X233543Y-161705D01*
Y-161811D02*
Y-161705D01*
X213543Y-182283D02*
Y-171653D01*
Y-182283D02*
X215905Y-184646D01*
X223228D01*
X208661Y-19081D02*
X213543Y-14199D01*
X233543D02*
Y-12992D01*
X213543Y-14199D02*
Y-12992D01*
X228740Y-19002D02*
X233543Y-14199D01*
X213543Y-162598D02*
Y-147402D01*
X228740Y-183053D02*
Y-152756D01*
X228346Y-183446D02*
X228740Y-183053D01*
X188583Y-68937D02*
X193543Y-63976D01*
Y-61811D01*
X183543Y-63976D02*
Y-61811D01*
X153543Y-111024D02*
Y-108858D01*
X208661Y-177953D02*
Y-151956D01*
X201181Y-185433D02*
X208661Y-177953D01*
X233543Y-190079D02*
Y-171653D01*
X225669Y-197953D02*
X233543Y-190079D01*
X198425Y-180709D02*
Y-158661D01*
X188583Y-178347D02*
X205669Y-195433D01*
X225669Y-229528D02*
Y-197953D01*
X235669Y-229528D02*
Y-194361D01*
X305669Y-231496D02*
Y-198031D01*
X205669Y-229528D02*
Y-205039D01*
X198425Y-20276D02*
X203543Y-15157D01*
Y-12992D01*
X265669Y-198031D02*
Y-197736D01*
Y-231496D02*
Y-198031D01*
X305669D02*
Y-197736D01*
X315669Y-231102D02*
Y-201476D01*
D27*
X115669Y-229528D02*
X115813Y-229384D01*
Y-203478D01*
X117323Y-201969D01*
X124016D02*
X125669Y-203622D01*
X117323Y-201969D02*
X124016D01*
X125669Y-215669D02*
Y-203622D01*
X125197Y-216142D02*
X125669Y-215669D01*
D28*
X351024Y-128740D02*
D03*
X361024D02*
D03*
X371024D02*
D03*
X381024D02*
D03*
Y-138679D02*
D03*
X371198Y-139205D02*
D03*
X361024Y-139142D02*
D03*
X351024Y-138679D02*
D03*
X381024Y-148723D02*
D03*
X371024Y-148740D02*
D03*
X361024Y-148723D02*
D03*
X351024Y-148740D02*
D03*
Y-108740D02*
D03*
X361024D02*
D03*
X371024D02*
D03*
X381024Y-108858D02*
D03*
Y-118740D02*
D03*
X371024D02*
D03*
X361024D02*
D03*
X351024Y-119045D02*
D03*
X130091Y-9449D02*
D03*
X284646Y-26772D02*
D03*
X274157Y-11811D02*
D03*
X284646Y-16535D02*
D03*
Y-6693D02*
D03*
X97244Y-9528D02*
D03*
X107244D02*
D03*
X117244D02*
D03*
Y-19464D02*
D03*
X107244Y-19523D02*
D03*
X97244D02*
D03*
Y-39528D02*
D03*
X107418Y-39521D02*
D03*
X117244Y-39528D02*
D03*
Y-29528D02*
D03*
X107418D02*
D03*
X97244D02*
D03*
X97418Y-69528D02*
D03*
X107418D02*
D03*
X117244D02*
D03*
Y-79528D02*
D03*
X107418Y-79521D02*
D03*
X97244Y-79456D02*
D03*
X97418Y-59464D02*
D03*
X107418Y-59528D02*
D03*
X117244D02*
D03*
Y-49528D02*
D03*
X107418D02*
D03*
X97244Y-49575D02*
D03*
Y-109528D02*
D03*
X107244D02*
D03*
X117244Y-109646D02*
D03*
Y-119528D02*
D03*
X107244D02*
D03*
X97244D02*
D03*
Y-99606D02*
D03*
X107418D02*
D03*
X117244Y-99528D02*
D03*
Y-89507D02*
D03*
X107418Y-89528D02*
D03*
X97244Y-89507D02*
D03*
X7323Y-9921D02*
D03*
X17323D02*
D03*
X27323D02*
D03*
X37323D02*
D03*
X47323D02*
D03*
Y-19921D02*
D03*
X37323D02*
D03*
X27323Y-19858D02*
D03*
X17323Y-20183D02*
D03*
X7323D02*
D03*
Y-40211D02*
D03*
X17323Y-40187D02*
D03*
X27323Y-39850D02*
D03*
X37323Y-39915D02*
D03*
X47323Y-39921D02*
D03*
Y-29921D02*
D03*
X37323D02*
D03*
X27323D02*
D03*
X17323D02*
D03*
X7323D02*
D03*
Y-69921D02*
D03*
X17323D02*
D03*
X27323D02*
D03*
X37323D02*
D03*
X47323D02*
D03*
Y-79921D02*
D03*
X37323Y-79915D02*
D03*
X27323Y-79850D02*
D03*
X17323Y-79921D02*
D03*
X7323D02*
D03*
Y-60183D02*
D03*
X17323D02*
D03*
X27323Y-59858D02*
D03*
X37323Y-59921D02*
D03*
X47323D02*
D03*
Y-49921D02*
D03*
X37323D02*
D03*
X27323D02*
D03*
X17323D02*
D03*
X7323D02*
D03*
Y-110039D02*
D03*
X17323Y-109921D02*
D03*
X27323D02*
D03*
X37323D02*
D03*
X47323D02*
D03*
Y-119921D02*
D03*
X37281D02*
D03*
X27323D02*
D03*
X17323D02*
D03*
X7323D02*
D03*
Y-100000D02*
D03*
X17323D02*
D03*
X27282Y-99921D02*
D03*
X37281Y-100000D02*
D03*
X47323Y-99921D02*
D03*
Y-89901D02*
D03*
X37281Y-89921D02*
D03*
X27323Y-89901D02*
D03*
X17323Y-89921D02*
D03*
X7323D02*
D03*
X57323D02*
D03*
X67323Y-89901D02*
D03*
X77497Y-89921D02*
D03*
X87323Y-89901D02*
D03*
Y-99921D02*
D03*
X77497Y-100000D02*
D03*
X67323D02*
D03*
X57323D02*
D03*
Y-120226D02*
D03*
X67323Y-119921D02*
D03*
X77323D02*
D03*
X87323D02*
D03*
Y-110039D02*
D03*
X77323Y-109921D02*
D03*
X67323D02*
D03*
X57323D02*
D03*
Y-49969D02*
D03*
X67323D02*
D03*
X77497Y-49921D02*
D03*
X87323D02*
D03*
Y-59921D02*
D03*
X77497D02*
D03*
X67497Y-59858D02*
D03*
X57497Y-60183D02*
D03*
X57323Y-79915D02*
D03*
X67323Y-79850D02*
D03*
X77497Y-79915D02*
D03*
X87323Y-79921D02*
D03*
Y-69921D02*
D03*
X77497D02*
D03*
X67497D02*
D03*
X57323D02*
D03*
Y-29921D02*
D03*
X67323D02*
D03*
X77497D02*
D03*
X87323D02*
D03*
Y-39921D02*
D03*
X77497Y-39915D02*
D03*
X67323Y-39921D02*
D03*
X57323D02*
D03*
Y-19917D02*
D03*
X67323D02*
D03*
X77323D02*
D03*
X87323Y-19858D02*
D03*
Y-9921D02*
D03*
X77323D02*
D03*
X67323D02*
D03*
X57323Y-9843D02*
D03*
X51085Y-168740D02*
D03*
X61085D02*
D03*
X71085D02*
D03*
X81085D02*
D03*
Y-178740D02*
D03*
X71085Y-178677D02*
D03*
X61085Y-179002D02*
D03*
X51085D02*
D03*
X81085Y-188740D02*
D03*
X71085D02*
D03*
X61085D02*
D03*
X51085D02*
D03*
X351024Y-158661D02*
D03*
X361024Y-158740D02*
D03*
X371024Y-158661D02*
D03*
X381024D02*
D03*
X351024Y-188740D02*
D03*
X361024D02*
D03*
X371024D02*
D03*
X381024Y-188798D02*
D03*
X351024Y-178740D02*
D03*
X361024D02*
D03*
X371024D02*
D03*
X381024D02*
D03*
Y-168665D02*
D03*
X371024D02*
D03*
X361024Y-168740D02*
D03*
X351451Y-168665D02*
D03*
X351024Y-8661D02*
D03*
X361024Y-8740D02*
D03*
X371024D02*
D03*
X381024D02*
D03*
Y-18677D02*
D03*
X371024Y-18736D02*
D03*
X361024D02*
D03*
X351024D02*
D03*
Y-38740D02*
D03*
X361024D02*
D03*
X371198Y-38734D02*
D03*
X381024Y-38740D02*
D03*
Y-28740D02*
D03*
X371198D02*
D03*
X361024D02*
D03*
X351024D02*
D03*
Y-68740D02*
D03*
X361198D02*
D03*
X371198D02*
D03*
X381024D02*
D03*
Y-78740D02*
D03*
X371198Y-78734D02*
D03*
X361024Y-78669D02*
D03*
X351024Y-78734D02*
D03*
X351198Y-59002D02*
D03*
X361198Y-58677D02*
D03*
X371198Y-58740D02*
D03*
X381024D02*
D03*
Y-48740D02*
D03*
X371198D02*
D03*
X361024Y-48788D02*
D03*
X351024D02*
D03*
Y-98819D02*
D03*
X361024D02*
D03*
X371198D02*
D03*
X381024Y-98740D02*
D03*
Y-88720D02*
D03*
X371198Y-88740D02*
D03*
X361024Y-88720D02*
D03*
X351024Y-88740D02*
D03*
X301024D02*
D03*
X311024D02*
D03*
X321024Y-88720D02*
D03*
X330982Y-88740D02*
D03*
X341024Y-88720D02*
D03*
Y-98740D02*
D03*
X330982Y-98819D02*
D03*
X320983Y-98740D02*
D03*
X311024Y-98819D02*
D03*
X301024D02*
D03*
Y-48740D02*
D03*
X311024D02*
D03*
X321024D02*
D03*
X331024D02*
D03*
X341024D02*
D03*
Y-58740D02*
D03*
X331024D02*
D03*
X321024Y-58677D02*
D03*
X311024Y-59002D02*
D03*
X301024D02*
D03*
Y-78740D02*
D03*
X311024D02*
D03*
X321024Y-78669D02*
D03*
X331024Y-78734D02*
D03*
X341024Y-78740D02*
D03*
Y-68740D02*
D03*
X331024D02*
D03*
X321024D02*
D03*
X311024D02*
D03*
X301024D02*
D03*
Y-28740D02*
D03*
X311024D02*
D03*
X321024D02*
D03*
X331024D02*
D03*
X341024D02*
D03*
Y-38740D02*
D03*
X331024Y-38734D02*
D03*
X321024Y-38669D02*
D03*
X311024Y-39006D02*
D03*
X301024Y-39030D02*
D03*
Y-19002D02*
D03*
X311024D02*
D03*
X321024Y-18677D02*
D03*
X331024Y-18740D02*
D03*
X341024D02*
D03*
Y-8740D02*
D03*
X331024D02*
D03*
X321024D02*
D03*
X311024D02*
D03*
X301024D02*
D03*
D29*
X263543Y-61811D02*
D03*
X283543Y-111024D02*
D03*
X263543Y-12992D02*
D03*
D30*
X253543Y-61811D02*
D03*
X243543D02*
D03*
X233543D02*
D03*
X223543D02*
D03*
X213543D02*
D03*
X203543D02*
D03*
X193543D02*
D03*
X183543D02*
D03*
X173543D02*
D03*
X163543D02*
D03*
X153543D02*
D03*
X263543Y-92913D02*
D03*
X253543D02*
D03*
X243543D02*
D03*
X233543D02*
D03*
X223543D02*
D03*
X213543D02*
D03*
X203543D02*
D03*
X193543D02*
D03*
X183543D02*
D03*
X173543D02*
D03*
X163543D02*
D03*
X153543D02*
D03*
X273543Y-111024D02*
D03*
X263543D02*
D03*
X253543D02*
D03*
X243543D02*
D03*
X233543D02*
D03*
X223543D02*
D03*
X213543D02*
D03*
X203543D02*
D03*
X193543D02*
D03*
X183543D02*
D03*
X173543D02*
D03*
X163543D02*
D03*
X153543D02*
D03*
X143543D02*
D03*
X133543D02*
D03*
X283543Y-171653D02*
D03*
X273543D02*
D03*
X263543D02*
D03*
X253543D02*
D03*
X243543D02*
D03*
X233543D02*
D03*
X223543D02*
D03*
X213543D02*
D03*
X203543D02*
D03*
X193543D02*
D03*
X183543D02*
D03*
X173543D02*
D03*
X163543D02*
D03*
X153543D02*
D03*
X143543D02*
D03*
X133543D02*
D03*
X253543Y-12992D02*
D03*
X243543D02*
D03*
X233543D02*
D03*
X223543D02*
D03*
X213543D02*
D03*
X203543D02*
D03*
X193543D02*
D03*
X183543D02*
D03*
X173543D02*
D03*
X163543D02*
D03*
X153543D02*
D03*
X263543Y-44094D02*
D03*
X253543D02*
D03*
X243543D02*
D03*
X233543D02*
D03*
X223543D02*
D03*
X213543D02*
D03*
X203543D02*
D03*
X193543D02*
D03*
X183543D02*
D03*
X173543D02*
D03*
X163543D02*
D03*
X153543D02*
D03*
D31*
X264173Y-21260D02*
D03*
X265417Y-161811D02*
D03*
X285118D02*
D03*
X270168Y-76144D02*
D03*
X273090Y-73782D02*
D03*
X270962Y-81496D02*
D03*
X271654Y-124409D02*
D03*
X290158Y-156693D02*
D03*
X291779Y-151969D02*
D03*
X121653Y-164559D02*
D03*
X121847Y-145276D02*
D03*
X120472Y-155317D02*
D03*
X256299Y-105119D02*
D03*
X262205Y-99606D02*
D03*
X221654Y-72441D02*
D03*
X194095Y-69685D02*
D03*
X205669D02*
D03*
X253543Y-70079D02*
D03*
X244488Y-162205D02*
D03*
X246850Y-120079D02*
D03*
X190945Y-130315D02*
D03*
X171260Y-119685D02*
D03*
X181496Y-120079D02*
D03*
X238976Y-130315D02*
D03*
X255118Y-21260D02*
D03*
X170866Y-68740D02*
D03*
X168898Y-76378D02*
D03*
X154724Y-163386D02*
D03*
X199606Y-127166D02*
D03*
X216141D02*
D03*
X216535Y-160236D02*
D03*
X144488Y-29528D02*
D03*
X163386D02*
D03*
X138189Y-59646D02*
D03*
X114136Y-196850D02*
D03*
X208661Y-188976D02*
D03*
X117323Y-185827D02*
D03*
X201181Y-185433D02*
D03*
X115669Y-181102D02*
D03*
X135827Y-201575D02*
D03*
X205669Y-195433D02*
D03*
X223228Y-184646D02*
D03*
X218504Y-180709D02*
D03*
X114136Y-183071D02*
D03*
X196063Y-202362D02*
D03*
X117323Y-188583D02*
D03*
X222835Y-162598D02*
D03*
X240551Y-206299D02*
D03*
X258661Y-161024D02*
D03*
X248425Y-203937D02*
D03*
X114136Y-185827D02*
D03*
X145669Y-187008D02*
D03*
X155905Y-209055D02*
D03*
X255512Y-200394D02*
D03*
X114136Y-188583D02*
D03*
X181496Y-160630D02*
D03*
X142520Y-208268D02*
D03*
X175669Y-194961D02*
D03*
X149606Y-205512D02*
D03*
X117323Y-183071D02*
D03*
X114136Y-191339D02*
D03*
X172047Y-205906D02*
D03*
X117323Y-191339D02*
D03*
Y-196850D02*
D03*
X255118Y-162598D02*
D03*
X114136Y-194095D02*
D03*
X117323D02*
D03*
X165669Y-198110D02*
D03*
X258661Y-150000D02*
D03*
X159449Y-98819D02*
D03*
X140157Y-205512D02*
D03*
X142913Y-183465D02*
D03*
X218504Y-124016D02*
D03*
X167618Y-99213D02*
D03*
X188583Y-98032D02*
D03*
X178347D02*
D03*
X163386Y-187008D02*
D03*
X158661Y-194882D02*
D03*
X168898Y-180315D02*
D03*
X148425Y-197244D02*
D03*
X233543Y-161811D02*
D03*
X213543Y-162598D02*
D03*
X228740Y-152756D02*
D03*
X228346Y-183446D02*
D03*
X198425Y-180709D02*
D03*
M02*
